solid Visualization Toolkit generated SLA File
 facet normal 0.70890564583861693 0 0.7053033285744037
  outer loop
   vertex 0.033046837896108627 -0.048159640282392502 0.060598645359277725
   vertex 0.03245895728468895 0.048355638980865479 0.061189528554677963
   vertex 0.03245895728468895 -0.048345968127250671 0.061189528554677963
  endloop
 endfacet
 facet normal 0.70890341822383363 -2.7275994906958606e-08 0.70530556755959584
  outer loop
   vertex 0.03245895728468895 0.048355638980865479 0.061189528554677963
   vertex 0.033046837896108627 -0.048159640282392502 0.060598645359277725
   vertex 0.033046837896108627 0.048169311136007309 0.060598649084568024
  endloop
 endfacet
 facet normal 0.72271369369093397 -0.12404732933066065 0.67992439067703525
  outer loop
   vertex 0.033046837896108627 -0.048159640282392502 0.060598645359277725
   vertex 0.03245895728468895 -0.048345968127250671 0.061189528554677963
   vertex 0.032947815954685211 -0.048845957964658737 0.060578685253858566
  endloop
 endfacet
 facet normal 0.90203589083652602 -0.29536622439354449 -0.31478571303389402
  outer loop
   vertex 0.042238067835569382 -0.038363147526979446 0.0066597866825759411
   vertex 0.041872557252645493 -0.039217568933963776 0.006414107047021389
   vertex 0.041872557252645493 -0.038588330149650574 0.0058236867189407349
  endloop
 endfacet
 facet normal 0.81191775678414246 -2.6938851521380317e-08 0.5837718357531525
  outer loop
   vertex 0.041787117719650269 -0.040057539939880371 0.055100284516811371
   vertex 0.041309986263513565 0.040368840098381042 0.055763889104127884
   vertex 0.041309986263513565 -0.04035915806889534 0.055763885378837585
  endloop
 endfacet
 facet normal 0.81191774513337212 -2.7141670915744094e-08 0.5837718519572006
  outer loop
   vertex 0.041309986263513565 0.040368840098381042 0.055763889104127884
   vertex 0.041787117719650269 -0.040057539939880371 0.055100284516811371
   vertex 0.041787117719650269 0.040067210793495178 0.055100288242101669
  endloop
 endfacet
 facet normal 0.92434002066156351 -0.38153757370030722 -0.0049604494013061468
  outer loop
   vertex 0.041872557252645493 -0.039217568933963776 0.006414107047021389
   vertex 0.041787117719650269 -0.040057539939880371 0.055100284516811371
   vertex 0.041433278471231461 -0.040916141122579575 0.05520528182387352
  endloop
 endfacet
 facet normal 0 -0.70711468374878661 0.70709887853598918
  outer loop
   vertex 0.027971686795353889 -0.048345968127250671 0.062008507549762726
   vertex 0.025117557495832443 -0.048845957964658737 0.061508506536483765
   vertex 0.027980616316199303 -0.048845957964658737 0.061508506536483765
  endloop
 endfacet
 facet normal 0 -0.70711468374878661 0.70709887853598918
  outer loop
   vertex 0.025117557495832443 -0.048845957964658737 0.061508506536483765
   vertex 0.027971686795353889 -0.048345968127250671 0.062008507549762726
   vertex 0.025160236284136772 -0.048345968127250671 0.062008507549762726
  endloop
 endfacet
 facet normal -0.11983423580206982 -0.69687842343387996 0.70710693595950802
  outer loop
   vertex 0.025117557495832443 -0.048845957964658737 0.061508506536483765
   vertex -0.033035963773727417 -0.038338620215654373 0.062008507549762726
   vertex -0.033035963773727417 -0.038845960050821304 0.061508506536483765
  endloop
 endfacet
 facet normal -0.11983566550894617 -0.69688597075201408 0.70709925543805452
  outer loop
   vertex -0.033035963773727417 -0.038338620215654373 0.062008507549762726
   vertex 0.025117557495832443 -0.048845957964658737 0.061508506536483765
   vertex 0.025160236284136772 -0.048345968127250671 0.062008507549762726
  endloop
 endfacet
 facet normal -0.40762988764879327 -0.913147236044348 0
  outer loop
   vertex -0.010634583421051502 0.018855640664696693 0.062008507549762726
   vertex -0.033035963773727417 0.028855640441179276 0.05830828845500946
   vertex -0.010634583421051502 0.018855640664696693 0.05830828845500946
  endloop
 endfacet
 facet normal -0.40762988764879327 -0.913147236044348 0
  outer loop
   vertex -0.033035963773727417 0.028855640441179276 0.05830828845500946
   vertex -0.010634583421051502 0.018855640664696693 0.062008507549762726
   vertex -0.033035963773727417 0.028855640441179276 0.062008507549762726
  endloop
 endfacet
 facet normal -1 0 0
  outer loop
   vertex -0.033035963773727417 0.038348302245140076 0.062008507549762726
   vertex -0.033035963773727417 0.028855640441179276 0.05830828845500946
   vertex -0.033035963773727417 0.028855640441179276 0.062008507549762726
  endloop
 endfacet
 facet normal -1 0 0
  outer loop
   vertex -0.033035963773727417 0.028855640441179276 0.05830828845500946
   vertex -0.033035963773727417 0.038348302245140076 0.062008507549762726
   vertex -0.033035963773727417 0.038175959140062332 0.05830828845500946
  endloop
 endfacet
 facet normal -1 0 -0
  outer loop
   vertex -0.033035963773727417 0.038175959140062332 0.05830828845500946
   vertex -0.033035963773727417 0.038348302245140076 0.062008507549762726
   vertex -0.033035963773727417 0.038855642080307007 0.058808289468288422
  endloop
 endfacet
 facet normal -1 0 0
  outer loop
   vertex -0.033035963773727417 0.038855642080307007 0.058808289468288422
   vertex -0.033035963773727417 0.038348302245140076 0.062008507549762726
   vertex -0.033035963773727417 0.038855642080307007 0.061508510261774063
  endloop
 endfacet
 facet normal 0 1 0
  outer loop
   vertex 0.025999857112765312 0.04885563999414444 0.05830828845500946
   vertex 0.03187146782875061 0.04885563999414444 -0.0026671411469578743
   vertex 0.028356017544865608 0.04885563999414444 -0.0026671411469578743
  endloop
 endfacet
 facet normal 0 1 0
  outer loop
   vertex 0.03187146782875061 0.04885563999414444 -0.0026671411469578743
   vertex 0.025999857112765312 0.04885563999414444 0.05830828845500946
   vertex 0.033471055328845978 0.04885563999414444 0.057963717728853226
  endloop
 endfacet
 facet normal -0 1 0
  outer loop
   vertex 0.033471055328845978 0.04885563999414444 0.057963717728853226
   vertex 0.025999857112765312 0.04885563999414444 0.05830828845500946
   vertex 0.032947815954685211 0.04885563999414444 0.060578688979148865
  endloop
 endfacet
 facet normal 0 1 -0
  outer loop
   vertex 0.032947815954685211 0.04885563999414444 0.060578688979148865
   vertex 0.025999857112765312 0.04885563999414444 0.05830828845500946
   vertex 0.025117557495832443 0.04885563999414444 0.058808289468288422
  endloop
 endfacet
 facet normal 0 1 0
  outer loop
   vertex 0.032947815954685211 0.04885563999414444 0.060578688979148865
   vertex 0.025117557495832443 0.04885563999414444 0.058808289468288422
   vertex 0.025117557495832443 0.04885563999414444 0.061508510261774063
  endloop
 endfacet
 facet normal -0 1 0
  outer loop
   vertex 0.032947815954685211 0.04885563999414444 0.060578688979148865
   vertex 0.025117557495832443 0.04885563999414444 0.061508510261774063
   vertex 0.027980616316199303 0.04885563999414444 0.061508510261774063
  endloop
 endfacet
 facet normal -0.99926161245716072 0 -0.038421736940368892
  outer loop
   vertex 0.025499487295746803 0.04824163019657135 0.05830828845500946
   vertex 0.027844017371535301 -0.048231959342956543 -0.002667583292350173
   vertex 0.025499487295746803 -0.048231959342956543 0.05830828845500946
  endloop
 endfacet
 facet normal -0.99926877548081849 -0.00011832361512223128 -0.038234805460308025
  outer loop
   vertex 0.027844017371535301 -0.048231959342956543 -0.002667583292350173
   vertex 0.025499487295746803 0.04824163019657135 0.05830828845500946
   vertex 0.027838297188282013 4.8384317778982222e-06 -0.0026673623360693455
  endloop
 endfacet
 facet normal -0.99926160541139919 0.00011832359241989874 -0.038421737989846667
  outer loop
   vertex 0.027838297188282013 4.8384317778982222e-06 -0.0026673623360693455
   vertex 0.025499487295746803 0.04824163019657135 0.05830828845500946
   vertex 0.027844017371535301 0.04824163019657135 -0.0026675811968743801
  endloop
 endfacet
 facet normal -0.45749010018529224 0.37281854234621531 -0.80728504427822434
  outer loop
   vertex 0.025999857112765312 0.04885563999414444 0.05830828845500946
   vertex 0.025499487295746803 0.04824163019657135 0.05830828845500946
   vertex 0.025117557495832443 0.04885563999414444 0.058808289468288422
  endloop
 endfacet
 facet normal 0 0 1
  outer loop
   vertex 0.025160236284136772 -0.048345968127250671 0.062008507549762726
   vertex -0.033035963773727417 -0.028856769204139709 0.062008507549762726
   vertex -0.033035963773727417 -0.038338620215654373 0.062008507549762726
  endloop
 endfacet
 facet normal 0 0 1
  outer loop
   vertex -0.033035963773727417 -0.028856769204139709 0.062008507549762726
   vertex 0.025160236284136772 -0.048345968127250671 0.062008507549762726
   vertex -0.010634583421051502 -0.018856769427657127 0.062008507549762726
  endloop
 endfacet
 facet normal 0 0 1
  outer loop
   vertex -0.010634583421051502 -0.018856769427657127 0.062008507549762726
   vertex 0.025160236284136772 -0.048345968127250671 0.062008507549762726
   vertex -0.010634583421051502 0.018855640664696693 0.062008507549762726
  endloop
 endfacet
 facet normal 0 0 1
  outer loop
   vertex -0.010634583421051502 0.018855640664696693 0.062008507549762726
   vertex 0.025160236284136772 -0.048345968127250671 0.062008507549762726
   vertex 0.0036716593895107508 -0.0045000109821557999 0.062008507549762726
  endloop
 endfacet
 facet normal 0 0 1
  outer loop
   vertex -0.010634583421051502 0.018855640664696693 0.062008507549762726
   vertex 0.0036716593895107508 -0.0045000109821557999 0.062008507549762726
   vertex 0.0027725554537028074 -0.0023293825797736645 0.062008507549762726
  endloop
 endfacet
 facet normal 0 0 1
  outer loop
   vertex -0.010634583421051502 0.018855640664696693 0.062008507549762726
   vertex 0.0027725554537028074 -0.0023293825797736645 0.062008507549762726
   vertex 0.0024658879265189171 -1.1104034136621976e-08 0.062008507549762726
  endloop
 endfacet
 facet normal 0 0 1
  outer loop
   vertex 0.0036716593895107508 -0.0045000109821557999 0.062008507549762726
   vertex 0.025160236284136772 -0.048345968127250671 0.062008507549762726
   vertex 0.0051019270904362202 -0.0063639720901846886 0.062008507549762726
  endloop
 endfacet
 facet normal 0 0 1
  outer loop
   vertex 0.0051019270904362202 -0.0063639720901846886 0.062008507549762726
   vertex 0.025160236284136772 -0.048345968127250671 0.062008507549762726
   vertex 0.0069658877328038216 -0.0077942395582795143 0.062008507549762726
  endloop
 endfacet
 facet normal 0 0 1
  outer loop
   vertex 0.0069658877328038216 -0.0077942395582795143 0.062008507549762726
   vertex 0.025160236284136772 -0.048345968127250671 0.062008507549762726
   vertex 0.0091365166008472443 -0.008693343959748745 0.062008507549762726
  endloop
 endfacet
 facet normal 0 0 1
  outer loop
   vertex 0.0091365166008472443 -0.008693343959748745 0.062008507549762726
   vertex 0.025160236284136772 -0.048345968127250671 0.062008507549762726
   vertex 0.011465887539088726 -0.0090000107884407043 0.062008507549762726
  endloop
 endfacet
 facet normal 0 0 1
  outer loop
   vertex 0.011465887539088726 -0.0090000107884407043 0.062008507549762726
   vertex 0.025160236284136772 -0.048345968127250671 0.062008507549762726
   vertex 0.013795259408652782 -0.008693343959748745 0.062008507549762726
  endloop
 endfacet
 facet normal 0 0 1
  outer loop
   vertex 0.013795259408652782 -0.008693343959748745 0.062008507549762726
   vertex 0.025160236284136772 -0.048345968127250671 0.062008507549762726
   vertex 0.015965888276696205 -0.0077942395582795143 0.062008507549762726
  endloop
 endfacet
 facet normal 0 0 1
  outer loop
   vertex 0.015965888276696205 -0.0077942395582795143 0.062008507549762726
   vertex 0.025160236284136772 -0.048345968127250671 0.062008507549762726
   vertex 0.017829848453402519 -0.0063639720901846886 0.062008507549762726
  endloop
 endfacet
 facet normal 0 0 1
  outer loop
   vertex 0.017829848453402519 -0.0063639720901846886 0.062008507549762726
   vertex 0.025160236284136772 -0.048345968127250671 0.062008507549762726
   vertex 0.019260115921497345 -0.0045000109821557999 0.062008507549762726
  endloop
 endfacet
 facet normal 0 0 1
  outer loop
   vertex 0.019260115921497345 -0.0045000109821557999 0.062008507549762726
   vertex 0.025160236284136772 -0.048345968127250671 0.062008507549762726
   vertex 0.020159220322966576 -0.0023293825797736645 0.062008507549762726
  endloop
 endfacet
 facet normal 0 0 1
  outer loop
   vertex 0.020159220322966576 -0.0023293825797736645 0.062008507549762726
   vertex 0.025160236284136772 -0.048345968127250671 0.062008507549762726
   vertex 0.02046588808298111 -1.1104034136621976e-08 0.062008507549762726
  endloop
 endfacet
 facet normal 0 0 1
  outer loop
   vertex -0.010634583421051502 0.018855640664696693 0.062008507549762726
   vertex -0.033035963773727417 0.038348302245140076 0.062008507549762726
   vertex -0.033035963773727417 0.028855640441179276 0.062008507549762726
  endloop
 endfacet
 facet normal 0 -0 1
  outer loop
   vertex -0.033035963773727417 0.038348302245140076 0.062008507549762726
   vertex -0.010634583421051502 0.018855640664696693 0.062008507549762726
   vertex 0.025160236284136772 0.048355638980865479 0.062008507549762726
  endloop
 endfacet
 facet normal -0 0 1
  outer loop
   vertex 0.025160236284136772 0.048355638980865479 0.062008507549762726
   vertex -0.010634583421051502 0.018855640664696693 0.062008507549762726
   vertex 0.0036716593895107508 0.0044999890960752964 0.062008507549762726
  endloop
 endfacet
 facet normal 0 0 1
  outer loop
   vertex 0.0036716593895107508 0.0044999890960752964 0.062008507549762726
   vertex -0.010634583421051502 0.018855640664696693 0.062008507549762726
   vertex 0.0027725554537028074 0.0023293602280318737 0.062008507549762726
  endloop
 endfacet
 facet normal 0 0 1
  outer loop
   vertex 0.0027725554537028074 0.0023293602280318737 0.062008507549762726
   vertex -0.010634583421051502 0.018855640664696693 0.062008507549762726
   vertex 0.0024658879265189171 -1.1104034136621976e-08 0.062008507549762726
  endloop
 endfacet
 facet normal 0 0 1
  outer loop
   vertex 0.025160236284136772 0.048355638980865479 0.062008507549762726
   vertex 0.0036716593895107508 0.0044999890960752964 0.062008507549762726
   vertex 0.0051019270904362202 0.0063639497384428978 0.062008507549762726
  endloop
 endfacet
 facet normal 0 0 1
  outer loop
   vertex 0.025160236284136772 0.048355638980865479 0.062008507549762726
   vertex 0.0051019270904362202 0.0063639497384428978 0.062008507549762726
   vertex 0.0069658877328038216 0.0077942176721990108 0.062008507549762726
  endloop
 endfacet
 facet normal 0 0 1
  outer loop
   vertex 0.025160236284136772 0.048355638980865479 0.062008507549762726
   vertex 0.0069658877328038216 0.0077942176721990108 0.062008507549762726
   vertex 0.0091365166008472443 0.0086933216080069542 0.062008507549762726
  endloop
 endfacet
 facet normal 0 0 1
  outer loop
   vertex 0.025160236284136772 0.048355638980865479 0.062008507549762726
   vertex 0.0091365166008472443 0.0086933216080069542 0.062008507549762726
   vertex 0.011465887539088726 0.0089999884366989136 0.062008507549762726
  endloop
 endfacet
 facet normal -0 0 1
  outer loop
   vertex 0.025160236284136772 0.048355638980865479 0.062008507549762726
   vertex 0.011465887539088726 0.0089999884366989136 0.062008507549762726
   vertex 0.013795259408652782 0.0086933216080069542 0.062008507549762726
  endloop
 endfacet
 facet normal -0 0 1
  outer loop
   vertex 0.025160236284136772 0.048355638980865479 0.062008507549762726
   vertex 0.013795259408652782 0.0086933216080069542 0.062008507549762726
   vertex 0.015965888276696205 0.0077942176721990108 0.062008507549762726
  endloop
 endfacet
 facet normal -0 0 1
  outer loop
   vertex 0.025160236284136772 0.048355638980865479 0.062008507549762726
   vertex 0.015965888276696205 0.0077942176721990108 0.062008507549762726
   vertex 0.017829848453402519 0.0063639497384428978 0.062008507549762726
  endloop
 endfacet
 facet normal -0 0 1
  outer loop
   vertex 0.025160236284136772 0.048355638980865479 0.062008507549762726
   vertex 0.017829848453402519 0.0063639497384428978 0.062008507549762726
   vertex 0.019260115921497345 0.0044999890960752964 0.062008507549762726
  endloop
 endfacet
 facet normal -0 0 1
  outer loop
   vertex 0.025160236284136772 0.048355638980865479 0.062008507549762726
   vertex 0.019260115921497345 0.0044999890960752964 0.062008507549762726
   vertex 0.020159220322966576 0.0023293602280318737 0.062008507549762726
  endloop
 endfacet
 facet normal -0 0 1
  outer loop
   vertex 0.025160236284136772 0.048355638980865479 0.062008507549762726
   vertex 0.020159220322966576 0.0023293602280318737 0.062008507549762726
   vertex 0.02046588808298111 -1.1104034136621976e-08 0.062008507549762726
  endloop
 endfacet
 facet normal -0 0 1
  outer loop
   vertex 0.025160236284136772 0.048355638980865479 0.062008507549762726
   vertex 0.02046588808298111 -1.1104034136621976e-08 0.062008507549762726
   vertex 0.025160236284136772 -0.048345968127250671 0.062008507549762726
  endloop
 endfacet
 facet normal 0 0 1
  outer loop
   vertex 0.025160236284136772 0.048355638980865479 0.062008507549762726
   vertex 0.025160236284136772 -0.048345968127250671 0.062008507549762726
   vertex 0.027971686795353889 -0.048345968127250671 0.062008507549762726
  endloop
 endfacet
 facet normal 0 -0 1
  outer loop
   vertex 0.025160236284136772 0.048355638980865479 0.062008507549762726
   vertex 0.027971686795353889 -0.048345968127250671 0.062008507549762726
   vertex 0.027971686795353889 0.048355638980865479 0.062008507549762726
  endloop
 endfacet
 facet normal 0.97011188958312145 0.1456108190142858 0.1941144277879793
  outer loop
   vertex 0.033471055328845978 0.048169311136007309 0.058478567749261856
   vertex 0.032947815954685211 0.04885563999414444 0.060578688979148865
   vertex 0.033046837896108627 0.048169311136007309 0.060598649084568024
  endloop
 endfacet
 facet normal 0.97011161812979296 0.14561418338939394 0.19411326066354803
  outer loop
   vertex 0.032947815954685211 0.04885563999414444 0.060578688979148865
   vertex 0.033471055328845978 0.048169311136007309 0.058478567749261856
   vertex 0.033471055328845978 0.04885563999414444 0.057963717728853226
  endloop
 endfacet
 facet normal -0.763232434606403 8.7576681908462629e-05 -0.64612401525953789
  outer loop
   vertex 0.028355637565255165 0.04824163019657135 -0.003271931316703558
   vertex 0.027838297188282013 4.8384317778982222e-06 -0.0026673623360693455
   vertex 0.027844017371535301 0.04824163019657135 -0.0026675811968743801
  endloop
 endfacet
 facet normal -0.75636379304342505 -8.6697311532007033e-05 -0.65415120962705486
  outer loop
   vertex 0.028355637565255165 0.04824163019657135 -0.003271931316703558
   vertex 0.027844017371535301 -0.048231959342956543 -0.002667583292350173
   vertex 0.027838297188282013 4.8384317778982222e-06 -0.0026673623360693455
  endloop
 endfacet
 facet normal -0.76323243753327541 1.4034278654214393e-08 -0.64612401773731853
  outer loop
   vertex 0.028355637565255165 0.04824163019657135 -0.003271931316703558
   vertex 0.028355637565255165 -0.048231959342956543 -0.0032719334121793509
   vertex 0.027844017371535301 -0.048231959342956543 -0.002667583292350173
  endloop
 endfacet
 facet normal 0.92434002067290599 0.38153757367591806 -0.004960449163643188
  outer loop
   vertex 0.041433278471231461 0.040925811976194382 0.055205285549163818
   vertex 0.041787117719650269 0.040067210793495178 0.055100288242101669
   vertex 0.041872557252645493 0.039227239787578583 0.0064141084440052509
  endloop
 endfacet
 facet normal 0.91992766079095178 0.39205430767916932 -0.0051496351224837996
  outer loop
   vertex 0.041787117719650269 0.040067210793495178 0.055100288242101669
   vertex 0.042238067835569382 0.038372822105884552 0.0066597885452210903
   vertex 0.041872557252645493 0.039227239787578583 0.0064141084440052509
  endloop
 endfacet
 facet normal -0.1198337874631514 0.69687582751172616 0.70710957030157851
  outer loop
   vertex 0.025160236284136772 0.048355638980865479 0.062008507549762726
   vertex -0.033035963773727417 0.038855642080307007 0.061508510261774063
   vertex -0.033035963773727417 0.038348302245140076 0.062008507549762726
  endloop
 endfacet
 facet normal -0.11983377017265104 0.69687571563428419 0.70710968349005965
  outer loop
   vertex -0.033035963773727417 0.038855642080307007 0.061508510261774063
   vertex 0.025160236284136772 0.048355638980865479 0.062008507549762726
   vertex 0.025117557495832443 0.04885563999414444 0.061508510261774063
  endloop
 endfacet
 facet normal 0 0.70710414699913426 0.70710941536414762
  outer loop
   vertex 0.025160236284136772 0.048355638980865479 0.062008507549762726
   vertex 0.027980616316199303 0.04885563999414444 0.061508510261774063
   vertex 0.025117557495832443 0.04885563999414444 0.061508510261774063
  endloop
 endfacet
 facet normal -0 0.70710414699913426 0.70710941536414762
  outer loop
   vertex 0.027980616316199303 0.04885563999414444 0.061508510261774063
   vertex 0.025160236284136772 0.048355638980865479 0.062008507549762726
   vertex 0.027971686795353889 0.048355638980865479 0.062008507549762726
  endloop
 endfacet
 facet normal 0.9199282734042874 -0.39205287055881943 -0.0051496094993817307
  outer loop
   vertex 0.042238067835569382 -0.038363147526979446 0.0066597866825759411
   vertex 0.041787117719650269 -0.040057539939880371 0.055100284516811371
   vertex 0.041872557252645493 -0.039217568933963776 0.006414107047021389
  endloop
 endfacet
 facet normal 0 -1 0
  outer loop
   vertex 0.033471055328845978 -0.048845957964658737 0.057963717728853226
   vertex 0.028356017544865608 -0.048845957964658737 -0.0026671432424336672
   vertex 0.03187146782875061 -0.048845957964658737 -0.0026671432424336672
  endloop
 endfacet
 facet normal -0 -1 0
  outer loop
   vertex 0.028356017544865608 -0.048845957964658737 -0.0026671432424336672
   vertex 0.033471055328845978 -0.048845957964658737 0.057963717728853226
   vertex 0.025999857112765312 -0.048845957964658737 0.05830828845500946
  endloop
 endfacet
 facet normal 0 -1 0
  outer loop
   vertex 0.025999857112765312 -0.048845957964658737 0.05830828845500946
   vertex 0.033471055328845978 -0.048845957964658737 0.057963717728853226
   vertex 0.032947815954685211 -0.048845957964658737 0.060578685253858566
  endloop
 endfacet
 facet normal 0 -1 0
  outer loop
   vertex 0.025999857112765312 -0.048845957964658737 0.05830828845500946
   vertex 0.032947815954685211 -0.048845957964658737 0.060578685253858566
   vertex 0.025117557495832443 -0.048845957964658737 0.058808285742998123
  endloop
 endfacet
 facet normal -0 -1 0
  outer loop
   vertex 0.025117557495832443 -0.048845957964658737 0.058808285742998123
   vertex 0.032947815954685211 -0.048845957964658737 0.060578685253858566
   vertex 0.025117557495832443 -0.048845957964658737 0.061508506536483765
  endloop
 endfacet
 facet normal 0 -1 0
  outer loop
   vertex 0.025117557495832443 -0.048845957964658737 0.061508506536483765
   vertex 0.032947815954685211 -0.048845957964658737 0.060578685253858566
   vertex 0.027980616316199303 -0.048845957964658737 0.061508506536483765
  endloop
 endfacet
 facet normal 0.79729602060842719 -0.41300522659923833 -0.44016558057585364
  outer loop
   vertex 0.031855635344982147 -0.048231959342956543 -0.0032719334121793509
   vertex 0.041872557252645493 -0.039217568933963776 0.006414107047021389
   vertex 0.03187146782875061 -0.048845957964658737 -0.0026671432424336672
  endloop
 endfacet
 facet normal 0.79729601196056554 -0.4130084457851132 -0.44016257567169781
  outer loop
   vertex 0.041872557252645493 -0.039217568933963776 0.006414107047021389
   vertex 0.031855635344982147 -0.048231959342956543 -0.0032719334121793509
   vertex 0.041872557252645493 -0.038588330149650574 0.0058236867189407349
  endloop
 endfacet
 facet normal 0.13052630023959277 0.99144484715276204 0
  outer loop
   vertex 0.0091365166008472443 -0.0086933430284261703 0.05830828845500946
   vertex 0.011465887539088726 -0.0090000107884407043 0.062008507549762726
   vertex 0.011465887539088726 -0.0090000107884407043 0.05830828845500946
  endloop
 endfacet
 facet normal 0.13052591059630847 0.99144489845020756 2.4954063307313406e-07
  outer loop
   vertex 0.011465887539088726 -0.0090000107884407043 0.062008507549762726
   vertex 0.0091365166008472443 -0.0086933430284261703 0.05830828845500946
   vertex 0.0091365166008472443 -0.008693343959748745 0.062008507549762726
  endloop
 endfacet
 facet normal -0.13052624894206252 0.99144485390621429 0
  outer loop
   vertex 0.011465887539088726 -0.0090000107884407043 0.062008507549762726
   vertex 0.013795259408652782 -0.0086933430284261703 0.05830828845500946
   vertex 0.011465887539088726 -0.0090000107884407043 0.05830828845500946
  endloop
 endfacet
 facet normal -0.13052585929892604 0.99144490520361972 2.4954063477292674e-07
  outer loop
   vertex 0.013795259408652782 -0.0086933430284261703 0.05830828845500946
   vertex 0.011465887539088726 -0.0090000107884407043 0.062008507549762726
   vertex 0.013795259408652782 -0.008693343959748745 0.062008507549762726
  endloop
 endfacet
 facet normal -0.60876156831101247 -0.79335323340080144 -9.9841084674962678e-08
  outer loop
   vertex 0.017829848453402519 0.0063639497384428978 0.062008507549762726
   vertex 0.015965888276696205 0.0077942176721990108 0.05830828845500946
   vertex 0.017829848453402519 0.0063639502041041851 0.05830828845500946
  endloop
 endfacet
 facet normal -0.60876169305890726 -0.79335313767833104 0
  outer loop
   vertex 0.015965888276696205 0.0077942176721990108 0.05830828845500946
   vertex 0.017829848453402519 0.0063639497384428978 0.062008507549762726
   vertex 0.015965888276696205 0.0077942176721990108 0.062008507549762726
  endloop
 endfacet
 facet normal -0.79335330685125416 -0.60876147258854996 0
  outer loop
   vertex 0.017829848453402519 0.0063639497384428978 0.062008507549762726
   vertex 0.019260115921497345 0.0044999890960752964 0.05830828845500946
   vertex 0.019260115921497345 0.0044999890960752964 0.062008507549762726
  endloop
 endfacet
 facet normal -0.79335338030166569 -0.60876137686610388 -7.6610762540158251e-08
  outer loop
   vertex 0.019260115921497345 0.0044999890960752964 0.05830828845500946
   vertex 0.017829848453402519 0.0063639497384428978 0.062008507549762726
   vertex 0.017829848453402519 0.0063639502041041851 0.05830828845500946
  endloop
 endfacet
 facet normal -0.92387945946018957 -0.38268360872599111 -2.4079782481474767e-08
  outer loop
   vertex 0.019260115921497345 0.0044999890960752964 0.062008507549762726
   vertex 0.020159220322966576 0.0023293604608625174 0.05830828845500946
   vertex 0.020159220322966576 0.0023293602280318737 0.062008507549762726
  endloop
 endfacet
 facet normal -0.92387944494744179 -0.38268364376284364 -0
  outer loop
   vertex 0.020159220322966576 0.0023293604608625174 0.05830828845500946
   vertex 0.019260115921497345 0.0044999890960752964 0.062008507549762726
   vertex 0.019260115921497345 0.0044999890960752964 0.05830828845500946
  endloop
 endfacet
 facet normal -0.99144485000856741 -0.13052627854761326 -3.8899940660285353e-09
  outer loop
   vertex 0.020159220322966576 0.0023293602280318737 0.062008507549762726
   vertex 0.02046588808298111 -1.0993758792210429e-08 0.05830828845500946
   vertex 0.02046588808298111 -1.1104034136621976e-08 0.062008507549762726
  endloop
 endfacet
 facet normal -0.99144485089727286 -0.13052627179723011 -8.2131665985350224e-09
  outer loop
   vertex 0.02046588808298111 -1.0993758792210429e-08 0.05830828845500946
   vertex 0.020159220322966576 0.0023293602280318737 0.062008507549762726
   vertex 0.020159220322966576 0.0023293604608625174 0.05830828845500946
  endloop
 endfacet
 facet normal -0.38268343955318856 -0.92387952953387853 0
  outer loop
   vertex 0.015965888276696205 0.0077942176721990108 0.062008507549762726
   vertex 0.013795259408652782 0.0086933216080069542 0.05830828845500946
   vertex 0.015965888276696205 0.0077942176721990108 0.05830828845500946
  endloop
 endfacet
 facet normal -0.38268343955318856 -0.92387952953387853 0
  outer loop
   vertex 0.013795259408652782 0.0086933216080069542 0.05830828845500946
   vertex 0.015965888276696205 0.0077942176721990108 0.062008507549762726
   vertex 0.013795259408652782 0.0086933216080069542 0.062008507549762726
  endloop
 endfacet
 facet normal -0.13052624894206252 -0.99144485390621429 0
  outer loop
   vertex 0.013795259408652782 0.0086933216080069542 0.062008507549762726
   vertex 0.011465887539088726 0.0089999893680214882 0.05830828845500946
   vertex 0.013795259408652782 0.0086933216080069542 0.05830828845500946
  endloop
 endfacet
 facet normal -0.13052585929892604 -0.99144490520361972 -2.4954063477292674e-07
  outer loop
   vertex 0.011465887539088726 0.0089999893680214882 0.05830828845500946
   vertex 0.013795259408652782 0.0086933216080069542 0.062008507549762726
   vertex 0.011465887539088726 0.0089999884366989136 0.062008507549762726
  endloop
 endfacet
 facet normal 0.7933533324404517 0.60876143924006065 0
  outer loop
   vertex 0.0051019270904362202 -0.0063639720901846886 0.05830828845500946
   vertex 0.0036716593895107508 -0.0045000109821557999 0.062008507549762726
   vertex 0.0051019270904362202 -0.0063639720901846886 0.062008507549762726
  endloop
 endfacet
 facet normal 0.7933533324404517 0.60876143924006065 0
  outer loop
   vertex 0.0036716593895107508 -0.0045000109821557999 0.062008507549762726
   vertex 0.0051019270904362202 -0.0063639720901846886 0.05830828845500946
   vertex 0.0036716593895107508 -0.0045000109821557999 0.05830828845500946
  endloop
 endfacet
 facet normal 0.99144486283294619 -0.1305261811368145 -3.889991166546524e-09
  outer loop
   vertex 0.0024658879265189171 -1.0993758792210429e-08 0.05830828845500946
   vertex 0.0027725554537028074 0.0023293602280318737 0.062008507549762726
   vertex 0.0024658879265189171 -1.1104034136621976e-08 0.062008507549762726
  endloop
 endfacet
 facet normal 0.99144486372165019 -0.13052617438643621 -8.2131604725347205e-09
  outer loop
   vertex 0.0027725554537028074 0.0023293602280318737 0.062008507549762726
   vertex 0.0024658879265189171 -1.0993758792210429e-08 0.05830828845500946
   vertex 0.0027725554537028074 0.0023293604608625174 0.05830828845500946
  endloop
 endfacet
 facet normal 0.99144486387478803 0.13052617322323923 8.2131603923251109e-09
  outer loop
   vertex 0.0027725554537028074 -0.0023293823469430208 0.05830828845500946
   vertex 0.0024658879265189171 -1.1104034136621976e-08 0.062008507549762726
   vertex 0.0027725554537028074 -0.0023293825797736645 0.062008507549762726
  endloop
 endfacet
 facet normal 0.99144486298608403 0.13052617997361743 3.8899911248632651e-09
  outer loop
   vertex 0.0024658879265189171 -1.1104034136621976e-08 0.062008507549762726
   vertex 0.0027725554537028074 -0.0023293823469430208 0.05830828845500946
   vertex 0.0024658879265189171 -1.0993758792210429e-08 0.05830828845500946
  endloop
 endfacet
 facet normal 0.13052630023959277 -0.99144484715276204 0
  outer loop
   vertex 0.011465887539088726 0.0089999893680214882 0.05830828845500946
   vertex 0.0091365166008472443 0.0086933216080069542 0.062008507549762726
   vertex 0.0091365166008472443 0.0086933216080069542 0.05830828845500946
  endloop
 endfacet
 facet normal 0.13052591059630847 -0.99144489845020756 -2.4954063307313406e-07
  outer loop
   vertex 0.0091365166008472443 0.0086933216080069542 0.062008507549762726
   vertex 0.011465887539088726 0.0089999893680214882 0.05830828845500946
   vertex 0.011465887539088726 0.0089999884366989136 0.062008507549762726
  endloop
 endfacet
 facet normal 0.60876147258854685 -0.79335330685125005 -9.9841093918477616e-08
  outer loop
   vertex 0.0069658877328038216 0.0077942176721990108 0.05830828845500946
   vertex 0.0051019270904362202 0.0063639497384428978 0.062008507549762726
   vertex 0.0051019270904362202 0.0063639502041041851 0.05830828845500946
  endloop
 endfacet
 facet normal 0.6087615973364453 -0.79335321112880108 0
  outer loop
   vertex 0.0051019270904362202 0.0063639497384428978 0.062008507549762726
   vertex 0.0069658877328038216 0.0077942176721990108 0.05830828845500946
   vertex 0.0069658877328038216 0.0077942176721990108 0.062008507549762726
  endloop
 endfacet
 facet normal 0.38268343955318856 -0.92387952953387853 0
  outer loop
   vertex 0.0091365166008472443 0.0086933216080069542 0.05830828845500946
   vertex 0.0069658877328038216 0.0077942176721990108 0.062008507549762726
   vertex 0.0069658877328038216 0.0077942176721990108 0.05830828845500946
  endloop
 endfacet
 facet normal 0.38268343955318856 -0.92387952953387853 0
  outer loop
   vertex 0.0069658877328038216 0.0077942176721990108 0.062008507549762726
   vertex 0.0091365166008472443 0.0086933216080069542 0.05830828845500946
   vertex 0.0091365166008472443 0.0086933216080069542 0.062008507549762726
  endloop
 endfacet
 facet normal 0.92387950050840206 0.38268350962687908 0
  outer loop
   vertex 0.0036716593895107508 -0.0045000109821557999 0.05830828845500946
   vertex 0.0027725554537028074 -0.0023293825797736645 0.062008507549762726
   vertex 0.0036716593895107508 -0.0045000109821557999 0.062008507549762726
  endloop
 endfacet
 facet normal 0.92387951502114218 0.38268347459003083 2.4079774041174029e-08
  outer loop
   vertex 0.0027725554537028074 -0.0023293825797736645 0.062008507549762726
   vertex 0.0036716593895107508 -0.0045000109821557999 0.05830828845500946
   vertex 0.0027725554537028074 -0.0023293823469430208 0.05830828845500946
  endloop
 endfacet
 facet normal 0.38268327038033717 0.9238795996075222 2.3253485950635834e-07
  outer loop
   vertex 0.0069658877328038216 -0.0077942395582795143 0.05830828845500946
   vertex 0.0091365166008472443 -0.008693343959748745 0.062008507549762726
   vertex 0.0091365166008472443 -0.0086933430284261703 0.05830828845500946
  endloop
 endfacet
 facet normal 0.38268360872599116 0.92387945946018979 -0
  outer loop
   vertex 0.0091365166008472443 -0.008693343959748745 0.062008507549762726
   vertex 0.0069658877328038216 -0.0077942395582795143 0.05830828845500946
   vertex 0.0069658877328038216 -0.0077942395582795143 0.062008507549762726
  endloop
 endfacet
 facet normal 0.79335325899002707 -0.60876153496250318 0
  outer loop
   vertex 0.0036716593895107508 0.0044999890960752964 0.05830828845500946
   vertex 0.0051019270904362202 0.0063639497384428978 0.062008507549762726
   vertex 0.0036716593895107508 0.0044999890960752964 0.062008507549762726
  endloop
 endfacet
 facet normal 0.79335333244044937 -0.60876143924005888 -7.6610770389730245e-08
  outer loop
   vertex 0.0051019270904362202 0.0063639497384428978 0.062008507549762726
   vertex 0.0036716593895107508 0.0044999890960752964 0.05830828845500946
   vertex 0.0051019270904362202 0.0063639502041041851 0.05830828845500946
  endloop
 endfacet
 facet normal 0.60876147258854996 0.79335330685125416 0
  outer loop
   vertex 0.0051019270904362202 -0.0063639720901846886 0.05830828845500946
   vertex 0.0069658877328038216 -0.0077942395582795143 0.062008507549762726
   vertex 0.0069658877328038216 -0.0077942395582795143 0.05830828845500946
  endloop
 endfacet
 facet normal 0.60876147258854996 0.79335330685125416 -0
  outer loop
   vertex 0.0069658877328038216 -0.0077942395582795143 0.062008507549762726
   vertex 0.0051019270904362202 -0.0063639720901846886 0.05830828845500946
   vertex 0.0051019270904362202 -0.0063639720901846886 0.062008507549762726
  endloop
 endfacet
 facet normal 0.92387952953387853 -0.38268343955318856 -2.407977183653416e-08
  outer loop
   vertex 0.0027725554537028074 0.0023293604608625174 0.05830828845500946
   vertex 0.0036716593895107508 0.0044999890960752964 0.062008507549762726
   vertex 0.0027725554537028074 0.0023293602280318737 0.062008507549762726
  endloop
 endfacet
 facet normal 0.92387951502114229 -0.38268347459003088 0
  outer loop
   vertex 0.0036716593895107508 0.0044999890960752964 0.062008507549762726
   vertex 0.0027725554537028074 0.0023293604608625174 0.05830828845500946
   vertex 0.0036716593895107508 0.0044999890960752964 0.05830828845500946
  endloop
 endfacet
 facet normal -0.38268327038033717 0.9238795996075222 2.3253485950635834e-07
  outer loop
   vertex 0.013795259408652782 -0.008693343959748745 0.062008507549762726
   vertex 0.015965888276696205 -0.0077942395582795143 0.05830828845500946
   vertex 0.013795259408652782 -0.0086933430284261703 0.05830828845500946
  endloop
 endfacet
 facet normal -0.38268360872599116 0.92387945946018979 0
  outer loop
   vertex 0.015965888276696205 -0.0077942395582795143 0.05830828845500946
   vertex 0.013795259408652782 -0.008693343959748745 0.062008507549762726
   vertex 0.015965888276696205 -0.0077942395582795143 0.062008507549762726
  endloop
 endfacet
 facet normal -0.9914448510504108 0.1305262706340323 8.2131665253425729e-09
  outer loop
   vertex 0.02046588808298111 -1.1104034136621976e-08 0.062008507549762726
   vertex 0.020159220322966576 -0.0023293823469430208 0.05830828845500946
   vertex 0.020159220322966576 -0.0023293825797736645 0.062008507549762726
  endloop
 endfacet
 facet normal -0.99144485016170547 0.13052627738441533 3.8899940313624662e-09
  outer loop
   vertex 0.020159220322966576 -0.0023293823469430208 0.05830828845500946
   vertex 0.02046588808298111 -1.1104034136621976e-08 0.062008507549762726
   vertex 0.02046588808298111 -1.0993758792210429e-08 0.05830828845500946
  endloop
 endfacet
 facet normal -0.79335338030166802 0.60876137686610565 0
  outer loop
   vertex 0.019260115921497345 -0.0045000109821557999 0.062008507549762726
   vertex 0.017829848453402519 -0.0063639720901846886 0.05830828845500946
   vertex 0.017829848453402519 -0.0063639720901846886 0.062008507549762726
  endloop
 endfacet
 facet normal -0.79335338030166802 0.60876137686610565 0
  outer loop
   vertex 0.017829848453402519 -0.0063639720901846886 0.05830828845500946
   vertex 0.019260115921497345 -0.0045000109821557999 0.062008507549762726
   vertex 0.019260115921497345 -0.0045000109821557999 0.05830828845500946
  endloop
 endfacet
 facet normal -0.92387943043468967 0.38268367879970194 0
  outer loop
   vertex 0.020159220322966576 -0.0023293825797736645 0.062008507549762726
   vertex 0.019260115921497345 -0.0045000109821557999 0.05830828845500946
   vertex 0.019260115921497345 -0.0045000109821557999 0.062008507549762726
  endloop
 endfacet
 facet normal -0.92387944494744134 0.38268364376284353 2.4079784686115274e-08
  outer loop
   vertex 0.019260115921497345 -0.0045000109821557999 0.05830828845500946
   vertex 0.020159220322966576 -0.0023293825797736645 0.062008507549762726
   vertex 0.020159220322966576 -0.0023293823469430208 0.05830828845500946
  endloop
 endfacet
 facet normal -0.60876156831101558 0.79335323340080555 0
  outer loop
   vertex 0.015965888276696205 -0.0077942395582795143 0.062008507549762726
   vertex 0.017829848453402519 -0.0063639720901846886 0.05830828845500946
   vertex 0.015965888276696205 -0.0077942395582795143 0.05830828845500946
  endloop
 endfacet
 facet normal -0.60876156831101558 0.79335323340080555 0
  outer loop
   vertex 0.017829848453402519 -0.0063639720901846886 0.05830828845500946
   vertex 0.015965888276696205 -0.0077942395582795143 0.062008507549762726
   vertex 0.017829848453402519 -0.0063639720901846886 0.062008507549762726
  endloop
 endfacet
 facet normal -0.45748672137846064 -0.37282257479653863 -0.8072850967808497
  outer loop
   vertex 0.025999857112765312 -0.048845957964658737 0.05830828845500946
   vertex 0.025117557495832443 -0.048845957964658737 0.058808285742998123
   vertex 0.025499487295746803 -0.048231959342956543 0.05830828845500946
  endloop
 endfacet
 facet normal 0.12875113990501491 0.7143892702875807 0.6878016534373389
  outer loop
   vertex 0.027980616316199303 0.04885563999414444 0.061508510261774063
   vertex 0.03245895728468895 0.048355638980865479 0.061189528554677963
   vertex 0.032947815954685211 0.04885563999414444 0.060578688979148865
  endloop
 endfacet
 facet normal 0.67224080919201235 1.6080555917727284e-08 -0.7403325566641441
  outer loop
   vertex 0.041872557252645493 0.038598001003265381 0.0058236885815858841
   vertex 0.031855635344982147 -0.048231959342956543 -0.0032719334121793509
   vertex 0.031855635344982147 0.04824163019657135 -0.003271931316703558
  endloop
 endfacet
 facet normal 0.67224080071139147 1.7865557790275242e-08 -0.74033256436476369
  outer loop
   vertex 0.031855635344982147 -0.048231959342956543 -0.0032719334121793509
   vertex 0.041872557252645493 0.038598001003265381 0.0058236885815858841
   vertex 0.041872557252645493 -0.038588330149650574 0.0058236867189407349
  endloop
 endfacet
 facet normal 0.65956237631455927 0.45445642101225675 0.5987042952501862
  outer loop
   vertex 0.033471055328845978 0.048169311136007309 0.058478567749261856
   vertex 0.041309986263513565 0.040368840098381042 0.055763889104127884
   vertex 0.041433278471231461 0.040925811976194382 0.055205285549163818
  endloop
 endfacet
 facet normal 0.72271146460882729 0.12404506869396388 0.67992717246457612
  outer loop
   vertex 0.032947815954685211 0.04885563999414444 0.060578688979148865
   vertex 0.03245895728468895 0.048355638980865479 0.061189528554677963
   vertex 0.033046837896108627 0.048169311136007309 0.060598649084568024
  endloop
 endfacet
 facet normal 0 0.70173778588163194 -0.71243531626804191
  outer loop
   vertex 0.028356017544865608 0.04885563999414444 -0.0026671411469578743
   vertex 0.031855635344982147 0.04824163019657135 -0.003271931316703558
   vertex 0.028355637565255165 0.04824163019657135 -0.003271931316703558
  endloop
 endfacet
 facet normal 0 0.70173778588163194 -0.71243531626804191
  outer loop
   vertex 0.031855635344982147 0.04824163019657135 -0.003271931316703558
   vertex 0.028356017544865608 0.04885563999414444 -0.0026671411469578743
   vertex 0.03187146782875061 0.04885563999414444 -0.0026671411469578743
  endloop
 endfacet
 facet normal -0.40762988764879327 0.913147236044348 0
  outer loop
   vertex -0.033035963773727417 -0.028856769204139709 0.062008507549762726
   vertex -0.010634583421051502 -0.018856769427657127 0.05830828845500946
   vertex -0.033035963773727417 -0.028856769204139709 0.05830828845500946
  endloop
 endfacet
 facet normal -0.40762988764879327 0.913147236044348 0
  outer loop
   vertex -0.010634583421051502 -0.018856769427657127 0.05830828845500946
   vertex -0.033035963773727417 -0.028856769204139709 0.062008507549762726
   vertex -0.010634583421051502 -0.018856769427657127 0.062008507549762726
  endloop
 endfacet
 facet normal 0.12826213498590849 0.70011741872173039 0.70241328627189126
  outer loop
   vertex 0.028961457312107086 0.048275239765644073 0.06190790981054306
   vertex 0.027980616316199303 0.04885563999414444 0.061508510261774063
   vertex 0.027971686795353889 0.048355638980865479 0.062008507549762726
  endloop
 endfacet
 facet normal 0.12819684381221755 0.70005683355844228 0.70248558634659064
  outer loop
   vertex 0.027980616316199303 0.04885563999414444 0.061508510261774063
   vertex 0.028961457312107086 0.048275239765644073 0.06190790981054306
   vertex 0.03245895728468895 0.048355638980865479 0.061189528554677963
  endloop
 endfacet
 facet normal 0.90203536523160044 0.29536685205919394 -0.31478663023726916
  outer loop
   vertex 0.041872557252645493 0.039227239787578583 0.0064141084440052509
   vertex 0.042238067835569382 0.038372822105884552 0.0066597885452210903
   vertex 0.041872557252645493 0.038598001003265381 0.0058236885815858841
  endloop
 endfacet
 facet normal 0.65840551452239604 0.45165607219634363 0.60208717881605001
  outer loop
   vertex 0.033471055328845978 0.04885563999414444 0.057963717728853226
   vertex 0.033471055328845978 0.048169311136007309 0.058478567749261856
   vertex 0.041433278471231461 0.040925811976194382 0.055205285549163818
  endloop
 endfacet
 facet normal 0.10112021049889196 0 0.99487421467673975
  outer loop
   vertex 0.028961457312107086 -0.048265568912029266 0.061907906085252762
   vertex 0.027971686795353889 0.048355638980865479 0.062008507549762726
   vertex 0.027971686795353889 -0.048345968127250671 0.062008507549762726
  endloop
 endfacet
 facet normal 0.10111650119931416 -3.8389948410039754e-08 0.99487459168741843
  outer loop
   vertex 0.027971686795353889 0.048355638980865479 0.062008507549762726
   vertex 0.028961457312107086 -0.048265568912029266 0.061907906085252762
   vertex 0.028961457312107086 0.048275239765644073 0.06190790981054306
  endloop
 endfacet
 facet normal -0.64375497495542122 0.53719415873997323 -0.54497886934797535
  outer loop
   vertex 0.028356017544865608 0.04885563999414444 -0.0026671411469578743
   vertex 0.028355637565255165 0.04824163019657135 -0.003271931316703558
   vertex 0.027844017371535301 0.04824163019657135 -0.0026675811968743801
  endloop
 endfacet
 facet normal -0.10137267698001509 0.58951793567397781 -0.80136894367113898
  outer loop
   vertex 0.025117557495832443 0.04885563999414444 0.058808289468288422
   vertex -0.033035963773727417 0.038175959140062332 0.05830828845500946
   vertex -0.033035963773727417 0.038855642080307007 0.058808289468288422
  endloop
 endfacet
 facet normal -0.10137236478628794 0.58951629408825934 -0.80137019077457616
  outer loop
   vertex -0.033035963773727417 0.038175959140062332 0.05830828845500946
   vertex 0.025117557495832443 0.04885563999414444 0.058808289468288422
   vertex 0.025499487295746803 0.04824163019657135 0.05830828845500946
  endloop
 endfacet
 facet normal -0.16947123860211777 0.98553513346134136 0
  outer loop
   vertex -0.033035963773727417 0.038855642080307007 0.061508510261774063
   vertex 0.025117557495832443 0.04885563999414444 0.058808289468288422
   vertex -0.033035963773727417 0.038855642080307007 0.058808289468288422
  endloop
 endfacet
 facet normal -0.16947123860211777 0.98553513346134136 0
  outer loop
   vertex 0.025117557495832443 0.04885563999414444 0.058808289468288422
   vertex -0.033035963773727417 0.038855642080307007 0.061508510261774063
   vertex 0.025117557495832443 0.04885563999414444 0.061508510261774063
  endloop
 endfacet
 facet normal 0 0 -1
  outer loop
   vertex 0.025499487295746803 0.04824163019657135 0.05830828845500946
   vertex -0.033035963773727417 0.028855640441179276 0.05830828845500946
   vertex -0.033035963773727417 0.038175959140062332 0.05830828845500946
  endloop
 endfacet
 facet normal 0 0 -1
  outer loop
   vertex -0.033035963773727417 0.028855640441179276 0.05830828845500946
   vertex 0.025499487295746803 0.04824163019657135 0.05830828845500946
   vertex -0.010634583421051502 0.018855640664696693 0.05830828845500946
  endloop
 endfacet
 facet normal 0 0 -1
  outer loop
   vertex -0.010634583421051502 0.018855640664696693 0.05830828845500946
   vertex 0.025499487295746803 0.04824163019657135 0.05830828845500946
   vertex -0.010634583421051502 -0.018856769427657127 0.05830828845500946
  endloop
 endfacet
 facet normal 0 0 -1
  outer loop
   vertex -0.010634583421051502 -0.018856769427657127 0.05830828845500946
   vertex 0.025499487295746803 0.04824163019657135 0.05830828845500946
   vertex 0.0036716593895107508 0.0044999890960752964 0.05830828845500946
  endloop
 endfacet
 facet normal 0 0 -1
  outer loop
   vertex -0.010634583421051502 -0.018856769427657127 0.05830828845500946
   vertex 0.0036716593895107508 0.0044999890960752964 0.05830828845500946
   vertex 0.0027725554537028074 0.0023293604608625174 0.05830828845500946
  endloop
 endfacet
 facet normal 0 0 -1
  outer loop
   vertex -0.010634583421051502 -0.018856769427657127 0.05830828845500946
   vertex 0.0027725554537028074 0.0023293604608625174 0.05830828845500946
   vertex 0.0024658879265189171 -1.0993758792210429e-08 0.05830828845500946
  endloop
 endfacet
 facet normal 0 0 -1
  outer loop
   vertex 0.0036716593895107508 0.0044999890960752964 0.05830828845500946
   vertex 0.025499487295746803 0.04824163019657135 0.05830828845500946
   vertex 0.0051019270904362202 0.0063639502041041851 0.05830828845500946
  endloop
 endfacet
 facet normal 0 0 -1
  outer loop
   vertex 0.0051019270904362202 0.0063639502041041851 0.05830828845500946
   vertex 0.025499487295746803 0.04824163019657135 0.05830828845500946
   vertex 0.0069658877328038216 0.0077942176721990108 0.05830828845500946
  endloop
 endfacet
 facet normal 0 0 -1
  outer loop
   vertex 0.0069658877328038216 0.0077942176721990108 0.05830828845500946
   vertex 0.025499487295746803 0.04824163019657135 0.05830828845500946
   vertex 0.0091365166008472443 0.0086933216080069542 0.05830828845500946
  endloop
 endfacet
 facet normal 0 0 -1
  outer loop
   vertex 0.0091365166008472443 0.0086933216080069542 0.05830828845500946
   vertex 0.025499487295746803 0.04824163019657135 0.05830828845500946
   vertex 0.011465887539088726 0.0089999893680214882 0.05830828845500946
  endloop
 endfacet
 facet normal 0 0 -1
  outer loop
   vertex 0.011465887539088726 0.0089999893680214882 0.05830828845500946
   vertex 0.025499487295746803 0.04824163019657135 0.05830828845500946
   vertex 0.013795259408652782 0.0086933216080069542 0.05830828845500946
  endloop
 endfacet
 facet normal 0 0 -1
  outer loop
   vertex 0.013795259408652782 0.0086933216080069542 0.05830828845500946
   vertex 0.025499487295746803 0.04824163019657135 0.05830828845500946
   vertex 0.015965888276696205 0.0077942176721990108 0.05830828845500946
  endloop
 endfacet
 facet normal 0 0 -1
  outer loop
   vertex 0.015965888276696205 0.0077942176721990108 0.05830828845500946
   vertex 0.025499487295746803 0.04824163019657135 0.05830828845500946
   vertex 0.017829848453402519 0.0063639502041041851 0.05830828845500946
  endloop
 endfacet
 facet normal 0 0 -1
  outer loop
   vertex 0.017829848453402519 0.0063639502041041851 0.05830828845500946
   vertex 0.025499487295746803 0.04824163019657135 0.05830828845500946
   vertex 0.019260115921497345 0.0044999890960752964 0.05830828845500946
  endloop
 endfacet
 facet normal 0 0 -1
  outer loop
   vertex 0.019260115921497345 0.0044999890960752964 0.05830828845500946
   vertex 0.025499487295746803 0.04824163019657135 0.05830828845500946
   vertex 0.020159220322966576 0.0023293604608625174 0.05830828845500946
  endloop
 endfacet
 facet normal 0 0 -1
  outer loop
   vertex 0.020159220322966576 0.0023293604608625174 0.05830828845500946
   vertex 0.025499487295746803 0.04824163019657135 0.05830828845500946
   vertex 0.02046588808298111 -1.0993758792210429e-08 0.05830828845500946
  endloop
 endfacet
 facet normal 0 0 -1
  outer loop
   vertex -0.010634583421051502 -0.018856769427657127 0.05830828845500946
   vertex -0.033035963773727417 -0.038166288286447525 0.05830828845500946
   vertex -0.033035963773727417 -0.028856769204139709 0.05830828845500946
  endloop
 endfacet
 facet normal 0 -0 -1
  outer loop
   vertex -0.033035963773727417 -0.038166288286447525 0.05830828845500946
   vertex -0.010634583421051502 -0.018856769427657127 0.05830828845500946
   vertex 0.025499487295746803 -0.048231959342956543 0.05830828845500946
  endloop
 endfacet
 facet normal 0 0 -1
  outer loop
   vertex 0.025499487295746803 -0.048231959342956543 0.05830828845500946
   vertex -0.010634583421051502 -0.018856769427657127 0.05830828845500946
   vertex 0.0036716593895107508 -0.0045000109821557999 0.05830828845500946
  endloop
 endfacet
 facet normal 0 0 -1
  outer loop
   vertex 0.0036716593895107508 -0.0045000109821557999 0.05830828845500946
   vertex -0.010634583421051502 -0.018856769427657127 0.05830828845500946
   vertex 0.0027725554537028074 -0.0023293823469430208 0.05830828845500946
  endloop
 endfacet
 facet normal 0 0 -1
  outer loop
   vertex 0.0027725554537028074 -0.0023293823469430208 0.05830828845500946
   vertex -0.010634583421051502 -0.018856769427657127 0.05830828845500946
   vertex 0.0024658879265189171 -1.0993758792210429e-08 0.05830828845500946
  endloop
 endfacet
 facet normal 0 0 -1
  outer loop
   vertex 0.025499487295746803 -0.048231959342956543 0.05830828845500946
   vertex 0.0036716593895107508 -0.0045000109821557999 0.05830828845500946
   vertex 0.0051019270904362202 -0.0063639720901846886 0.05830828845500946
  endloop
 endfacet
 facet normal 0 0 -1
  outer loop
   vertex 0.025499487295746803 -0.048231959342956543 0.05830828845500946
   vertex 0.0051019270904362202 -0.0063639720901846886 0.05830828845500946
   vertex 0.0069658877328038216 -0.0077942395582795143 0.05830828845500946
  endloop
 endfacet
 facet normal 0 0 -1
  outer loop
   vertex 0.025499487295746803 -0.048231959342956543 0.05830828845500946
   vertex 0.0069658877328038216 -0.0077942395582795143 0.05830828845500946
   vertex 0.0091365166008472443 -0.0086933430284261703 0.05830828845500946
  endloop
 endfacet
 facet normal 0 0 -1
  outer loop
   vertex 0.025499487295746803 -0.048231959342956543 0.05830828845500946
   vertex 0.0091365166008472443 -0.0086933430284261703 0.05830828845500946
   vertex 0.011465887539088726 -0.0090000107884407043 0.05830828845500946
  endloop
 endfacet
 facet normal 0 0 -1
  outer loop
   vertex 0.025499487295746803 -0.048231959342956543 0.05830828845500946
   vertex 0.011465887539088726 -0.0090000107884407043 0.05830828845500946
   vertex 0.013795259408652782 -0.0086933430284261703 0.05830828845500946
  endloop
 endfacet
 facet normal 0 0 -1
  outer loop
   vertex 0.025499487295746803 -0.048231959342956543 0.05830828845500946
   vertex 0.013795259408652782 -0.0086933430284261703 0.05830828845500946
   vertex 0.015965888276696205 -0.0077942395582795143 0.05830828845500946
  endloop
 endfacet
 facet normal 0 0 -1
  outer loop
   vertex 0.025499487295746803 -0.048231959342956543 0.05830828845500946
   vertex 0.015965888276696205 -0.0077942395582795143 0.05830828845500946
   vertex 0.017829848453402519 -0.0063639720901846886 0.05830828845500946
  endloop
 endfacet
 facet normal 0 0 -1
  outer loop
   vertex 0.025499487295746803 -0.048231959342956543 0.05830828845500946
   vertex 0.017829848453402519 -0.0063639720901846886 0.05830828845500946
   vertex 0.019260115921497345 -0.0045000109821557999 0.05830828845500946
  endloop
 endfacet
 facet normal 0 0 -1
  outer loop
   vertex 0.025499487295746803 -0.048231959342956543 0.05830828845500946
   vertex 0.019260115921497345 -0.0045000109821557999 0.05830828845500946
   vertex 0.020159220322966576 -0.0023293823469430208 0.05830828845500946
  endloop
 endfacet
 facet normal 0 0 -1
  outer loop
   vertex 0.025499487295746803 -0.048231959342956543 0.05830828845500946
   vertex 0.020159220322966576 -0.0023293823469430208 0.05830828845500946
   vertex 0.02046588808298111 -1.0993758792210429e-08 0.05830828845500946
  endloop
 endfacet
 facet normal 0 0 -1
  outer loop
   vertex 0.025499487295746803 -0.048231959342956543 0.05830828845500946
   vertex 0.02046588808298111 -1.0993758792210429e-08 0.05830828845500946
   vertex 0.025499487295746803 0.04824163019657135 0.05830828845500946
  endloop
 endfacet
 facet normal 0.70211573976750863 0.71182186536536385 -0.018523497469378283
  outer loop
   vertex 0.033471055328845978 0.04885563999414444 0.057963717728853226
   vertex 0.041872557252645493 0.039227239787578583 0.0064141084440052509
   vertex 0.03187146782875061 0.04885563999414444 -0.0026671411469578743
  endloop
 endfacet
 facet normal 0.70232756855656875 0.71161476458954531 -0.018450291693741364
  outer loop
   vertex 0.041872557252645493 0.039227239787578583 0.0064141084440052509
   vertex 0.033471055328845978 0.04885563999414444 0.057963717728853226
   vertex 0.041433278471231461 0.040925811976194382 0.055205285549163818
  endloop
 endfacet
 facet normal 0 2.1720719658992807e-08 -0.99999999999999989
  outer loop
   vertex 0.031855635344982147 0.04824163019657135 -0.003271931316703558
   vertex 0.028355637565255165 -0.048231959342956543 -0.0032719334121793509
   vertex 0.028355637565255165 0.04824163019657135 -0.003271931316703558
  endloop
 endfacet
 facet normal 0 2.1720719658992807e-08 -0.99999999999999989
  outer loop
   vertex 0.028355637565255165 -0.048231959342956543 -0.0032719334121793509
   vertex 0.031855635344982147 0.04824163019657135 -0.003271931316703558
   vertex 0.031855635344982147 -0.048231959342956543 -0.0032719334121793509
  endloop
 endfacet
 facet normal 0.79729600124536681 0.41300828224434466 -0.44016274853254439
  outer loop
   vertex 0.031855635344982147 0.04824163019657135 -0.003271931316703558
   vertex 0.041872557252645493 0.039227239787578583 0.0064141084440052509
   vertex 0.041872557252645493 0.038598001003265381 0.0058236885815858841
  endloop
 endfacet
 facet normal 0.79729601992555044 0.41300132052537875 -0.44016924683031849
  outer loop
   vertex 0.041872557252645493 0.039227239787578583 0.0064141084440052509
   vertex 0.031855635344982147 0.04824163019657135 -0.003271931316703558
   vertex 0.03187146782875061 0.04885563999414444 -0.0026671411469578743
  endloop
 endfacet
 facet normal -0.77484692161253865 0.6314394557172669 -0.029940972446699736
  outer loop
   vertex 0.028356017544865608 0.04885563999414444 -0.0026671411469578743
   vertex 0.025499487295746803 0.04824163019657135 0.05830828845500946
   vertex 0.025999857112765312 0.04885563999414444 0.05830828845500946
  endloop
 endfacet
 facet normal -0.76767605009432882 0.6401579605471035 -0.029517243430624292
  outer loop
   vertex 0.028356017544865608 0.04885563999414444 -0.0026671411469578743
   vertex 0.027844017371535301 0.04824163019657135 -0.0026675811968743801
   vertex 0.025499487295746803 0.04824163019657135 0.05830828845500946
  endloop
 endfacet
 facet normal 0.83484928289775817 0.28657489080311499 0.47000160298267235
  outer loop
   vertex 0.041433278471231461 0.040925811976194382 0.055205285549163818
   vertex 0.041309986263513565 0.040368840098381042 0.055763889104127884
   vertex 0.041787117719650269 0.040067210793495178 0.055100288242101669
  endloop
 endfacet
 facet normal 0.97011171555808395 -0.14561313967176606 0.1941135566926793
  outer loop
   vertex 0.033471055328845978 -0.048845957964658737 0.057963717728853226
   vertex 0.033046837896108627 -0.048159640282392502 0.060598645359277725
   vertex 0.032947815954685211 -0.048845957964658737 0.060578685253858566
  endloop
 endfacet
 facet normal 0.97011085531584884 -0.14561753070106867 0.19411456192381757
  outer loop
   vertex 0.033046837896108627 -0.048159640282392502 0.060598645359277725
   vertex 0.033471055328845978 -0.048845957964658737 0.057963717728853226
   vertex 0.033471055328845978 -0.048159640282392502 0.058478567749261856
  endloop
 endfacet
 facet normal -1 0 0
  outer loop
   vertex -0.010634583421051502 0.018855640664696693 0.062008507549762726
   vertex -0.010634583421051502 -0.018856769427657127 0.05830828845500946
   vertex -0.010634583421051502 -0.018856769427657127 0.062008507549762726
  endloop
 endfacet
 facet normal -1 0 -0
  outer loop
   vertex -0.010634583421051502 -0.018856769427657127 0.05830828845500946
   vertex -0.010634583421051502 0.018855640664696693 0.062008507549762726
   vertex -0.010634583421051502 0.018855640664696693 0.05830828845500946
  endloop
 endfacet
 facet normal 0.70211532721324688 -0.71182227259385478 -0.01852348594501314
  outer loop
   vertex 0.041872557252645493 -0.039217568933963776 0.006414107047021389
   vertex 0.033471055328845978 -0.048845957964658737 0.057963717728853226
   vertex 0.03187146782875061 -0.048845957964658737 -0.0026671432424336672
  endloop
 endfacet
 facet normal 0.70232705615639557 -0.71161526970372402 -0.018450314772041034
  outer loop
   vertex 0.033471055328845978 -0.048845957964658737 0.057963717728853226
   vertex 0.041872557252645493 -0.039217568933963776 0.006414107047021389
   vertex 0.041433278471231461 -0.040916141122579575 0.05520528182387352
  endloop
 endfacet
 facet normal 0.32724041200697285 0 0.94494111602231945
  outer loop
   vertex 0.041309986263513565 -0.04035915806889534 0.055763885378837585
   vertex 0.033471055328845978 0.048169311136007309 0.058478567749261856
   vertex 0.033471055328845978 -0.048159640282392502 0.058478567749261856
  endloop
 endfacet
 facet normal 0.32723997228679103 -4.3605448163383639e-08 0.94494126830070146
  outer loop
   vertex 0.033471055328845978 0.048169311136007309 0.058478567749261856
   vertex 0.041309986263513565 -0.04035915806889534 0.055763885378837585
   vertex 0.041309986263513565 0.040368840098381042 0.055763889104127884
  endloop
 endfacet
 facet normal 0.99995667070868888 -4.3280723920088742e-10 0.0093089583302781876
  outer loop
   vertex 0.042238067835569382 -0.038363147526979446 0.0066597866825759411
   vertex 0.041787117719650269 0.040067210793495178 0.055100288242101669
   vertex 0.041787117719650269 -0.040057539939880371 0.055100284516811371
  endloop
 endfacet
 facet normal 0.99995667071180638 -2.259603356481267e-10 0.0093089579953999271
  outer loop
   vertex 0.041787117719650269 0.040067210793495178 0.055100288242101669
   vertex 0.042238067835569382 -0.038363147526979446 0.0066597866825759411
   vertex 0.042238067835569382 0.038372822105884552 0.0066597885452210903
  endloop
 endfacet
 facet normal 0.12826452910986269 -0.70012763658509625 0.7024026644752942
  outer loop
   vertex 0.027980616316199303 -0.048845957964658737 0.061508506536483765
   vertex 0.028961457312107086 -0.048265568912029266 0.061907906085252762
   vertex 0.027971686795353889 -0.048345968127250671 0.062008507549762726
  endloop
 endfacet
 facet normal 0.12819478671739987 -0.7000629209750836 0.70247989532392607
  outer loop
   vertex 0.028961457312107086 -0.048265568912029266 0.061907906085252762
   vertex 0.027980616316199303 -0.048845957964658737 0.061508506536483765
   vertex 0.03245895728468895 -0.048345968127250671 0.061189528554677963
  endloop
 endfacet
 facet normal 0.65956089739611157 -0.45445235728133943 0.59870900910832281
  outer loop
   vertex 0.041309986263513565 -0.04035915806889534 0.055763885378837585
   vertex 0.033471055328845978 -0.048159640282392502 0.058478567749261856
   vertex 0.041433278471231461 -0.040916141122579575 0.05520528182387352
  endloop
 endfacet
 facet normal 0.20119721366067658 -3.7798636386652167e-08 0.97955075479281761
  outer loop
   vertex 0.03245895728468895 -0.048345968127250671 0.061189528554677963
   vertex 0.028961457312107086 0.048275239765644073 0.06190790981054306
   vertex 0.028961457312107086 -0.048265568912029266 0.061907906085252762
  endloop
 endfacet
 facet normal 0.20119821560739157 -0 0.97955054899499783
  outer loop
   vertex 0.028961457312107086 0.048275239765644073 0.06190790981054306
   vertex 0.03245895728468895 -0.048345968127250671 0.061189528554677963
   vertex 0.03245895728468895 0.048355638980865479 0.061189528554677963
  endloop
 endfacet
 facet normal 0 -0.7017442688497042 -0.71242893058647883
  outer loop
   vertex 0.031855635344982147 -0.048231959342956543 -0.0032719334121793509
   vertex 0.028356017544865608 -0.048845957964658737 -0.0026671432424336672
   vertex 0.028355637565255165 -0.048231959342956543 -0.0032719334121793509
  endloop
 endfacet
 facet normal 0 -0.70174426884970431 -0.71242893058647894
  outer loop
   vertex 0.028356017544865608 -0.048845957964658737 -0.0026671432424336672
   vertex 0.031855635344982147 -0.048231959342956543 -0.0032719334121793509
   vertex 0.03187146782875061 -0.048845957964658737 -0.0026671432424336672
  endloop
 endfacet
 facet normal -0.10137323278420751 -0.58952134180434934 -0.80136636766966873
  outer loop
   vertex 0.025499487295746803 -0.048231959342956543 0.05830828845500946
   vertex -0.033035963773727417 -0.038845960050821304 0.058808285742998123
   vertex -0.033035963773727417 -0.038166288286447525 0.05830828845500946
  endloop
 endfacet
 facet normal -0.10137297793347802 -0.58951968582470371 -0.80136761811920088
  outer loop
   vertex -0.033035963773727417 -0.038845960050821304 0.058808285742998123
   vertex 0.025499487295746803 -0.048231959342956543 0.05830828845500946
   vertex 0.025117557495832443 -0.048845957964658737 0.058808285742998123
  endloop
 endfacet
 facet normal -0.16947123860211777 -0.98553513346134136 0
  outer loop
   vertex 0.025117557495832443 -0.048845957964658737 0.061508506536483765
   vertex -0.033035963773727417 -0.038845960050821304 0.058808285742998123
   vertex 0.025117557495832443 -0.048845957964658737 0.058808285742998123
  endloop
 endfacet
 facet normal -0.16947123860211777 -0.98553513346134136 0
  outer loop
   vertex -0.033035963773727417 -0.038845960050821304 0.058808285742998123
   vertex 0.025117557495832443 -0.048845957964658737 0.061508506536483765
   vertex -0.033035963773727417 -0.038845960050821304 0.061508506536483765
  endloop
 endfacet
 facet normal 0.91627124379336433 9.6661946975229675e-09 -0.40055837002534522
  outer loop
   vertex 0.041872557252645493 0.038598001003265381 0.0058236885815858841
   vertex 0.042238067835569382 -0.038363147526979446 0.0066597866825759411
   vertex 0.041872557252645493 -0.038588330149650574 0.0058236867189407349
  endloop
 endfacet
 facet normal 0.91627124570991803 9.722925250247091e-09 -0.40055836564125702
  outer loop
   vertex 0.042238067835569382 -0.038363147526979446 0.0066597866825759411
   vertex 0.041872557252645493 0.038598001003265381 0.0058236885815858841
   vertex 0.042238067835569382 0.038372822105884552 0.0066597885452210903
  endloop
 endfacet
 facet normal 0.12874919983800723 -0.71439959809834586 0.68779128940253009
  outer loop
   vertex 0.027980616316199303 -0.048845957964658737 0.061508506536483765
   vertex 0.032947815954685211 -0.048845957964658737 0.060578685253858566
   vertex 0.03245895728468895 -0.048345968127250671 0.061189528554677963
  endloop
 endfacet
 facet normal 0.65840727734816018 -0.45165985310396367 0.60208241481469016
  outer loop
   vertex 0.041433278471231461 -0.040916141122579575 0.05520528182387352
   vertex 0.033471055328845978 -0.048159640282392502 0.058478567749261856
   vertex 0.033471055328845978 -0.048845957964658737 0.057963717728853226
  endloop
 endfacet
 facet normal 0.98056271268173989 -7.5877919598978618e-09 0.19620592880498666
  outer loop
   vertex 0.033471055328845978 -0.048159640282392502 0.058478567749261856
   vertex 0.033046837896108627 0.048169311136007309 0.060598649084568024
   vertex 0.033046837896108627 -0.048159640282392502 0.060598645359277725
  endloop
 endfacet
 facet normal 0.9805627790112651 -0 0.19620559731492046
  outer loop
   vertex 0.033046837896108627 0.048169311136007309 0.060598649084568024
   vertex 0.033471055328845978 -0.048159640282392502 0.058478567749261856
   vertex 0.033471055328845978 0.048169311136007309 0.058478567749261856
  endloop
 endfacet
 facet normal -0.76766694135157487 -0.64016212182305876 -0.029663528767109742
  outer loop
   vertex 0.027844017371535301 -0.048231959342956543 -0.002667583292350173
   vertex 0.028356017544865608 -0.048845957964658737 -0.0026671432424336672
   vertex 0.025999857112765312 -0.048845957964658737 0.05830828845500946
  endloop
 endfacet
 facet normal -0.77484472351913725 -0.63144915773618304 -0.029792878827276541
  outer loop
   vertex 0.027844017371535301 -0.048231959342956543 -0.002667583292350173
   vertex 0.025999857112765312 -0.048845957964658737 0.05830828845500946
   vertex 0.025499487295746803 -0.048231959342956543 0.05830828845500946
  endloop
 endfacet
 facet normal -0.64375159354667111 -0.53720111489731825 -0.54497600677387625
  outer loop
   vertex 0.028355637565255165 -0.048231959342956543 -0.0032719334121793509
   vertex 0.028356017544865608 -0.048845957964658737 -0.0026671432424336672
   vertex 0.027844017371535301 -0.048231959342956543 -0.002667583292350173
  endloop
 endfacet
 facet normal -1 0 0
  outer loop
   vertex -0.033035963773727417 -0.038338620215654373 0.062008507549762726
   vertex -0.033035963773727417 -0.038845960050821304 0.058808285742998123
   vertex -0.033035963773727417 -0.038845960050821304 0.061508506536483765
  endloop
 endfacet
 facet normal -1 0 -0
  outer loop
   vertex -0.033035963773727417 -0.038845960050821304 0.058808285742998123
   vertex -0.033035963773727417 -0.038338620215654373 0.062008507549762726
   vertex -0.033035963773727417 -0.038166288286447525 0.05830828845500946
  endloop
 endfacet
 facet normal -1 0 0
  outer loop
   vertex -0.033035963773727417 -0.038166288286447525 0.05830828845500946
   vertex -0.033035963773727417 -0.038338620215654373 0.062008507549762726
   vertex -0.033035963773727417 -0.028856769204139709 0.062008507549762726
  endloop
 endfacet
 facet normal -1 0 -0
  outer loop
   vertex -0.033035963773727417 -0.038166288286447525 0.05830828845500946
   vertex -0.033035963773727417 -0.028856769204139709 0.062008507549762726
   vertex -0.033035963773727417 -0.028856769204139709 0.05830828845500946
  endloop
 endfacet
 facet normal 0.83484742721496741 -0.28657362887730692 0.47000566858777471
  outer loop
   vertex 0.041787117719650269 -0.040057539939880371 0.055100284516811371
   vertex 0.041309986263513565 -0.04035915806889534 0.055763885378837585
   vertex 0.041433278471231461 -0.040916141122579575 0.05520528182387352
  endloop
 endfacet
endsolid
