solid Visualization Toolkit generated SLA File
 facet normal 0 0 -1
  outer loop
   vertex -0.0042426404543220997 0.0042426404543220997 0.0023960000835359097
   vertex -0.0042426404543220997 -0.0042426404543220997 0.0023960000835359097
   vertex -0.0060000000521540642 0 0.0023960000835359097
  endloop
 endfacet
 facet normal 0 0 -1
  outer loop
   vertex -0.0042426404543220997 -0.0042426404543220997 0.0023960000835359097
   vertex -0.0042426404543220997 0.0042426404543220997 0.0023960000835359097
   vertex 0 0.0060000000521540642 0.0023960000835359097
  endloop
 endfacet
 facet normal 0 -0 -1
  outer loop
   vertex -0.0042426404543220997 -0.0042426404543220997 0.0023960000835359097
   vertex 0 0.0060000000521540642 0.0023960000835359097
   vertex 0 -0.0060000000521540642 0.0023960000835359097
  endloop
 endfacet
 facet normal 0 0 -1
  outer loop
   vertex 0 -0.0060000000521540642 0.0023960000835359097
   vertex 0 0.0060000000521540642 0.0023960000835359097
   vertex 0.0042426404543220997 0.0042426404543220997 0.0023960000835359097
  endloop
 endfacet
 facet normal 0 -0 -1
  outer loop
   vertex 0 -0.0060000000521540642 0.0023960000835359097
   vertex 0.0042426404543220997 0.0042426404543220997 0.0023960000835359097
   vertex 0.0042426404543220997 -0.0042426404543220997 0.0023960000835359097
  endloop
 endfacet
 facet normal 0 0 -1
  outer loop
   vertex 0.0042426404543220997 -0.0042426404543220997 0.0023960000835359097
   vertex 0.0042426404543220997 0.0042426404543220997 0.0023960000835359097
   vertex 0.0060000000521540642 0 0.0023960000835359097
  endloop
 endfacet
 facet normal 0 1 0
  outer loop
   vertex -0.032566368579864502 0.015001679770648479 0.010010099969804287
   vertex -0.013562611304223537 0.015001679770648479 0.0090100998058915138
   vertex -0.031566377729177475 0.015001679770648479 0.0090100998058915138
  endloop
 endfacet
 facet normal 0 1 0
  outer loop
   vertex -0.013562611304223537 0.015001679770648479 0.0090100998058915138
   vertex 0.010525541380047798 0.015001679770648479 0.0033960000146180391
   vertex -0.013562611304223537 0.015001679770648479 0.0033960000146180391
  endloop
 endfacet
 facet normal 0 1 0
  outer loop
   vertex 0.010525541380047798 0.015001679770648479 0.0033960000146180391
   vertex -0.013562611304223537 0.015001679770648479 0.0090100998058915138
   vertex 0.014441121369600296 0.015001679770648479 0.0083215795457363129
  endloop
 endfacet
 facet normal -0 1 0
  outer loop
   vertex 0.014441121369600296 0.015001679770648479 0.0083215795457363129
   vertex -0.013562611304223537 0.015001679770648479 0.0090100998058915138
   vertex 0.014441121369600296 0.015001679770648479 0.038481090217828751
  endloop
 endfacet
 facet normal 0 1 -0
  outer loop
   vertex 0.014441121369600296 0.015001679770648479 0.038481090217828751
   vertex -0.013562611304223537 0.015001679770648479 0.0090100998058915138
   vertex -0.032566368579864502 0.015001679770648479 0.010010099969804287
  endloop
 endfacet
 facet normal 0 1 0
  outer loop
   vertex 0.014441121369600296 0.015001679770648479 0.038481090217828751
   vertex -0.032566368579864502 0.015001679770648479 0.010010099969804287
   vertex -0.018708864226937294 0.015001679770648479 0.035254999995231628
  endloop
 endfacet
 facet normal 0 1 0
  outer loop
   vertex -0.018708864226937294 0.015001679770648479 0.035254999995231628
   vertex -0.032566368579864502 0.015001679770648479 0.010010099969804287
   vertex -0.032566219568252563 0.015001679770648479 0.034255001693964005
  endloop
 endfacet
 facet normal 0 1 0
  outer loop
   vertex -0.018708864226937294 0.015001679770648479 0.035254999995231628
   vertex -0.032566219568252563 0.015001679770648479 0.034255001693964005
   vertex -0.031830057501792908 0.015001679770648479 0.035254999995231628
  endloop
 endfacet
 facet normal 0 1 0
  outer loop
   vertex 0.014441121369600296 0.015001679770648479 0.038481090217828751
   vertex -0.018708864226937294 0.015001679770648479 0.035254999995231628
   vertex -0.015482884831726551 0.015001679770648479 0.038480270653963089
  endloop
 endfacet
 facet normal 0 0.70709558566586972 0.70711797652997121
  outer loop
   vertex 0.014441121369600296 0.014001679606735706 0.039480239152908325
   vertex -0.015482884831726551 0.015001679770648479 0.038480270653963089
   vertex -0.015482884831726551 0.014001679606735706 0.039480239152908325
  endloop
 endfacet
 facet normal -1.9374607368878866e-05 0.70680563404526564 0.70740779986263558
  outer loop
   vertex -0.015482884831726551 0.015001679770648479 0.038480270653963089
   vertex 0.014441121369600296 0.014001679606735706 0.039480239152908325
   vertex 0.014441121369600296 0.015001679770648479 0.038481090217828751
  endloop
 endfacet
 facet normal 0.6772607132329127 0.68016129177121953 -0.28053260681666276
  outer loop
   vertex 0.014441121369600296 0.015001679770648479 0.0083215795457363129
   vertex 0.015441121533513069 0.014001679606735706 0.0083112400025129318
   vertex 0.015148191712796688 0.014001679606735706 0.0076040499843657017
  endloop
 endfacet
 facet normal 0.70710678118654746 0.70710678118654746 0
  outer loop
   vertex 0.014441121369600296 0.015001679770648479 0.0083215795457363129
   vertex 0.015441121533513069 0.014001679606735706 0.038481120020151138
   vertex 0.015441121533513069 0.014001679606735706 0.0083112400025129318
  endloop
 endfacet
 facet normal 0.70710678118654757 0.70710678118654757 -0
  outer loop
   vertex 0.015441121533513069 0.014001679606735706 0.038481120020151138
   vertex 0.014441121369600296 0.015001679770648479 0.0083215795457363129
   vertex 0.014441121369600296 0.015001679770648479 0.038481090217828751
  endloop
 endfacet
 facet normal 0.57717482975152723 0.57719204606716601 0.57768378708259938
  outer loop
   vertex 0.015441121533513069 0.014001679606735706 0.038481120020151138
   vertex 0.014441121369600296 0.015001679770648479 0.038481090217828751
   vertex 0.014441121369600296 0.014001679606735706 0.039480239152908325
  endloop
 endfacet
 facet normal 0 0.70709558566586972 0.70711797652997121
  outer loop
   vertex 0.014441121369600296 0.014001679606735706 0.039480239152908325
   vertex -0.015482884831726551 0.015001679770648479 0.038480270653963089
   vertex -0.015482884831726551 0.014001679606735706 0.039480239152908325
  endloop
 endfacet
 facet normal -1.9374607368878866e-05 0.70680563404526564 0.70740779986263558
  outer loop
   vertex -0.015482884831726551 0.015001679770648479 0.038480270653963089
   vertex 0.014441121369600296 0.014001679606735706 0.039480239152908325
   vertex 0.014441121369600296 0.015001679770648479 0.038481090217828751
  endloop
 endfacet
 facet normal -0.9999999999819188 0 6.0135036982900044e-06
  outer loop
   vertex -0.033566229045391083 -0.014001679606735706 0.034288469702005386
   vertex -0.033566378057003021 0.014001679606735706 0.0095089701935648918
   vertex -0.033566378057003021 -0.014001679606735706 0.0095089701935648918
  endloop
 endfacet
 facet normal -0.9999999999819188 0 6.0135036982900044e-06
  outer loop
   vertex -0.033566378057003021 0.014001679606735706 0.0095089701935648918
   vertex -0.033566229045391083 -0.014001679606735706 0.034288469702005386
   vertex -0.033566229045391083 0.014001679606735706 0.034288469702005386
  endloop
 endfacet
 facet normal -0.80531776492283824 0 0.5928434004858989
  outer loop
   vertex -0.032118547707796097 0.014001679606735706 0.036254998296499252
   vertex -0.033566229045391083 -0.014001679606735706 0.034288469702005386
   vertex -0.032118547707796097 -0.014001679606735706 0.036254998296499252
  endloop
 endfacet
 facet normal -0.80531776492283824 0 0.5928434004858989
  outer loop
   vertex -0.033566229045391083 -0.014001679606735706 0.034288469702005386
   vertex -0.032118547707796097 0.014001679606735706 0.036254998296499252
   vertex -0.033566229045391083 0.014001679606735706 0.034288469702005386
  endloop
 endfacet
 facet normal 0 0 1
  outer loop
   vertex -0.018708864226937294 -0.014001679606735706 0.036254998296499252
   vertex -0.032118547707796097 0.014001679606735706 0.036254998296499252
   vertex -0.032118547707796097 -0.014001679606735706 0.036254998296499252
  endloop
 endfacet
 facet normal 0 -0 1
  outer loop
   vertex -0.032118547707796097 0.014001679606735706 0.036254998296499252
   vertex -0.018708864226937294 -0.014001679606735706 0.036254998296499252
   vertex -0.018708864226937294 0.014001679606735706 0.036254998296499252
  endloop
 endfacet
 facet normal -0.70702582662859292 0 0.70718772647731598
  outer loop
   vertex -0.015482884831726551 -0.014001679606735706 0.039480239152908325
   vertex -0.018708864226937294 0.014001679606735706 0.036254998296499252
   vertex -0.018708864226937294 -0.014001679606735706 0.036254998296499252
  endloop
 endfacet
 facet normal -0.70702582662859292 0 0.70718772647731598
  outer loop
   vertex -0.018708864226937294 0.014001679606735706 0.036254998296499252
   vertex -0.015482884831726551 -0.014001679606735706 0.039480239152908325
   vertex -0.015482884831726551 0.014001679606735706 0.039480239152908325
  endloop
 endfacet
 facet normal -0.57726250054055472 0.57739361077021023 0.57739468625144552
  outer loop
   vertex -0.015482884831726551 0.014001679606735706 0.039480239152908325
   vertex -0.018708864226937294 0.015001679770648479 0.035254999995231628
   vertex -0.018708864226937294 0.014001679606735706 0.036254998296499252
  endloop
 endfacet
 facet normal -0.5772717925910692 0.57738036176351692 0.57739864506987204
  outer loop
   vertex -0.018708864226937294 0.015001679770648479 0.035254999995231628
   vertex -0.015482884831726551 0.014001679606735706 0.039480239152908325
   vertex -0.015482884831726551 0.015001679770648479 0.038480270653963089
  endloop
 endfacet
 facet normal 0 0 -1
  outer loop
   vertex -0.014562611468136311 0.014001679606735706 0.0080100996419787407
   vertex -0.032117228955030441 -0.014001679606735706 0.0080100996419787407
   vertex -0.032117228955030441 0.014001679606735706 0.0080100996419787407
  endloop
 endfacet
 facet normal 0 -0 -1
  outer loop
   vertex -0.032117228955030441 -0.014001679606735706 0.0080100996419787407
   vertex -0.014562611468136311 0.014001679606735706 0.0080100996419787407
   vertex -0.014562611468136311 -0.014001679606735706 0.0080100996419787407
  endloop
 endfacet
 facet normal -0.70710455391080995 0.70710900844248425 4.2521758500972444e-06
  outer loop
   vertex -0.033566229045391083 0.014001679606735706 0.034288469702005386
   vertex -0.032566368579864502 0.015001679770648479 0.010010099969804287
   vertex -0.033566378057003021 0.014001679606735706 0.0095089701935648918
  endloop
 endfacet
 facet normal -0.70710341574075231 0.70711014660297 4.3459289291214505e-06
  outer loop
   vertex -0.032566368579864502 0.015001679770648479 0.010010099969804287
   vertex -0.033566229045391083 0.014001679606735706 0.034288469702005386
   vertex -0.032566219568252563 0.015001679770648479 0.034255001693964005
  endloop
 endfacet
 facet normal -0.7071066988684831 0 -0.70710686350460228
  outer loop
   vertex -0.014562611468136311 0.014001679606735706 0.0033960000146180391
   vertex -0.013562611304223537 -0.014001679606735706 0.0023960000835359097
   vertex -0.014562611468136311 -0.014001679606735706 0.0033960000146180391
  endloop
 endfacet
 facet normal -0.7071066988684831 0 -0.70710686350460228
  outer loop
   vertex -0.013562611304223537 -0.014001679606735706 0.0023960000835359097
   vertex -0.014562611468136311 0.014001679606735706 0.0033960000146180391
   vertex -0.013562611304223537 0.014001679606735706 0.0023960000835359097
  endloop
 endfacet
 facet normal -0.57735022438134442 0.57735022438134442 -0.57735035880617802
  outer loop
   vertex -0.013562611304223537 0.014001679606735706 0.0023960000835359097
   vertex -0.014562611468136311 0.014001679606735706 0.0033960000146180391
   vertex -0.013562611304223537 0.015001679770648479 0.0033960000146180391
  endloop
 endfacet
 facet normal -0.70710678118654757 0.70710678118654757 0
  outer loop
   vertex -0.013562611304223537 0.015001679770648479 0.0090100998058915138
   vertex -0.014562611468136311 0.014001679606735706 0.0033960000146180391
   vertex -0.014562611468136311 0.014001679606735706 0.0080100996419787407
  endloop
 endfacet
 facet normal -0.70710678118654768 0.70710678118654768 0
  outer loop
   vertex -0.014562611468136311 0.014001679606735706 0.0033960000146180391
   vertex -0.013562611304223537 0.015001679770648479 0.0090100998058915138
   vertex -0.013562611304223537 0.015001679770648479 0.0033960000146180391
  endloop
 endfacet
 facet normal -0 0 -1
  outer loop
   vertex -0.013562611304223537 0.014001679606735706 0.0023960000835359097
   vertex -0.0077274064533412457 0.0020705524366348982 0.0023960000835359097
   vertex -0.013562611304223537 -0.014001679606735706 0.0023960000835359097
  endloop
 endfacet
 facet normal 0 0 -1
  outer loop
   vertex -0.0077274064533412457 0.0020705524366348982 0.0023960000835359097
   vertex -0.013562611304223537 0.014001679606735706 0.0023960000835359097
   vertex -0.0069282031618058681 0.0040000001899898052 0.0023960000835359097
  endloop
 endfacet
 facet normal 0 0 -1
  outer loop
   vertex -0.0069282031618058681 0.0040000001899898052 0.0023960000835359097
   vertex -0.013562611304223537 0.014001679606735706 0.0023960000835359097
   vertex -0.0056568542495369911 0.0056568542495369911 0.0023960000835359097
  endloop
 endfacet
 facet normal 0 0 -1
  outer loop
   vertex -0.0056568542495369911 0.0056568542495369911 0.0023960000835359097
   vertex -0.013562611304223537 0.014001679606735706 0.0023960000835359097
   vertex -0.0040000001899898052 0.0069282031618058681 0.0023960000835359097
  endloop
 endfacet
 facet normal 0 0 -1
  outer loop
   vertex -0.0040000001899898052 0.0069282031618058681 0.0023960000835359097
   vertex -0.013562611304223537 0.014001679606735706 0.0023960000835359097
   vertex 0.011008071713149548 0.014001679606735706 0.0023960000835359097
  endloop
 endfacet
 facet normal 0 0 -1
  outer loop
   vertex -0.013562611304223537 -0.014001679606735706 0.0023960000835359097
   vertex -0.0077274064533412457 0.0020705524366348982 0.0023960000835359097
   vertex -0.0080000003799796104 0 0.0023960000835359097
  endloop
 endfacet
 facet normal 0 0 -1
  outer loop
   vertex -0.0040000001899898052 0.0069282031618058681 0.0023960000835359097
   vertex 0.011008071713149548 0.014001679606735706 0.0023960000835359097
   vertex -0.0020705524366348982 0.0077274064533412457 0.0023960000835359097
  endloop
 endfacet
 facet normal 0 0 -1
  outer loop
   vertex -0.0020705524366348982 0.0077274064533412457 0.0023960000835359097
   vertex 0.011008071713149548 0.014001679606735706 0.0023960000835359097
   vertex 5.6399328969361128e-18 0.0080000003799796104 0.0023960000835359097
  endloop
 endfacet
 facet normal 0 0 -1
  outer loop
   vertex 5.6399328969361128e-18 0.0080000003799796104 0.0023960000835359097
   vertex 0.011008071713149548 0.014001679606735706 0.0023960000835359097
   vertex 0.0020705524366348982 0.0077274064533412457 0.0023960000835359097
  endloop
 endfacet
 facet normal 0 0 -1
  outer loop
   vertex 0.0020705524366348982 0.0077274064533412457 0.0023960000835359097
   vertex 0.011008071713149548 0.014001679606735706 0.0023960000835359097
   vertex 0.0040000001899898052 0.0069282031618058681 0.0023960000835359097
  endloop
 endfacet
 facet normal 0 0 -1
  outer loop
   vertex 0.0040000001899898052 0.0069282031618058681 0.0023960000835359097
   vertex 0.011008071713149548 0.014001679606735706 0.0023960000835359097
   vertex 0.0056568542495369911 0.0056568542495369911 0.0023960000835359097
  endloop
 endfacet
 facet normal 0 0 -1
  outer loop
   vertex 0.0056568542495369911 0.0056568542495369911 0.0023960000835359097
   vertex 0.011008071713149548 0.014001679606735706 0.0023960000835359097
   vertex 0.0069282031618058681 0.0040000001899898052 0.0023960000835359097
  endloop
 endfacet
 facet normal 0 0 -1
  outer loop
   vertex 0.0069282031618058681 0.0040000001899898052 0.0023960000835359097
   vertex 0.011008071713149548 0.014001679606735706 0.0023960000835359097
   vertex 0.0077274064533412457 0.0020705524366348982 0.0023960000835359097
  endloop
 endfacet
 facet normal 0 0 -1
  outer loop
   vertex 0.0077274064533412457 0.0020705524366348982 0.0023960000835359097
   vertex 0.011008071713149548 0.014001679606735706 0.0023960000835359097
   vertex 0.0080000003799796104 0 0.0023960000835359097
  endloop
 endfacet
 facet normal 0 -0 -1
  outer loop
   vertex -0.013562611304223537 -0.014001679606735706 0.0023960000835359097
   vertex -0.0040000001899898052 -0.0069282031618058681 0.0023960000835359097
   vertex 0.011008071713149548 -0.014001679606735706 0.0023960000835359097
  endloop
 endfacet
 facet normal 0 0 -1
  outer loop
   vertex -0.0040000001899898052 -0.0069282031618058681 0.0023960000835359097
   vertex -0.013562611304223537 -0.014001679606735706 0.0023960000835359097
   vertex -0.0056568542495369911 -0.0056568542495369911 0.0023960000835359097
  endloop
 endfacet
 facet normal 0 0 -1
  outer loop
   vertex -0.0056568542495369911 -0.0056568542495369911 0.0023960000835359097
   vertex -0.013562611304223537 -0.014001679606735706 0.0023960000835359097
   vertex -0.0069282031618058681 -0.0040000001899898052 0.0023960000835359097
  endloop
 endfacet
 facet normal 0 0 -1
  outer loop
   vertex -0.0069282031618058681 -0.0040000001899898052 0.0023960000835359097
   vertex -0.013562611304223537 -0.014001679606735706 0.0023960000835359097
   vertex -0.0077274064533412457 -0.0020705524366348982 0.0023960000835359097
  endloop
 endfacet
 facet normal 0 0 -1
  outer loop
   vertex -0.0077274064533412457 -0.0020705524366348982 0.0023960000835359097
   vertex -0.013562611304223537 -0.014001679606735706 0.0023960000835359097
   vertex -0.0080000003799796104 0 0.0023960000835359097
  endloop
 endfacet
 facet normal 0 0 -1
  outer loop
   vertex 0.011008071713149548 -0.014001679606735706 0.0023960000835359097
   vertex -0.0040000001899898052 -0.0069282031618058681 0.0023960000835359097
   vertex -0.0020705524366348982 -0.0077274064533412457 0.0023960000835359097
  endloop
 endfacet
 facet normal 0 0 -1
  outer loop
   vertex 0.011008071713149548 -0.014001679606735706 0.0023960000835359097
   vertex -0.0020705524366348982 -0.0077274064533412457 0.0023960000835359097
   vertex 0 -0.0080000003799796104 0.0023960000835359097
  endloop
 endfacet
 facet normal 0 0 -1
  outer loop
   vertex 0.011008071713149548 -0.014001679606735706 0.0023960000835359097
   vertex 0 -0.0080000003799796104 0.0023960000835359097
   vertex 0.0020705524366348982 -0.0077274064533412457 0.0023960000835359097
  endloop
 endfacet
 facet normal 0 0 -1
  outer loop
   vertex 0.011008071713149548 -0.014001679606735706 0.0023960000835359097
   vertex 0.0020705524366348982 -0.0077274064533412457 0.0023960000835359097
   vertex 0.0040000001899898052 -0.0069282031618058681 0.0023960000835359097
  endloop
 endfacet
 facet normal 0 0 -1
  outer loop
   vertex 0.011008071713149548 -0.014001679606735706 0.0023960000835359097
   vertex 0.0040000001899898052 -0.0069282031618058681 0.0023960000835359097
   vertex 0.0056568542495369911 -0.0056568542495369911 0.0023960000835359097
  endloop
 endfacet
 facet normal 0 0 -1
  outer loop
   vertex 0.011008071713149548 -0.014001679606735706 0.0023960000835359097
   vertex 0.0056568542495369911 -0.0056568542495369911 0.0023960000835359097
   vertex 0.0069282031618058681 -0.0040000001899898052 0.0023960000835359097
  endloop
 endfacet
 facet normal 0 0 -1
  outer loop
   vertex 0.011008071713149548 -0.014001679606735706 0.0023960000835359097
   vertex 0.0069282031618058681 -0.0040000001899898052 0.0023960000835359097
   vertex 0.0077274064533412457 -0.0020705524366348982 0.0023960000835359097
  endloop
 endfacet
 facet normal 0 0 -1
  outer loop
   vertex 0.011008071713149548 -0.014001679606735706 0.0023960000835359097
   vertex 0.0077274064533412457 -0.0020705524366348982 0.0023960000835359097
   vertex 0.0080000003799796104 0 0.0023960000835359097
  endloop
 endfacet
 facet normal 0 0 -1
  outer loop
   vertex 0.011008071713149548 -0.014001679606735706 0.0023960000835359097
   vertex 0.0080000003799796104 0 0.0023960000835359097
   vertex 0.011008071713149548 0.014001679606735706 0.0023960000835359097
  endloop
 endfacet
 facet normal 0 0.70710612264122741 0.70710743973125412
  outer loop
   vertex -0.032118547707796097 0.014001679606735706 0.036254998296499252
   vertex -0.018708864226937294 0.015001679770648479 0.035254999995231628
   vertex -0.031830057501792908 0.015001679770648479 0.035254999995231628
  endloop
 endfacet
 facet normal -0 0.70710612264122752 0.70710743973125423
  outer loop
   vertex -0.018708864226937294 0.015001679770648479 0.035254999995231628
   vertex -0.032118547707796097 0.014001679606735706 0.036254998296499252
   vertex -0.018708864226937294 0.014001679606735706 0.036254998296499252
  endloop
 endfacet
 facet normal -0.62114936025261236 0.63645897077734992 0.45726737339854795
  outer loop
   vertex -0.033566229045391083 0.014001679606735706 0.034288469702005386
   vertex -0.031830057501792908 0.015001679770648479 0.035254999995231628
   vertex -0.032566219568252563 0.015001679770648479 0.034255001693964005
  endloop
 endfacet
 facet normal -0.62114920922064432 0.63646030446246338 0.457265722231742
  outer loop
   vertex -0.031830057501792908 0.015001679770648479 0.035254999995231628
   vertex -0.033566229045391083 0.014001679606735706 0.034288469702005386
   vertex -0.032118547707796097 0.014001679606735706 0.036254998296499252
  endloop
 endfacet
 facet normal 0 0.7071066988684831 -0.70710686350460228
  outer loop
   vertex 0.010525541380047798 0.015001679770648479 0.0033960000146180391
   vertex -0.013562611304223537 0.014001679606735706 0.0023960000835359097
   vertex -0.013562611304223537 0.015001679770648479 0.0033960000146180391
  endloop
 endfacet
 facet normal 0 0.7071066988684831 -0.70710686350460228
  outer loop
   vertex -0.013562611304223537 0.014001679606735706 0.0023960000835359097
   vertex 0.010525541380047798 0.015001679770648479 0.0033960000146180391
   vertex 0.011008071713149548 0.014001679606735706 0.0023960000835359097
  endloop
 endfacet
 facet normal -0.48575158989596834 0.7372147562999628 -0.46963794140499904
  outer loop
   vertex -0.033566378057003021 0.014001679606735706 0.0095089701935648918
   vertex -0.031566377729177475 0.015001679770648479 0.0090100998058915138
   vertex -0.032117228955030441 0.014001679606735706 0.0080100996419787407
  endloop
 endfacet
 facet normal -0.4848781540838133 0.72786724790259394 -0.48487363830484514
  outer loop
   vertex -0.032566368579864502 0.015001679770648479 0.010010099969804287
   vertex -0.031566377729177475 0.015001679770648479 0.0090100998058915138
   vertex -0.033566378057003021 0.014001679606735706 0.0095089701935648918
  endloop
 endfacet
 facet normal 0 0.70710678118654757 -0.70710678118654757
  outer loop
   vertex -0.031566377729177475 0.015001679770648479 0.0090100998058915138
   vertex -0.014562611468136311 0.014001679606735706 0.0080100996419787407
   vertex -0.032117228955030441 0.014001679606735706 0.0080100996419787407
  endloop
 endfacet
 facet normal 0 0.70710678118654757 -0.70710678118654757
  outer loop
   vertex -0.014562611468136311 0.014001679606735706 0.0080100996419787407
   vertex -0.031566377729177475 0.015001679770648479 0.0090100998058915138
   vertex -0.013562611304223537 0.015001679770648479 0.0090100998058915138
  endloop
 endfacet
 facet normal 0 0 -1
  outer loop
   vertex -0.0077274064533412457 0.0020705524366348982 0
   vertex -0.0077274064533412457 -0.0020705524366348982 0
   vertex -0.0080000003799796104 0 0
  endloop
 endfacet
 facet normal 0 0 -1
  outer loop
   vertex -0.0077274064533412457 -0.0020705524366348982 0
   vertex -0.0077274064533412457 0.0020705524366348982 0
   vertex -0.0069282031618058681 0.0040000001899898052 0
  endloop
 endfacet
 facet normal 0 -0 -1
  outer loop
   vertex -0.0077274064533412457 -0.0020705524366348982 0
   vertex -0.0069282031618058681 0.0040000001899898052 0
   vertex -0.0069282031618058681 -0.0040000001899898052 0
  endloop
 endfacet
 facet normal 0 0 -1
  outer loop
   vertex -0.0069282031618058681 -0.0040000001899898052 0
   vertex -0.0069282031618058681 0.0040000001899898052 0
   vertex -0.0056568542495369911 0.0056568542495369911 0
  endloop
 endfacet
 facet normal 0 0 -1
  outer loop
   vertex -0.0069282031618058681 -0.0040000001899898052 0
   vertex -0.0056568542495369911 0.0056568542495369911 0
   vertex -0.0060000000521540642 0 0
  endloop
 endfacet
 facet normal 0 -0 -1
  outer loop
   vertex -0.0060000000521540642 0 0
   vertex -0.0056568542495369911 0.0056568542495369911 0
   vertex -0.0042426404543220997 0.0042426404543220997 0
  endloop
 endfacet
 facet normal 0 0 -1
  outer loop
   vertex -0.0042426404543220997 0.0042426404543220997 0
   vertex -0.0056568542495369911 0.0056568542495369911 0
   vertex -0.0040000001899898052 0.0069282031618058681 0
  endloop
 endfacet
 facet normal 0 -0 -1
  outer loop
   vertex -0.0042426404543220997 0.0042426404543220997 0
   vertex -0.0040000001899898052 0.0069282031618058681 0
   vertex 0 0.0060000000521540642 0
  endloop
 endfacet
 facet normal 0 0 -1
  outer loop
   vertex 0 0.0060000000521540642 0
   vertex -0.0040000001899898052 0.0069282031618058681 0
   vertex -0.0020705524366348982 0.0077274064533412457 0
  endloop
 endfacet
 facet normal 0 0 -1
  outer loop
   vertex 0 0.0060000000521540642 0
   vertex -0.0020705524366348982 0.0077274064533412457 0
   vertex 5.6399328969361128e-18 0.0080000003799796104 0
  endloop
 endfacet
 facet normal 0 -0 -1
  outer loop
   vertex 0 0.0060000000521540642 0
   vertex 5.6399328969361128e-18 0.0080000003799796104 0
   vertex 0.0042426404543220997 0.0042426404543220997 0
  endloop
 endfacet
 facet normal 0 0 -1
  outer loop
   vertex 0.0042426404543220997 0.0042426404543220997 0
   vertex 5.6399328969361128e-18 0.0080000003799796104 0
   vertex 0.0020705524366348982 0.0077274064533412457 0
  endloop
 endfacet
 facet normal 0 0 -1
  outer loop
   vertex 0.0042426404543220997 0.0042426404543220997 0
   vertex 0.0020705524366348982 0.0077274064533412457 0
   vertex 0.0040000001899898052 0.0069282031618058681 0
  endloop
 endfacet
 facet normal 0 0 -1
  outer loop
   vertex 0.0042426404543220997 0.0042426404543220997 0
   vertex 0.0040000001899898052 0.0069282031618058681 0
   vertex 0.0056568542495369911 0.0056568542495369911 0
  endloop
 endfacet
 facet normal 0 -0 -1
  outer loop
   vertex 0.0042426404543220997 0.0042426404543220997 0
   vertex 0.0056568542495369911 0.0056568542495369911 0
   vertex 0.0060000000521540642 0 0
  endloop
 endfacet
 facet normal 0 0 -1
  outer loop
   vertex 0.0060000000521540642 0 0
   vertex 0.0056568542495369911 0.0056568542495369911 0
   vertex 0.0069282031618058681 0.0040000001899898052 0
  endloop
 endfacet
 facet normal 0 -0 -1
  outer loop
   vertex 0.0060000000521540642 0 0
   vertex 0.0069282031618058681 0.0040000001899898052 0
   vertex 0.0069282031618058681 -0.0040000001899898052 0
  endloop
 endfacet
 facet normal 0 0 -1
  outer loop
   vertex 0.0069282031618058681 -0.0040000001899898052 0
   vertex 0.0069282031618058681 0.0040000001899898052 0
   vertex 0.0077274064533412457 -0.0020705524366348982 0
  endloop
 endfacet
 facet normal 0 0 -1
  outer loop
   vertex 0.0077274064533412457 -0.0020705524366348982 0
   vertex 0.0069282031618058681 0.0040000001899898052 0
   vertex 0.0077274064533412457 0.0020705524366348982 0
  endloop
 endfacet
 facet normal 0 0 -1
  outer loop
   vertex 0.0077274064533412457 -0.0020705524366348982 0
   vertex 0.0077274064533412457 0.0020705524366348982 0
   vertex 0.0080000003799796104 0 0
  endloop
 endfacet
 facet normal 0 0 -1
  outer loop
   vertex -0.0060000000521540642 0 0
   vertex -0.0056568542495369911 -0.0056568542495369911 0
   vertex -0.0069282031618058681 -0.0040000001899898052 0
  endloop
 endfacet
 facet normal 0 0 -1
  outer loop
   vertex -0.0056568542495369911 -0.0056568542495369911 0
   vertex -0.0060000000521540642 0 0
   vertex -0.0042426404543220997 -0.0042426404543220997 0
  endloop
 endfacet
 facet normal 0 -0 -1
  outer loop
   vertex -0.0056568542495369911 -0.0056568542495369911 0
   vertex -0.0042426404543220997 -0.0042426404543220997 0
   vertex -0.0040000001899898052 -0.0069282031618058681 0
  endloop
 endfacet
 facet normal 0 0 -1
  outer loop
   vertex -0.0040000001899898052 -0.0069282031618058681 0
   vertex -0.0042426404543220997 -0.0042426404543220997 0
   vertex 0 -0.0060000000521540642 0
  endloop
 endfacet
 facet normal 0 0 -1
  outer loop
   vertex -0.0040000001899898052 -0.0069282031618058681 0
   vertex 0 -0.0060000000521540642 0
   vertex -0.0020705524366348982 -0.0077274064533412457 0
  endloop
 endfacet
 facet normal 0 -0 -1
  outer loop
   vertex -0.0020705524366348982 -0.0077274064533412457 0
   vertex 0 -0.0060000000521540642 0
   vertex 0 -0.0080000003799796104 0
  endloop
 endfacet
 facet normal 0 0 -1
  outer loop
   vertex 0 -0.0080000003799796104 0
   vertex 0 -0.0060000000521540642 0
   vertex 0.0042426404543220997 -0.0042426404543220997 0
  endloop
 endfacet
 facet normal 0 0 -1
  outer loop
   vertex 0 -0.0080000003799796104 0
   vertex 0.0042426404543220997 -0.0042426404543220997 0
   vertex 0.0020705524366348982 -0.0077274064533412457 0
  endloop
 endfacet
 facet normal 0 0 -1
  outer loop
   vertex 0.0020705524366348982 -0.0077274064533412457 0
   vertex 0.0042426404543220997 -0.0042426404543220997 0
   vertex 0.0040000001899898052 -0.0069282031618058681 0
  endloop
 endfacet
 facet normal 0 -0 -1
  outer loop
   vertex 0.0040000001899898052 -0.0069282031618058681 0
   vertex 0.0042426404543220997 -0.0042426404543220997 0
   vertex 0.0056568542495369911 -0.0056568542495369911 0
  endloop
 endfacet
 facet normal 0 0 -1
  outer loop
   vertex 0.0056568542495369911 -0.0056568542495369911 0
   vertex 0.0042426404543220997 -0.0042426404543220997 0
   vertex 0.0060000000521540642 0 0
  endloop
 endfacet
 facet normal 0 -0 -1
  outer loop
   vertex 0.0056568542495369911 -0.0056568542495369911 0
   vertex 0.0060000000521540642 0 0
   vertex 0.0069282031618058681 -0.0040000001899898052 0
  endloop
 endfacet
 facet normal 0.57717482975152723 -0.57719204606716601 0.57768378708259938
  outer loop
   vertex 0.015441121533513069 -0.014001679606735706 0.038481120020151138
   vertex 0.014441121369600296 -0.014001679606735706 0.039480239152908325
   vertex 0.014441121369600296 -0.015001679770648479 0.038481090217828751
  endloop
 endfacet
 facet normal 0 -1 0
  outer loop
   vertex 0.014441121369600296 -0.015001679770648479 0.0083215795457363129
   vertex -0.013562611304223537 -0.015001679770648479 0.0033960000146180391
   vertex 0.010525541380047798 -0.015001679770648479 0.0033960000146180391
  endloop
 endfacet
 facet normal -0 -1 0
  outer loop
   vertex -0.013562611304223537 -0.015001679770648479 0.0033960000146180391
   vertex 0.014441121369600296 -0.015001679770648479 0.0083215795457363129
   vertex -0.013562611304223537 -0.015001679770648479 0.0090100998058915138
  endloop
 endfacet
 facet normal 0 -1 0
  outer loop
   vertex -0.013562611304223537 -0.015001679770648479 0.0090100998058915138
   vertex 0.014441121369600296 -0.015001679770648479 0.0083215795457363129
   vertex 0.014441121369600296 -0.015001679770648479 0.038481090217828751
  endloop
 endfacet
 facet normal 0 -1 0
  outer loop
   vertex -0.013562611304223537 -0.015001679770648479 0.0090100998058915138
   vertex 0.014441121369600296 -0.015001679770648479 0.038481090217828751
   vertex -0.031566377729177475 -0.015001679770648479 0.0090100998058915138
  endloop
 endfacet
 facet normal 0 -1 0
  outer loop
   vertex -0.031566377729177475 -0.015001679770648479 0.0090100998058915138
   vertex 0.014441121369600296 -0.015001679770648479 0.038481090217828751
   vertex -0.032566368579864502 -0.015001679770648479 0.010010099969804287
  endloop
 endfacet
 facet normal 0 -1 0
  outer loop
   vertex -0.032566368579864502 -0.015001679770648479 0.010010099969804287
   vertex 0.014441121369600296 -0.015001679770648479 0.038481090217828751
   vertex -0.018708864226937294 -0.015001679770648479 0.035254999995231628
  endloop
 endfacet
 facet normal 0 -1 0
  outer loop
   vertex -0.032566368579864502 -0.015001679770648479 0.010010099969804287
   vertex -0.018708864226937294 -0.015001679770648479 0.035254999995231628
   vertex -0.032566219568252563 -0.015001679770648479 0.034255001693964005
  endloop
 endfacet
 facet normal 0 -1 0
  outer loop
   vertex -0.018708864226937294 -0.015001679770648479 0.035254999995231628
   vertex 0.014441121369600296 -0.015001679770648479 0.038481090217828751
   vertex -0.015482884831726551 -0.015001679770648479 0.038480270653963089
  endloop
 endfacet
 facet normal 0 -1 0
  outer loop
   vertex -0.031830057501792908 -0.015001679770648479 0.035254999995231628
   vertex -0.032566219568252563 -0.015001679770648479 0.034255001693964005
   vertex -0.018708864226937294 -0.015001679770648479 0.035254999995231628
  endloop
 endfacet
 facet normal 0.70710678118654757 -0.70710678118654757 0
  outer loop
   vertex 0.015441121533513069 -0.014001679606735706 0.0083112400025129318
   vertex 0.014441121369600296 -0.015001679770648479 0.038481090217828751
   vertex 0.014441121369600296 -0.015001679770648479 0.0083215795457363129
  endloop
 endfacet
 facet normal 0.70710678118654746 -0.70710678118654746 0
  outer loop
   vertex 0.014441121369600296 -0.015001679770648479 0.038481090217828751
   vertex 0.015441121533513069 -0.014001679606735706 0.0083112400025129318
   vertex 0.015441121533513069 -0.014001679606735706 0.038481120020151138
  endloop
 endfacet
 facet normal 0.55351901271500281 -0.70710745857345736 -0.44001789121897611
  outer loop
   vertex 0.015148191712796688 -0.014001679606735706 0.0076040499843657017
   vertex 0.010525541380047798 -0.015001679770648479 0.0033960000146180391
   vertex 0.011008071713149548 -0.014001679606735706 0.0023960000835359097
  endloop
 endfacet
 facet normal 0.55352039512856088 -0.70710507962337199 -0.44001997516879449
  outer loop
   vertex 0.010525541380047798 -0.015001679770648479 0.0033960000146180391
   vertex 0.015148191712796688 -0.014001679606735706 0.0076040499843657017
   vertex 0.014441121369600296 -0.015001679770648479 0.0083215795457363129
  endloop
 endfacet
 facet normal 0.6772607132329127 -0.68016129177121953 -0.28053260681666276
  outer loop
   vertex 0.014441121369600296 -0.015001679770648479 0.0083215795457363129
   vertex 0.015148191712796688 -0.014001679606735706 0.0076040499843657017
   vertex 0.015441121533513069 -0.014001679606735706 0.0083112400025129318
  endloop
 endfacet
 facet normal -1.9366669633605033e-05 -0.70709558553326524 0.70711797639736251
  outer loop
   vertex 0.014441121369600296 -0.015001679770648479 0.038481090217828751
   vertex -0.015482884831726551 -0.014001679606735706 0.039480239152908325
   vertex -0.015482884831726551 -0.015001679770648479 0.038480270653963089
  endloop
 endfacet
 facet normal 0 -0.70680563417792441 0.70740779999540737
  outer loop
   vertex -0.015482884831726551 -0.014001679606735706 0.039480239152908325
   vertex 0.014441121369600296 -0.015001679770648479 0.038481090217828751
   vertex 0.014441121369600296 -0.014001679606735706 0.039480239152908325
  endloop
 endfacet
 facet normal -0.57726605713256351 -0.57739183287310536 0.57739290835102908
  outer loop
   vertex -0.015482884831726551 -0.015001679770648479 0.038480270653963089
   vertex -0.018708864226937294 -0.014001679606735706 0.036254998296499252
   vertex -0.018708864226937294 -0.015001679770648479 0.035254999995231628
  endloop
 endfacet
 facet normal -0.57726823599904509 -0.57738213966062835 0.57740042302328232
  outer loop
   vertex -0.018708864226937294 -0.014001679606735706 0.036254998296499252
   vertex -0.015482884831726551 -0.015001679770648479 0.038480270653963089
   vertex -0.015482884831726551 -0.014001679606735706 0.039480239152908325
  endloop
 endfacet
 facet normal -0.57735022438134442 -0.57735022438134442 -0.57735035880617802
  outer loop
   vertex -0.014562611468136311 -0.014001679606735706 0.0033960000146180391
   vertex -0.013562611304223537 -0.014001679606735706 0.0023960000835359097
   vertex -0.013562611304223537 -0.015001679770648479 0.0033960000146180391
  endloop
 endfacet
 facet normal -0.70710455391080995 -0.70710900844248425 4.2521758500972444e-06
  outer loop
   vertex -0.032566368579864502 -0.015001679770648479 0.010010099969804287
   vertex -0.033566229045391083 -0.014001679606735706 0.034288469702005386
   vertex -0.033566378057003021 -0.014001679606735706 0.0095089701935648918
  endloop
 endfacet
 facet normal -0.70710341574075231 -0.70711014660297 4.3459289291214505e-06
  outer loop
   vertex -0.033566229045391083 -0.014001679606735706 0.034288469702005386
   vertex -0.032566368579864502 -0.015001679770648479 0.010010099969804287
   vertex -0.032566219568252563 -0.015001679770648479 0.034255001693964005
  endloop
 endfacet
 facet normal -0.48575158989596834 -0.7372147562999628 -0.46963794140499904
  outer loop
   vertex -0.033566378057003021 -0.014001679606735706 0.0095089701935648918
   vertex -0.032117228955030441 -0.014001679606735706 0.0080100996419787407
   vertex -0.031566377729177475 -0.015001679770648479 0.0090100998058915138
  endloop
 endfacet
 facet normal -0.4848781540838133 -0.72786724790259394 -0.48487363830484514
  outer loop
   vertex -0.032566368579864502 -0.015001679770648479 0.010010099969804287
   vertex -0.033566378057003021 -0.014001679606735706 0.0095089701935648918
   vertex -0.031566377729177475 -0.015001679770648479 0.0090100998058915138
  endloop
 endfacet
 facet normal 0 -0.7071066988684831 -0.70710686350460228
  outer loop
   vertex 0.010525541380047798 -0.015001679770648479 0.0033960000146180391
   vertex -0.013562611304223537 -0.014001679606735706 0.0023960000835359097
   vertex 0.011008071713149548 -0.014001679606735706 0.0023960000835359097
  endloop
 endfacet
 facet normal -0 -0.7071066988684831 -0.70710686350460228
  outer loop
   vertex -0.013562611304223537 -0.014001679606735706 0.0023960000835359097
   vertex 0.010525541380047798 -0.015001679770648479 0.0033960000146180391
   vertex -0.013562611304223537 -0.015001679770648479 0.0033960000146180391
  endloop
 endfacet
 facet normal -0.62114936025261236 -0.63645897077734992 0.45726737339854795
  outer loop
   vertex -0.031830057501792908 -0.015001679770648479 0.035254999995231628
   vertex -0.033566229045391083 -0.014001679606735706 0.034288469702005386
   vertex -0.032566219568252563 -0.015001679770648479 0.034255001693964005
  endloop
 endfacet
 facet normal -0.62114920922064432 -0.63646030446246338 0.457265722231742
  outer loop
   vertex -0.033566229045391083 -0.014001679606735706 0.034288469702005386
   vertex -0.031830057501792908 -0.015001679770648479 0.035254999995231628
   vertex -0.032118547707796097 -0.014001679606735706 0.036254998296499252
  endloop
 endfacet
 facet normal 0 -0.70710612264122752 0.70710743973125423
  outer loop
   vertex -0.031830057501792908 -0.015001679770648479 0.035254999995231628
   vertex -0.018708864226937294 -0.014001679606735706 0.036254998296499252
   vertex -0.032118547707796097 -0.014001679606735706 0.036254998296499252
  endloop
 endfacet
 facet normal 0 -0.70710612264122741 0.70710743973125412
  outer loop
   vertex -0.018708864226937294 -0.014001679606735706 0.036254998296499252
   vertex -0.031830057501792908 -0.015001679770648479 0.035254999995231628
   vertex -0.018708864226937294 -0.015001679770648479 0.035254999995231628
  endloop
 endfacet
 facet normal -0.70710678118654768 -0.70710678118654768 0
  outer loop
   vertex -0.014562611468136311 -0.014001679606735706 0.0080100996419787407
   vertex -0.013562611304223537 -0.015001679770648479 0.0033960000146180391
   vertex -0.013562611304223537 -0.015001679770648479 0.0090100998058915138
  endloop
 endfacet
 facet normal -0.70710678118654757 -0.70710678118654757 -0
  outer loop
   vertex -0.013562611304223537 -0.015001679770648479 0.0033960000146180391
   vertex -0.014562611468136311 -0.014001679606735706 0.0080100996419787407
   vertex -0.014562611468136311 -0.014001679606735706 0.0033960000146180391
  endloop
 endfacet
 facet normal 0 -0.70710678118654757 -0.70710678118654757
  outer loop
   vertex -0.013562611304223537 -0.015001679770648479 0.0090100998058915138
   vertex -0.032117228955030441 -0.014001679606735706 0.0080100996419787407
   vertex -0.014562611468136311 -0.014001679606735706 0.0080100996419787407
  endloop
 endfacet
 facet normal -0 -0.70710678118654757 -0.70710678118654757
  outer loop
   vertex -0.032117228955030441 -0.014001679606735706 0.0080100996419787407
   vertex -0.013562611304223537 -0.015001679770648479 0.0090100998058915138
   vertex -0.031566377729177475 -0.015001679770648479 0.0090100998058915138
  endloop
 endfacet
 facet normal -1 0 0
  outer loop
   vertex -0.014562611468136311 0.014001679606735706 0.0080100996419787407
   vertex -0.014562611468136311 -0.014001679606735706 0.0033960000146180391
   vertex -0.014562611468136311 -0.014001679606735706 0.0080100996419787407
  endloop
 endfacet
 facet normal -1 0 -0
  outer loop
   vertex -0.014562611468136311 -0.014001679606735706 0.0033960000146180391
   vertex -0.014562611468136311 0.014001679606735706 0.0080100996419787407
   vertex -0.014562611468136311 0.014001679606735706 0.0033960000146180391
  endloop
 endfacet
 facet normal 0 0 1
  outer loop
   vertex 0.014441121369600296 -0.014001679606735706 0.039480239152908325
   vertex -0.015482884831726551 0.014001679606735706 0.039480239152908325
   vertex -0.015482884831726551 -0.014001679606735706 0.039480239152908325
  endloop
 endfacet
 facet normal 0 -0 1
  outer loop
   vertex -0.015482884831726551 0.014001679606735706 0.039480239152908325
   vertex 0.014441121369600296 -0.014001679606735706 0.039480239152908325
   vertex 0.014441121369600296 0.014001679606735706 0.039480239152908325
  endloop
 endfacet
 facet normal 0.78279484470742666 0 -0.62227986557454673
  outer loop
   vertex 0.011008071713149548 0.014001679606735706 0.0023960000835359097
   vertex 0.015148191712796688 -0.014001679606735706 0.0076040499843657017
   vertex 0.011008071713149548 -0.014001679606735706 0.0023960000835359097
  endloop
 endfacet
 facet normal 0.78279484470742666 0 -0.62227986557454673
  outer loop
   vertex 0.015148191712796688 -0.014001679606735706 0.0076040499843657017
   vertex 0.011008071713149548 0.014001679606735706 0.0023960000835359097
   vertex 0.015148191712796688 0.014001679606735706 0.0076040499843657017
  endloop
 endfacet
 facet normal 1 0 0
  outer loop
   vertex 0.015441121533513069 0.014001679606735706 0.0083112400025129318
   vertex 0.015441121533513069 -0.014001679606735706 0.038481120020151138
   vertex 0.015441121533513069 -0.014001679606735706 0.0083112400025129318
  endloop
 endfacet
 facet normal 1 0 -0
  outer loop
   vertex 0.015441121533513069 -0.014001679606735706 0.038481120020151138
   vertex 0.015441121533513069 0.014001679606735706 0.0083112400025129318
   vertex 0.015441121533513069 0.014001679606735706 0.038481120020151138
  endloop
 endfacet
 facet normal 0.92387855145320097 0 -0.38268580084023912
  outer loop
   vertex 0.015148191712796688 0.014001679606735706 0.0076040499843657017
   vertex 0.015441121533513069 -0.014001679606735706 0.0083112400025129318
   vertex 0.015148191712796688 -0.014001679606735706 0.0076040499843657017
  endloop
 endfacet
 facet normal 0.92387855145320097 0 -0.38268580084023912
  outer loop
   vertex 0.015441121533513069 -0.014001679606735706 0.0083112400025129318
   vertex 0.015148191712796688 0.014001679606735706 0.0076040499843657017
   vertex 0.015441121533513069 0.014001679606735706 0.0083112400025129318
  endloop
 endfacet
 facet normal 0.70679508376938904 0 0.70741834126591763
  outer loop
   vertex 0.015441121533513069 -0.014001679606735706 0.038481120020151138
   vertex 0.014441121369600296 0.014001679606735706 0.039480239152908325
   vertex 0.014441121369600296 -0.014001679606735706 0.039480239152908325
  endloop
 endfacet
 facet normal 0.70679508376938904 -0 0.70741834126591763
  outer loop
   vertex 0.014441121369600296 0.014001679606735706 0.039480239152908325
   vertex 0.015441121533513069 -0.014001679606735706 0.038481120020151138
   vertex 0.015441121533513069 0.014001679606735706 0.038481120020151138
  endloop
 endfacet
 facet normal -0.71893063261594448 -0 -0.69508182646824967
  outer loop
   vertex -0.033566378057003021 -0.014001679606735706 0.0095089701935648918
   vertex -0.032117228955030441 0.014001679606735706 0.0080100996419787407
   vertex -0.032117228955030441 -0.014001679606735706 0.0080100996419787407
  endloop
 endfacet
 facet normal -0.71893063261594448 0 -0.69508182646824967
  outer loop
   vertex -0.032117228955030441 0.014001679606735706 0.0080100996419787407
   vertex -0.033566378057003021 -0.014001679606735706 0.0095089701935648918
   vertex -0.033566378057003021 0.014001679606735706 0.0095089701935648918
  endloop
 endfacet
 facet normal 0.55351901271500281 0.70710745857345736 -0.44001789121897611
  outer loop
   vertex 0.010525541380047798 0.015001679770648479 0.0033960000146180391
   vertex 0.015148191712796688 0.014001679606735706 0.0076040499843657017
   vertex 0.011008071713149548 0.014001679606735706 0.0023960000835359097
  endloop
 endfacet
 facet normal 0.55352039512856088 0.70710507962337199 -0.44001997516879449
  outer loop
   vertex 0.015148191712796688 0.014001679606735706 0.0076040499843657017
   vertex 0.010525541380047798 0.015001679770648479 0.0033960000146180391
   vertex 0.014441121369600296 0.015001679770648479 0.0083215795457363129
  endloop
 endfacet
 facet normal 0.99144482871994333 -0.13052644025055707 0
  outer loop
   vertex 0.0080000003799796104 0 0
   vertex 0.0077274064533412457 -0.0020705524366348982 0.0023960000835359097
   vertex 0.0077274064533412457 -0.0020705524366348982 0
  endloop
 endfacet
 facet normal 0.99144482871994333 -0.13052644025055707 0
  outer loop
   vertex 0.0077274064533412457 -0.0020705524366348982 0.0023960000835359097
   vertex 0.0080000003799796104 0 0
   vertex 0.0080000003799796104 0 0.0023960000835359097
  endloop
 endfacet
 facet normal 0.92387955550025946 -0.38268337686479548 0
  outer loop
   vertex 0.0077274064533412457 -0.0020705524366348982 0
   vertex 0.0069282031618058681 -0.0040000001899898052 0.0023960000835359097
   vertex 0.0069282031618058681 -0.0040000001899898052 0
  endloop
 endfacet
 facet normal 0.92387955550025946 -0.38268337686479548 0
  outer loop
   vertex 0.0069282031618058681 -0.0040000001899898052 0.0023960000835359097
   vertex 0.0077274064533412457 -0.0020705524366348982 0
   vertex 0.0077274064533412457 -0.0020705524366348982 0.0023960000835359097
  endloop
 endfacet
 facet normal 0.79335332242985757 -0.60876145228612044 0
  outer loop
   vertex 0.0069282031618058681 -0.0040000001899898052 0
   vertex 0.0056568542495369911 -0.0056568542495369911 0.0023960000835359097
   vertex 0.0056568542495369911 -0.0056568542495369911 0
  endloop
 endfacet
 facet normal 0.79335332242985757 -0.60876145228612044 0
  outer loop
   vertex 0.0056568542495369911 -0.0056568542495369911 0.0023960000835359097
   vertex 0.0069282031618058681 -0.0040000001899898052 0
   vertex 0.0069282031618058681 -0.0040000001899898052 0.0023960000835359097
  endloop
 endfacet
 facet normal 0.60876145228612044 -0.79335332242985757 0
  outer loop
   vertex 0.0056568542495369911 -0.0056568542495369911 0.0023960000835359097
   vertex 0.0040000001899898052 -0.0069282031618058681 0
   vertex 0.0056568542495369911 -0.0056568542495369911 0
  endloop
 endfacet
 facet normal 0.60876145228612044 -0.79335332242985757 0
  outer loop
   vertex 0.0040000001899898052 -0.0069282031618058681 0
   vertex 0.0056568542495369911 -0.0056568542495369911 0.0023960000835359097
   vertex 0.0040000001899898052 -0.0069282031618058681 0.0023960000835359097
  endloop
 endfacet
 facet normal 0.38268337686479548 -0.92387955550025946 0
  outer loop
   vertex 0.0040000001899898052 -0.0069282031618058681 0.0023960000835359097
   vertex 0.0020705524366348982 -0.0077274064533412457 0
   vertex 0.0040000001899898052 -0.0069282031618058681 0
  endloop
 endfacet
 facet normal 0.38268337686479548 -0.92387955550025946 0
  outer loop
   vertex 0.0020705524366348982 -0.0077274064533412457 0
   vertex 0.0040000001899898052 -0.0069282031618058681 0.0023960000835359097
   vertex 0.0020705524366348982 -0.0077274064533412457 0.0023960000835359097
  endloop
 endfacet
 facet normal 0.13052644025055707 -0.99144482871994333 0
  outer loop
   vertex 0.0020705524366348982 -0.0077274064533412457 0.0023960000835359097
   vertex 0 -0.0080000003799796104 0
   vertex 0.0020705524366348982 -0.0077274064533412457 0
  endloop
 endfacet
 facet normal 0.13052644025055707 -0.99144482871994333 0
  outer loop
   vertex 0 -0.0080000003799796104 0
   vertex 0.0020705524366348982 -0.0077274064533412457 0.0023960000835359097
   vertex 0 -0.0080000003799796104 0.0023960000835359097
  endloop
 endfacet
 facet normal -0.13052644025055707 -0.99144482871994333 0
  outer loop
   vertex 0 -0.0080000003799796104 0.0023960000835359097
   vertex -0.0020705524366348982 -0.0077274064533412457 0
   vertex 0 -0.0080000003799796104 0
  endloop
 endfacet
 facet normal -0.13052644025055707 -0.99144482871994333 0
  outer loop
   vertex -0.0020705524366348982 -0.0077274064533412457 0
   vertex 0 -0.0080000003799796104 0.0023960000835359097
   vertex -0.0020705524366348982 -0.0077274064533412457 0.0023960000835359097
  endloop
 endfacet
 facet normal -0.38268337686479548 -0.92387955550025946 0
  outer loop
   vertex -0.0020705524366348982 -0.0077274064533412457 0.0023960000835359097
   vertex -0.0040000001899898052 -0.0069282031618058681 0
   vertex -0.0020705524366348982 -0.0077274064533412457 0
  endloop
 endfacet
 facet normal -0.38268337686479548 -0.92387955550025946 0
  outer loop
   vertex -0.0040000001899898052 -0.0069282031618058681 0
   vertex -0.0020705524366348982 -0.0077274064533412457 0.0023960000835359097
   vertex -0.0040000001899898052 -0.0069282031618058681 0.0023960000835359097
  endloop
 endfacet
 facet normal -0.60876145228612044 -0.79335332242985757 0
  outer loop
   vertex -0.0040000001899898052 -0.0069282031618058681 0.0023960000835359097
   vertex -0.0056568542495369911 -0.0056568542495369911 0
   vertex -0.0040000001899898052 -0.0069282031618058681 0
  endloop
 endfacet
 facet normal -0.60876145228612044 -0.79335332242985757 0
  outer loop
   vertex -0.0056568542495369911 -0.0056568542495369911 0
   vertex -0.0040000001899898052 -0.0069282031618058681 0.0023960000835359097
   vertex -0.0056568542495369911 -0.0056568542495369911 0.0023960000835359097
  endloop
 endfacet
 facet normal -0.79335332242985757 -0.60876145228612044 0
  outer loop
   vertex -0.0069282031618058681 -0.0040000001899898052 0.0023960000835359097
   vertex -0.0056568542495369911 -0.0056568542495369911 0
   vertex -0.0056568542495369911 -0.0056568542495369911 0.0023960000835359097
  endloop
 endfacet
 facet normal -0.79335332242985757 -0.60876145228612044 -0
  outer loop
   vertex -0.0056568542495369911 -0.0056568542495369911 0
   vertex -0.0069282031618058681 -0.0040000001899898052 0.0023960000835359097
   vertex -0.0069282031618058681 -0.0040000001899898052 0
  endloop
 endfacet
 facet normal -0.92387955550025946 -0.38268337686479548 0
  outer loop
   vertex -0.0077274064533412457 -0.0020705524366348982 0.0023960000835359097
   vertex -0.0069282031618058681 -0.0040000001899898052 0
   vertex -0.0069282031618058681 -0.0040000001899898052 0.0023960000835359097
  endloop
 endfacet
 facet normal -0.92387955550025946 -0.38268337686479548 -0
  outer loop
   vertex -0.0069282031618058681 -0.0040000001899898052 0
   vertex -0.0077274064533412457 -0.0020705524366348982 0.0023960000835359097
   vertex -0.0077274064533412457 -0.0020705524366348982 0
  endloop
 endfacet
 facet normal -0.99144482871994333 -0.13052644025055707 0
  outer loop
   vertex -0.0080000003799796104 0 0.0023960000835359097
   vertex -0.0077274064533412457 -0.0020705524366348982 0
   vertex -0.0077274064533412457 -0.0020705524366348982 0.0023960000835359097
  endloop
 endfacet
 facet normal -0.99144482871994333 -0.13052644025055707 -0
  outer loop
   vertex -0.0077274064533412457 -0.0020705524366348982 0
   vertex -0.0080000003799796104 0 0.0023960000835359097
   vertex -0.0080000003799796104 0 0
  endloop
 endfacet
 facet normal -0.99144482871994333 0.13052644025055707 0
  outer loop
   vertex -0.0077274064533412457 0.0020705524366348982 0.0023960000835359097
   vertex -0.0080000003799796104 0 0
   vertex -0.0080000003799796104 0 0.0023960000835359097
  endloop
 endfacet
 facet normal -0.99144482871994333 0.13052644025055707 0
  outer loop
   vertex -0.0080000003799796104 0 0
   vertex -0.0077274064533412457 0.0020705524366348982 0.0023960000835359097
   vertex -0.0077274064533412457 0.0020705524366348982 0
  endloop
 endfacet
 facet normal -0.92387955550025946 0.38268337686479548 0
  outer loop
   vertex -0.0069282031618058681 0.0040000001899898052 0.0023960000835359097
   vertex -0.0077274064533412457 0.0020705524366348982 0
   vertex -0.0077274064533412457 0.0020705524366348982 0.0023960000835359097
  endloop
 endfacet
 facet normal -0.92387955550025946 0.38268337686479548 0
  outer loop
   vertex -0.0077274064533412457 0.0020705524366348982 0
   vertex -0.0069282031618058681 0.0040000001899898052 0.0023960000835359097
   vertex -0.0069282031618058681 0.0040000001899898052 0
  endloop
 endfacet
 facet normal -0.79335332242985757 0.60876145228612044 0
  outer loop
   vertex -0.0056568542495369911 0.0056568542495369911 0.0023960000835359097
   vertex -0.0069282031618058681 0.0040000001899898052 0
   vertex -0.0069282031618058681 0.0040000001899898052 0.0023960000835359097
  endloop
 endfacet
 facet normal -0.79335332242985757 0.60876145228612044 0
  outer loop
   vertex -0.0069282031618058681 0.0040000001899898052 0
   vertex -0.0056568542495369911 0.0056568542495369911 0.0023960000835359097
   vertex -0.0056568542495369911 0.0056568542495369911 0
  endloop
 endfacet
 facet normal -0.60876145228612044 0.79335332242985757 0
  outer loop
   vertex -0.0056568542495369911 0.0056568542495369911 0.0023960000835359097
   vertex -0.0040000001899898052 0.0069282031618058681 0
   vertex -0.0056568542495369911 0.0056568542495369911 0
  endloop
 endfacet
 facet normal -0.60876145228612044 0.79335332242985757 0
  outer loop
   vertex -0.0040000001899898052 0.0069282031618058681 0
   vertex -0.0056568542495369911 0.0056568542495369911 0.0023960000835359097
   vertex -0.0040000001899898052 0.0069282031618058681 0.0023960000835359097
  endloop
 endfacet
 facet normal -0.38268337686479548 0.92387955550025946 0
  outer loop
   vertex -0.0040000001899898052 0.0069282031618058681 0.0023960000835359097
   vertex -0.0020705524366348982 0.0077274064533412457 0
   vertex -0.0040000001899898052 0.0069282031618058681 0
  endloop
 endfacet
 facet normal -0.38268337686479548 0.92387955550025946 0
  outer loop
   vertex -0.0020705524366348982 0.0077274064533412457 0
   vertex -0.0040000001899898052 0.0069282031618058681 0.0023960000835359097
   vertex -0.0020705524366348982 0.0077274064533412457 0.0023960000835359097
  endloop
 endfacet
 facet normal -0.13052644025055671 0.99144482871994333 -1.0260644565844648e-17
  outer loop
   vertex -0.0020705524366348982 0.0077274064533412457 0.0023960000835359097
   vertex 5.6399328969361128e-18 0.0080000003799796104 0
   vertex -0.0020705524366348982 0.0077274064533412457 0
  endloop
 endfacet
 facet normal -0.13052644025055671 0.99144482871994333 -1.0260644565844648e-17
  outer loop
   vertex 5.6399328969361128e-18 0.0080000003799796104 0
   vertex -0.0020705524366348982 0.0077274064533412457 0.0023960000835359097
   vertex 5.6399328969361128e-18 0.0080000003799796104 0.0023960000835359097
  endloop
 endfacet
 facet normal 0.1305264402505574 0.99144482871994333 -1.0260644565844703e-17
  outer loop
   vertex 5.6399328969361128e-18 0.0080000003799796104 0.0023960000835359097
   vertex 0.0020705524366348982 0.0077274064533412457 0
   vertex 5.6399328969361128e-18 0.0080000003799796104 0
  endloop
 endfacet
 facet normal 0.1305264402505574 0.99144482871994333 -1.0260644565844703e-17
  outer loop
   vertex 0.0020705524366348982 0.0077274064533412457 0
   vertex 5.6399328969361128e-18 0.0080000003799796104 0.0023960000835359097
   vertex 0.0020705524366348982 0.0077274064533412457 0.0023960000835359097
  endloop
 endfacet
 facet normal 0.38268337686479548 0.92387955550025946 0
  outer loop
   vertex 0.0020705524366348982 0.0077274064533412457 0.0023960000835359097
   vertex 0.0040000001899898052 0.0069282031618058681 0
   vertex 0.0020705524366348982 0.0077274064533412457 0
  endloop
 endfacet
 facet normal 0.38268337686479548 0.92387955550025946 0
  outer loop
   vertex 0.0040000001899898052 0.0069282031618058681 0
   vertex 0.0020705524366348982 0.0077274064533412457 0.0023960000835359097
   vertex 0.0040000001899898052 0.0069282031618058681 0.0023960000835359097
  endloop
 endfacet
 facet normal 0.60876145228612044 0.79335332242985757 0
  outer loop
   vertex 0.0040000001899898052 0.0069282031618058681 0.0023960000835359097
   vertex 0.0056568542495369911 0.0056568542495369911 0
   vertex 0.0040000001899898052 0.0069282031618058681 0
  endloop
 endfacet
 facet normal 0.60876145228612044 0.79335332242985757 0
  outer loop
   vertex 0.0056568542495369911 0.0056568542495369911 0
   vertex 0.0040000001899898052 0.0069282031618058681 0.0023960000835359097
   vertex 0.0056568542495369911 0.0056568542495369911 0.0023960000835359097
  endloop
 endfacet
 facet normal 0.79335332242985757 0.60876145228612044 0
  outer loop
   vertex 0.0056568542495369911 0.0056568542495369911 0
   vertex 0.0069282031618058681 0.0040000001899898052 0.0023960000835359097
   vertex 0.0069282031618058681 0.0040000001899898052 0
  endloop
 endfacet
 facet normal 0.79335332242985757 0.60876145228612044 -0
  outer loop
   vertex 0.0069282031618058681 0.0040000001899898052 0.0023960000835359097
   vertex 0.0056568542495369911 0.0056568542495369911 0
   vertex 0.0056568542495369911 0.0056568542495369911 0.0023960000835359097
  endloop
 endfacet
 facet normal 0.92387955550025946 0.38268337686479548 0
  outer loop
   vertex 0.0069282031618058681 0.0040000001899898052 0
   vertex 0.0077274064533412457 0.0020705524366348982 0.0023960000835359097
   vertex 0.0077274064533412457 0.0020705524366348982 0
  endloop
 endfacet
 facet normal 0.92387955550025946 0.38268337686479548 -0
  outer loop
   vertex 0.0077274064533412457 0.0020705524366348982 0.0023960000835359097
   vertex 0.0069282031618058681 0.0040000001899898052 0
   vertex 0.0069282031618058681 0.0040000001899898052 0.0023960000835359097
  endloop
 endfacet
 facet normal 0.99144482871994333 0.13052644025055707 0
  outer loop
   vertex 0.0077274064533412457 0.0020705524366348982 0
   vertex 0.0080000003799796104 0 0.0023960000835359097
   vertex 0.0080000003799796104 0 0
  endloop
 endfacet
 facet normal 0.99144482871994333 0.13052644025055707 -0
  outer loop
   vertex 0.0080000003799796104 0 0.0023960000835359097
   vertex 0.0077274064533412457 0.0020705524366348982 0
   vertex 0.0077274064533412457 0.0020705524366348982 0.0023960000835359097
  endloop
 endfacet
 facet normal -0.92387950314892897 0.38268350325208461 0
  outer loop
   vertex 0.0060000000521540642 0 0.0023960000835359097
   vertex 0.0042426404543220997 -0.0042426404543220997 0
   vertex 0.0042426404543220997 -0.0042426404543220997 0.0023960000835359097
  endloop
 endfacet
 facet normal -0.92387950314892897 0.38268350325208461 0
  outer loop
   vertex 0.0042426404543220997 -0.0042426404543220997 0
   vertex 0.0060000000521540642 0 0.0023960000835359097
   vertex 0.0060000000521540642 0 0
  endloop
 endfacet
 facet normal -0.92387950314892897 -0.38268350325208461 0
  outer loop
   vertex 0.0042426404543220997 0.0042426404543220997 0.0023960000835359097
   vertex 0.0060000000521540642 0 0
   vertex 0.0060000000521540642 0 0.0023960000835359097
  endloop
 endfacet
 facet normal -0.92387950314892897 -0.38268350325208461 -0
  outer loop
   vertex 0.0060000000521540642 0 0
   vertex 0.0042426404543220997 0.0042426404543220997 0.0023960000835359097
   vertex 0.0042426404543220997 0.0042426404543220997 0
  endloop
 endfacet
 facet normal -0.38268350325208461 -0.92387950314892897 0
  outer loop
   vertex 0.0042426404543220997 0.0042426404543220997 0.0023960000835359097
   vertex 0 0.0060000000521540642 0
   vertex 0.0042426404543220997 0.0042426404543220997 0
  endloop
 endfacet
 facet normal -0.38268350325208461 -0.92387950314892897 0
  outer loop
   vertex 0 0.0060000000521540642 0
   vertex 0.0042426404543220997 0.0042426404543220997 0.0023960000835359097
   vertex 0 0.0060000000521540642 0.0023960000835359097
  endloop
 endfacet
 facet normal 0.38268350325208461 -0.92387950314892897 0
  outer loop
   vertex 0 0.0060000000521540642 0.0023960000835359097
   vertex -0.0042426404543220997 0.0042426404543220997 0
   vertex 0 0.0060000000521540642 0
  endloop
 endfacet
 facet normal 0.38268350325208461 -0.92387950314892897 0
  outer loop
   vertex -0.0042426404543220997 0.0042426404543220997 0
   vertex 0 0.0060000000521540642 0.0023960000835359097
   vertex -0.0042426404543220997 0.0042426404543220997 0.0023960000835359097
  endloop
 endfacet
 facet normal 0.92387950314892897 -0.38268350325208461 0
  outer loop
   vertex -0.0042426404543220997 0.0042426404543220997 0
   vertex -0.0060000000521540642 0 0.0023960000835359097
   vertex -0.0060000000521540642 0 0
  endloop
 endfacet
 facet normal 0.92387950314892897 -0.38268350325208461 0
  outer loop
   vertex -0.0060000000521540642 0 0.0023960000835359097
   vertex -0.0042426404543220997 0.0042426404543220997 0
   vertex -0.0042426404543220997 0.0042426404543220997 0.0023960000835359097
  endloop
 endfacet
 facet normal 0.92387950314892897 0.38268350325208461 0
  outer loop
   vertex -0.0060000000521540642 0 0
   vertex -0.0042426404543220997 -0.0042426404543220997 0.0023960000835359097
   vertex -0.0042426404543220997 -0.0042426404543220997 0
  endloop
 endfacet
 facet normal 0.92387950314892897 0.38268350325208461 -0
  outer loop
   vertex -0.0042426404543220997 -0.0042426404543220997 0.0023960000835359097
   vertex -0.0060000000521540642 0 0
   vertex -0.0060000000521540642 0 0.0023960000835359097
  endloop
 endfacet
 facet normal 0.38268350325208461 0.92387950314892897 0
  outer loop
   vertex -0.0042426404543220997 -0.0042426404543220997 0.0023960000835359097
   vertex 0 -0.0060000000521540642 0
   vertex -0.0042426404543220997 -0.0042426404543220997 0
  endloop
 endfacet
 facet normal 0.38268350325208461 0.92387950314892897 0
  outer loop
   vertex 0 -0.0060000000521540642 0
   vertex -0.0042426404543220997 -0.0042426404543220997 0.0023960000835359097
   vertex 0 -0.0060000000521540642 0.0023960000835359097
  endloop
 endfacet
 facet normal -0.38268350325208461 0.92387950314892897 0
  outer loop
   vertex 0 -0.0060000000521540642 0.0023960000835359097
   vertex 0.0042426404543220997 -0.0042426404543220997 0
   vertex 0 -0.0060000000521540642 0
  endloop
 endfacet
 facet normal -0.38268350325208461 0.92387950314892897 0
  outer loop
   vertex 0.0042426404543220997 -0.0042426404543220997 0
   vertex 0 -0.0060000000521540642 0.0023960000835359097
   vertex 0.0042426404543220997 -0.0042426404543220997 0.0023960000835359097
  endloop
 endfacet
endsolid
