solid Visualization Toolkit generated SLA File
 facet normal -3.2393189833930162e-07 0 -0.9999999999999476
  outer loop
   vertex -0.01149956788867712 0.0099999997764825821 -0.039008904248476028
   vertex -0.034500021487474442 0.0069999992847442627 -0.039008896797895432
   vertex -0.034500021487474442 0.0099999997764825821 -0.039008896797895432
  endloop
 endfacet
 facet normal -1.257753614776395e-06 7.1594398460287224e-06 -0.99999999997358024
  outer loop
   vertex -0.034500021487474442 0.0069999992847442627 -0.039008896797895432
   vertex -0.01149956788867712 0.0099999997764825821 -0.039008904248476028
   vertex -0.013767021708190441 0.0069999955594539642 -0.039008922874927521
  endloop
 endfacet
 facet normal 8.2146993827989071e-06 0 -0.99999999996625932
  outer loop
   vertex -0.013767021708190441 0.0069999955594539642 -0.039008922874927521
   vertex -0.01149956788867712 0.0099999997764825821 -0.039008904248476028
   vertex -0.01149956788867712 -0.0099301803857088089 -0.039008904248476028
  endloop
 endfacet
 facet normal -1.2577551837022354e-06 0 -0.99999999999920908
  outer loop
   vertex -0.013767026364803314 -0.0069301840849220753 -0.039008922874927521
   vertex -0.034500021487474442 -0.0099301803857088089 -0.039008896797895432
   vertex -0.034500021487474442 -0.0069301803596317768 -0.039008896797895432
  endloop
 endfacet
 facet normal -3.2393189833255574e-07 -6.453659164648033e-06 -0.99999999997912259
  outer loop
   vertex -0.034500021487474442 -0.0099301803857088089 -0.039008896797895432
   vertex -0.013767026364803314 -0.0069301840849220753 -0.039008922874927521
   vertex -0.01149956788867712 -0.0099301803857088089 -0.039008904248476028
  endloop
 endfacet
 facet normal 8.2146788793448648e-06 -2.7460219748994971e-12 -0.99999999996625955
  outer loop
   vertex -0.01149956788867712 -0.0099301803857088089 -0.039008904248476028
   vertex -0.013767026364803314 -0.0069301840849220753 -0.039008922874927521
   vertex -0.013767021708190441 0.0069999955594539642 -0.039008922874927521
  endloop
 endfacet
 facet normal -0.70710414699913438 0 0.70710941536414773
  outer loop
   vertex -0.034500010311603546 0.0069999992847442627 -0.031999990344047546
   vertex -0.035000011324882507 0.0099999988451600075 -0.032499987632036209
   vertex -0.035000011324882507 0.0069999992847442627 -0.032499987632036209
  endloop
 endfacet
 facet normal -0.70710678118627501 -8.7805947263699361e-07 0.70710678118627501
  outer loop
   vertex -0.035000011324882507 0.0099999988451600075 -0.032499987632036209
   vertex -0.034500010311603546 0.0069999992847442627 -0.031999990344047546
   vertex -0.034500010311603546 0.0099999988451600075 -0.031999986618757248
  endloop
 endfacet
 facet normal -0.7071120495515606 -0 -0.7071015127822815
  outer loop
   vertex -0.035000015050172806 0.0069999992847442627 -0.03850889578461647
   vertex -0.034500021487474442 0.0099999997764825821 -0.039008896797895432
   vertex -0.034500021487474442 0.0069999992847442627 -0.039008896797895432
  endloop
 endfacet
 facet normal -0.70710941536387506 -8.7806247107638525e-07 -0.7071041469988617
  outer loop
   vertex -0.034500021487474442 0.0099999997764825821 -0.039008896797895432
   vertex -0.035000015050172806 0.0069999992847442627 -0.03850889578461647
   vertex -0.035000018775463104 0.0099999997764825821 -0.03850889578461647
  endloop
 endfacet
 facet normal -2.2905422863491918e-07 -0.707107439730009 -0.70710612264243555
  outer loop
   vertex -0.01149956788867712 -0.0099301803857088089 -0.039008904248476028
   vertex -0.034500021487474442 -0.010430180467665195 -0.03850889578461647
   vertex -0.034500021487474442 -0.0099301803857088089 -0.039008896797895432
  endloop
 endfacet
 facet normal -3.4358262289478543e-07 -0.70710480554502586 -0.70710875682246588
  outer loop
   vertex -0.034500021487474442 -0.010430180467665195 -0.03850889578461647
   vertex -0.01149956788867712 -0.0099301803857088089 -0.039008904248476028
   vertex -0.01149956788867712 -0.010430180467665195 -0.038508906960487366
  endloop
 endfacet
 facet normal 0.70710678118654324 0.70710678118654324 -1.0959470360683286e-07
  outer loop
   vertex -0.01149956788867712 0.010499999858438969 -0.038508906960487366
   vertex -0.010999565944075584 0.0099999988451600075 -0.032499998807907104
   vertex -0.010999567806720734 0.0099999997764825821 -0.038508906960487366
  endloop
 endfacet
 facet normal 0.70710678118654324 0.70710678118654324 -1.0959470360683286e-07
  outer loop
   vertex -0.010999565944075584 0.0099999988451600075 -0.032499998807907104
   vertex -0.01149956788867712 0.010499999858438969 -0.038508906960487366
   vertex -0.011499566026031971 0.010499998927116394 -0.032499998807907104
  endloop
 endfacet
 facet normal -0.99999999999872879 0 1.5945233438197265e-06
  outer loop
   vertex -0.013767015188932419 0.0069999955594539642 -0.032000012695789337
   vertex -0.013767026364803314 -0.0069301840849220753 -0.039008922874927521
   vertex -0.013767015188932419 -0.0069301845505833626 -0.032000012695789337
  endloop
 endfacet
 facet normal -0.9999999999995115 3.3428232743251871e-07 9.3013861722890187e-07
  outer loop
   vertex -0.013767026364803314 -0.0069301840849220753 -0.039008922874927521
   vertex -0.013767015188932419 0.0069999955594539642 -0.032000012695789337
   vertex -0.013767021708190441 0.0069999955594539642 -0.039008922874927521
  endloop
 endfacet
 facet normal -1.7967927160158131e-07 -0.99999999999998379 1.671266292322728e-13
  outer loop
   vertex -0.013767015188932419 0.0069999955594539642 -0.032000012695789337
   vertex -0.034500021487474442 0.0069999992847442627 -0.039008896797895432
   vertex -0.013767021708190441 0.0069999955594539642 -0.039008922874927521
  endloop
 endfacet
 facet normal -1.3428444382731874e-07 -0.99999999999998201 -1.3428244283723055e-07
  outer loop
   vertex -0.034500021487474442 0.0069999992847442627 -0.039008896797895432
   vertex -0.013767015188932419 0.0069999955594539642 -0.032000012695789337
   vertex -0.035000015050172806 0.0069999992847442627 -0.03850889578461647
  endloop
 endfacet
 facet normal -1.7544817175081989e-07 -0.99999999999998468 1.0877107046902543e-13
  outer loop
   vertex -0.035000015050172806 0.0069999992847442627 -0.03850889578461647
   vertex -0.013767015188932419 0.0069999955594539642 -0.032000012695789337
   vertex -0.035000011324882507 0.0069999992847442627 -0.032499987632036209
  endloop
 endfacet
 facet normal -1.7967911824843324e-07 -0.9999999999999678 1.7968045696944659e-07
  outer loop
   vertex -0.035000011324882507 0.0069999992847442627 -0.032499987632036209
   vertex -0.013767015188932419 0.0069999955594539642 -0.032000012695789337
   vertex -0.034500010311603546 0.0069999992847442627 -0.031999990344047546
  endloop
 endfacet
 facet normal -0.99999999999980771 0 6.1996126482005482e-07
  outer loop
   vertex -0.035000011324882507 0.0099999988451600075 -0.032499987632036209
   vertex -0.035000015050172806 0.0069999992847442627 -0.03850889578461647
   vertex -0.035000011324882507 0.0069999992847442627 -0.032499987632036209
  endloop
 endfacet
 facet normal -0.99999999999846034 -1.2417632292778715e-06 1.2399223371771635e-06
  outer loop
   vertex -0.035000015050172806 0.0069999992847442627 -0.03850889578461647
   vertex -0.035000011324882507 0.0099999988451600075 -0.032499987632036209
   vertex -0.035000018775463104 0.0099999997764825821 -0.03850889578461647
  endloop
 endfacet
 facet normal 0.57735062765512535 0.57735062765512535 0.5773495522579587
  outer loop
   vertex -0.011499566026031971 0.010499998927116394 -0.032499998807907104
   vertex -0.011499566026031971 0.0099999988451600075 -0.031999997794628143
   vertex -0.010999565944075584 0.0099999988451600075 -0.032499998807907104
  endloop
 endfacet
 facet normal 0.5773491937851144 -0.5773491937851144 -0.57735241999263909
  outer loop
   vertex -0.010999567806720734 -0.0099301803857088089 -0.038508906960487366
   vertex -0.01149956788867712 -0.010430180467665195 -0.038508906960487366
   vertex -0.01149956788867712 -0.0099301803857088089 -0.039008904248476028
  endloop
 endfacet
 facet normal -0.70710612264211015 0.7071074397296836 9.8635161798522587e-07
  outer loop
   vertex -0.034500010311603546 0.010499998927116394 -0.032499987632036209
   vertex -0.035000018775463104 0.0099999997764825821 -0.03850889578461647
   vertex -0.035000011324882507 0.0099999988451600075 -0.032499987632036209
  endloop
 endfacet
 facet normal -0.70710875682178997 0.70710480554434996 1.4247345151353978e-06
  outer loop
   vertex -0.035000018775463104 0.0099999997764825821 -0.03850889578461647
   vertex -0.034500010311603546 0.010499998927116394 -0.032499987632036209
   vertex -0.034500021487474442 0.010499999858438969 -0.03850889578461647
  endloop
 endfacet
 facet normal -0.70710875682189611 -0.70710480554445609 1.3151401177341707e-06
  outer loop
   vertex -0.034500010311603546 -0.010430180467665195 -0.032499987632036209
   vertex -0.035000018775463104 -0.0099301803857088089 -0.03850889578461647
   vertex -0.034500021487474442 -0.010430180467665195 -0.03850889578461647
  endloop
 endfacet
 facet normal -0.70710612264218231 -0.70710743972975576 8.7675681231067289e-07
  outer loop
   vertex -0.035000018775463104 -0.0099301803857088089 -0.03850889578461647
   vertex -0.034500010311603546 -0.010430180467665195 -0.032499987632036209
   vertex -0.035000011324882507 -0.0099301803857088089 -0.032499987632036209
  endloop
 endfacet
 facet normal 0.70710678118653059 -0.70710678118653059 -2.1918940721366177e-07
  outer loop
   vertex -0.010999565944075584 -0.0099301803857088089 -0.032499998807907104
   vertex -0.01149956788867712 -0.010430180467665195 -0.038508906960487366
   vertex -0.010999567806720734 -0.0099301803857088089 -0.038508906960487366
  endloop
 endfacet
 facet normal 0.70710019577294148 -0.70711336653827939 8.7674946345197093e-07
  outer loop
   vertex -0.01149956788867712 -0.010430180467665195 -0.038508906960487366
   vertex -0.010999565944075584 -0.0099301803857088089 -0.032499998807907104
   vertex -0.011499575339257717 -0.010430180467665195 -0.032499998807907104
  endloop
 endfacet
 facet normal -0.99999999999923128 0 1.239922529639395e-06
  outer loop
   vertex -0.035000011324882507 -0.0069301808252930641 -0.032499987632036209
   vertex -0.035000018775463104 -0.0099301803857088089 -0.03850889578461647
   vertex -0.035000011324882507 -0.0099301803857088089 -0.032499987632036209
  endloop
 endfacet
 facet normal -0.99999999999923128 0 1.239922529639395e-06
  outer loop
   vertex -0.035000018775463104 -0.0099301803857088089 -0.03850889578461647
   vertex -0.035000011324882507 -0.0069301808252930641 -0.032499987632036209
   vertex -0.035000018775463104 -0.0069301803596317768 -0.03850889578461647
  endloop
 endfacet
 facet normal -2.2905422863491918e-07 0.707107439730009 -0.70710612264243555
  outer loop
   vertex -0.034500021487474442 0.010499999858438969 -0.03850889578461647
   vertex -0.01149956788867712 0.0099999997764825821 -0.039008904248476028
   vertex -0.034500021487474442 0.0099999997764825821 -0.039008896797895432
  endloop
 endfacet
 facet normal -3.4358262289478543e-07 0.70710480554502586 -0.70710875682246588
  outer loop
   vertex -0.01149956788867712 0.0099999997764825821 -0.039008904248476028
   vertex -0.034500021487474442 0.010499999858438969 -0.03850889578461647
   vertex -0.01149956788867712 0.010499999858438969 -0.038508906960487366
  endloop
 endfacet
 facet normal -0.70710941536414773 0 -0.70710414699913438
  outer loop
   vertex -0.035000018775463104 -0.0069301803596317768 -0.03850889578461647
   vertex -0.034500021487474442 -0.0099301803857088089 -0.039008896797895432
   vertex -0.035000018775463104 -0.0099301803857088089 -0.03850889578461647
  endloop
 endfacet
 facet normal -0.70710941536414773 0 -0.70710414699913438
  outer loop
   vertex -0.034500021487474442 -0.0099301803857088089 -0.039008896797895432
   vertex -0.035000018775463104 -0.0069301803596317768 -0.03850889578461647
   vertex -0.034500021487474442 -0.0069301803596317768 -0.039008896797895432
  endloop
 endfacet
 facet normal -0.70710414699913438 0 0.70710941536414773
  outer loop
   vertex -0.034500010311603546 -0.0099301803857088089 -0.031999990344047546
   vertex -0.035000011324882507 -0.0069301808252930641 -0.032499987632036209
   vertex -0.035000011324882507 -0.0099301803857088089 -0.032499987632036209
  endloop
 endfacet
 facet normal -0.70710414699913438 0 0.70710941536414773
  outer loop
   vertex -0.035000011324882507 -0.0069301808252930641 -0.032499987632036209
   vertex -0.034500010311603546 -0.0099301803857088089 -0.031999990344047546
   vertex -0.034500010311603546 -0.0069301808252930641 -0.031999990344047546
  endloop
 endfacet
 facet normal 0.5773491937851144 0.5773491937851144 -0.57735241999263909
  outer loop
   vertex -0.010999567806720734 0.0099999997764825821 -0.038508906960487366
   vertex -0.01149956788867712 0.0099999997764825821 -0.039008904248476028
   vertex -0.01149956788867712 0.010499999858438969 -0.038508906960487366
  endloop
 endfacet
 facet normal -0.57734847685344737 -0.57734955224861095 0.5773527784581387
  outer loop
   vertex -0.034500010311603546 -0.0099301803857088089 -0.031999990344047546
   vertex -0.035000011324882507 -0.0099301803857088089 -0.032499987632036209
   vertex -0.034500010311603546 -0.010430180467665195 -0.032499987632036209
  endloop
 endfacet
 facet normal 0.70711007388554226 1.3216969777844089e-07 0.70710348847220761
  outer loop
   vertex -0.010999565944075584 -0.0099301803857088089 -0.032499998807907104
   vertex -0.011499566026031971 0.0099999988451600075 -0.031999997794628143
   vertex -0.011499566026031971 -0.0099301803857088089 -0.031999994069337845
  endloop
 endfacet
 facet normal 0.70710743973002754 -0 0.70710612264245409
  outer loop
   vertex -0.011499566026031971 0.0099999988451600075 -0.031999997794628143
   vertex -0.010999565944075584 -0.0099301803857088089 -0.032499998807907104
   vertex -0.010999565944075584 0.0099999988451600075 -0.032499998807907104
  endloop
 endfacet
 facet normal -0.5773527784581387 0.57734955224861095 -0.57734847685344737
  outer loop
   vertex -0.034500021487474442 0.010499999858438969 -0.03850889578461647
   vertex -0.034500021487474442 0.0099999997764825821 -0.039008896797895432
   vertex -0.035000018775463104 0.0099999997764825821 -0.03850889578461647
  endloop
 endfacet
 facet normal -0.5773527784581387 -0.57734955224861095 -0.57734847685344737
  outer loop
   vertex -0.034500021487474442 -0.0099301803857088089 -0.039008896797895432
   vertex -0.034500021487474442 -0.010430180467665195 -0.03850889578461647
   vertex -0.035000018775463104 -0.0099301803857088089 -0.03850889578461647
  endloop
 endfacet
 facet normal 0.57734847680871271 -0.57735923076034745 0.57734309988297183
  outer loop
   vertex -0.011499566026031971 -0.0099301803857088089 -0.031999994069337845
   vertex -0.011499575339257717 -0.010430180467665195 -0.032499998807907104
   vertex -0.010999565944075584 -0.0099301803857088089 -0.032499998807907104
  endloop
 endfacet
 facet normal -0.57734991072345843 0.57735098612129276 0.57734991072345843
  outer loop
   vertex -0.034500010311603546 0.0099999988451600075 -0.031999986618757248
   vertex -0.034500010311603546 0.010499998927116394 -0.032499987632036209
   vertex -0.035000011324882507 0.0099999988451600075 -0.032499987632036209
  endloop
 endfacet
 facet normal 0.70710480554506761 0 -0.70710875682250751
  outer loop
   vertex -0.01149956788867712 0.0099999997764825821 -0.039008904248476028
   vertex -0.010999567806720734 -0.0099301803857088089 -0.038508906960487366
   vertex -0.01149956788867712 -0.0099301803857088089 -0.039008904248476028
  endloop
 endfacet
 facet normal 0.70710480554506761 0 -0.70710875682250751
  outer loop
   vertex -0.010999567806720734 -0.0099301803857088089 -0.038508906960487366
   vertex -0.01149956788867712 0.0099999997764825821 -0.039008904248476028
   vertex -0.010999567806720734 0.0099999997764825821 -0.038508906960487366
  endloop
 endfacet
 facet normal 1.7967939552057407e-07 0.99999999999998168 6.6438186156247961e-08
  outer loop
   vertex -0.034500021487474442 -0.0069301803596317768 -0.039008896797895432
   vertex -0.013767015188932419 -0.0069301845505833626 -0.032000012695789337
   vertex -0.013767026364803314 -0.0069301840849220753 -0.039008922874927521
  endloop
 endfacet
 facet normal 1.5106971493748067e-07 0.99999999999997713 1.5106858938267477e-07
  outer loop
   vertex -0.013767015188932419 -0.0069301845505833626 -0.032000012695789337
   vertex -0.034500021487474442 -0.0069301803596317768 -0.039008896797895432
   vertex -0.035000018775463104 -0.0069301803596317768 -0.03850889578461647
  endloop
 endfacet
 facet normal 1.7362339001808146e-07 0.9999999999999819 7.7494942822967399e-08
  outer loop
   vertex -0.013767015188932419 -0.0069301845505833626 -0.032000012695789337
   vertex -0.035000018775463104 -0.0069301803596317768 -0.03850889578461647
   vertex -0.035000011324882507 -0.0069301808252930641 -0.032499987632036209
  endloop
 endfacet
 facet normal 1.7967911824843324e-07 0.9999999999999678 -1.7968045696944659e-07
  outer loop
   vertex -0.013767015188932419 -0.0069301845505833626 -0.032000012695789337
   vertex -0.035000011324882507 -0.0069301808252930641 -0.032499987632036209
   vertex -0.034500010311603546 -0.0069301808252930641 -0.031999990344047546
  endloop
 endfacet
 facet normal 7.5309461028754244e-14 0.99999999999998801 1.5499031620501831e-07
  outer loop
   vertex -0.034500021487474442 0.010499999858438969 -0.03850889578461647
   vertex -0.011499566026031971 0.010499998927116394 -0.032499998807907104
   vertex -0.01149956788867712 0.010499999858438969 -0.038508906960487366
  endloop
 endfacet
 facet normal 7.5309491522630718e-14 0.99999999999998801 1.5499031620490158e-07
  outer loop
   vertex -0.011499566026031971 0.010499998927116394 -0.032499998807907104
   vertex -0.034500021487474442 0.010499999858438969 -0.03850889578461647
   vertex -0.034500010311603546 0.010499998927116394 -0.032499987632036209
  endloop
 endfacet
 facet normal 1.6196601475210544e-07 0 0.99999999999998679
  outer loop
   vertex -0.011499566026031971 -0.0099301803857088089 -0.031999994069337845
   vertex -0.034500010311603546 -0.0069301808252930641 -0.031999990344047546
   vertex -0.034500010311603546 -0.0099301803857088089 -0.031999990344047546
  endloop
 endfacet
 facet normal 1.0780771337239557e-06 7.0236552796289849e-06 0.99999999997475308
  outer loop
   vertex -0.034500010311603546 -0.0069301808252930641 -0.031999990344047546
   vertex -0.011499566026031971 -0.0099301803857088089 -0.031999994069337845
   vertex -0.013767015188932419 -0.0069301845505833626 -0.032000012695789337
  endloop
 endfacet
 facet normal -8.2147162531550391e-06 0 0.99999999996625921
  outer loop
   vertex -0.013767015188932419 -0.0069301845505833626 -0.032000012695789337
   vertex -0.011499566026031971 -0.0099301803857088089 -0.031999994069337845
   vertex -0.013767015188932419 0.0069999955594539642 -0.032000012695789337
  endloop
 endfacet
 facet normal 4.8589804425589075e-07 -1.2417636147727787e-06 0.99999999999911104
  outer loop
   vertex -0.034500010311603546 0.0069999992847442627 -0.031999990344047546
   vertex -0.011499566026031971 0.0099999988451600075 -0.031999997794628143
   vertex -0.034500010311603546 0.0099999988451600075 -0.031999986618757248
  endloop
 endfacet
 facet normal 1.0780748328438325e-06 -5.7818740244424285e-06 0.99999999998270372
  outer loop
   vertex -0.011499566026031971 0.0099999988451600075 -0.031999997794628143
   vertex -0.034500010311603546 0.0069999992847442627 -0.031999990344047546
   vertex -0.013767015188932419 0.0069999955594539642 -0.032000012695789337
  endloop
 endfacet
 facet normal -6.8190781117480863e-06 1.8691704952684663e-07 0.99999999997673272
  outer loop
   vertex -0.011499566026031971 0.0099999988451600075 -0.031999997794628143
   vertex -0.013767015188932419 0.0069999955594539642 -0.032000012695789337
   vertex -0.011499566026031971 -0.0099301803857088089 -0.031999994069337845
  endloop
 endfacet
 facet normal 3.4358148207361964e-07 0.7071074397299858 0.70710612264241235
  outer loop
   vertex -0.034500010311603546 0.0099999988451600075 -0.031999986618757248
   vertex -0.011499566026031971 0.010499998927116394 -0.032499998807907104
   vertex -0.034500010311603546 0.010499998927116394 -0.032499987632036209
  endloop
 endfacet
 facet normal 3.4358148207361964e-07 0.7071074397299858 0.70710612264241235
  outer loop
   vertex -0.011499566026031971 0.010499998927116394 -0.032499998807907104
   vertex -0.034500010311603546 0.0099999988451600075 -0.031999986618757248
   vertex -0.011499566026031971 0.0099999988451600075 -0.031999997794628143
  endloop
 endfacet
 facet normal 3.4358034125474339e-07 -0.7071100738887065 0.70710348846897231
  outer loop
   vertex -0.011499566026031971 -0.0099301803857088089 -0.031999994069337845
   vertex -0.034500010311603546 -0.010430180467665195 -0.032499987632036209
   vertex -0.011499575339257717 -0.010430180467665195 -0.032499998807907104
  endloop
 endfacet
 facet normal 1.1452758733885797e-07 -0.70710480554506305 0.70710875682250296
  outer loop
   vertex -0.034500010311603546 -0.010430180467665195 -0.032499987632036209
   vertex -0.011499566026031971 -0.0099301803857088089 -0.031999994069337845
   vertex -0.034500010311603546 -0.0099301803857088089 -0.031999990344047546
  endloop
 endfacet
 facet normal 0 -1 0
  outer loop
   vertex -0.011499575339257717 -0.010430180467665195 -0.032499998807907104
   vertex -0.034500021487474442 -0.010430180467665195 -0.03850889578461647
   vertex -0.01149956788867712 -0.010430180467665195 -0.038508906960487366
  endloop
 endfacet
 facet normal -0 -1 0
  outer loop
   vertex -0.034500021487474442 -0.010430180467665195 -0.03850889578461647
   vertex -0.011499575339257717 -0.010430180467665195 -0.032499998807907104
   vertex -0.034500010311603546 -0.010430180467665195 -0.032499987632036209
  endloop
 endfacet
 facet normal 0 1 0
  outer loop
   vertex -0.034500021487474442 0.0099999997764825821 -0.039008896797895432
   vertex -0.010999567806720734 0.0099999997764825821 -0.038508906960487366
   vertex -0.01149956788867712 0.0099999997764825821 -0.039008904248476028
  endloop
 endfacet
 facet normal 0 1 -0
  outer loop
   vertex -0.010999567806720734 0.0099999997764825821 -0.038508906960487366
   vertex -0.034500021487474442 0.0099999997764825821 -0.039008896797895432
   vertex -0.035000018775463104 0.0099999997764825821 -0.03850889578461647
  endloop
 endfacet
 facet normal 7.2171634032969721e-14 0.99999999999998801 1.5499031620501926e-07
  outer loop
   vertex -0.010999567806720734 0.0099999997764825821 -0.038508906960487366
   vertex -0.035000018775463104 0.0099999997764825821 -0.03850889578461647
   vertex -0.010999565944075584 0.0099999988451600075 -0.032499998807907104
  endloop
 endfacet
 facet normal 7.217165083639465e-14 0.99999999999998801 1.5499031620495216e-07
  outer loop
   vertex -0.010999565944075584 0.0099999988451600075 -0.032499998807907104
   vertex -0.035000018775463104 0.0099999997764825821 -0.03850889578461647
   vertex -0.035000011324882507 0.0099999988451600075 -0.032499987632036209
  endloop
 endfacet
 facet normal -0 1 0
  outer loop
   vertex -0.010999565944075584 0.0099999988451600075 -0.032499998807907104
   vertex -0.035000011324882507 0.0099999988451600075 -0.032499987632036209
   vertex -0.011499566026031971 0.0099999988451600075 -0.031999997794628143
  endloop
 endfacet
 facet normal 0 1 0
  outer loop
   vertex -0.011499566026031971 0.0099999988451600075 -0.031999997794628143
   vertex -0.035000011324882507 0.0099999988451600075 -0.032499987632036209
   vertex -0.034500010311603546 0.0099999988451600075 -0.031999986618757248
  endloop
 endfacet
 facet normal 0 -1 0
  outer loop
   vertex -0.010999567806720734 -0.0099301803857088089 -0.038508906960487366
   vertex -0.034500021487474442 -0.0099301803857088089 -0.039008896797895432
   vertex -0.01149956788867712 -0.0099301803857088089 -0.039008904248476028
  endloop
 endfacet
 facet normal -0 -1 0
  outer loop
   vertex -0.034500021487474442 -0.0099301803857088089 -0.039008896797895432
   vertex -0.010999567806720734 -0.0099301803857088089 -0.038508906960487366
   vertex -0.035000018775463104 -0.0099301803857088089 -0.03850889578461647
  endloop
 endfacet
 facet normal 0 -1 0
  outer loop
   vertex -0.035000018775463104 -0.0099301803857088089 -0.03850889578461647
   vertex -0.010999567806720734 -0.0099301803857088089 -0.038508906960487366
   vertex -0.010999565944075584 -0.0099301803857088089 -0.032499998807907104
  endloop
 endfacet
 facet normal -0 -1 0
  outer loop
   vertex -0.035000018775463104 -0.0099301803857088089 -0.03850889578461647
   vertex -0.010999565944075584 -0.0099301803857088089 -0.032499998807907104
   vertex -0.035000011324882507 -0.0099301803857088089 -0.032499987632036209
  endloop
 endfacet
 facet normal 0 -1 0
  outer loop
   vertex -0.035000011324882507 -0.0099301803857088089 -0.032499987632036209
   vertex -0.010999565944075584 -0.0099301803857088089 -0.032499998807907104
   vertex -0.011499566026031971 -0.0099301803857088089 -0.031999994069337845
  endloop
 endfacet
 facet normal -0 -1 0
  outer loop
   vertex -0.035000011324882507 -0.0099301803857088089 -0.032499987632036209
   vertex -0.011499566026031971 -0.0099301803857088089 -0.031999994069337845
   vertex -0.034500010311603546 -0.0099301803857088089 -0.031999990344047546
  endloop
 endfacet
 facet normal 0.99999999999995204 0 -3.0998063241007214e-07
  outer loop
   vertex -0.010999567806720734 -0.0099301803857088089 -0.038508906960487366
   vertex -0.010999565944075584 0.0099999988451600075 -0.032499998807907104
   vertex -0.010999565944075584 -0.0099301803857088089 -0.032499998807907104
  endloop
 endfacet
 facet normal 0.99999999999995193 0 -3.0998063241007209e-07
  outer loop
   vertex -0.010999565944075584 0.0099999988451600075 -0.032499998807907104
   vertex -0.010999567806720734 -0.0099301803857088089 -0.038508906960487366
   vertex -0.010999567806720734 0.0099999997764825821 -0.038508906960487366
  endloop
 endfacet
endsolid
