solid Visualization Toolkit generated SLA File
 facet normal 0.70710678118654757 -0.70710678118654757 0
  outer loop
   vertex 0.0038491112645715475 -0.0079147946089506149 -0.025433100759983063
   vertex 0.0033491111826151609 -0.0084147946909070015 0.0035000001080334187
   vertex 0.0033491111826151609 -0.0084147946909070015 -0.025433100759983063
  endloop
 endfacet
 facet normal 0.70710678118654757 -0.70710678118654757 0
  outer loop
   vertex 0.0033491111826151609 -0.0084147946909070015 0.0035000001080334187
   vertex 0.0038491112645715475 -0.0079147946089506149 -0.025433100759983063
   vertex 0.0038491112645715475 -0.0079147946089506149 0.0040000001899898052
  endloop
 endfacet
 facet normal 0 0 1
  outer loop
   vertex -0.00015088880900293589 -0.0084147946909070015 -0.019103879109025002
   vertex -0.039650887250900269 0.052585210651159286 -0.019103879109025002
   vertex -0.039650887250900269 -0.0084147946909070015 -0.019103879109025002
  endloop
 endfacet
 facet normal 0 -0 1
  outer loop
   vertex -0.039650887250900269 0.052585210651159286 -0.019103879109025002
   vertex -0.00015088880900293589 -0.0084147946909070015 -0.019103879109025002
   vertex -0.00015088880900293589 0.052585210651159286 -0.019103879109025002
  endloop
 endfacet
 facet normal 0 0.70710546409652086 -0.70710809827412102
  outer loop
   vertex -0.043150890618562698 0.052585210651159286 -0.025433100759983063
   vertex 0.0033491111826151609 0.052085209637880325 -0.025933099910616875
   vertex -0.043150890618562698 0.052085209637880325 -0.025933099910616875
  endloop
 endfacet
 facet normal 0 0.70710546409652086 -0.70710809827412102
  outer loop
   vertex 0.0033491111826151609 0.052085209637880325 -0.025933099910616875
   vertex -0.043150890618562698 0.052585210651159286 -0.025433100759983063
   vertex 0.0033491111826151609 0.052585210651159286 -0.025433100759983063
  endloop
 endfacet
 facet normal 0 0.49663260989464447 0.86796085786700883
  outer loop
   vertex 0.0038491112645715475 0.009585205465555191 0.010499999858438969
   vertex -0.00015088880900293589 0.052585210651159286 -0.014103880152106285
   vertex -0.00015088880900293589 0.009585205465555191 0.010499999858438969
  endloop
 endfacet
 facet normal 0 0.49663260989464447 0.86796085786700883
  outer loop
   vertex -0.00015088880900293589 0.052585210651159286 -0.014103880152106285
   vertex 0.0038491112645715475 0.009585205465555191 0.010499999858438969
   vertex 0.0033491111826151609 0.052585210651159286 -0.014103880152106285
  endloop
 endfacet
 facet normal 3.4873634148195915e-06 0.49663264044076888 0.86796084038202326
  outer loop
   vertex 0.0033491111826151609 0.052585210651159286 -0.014103880152106285
   vertex 0.0038491112645715475 0.009585205465555191 0.010499999858438969
   vertex 0.0038491112645715475 0.052085209637880325 -0.01381778996437788
  endloop
 endfacet
 facet normal -0 -1 0
  outer loop
   vertex -0.043150890618562698 -0.0084147946909070015 -0.025433100759983063
   vertex -0.039650887250900269 -0.0084147946909070015 -0.019103879109025002
   vertex -0.043150890618562698 -0.0084147946909070015 0.0035000001080334187
  endloop
 endfacet
 facet normal 0 -1 0
  outer loop
   vertex -0.039650887250900269 -0.0084147946909070015 -0.019103879109025002
   vertex -0.043150890618562698 -0.0084147946909070015 -0.025433100759983063
   vertex -0.00015088880900293589 -0.0084147946909070015 -0.019103879109025002
  endloop
 endfacet
 facet normal 0 -1 0
  outer loop
   vertex -0.043150890618562698 -0.0084147946909070015 0.0035000001080334187
   vertex -0.039650887250900269 -0.0084147946909070015 -0.019103879109025002
   vertex -0.039650887250900269 -0.0084147946909070015 0.0035000001080334187
  endloop
 endfacet
 facet normal 0 -1 -0
  outer loop
   vertex 0.0033491111826151609 -0.0084147946909070015 -0.025433100759983063
   vertex -0.00015088880900293589 -0.0084147946909070015 -0.019103879109025002
   vertex -0.043150890618562698 -0.0084147946909070015 -0.025433100759983063
  endloop
 endfacet
 facet normal 0 -1 0
  outer loop
   vertex -0.00015088880900293589 -0.0084147946909070015 -0.019103879109025002
   vertex 0.0033491111826151609 -0.0084147946909070015 -0.025433100759983063
   vertex 0.0033491111826151609 -0.0084147946909070015 0.0035000001080334187
  endloop
 endfacet
 facet normal -0 -1 0
  outer loop
   vertex -0.00015088880900293589 -0.0084147946909070015 -0.019103879109025002
   vertex 0.0033491111826151609 -0.0084147946909070015 0.0035000001080334187
   vertex -0.00015088880900293589 -0.0084147946909070015 0.0035000001080334187
  endloop
 endfacet
 facet normal 0 0.49663264044378885 0.86796084038730126
  outer loop
   vertex -0.039650887250900269 0.009585205465555191 0.010499999858438969
   vertex -0.043650887906551361 0.052085209637880325 -0.01381778996437788
   vertex -0.043650887906551361 0.009585205465555191 0.010499999858438969
  endloop
 endfacet
 facet normal -3.1873913890339251e-06 0.49663241444212924 0.8679609696957703
  outer loop
   vertex -0.043650887906551361 0.052085209637880325 -0.01381778996437788
   vertex -0.039650887250900269 0.009585205465555191 0.010499999858438969
   vertex -0.043150890618562698 0.052585210651159286 -0.014103880152106285
  endloop
 endfacet
 facet normal 0 0.49663260989464447 0.86796085786700883
  outer loop
   vertex -0.043150890618562698 0.052585210651159286 -0.014103880152106285
   vertex -0.039650887250900269 0.009585205465555191 0.010499999858438969
   vertex -0.039650887250900269 0.052585210651159286 -0.014103880152106285
  endloop
 endfacet
 facet normal 0 -0.7071067870664095 0.70710677530668564
  outer loop
   vertex -0.039650887250900269 -0.0014147950569167733 0.010499999858438969
   vertex -0.043150890618562698 -0.0084147946909070015 0.0035000001080334187
   vertex -0.039650887250900269 -0.0084147946909070015 0.0035000001080334187
  endloop
 endfacet
 facet normal -7.839842492256149e-09 -0.70710678510644687 0.70710677726664817
  outer loop
   vertex -0.043150890618562698 -0.0084147946909070015 0.0035000001080334187
   vertex -0.039650887250900269 -0.0014147950569167733 0.010499999858438969
   vertex -0.043650887906551361 -0.0079147946089506149 0.0040000001899898052
  endloop
 endfacet
 facet normal 0 -0.70710678751870659 0.70710677485438844
  outer loop
   vertex -0.043650887906551361 -0.0079147946089506149 0.0040000001899898052
   vertex -0.039650887250900269 -0.0014147950569167733 0.010499999858438969
   vertex -0.043650887906551361 -0.0014147950569167733 0.010499999858438969
  endloop
 endfacet
 facet normal -0 1 0
  outer loop
   vertex 0.0033491111826151609 0.052585210651159286 -0.025433100759983063
   vertex -0.00015088880900293589 0.052585210651159286 -0.019103879109025002
   vertex 0.0033491111826151609 0.052585210651159286 -0.014103880152106285
  endloop
 endfacet
 facet normal 0 1 0
  outer loop
   vertex -0.00015088880900293589 0.052585210651159286 -0.019103879109025002
   vertex 0.0033491111826151609 0.052585210651159286 -0.025433100759983063
   vertex -0.039650887250900269 0.052585210651159286 -0.019103879109025002
  endloop
 endfacet
 facet normal 0 1 0
  outer loop
   vertex 0.0033491111826151609 0.052585210651159286 -0.014103880152106285
   vertex -0.00015088880900293589 0.052585210651159286 -0.019103879109025002
   vertex -0.00015088880900293589 0.052585210651159286 -0.014103880152106285
  endloop
 endfacet
 facet normal 0 1 0
  outer loop
   vertex -0.043150890618562698 0.052585210651159286 -0.025433100759983063
   vertex -0.039650887250900269 0.052585210651159286 -0.019103879109025002
   vertex 0.0033491111826151609 0.052585210651159286 -0.025433100759983063
  endloop
 endfacet
 facet normal 0 1 0
  outer loop
   vertex -0.039650887250900269 0.052585210651159286 -0.019103879109025002
   vertex -0.043150890618562698 0.052585210651159286 -0.025433100759983063
   vertex -0.043150890618562698 0.052585210651159286 -0.014103880152106285
  endloop
 endfacet
 facet normal -0 1 0
  outer loop
   vertex -0.039650887250900269 0.052585210651159286 -0.019103879109025002
   vertex -0.043150890618562698 0.052585210651159286 -0.014103880152106285
   vertex -0.039650887250900269 0.052585210651159286 -0.014103880152106285
  endloop
 endfacet
 facet normal -0.57735206152580398 -0.57734883532028247 -0.57734991071811681
  outer loop
   vertex -0.043150890618562698 -0.0079147946089506149 -0.025933099910616875
   vertex -0.043150890618562698 -0.0084147946909070015 -0.025433100759983063
   vertex -0.043650887906551361 -0.0079147946089506149 -0.025433100759983063
  endloop
 endfacet
 facet normal 0.57734991072279063 -0.57734991072279063 -0.57735098612262814
  outer loop
   vertex 0.0038491112645715475 -0.0079147946089506149 -0.025433100759983063
   vertex 0.0033491111826151609 -0.0084147946909070015 -0.025433100759983063
   vertex 0.0033491111826151609 -0.0079147946089506149 -0.025933099910616875
  endloop
 endfacet
 facet normal 0.70710612264122752 0 -0.70710743973125423
  outer loop
   vertex 0.0033491111826151609 0.052085209637880325 -0.025933099910616875
   vertex 0.0038491112645715475 -0.0079147946089506149 -0.025433100759983063
   vertex 0.0033491111826151609 -0.0079147946089506149 -0.025933099910616875
  endloop
 endfacet
 facet normal 0.70710612264122752 0 -0.70710743973125423
  outer loop
   vertex 0.0038491112645715475 -0.0079147946089506149 -0.025433100759983063
   vertex 0.0033491111826151609 0.052085209637880325 -0.025933099910616875
   vertex 0.0038491112645715475 0.052085209637880325 -0.025433100759983063
  endloop
 endfacet
 facet normal 0 0 -1
  outer loop
   vertex -0.043150890618562698 0.052085209637880325 -0.025933099910616875
   vertex 0.0033491111826151609 -0.0079147946089506149 -0.025933099910616875
   vertex -0.043150890618562698 -0.0079147946089506149 -0.025933099910616875
  endloop
 endfacet
 facet normal 0 0 -1
  outer loop
   vertex 0.0033491111826151609 -0.0079147946089506149 -0.025933099910616875
   vertex -0.043150890618562698 0.052085209637880325 -0.025933099910616875
   vertex 0.0033491111826151609 0.052085209637880325 -0.025933099910616875
  endloop
 endfacet
 facet normal -0 -0.70710612264122752 -0.70710743973125423
  outer loop
   vertex -0.043150890618562698 -0.0079147946089506149 -0.025933099910616875
   vertex 0.0033491111826151609 -0.0084147946909070015 -0.025433100759983063
   vertex -0.043150890618562698 -0.0084147946909070015 -0.025433100759983063
  endloop
 endfacet
 facet normal 0 -0.70710612264122752 -0.70710743973125423
  outer loop
   vertex 0.0033491111826151609 -0.0084147946909070015 -0.025433100759983063
   vertex -0.043150890618562698 -0.0079147946089506149 -0.025933099910616875
   vertex 0.0033491111826151609 -0.0079147946089506149 -0.025933099910616875
  endloop
 endfacet
 facet normal -0.70710941536414773 0.70710414699913426 0
  outer loop
   vertex -0.043650887906551361 0.052085209637880325 -0.01381778996437788
   vertex -0.043150890618562698 0.052585210651159286 -0.025433100759983063
   vertex -0.043650887906551361 0.052085209637880325 -0.025433100759983063
  endloop
 endfacet
 facet normal -0.70710941536414773 0.70710414699913438 0
  outer loop
   vertex -0.043150890618562698 0.052585210651159286 -0.025433100759983063
   vertex -0.043650887906551361 0.052085209637880325 -0.01381778996437788
   vertex -0.043150890618562698 0.052585210651159286 -0.014103880152106285
  endloop
 endfacet
 facet normal 0.57735026918762267 0.5773491937911237 -0.57735134458812787
  outer loop
   vertex 0.0033491111826151609 0.052585210651159286 -0.025433100759983063
   vertex 0.0038491112645715475 0.052085209637880325 -0.025433100759983063
   vertex 0.0033491111826151609 0.052085209637880325 -0.025933099910616875
  endloop
 endfacet
 facet normal 0 0 -1
  outer loop
   vertex -0.043650887906551361 0.052085209637880325 -0.025433100759983063
   vertex -0.043150890618562698 -0.0084147946909070015 -0.025433100759983063
   vertex -0.043650887906551361 -0.0079147946089506149 -0.025433100759983063
  endloop
 endfacet
 facet normal 0 0 -1
  outer loop
   vertex -0.043150890618562698 -0.0084147946909070015 -0.025433100759983063
   vertex -0.043650887906551361 0.052085209637880325 -0.025433100759983063
   vertex -0.043150890618562698 0.052585210651159286 -0.025433100759983063
  endloop
 endfacet
 facet normal 0 0 -1
  outer loop
   vertex -0.043150890618562698 -0.0084147946909070015 -0.025433100759983063
   vertex -0.043150890618562698 0.052585210651159286 -0.025433100759983063
   vertex 0.0033491111826151609 -0.0084147946909070015 -0.025433100759983063
  endloop
 endfacet
 facet normal 0 0 -1
  outer loop
   vertex 0.0033491111826151609 -0.0084147946909070015 -0.025433100759983063
   vertex -0.043150890618562698 0.052585210651159286 -0.025433100759983063
   vertex 0.0033491111826151609 0.052585210651159286 -0.025433100759983063
  endloop
 endfacet
 facet normal 0 0 -1
  outer loop
   vertex 0.0033491111826151609 -0.0084147946909070015 -0.025433100759983063
   vertex 0.0033491111826151609 0.052585210651159286 -0.025433100759983063
   vertex 0.0038491112645715475 -0.0079147946089506149 -0.025433100759983063
  endloop
 endfacet
 facet normal 0 0 -1
  outer loop
   vertex 0.0038491112645715475 -0.0079147946089506149 -0.025433100759983063
   vertex 0.0033491111826151609 0.052585210651159286 -0.025433100759983063
   vertex 0.0038491112645715475 0.052085209637880325 -0.025433100759983063
  endloop
 endfacet
 facet normal 0.70710743973002754 0.70710612264245409 0
  outer loop
   vertex 0.0038491112645715475 0.052085209637880325 -0.025433100759983063
   vertex 0.0033491111826151609 0.052585210651159286 -0.014103880152106285
   vertex 0.0038491112645715475 0.052085209637880325 -0.01381778996437788
  endloop
 endfacet
 facet normal 0.70710743973002754 0.70710612264245409 0
  outer loop
   vertex 0.0033491111826151609 0.052585210651159286 -0.014103880152106285
   vertex 0.0038491112645715475 0.052085209637880325 -0.025433100759983063
   vertex 0.0033491111826151609 0.052585210651159286 -0.025433100759983063
  endloop
 endfacet
 facet normal -0.70710875682250751 -0.70710480554506761 0
  outer loop
   vertex -0.043650887906551361 -0.0079147946089506149 0.0040000001899898052
   vertex -0.043150890618562698 -0.0084147946909070015 -0.025433100759983063
   vertex -0.043150890618562698 -0.0084147946909070015 0.0035000001080334187
  endloop
 endfacet
 facet normal -0.70710875682250762 -0.70710480554506761 -0
  outer loop
   vertex -0.043150890618562698 -0.0084147946909070015 -0.025433100759983063
   vertex -0.043650887906551361 -0.0079147946089506149 0.0040000001899898052
   vertex -0.043650887906551361 -0.0079147946089506149 -0.025433100759983063
  endloop
 endfacet
 facet normal -0.57735241999063602 0.57734811838861544 -0.57735026918161336
  outer loop
   vertex -0.043150890618562698 0.052585210651159286 -0.025433100759983063
   vertex -0.043150890618562698 0.052085209637880325 -0.025933099910616875
   vertex -0.043650887906551361 0.052085209637880325 -0.025433100759983063
  endloop
 endfacet
 facet normal -0.70710809827902743 0 -0.70710546409161423
  outer loop
   vertex -0.043650887906551361 0.052085209637880325 -0.025433100759983063
   vertex -0.043150890618562698 -0.0079147946089506149 -0.025933099910616875
   vertex -0.043650887906551361 -0.0079147946089506149 -0.025433100759983063
  endloop
 endfacet
 facet normal -0.70710809827902743 0 -0.70710546409161423
  outer loop
   vertex -0.043150890618562698 -0.0079147946089506149 -0.025933099910616875
   vertex -0.043650887906551361 0.052085209637880325 -0.025433100759983063
   vertex -0.043150890618562698 0.052085209637880325 -0.025933099910616875
  endloop
 endfacet
 facet normal -1 -0 0
  outer loop
   vertex -0.043650887906551361 -0.0079147946089506149 0.0040000001899898052
   vertex -0.043650887906551361 -0.0044999998062849045 5.6399328969361128e-18
   vertex -0.043650887906551361 -0.0079147946089506149 -0.025433100759983063
  endloop
 endfacet
 facet normal -1 0 0
  outer loop
   vertex -0.043650887906551361 -0.0044999998062849045 5.6399328969361128e-18
   vertex -0.043650887906551361 -0.0079147946089506149 0.0040000001899898052
   vertex -0.043650887906551361 -0.0014147950569167733 0.010499999858438969
  endloop
 endfacet
 facet normal -1 0 0
  outer loop
   vertex -0.043650887906551361 -0.0044999998062849045 5.6399328969361128e-18
   vertex -0.043650887906551361 -0.0014147950569167733 0.010499999858438969
   vertex -0.043650887906551361 -0.0031819804571568966 0.0031819804571568966
  endloop
 endfacet
 facet normal -1 0 -0
  outer loop
   vertex -0.043650887906551361 -0.0031819804571568966 0.0031819804571568966
   vertex -0.043650887906551361 -0.0014147950569167733 0.010499999858438969
   vertex -0.043650887906551361 0 0.0044999998062849045
  endloop
 endfacet
 facet normal -1 0 0
  outer loop
   vertex -0.043650887906551361 0 0.0044999998062849045
   vertex -0.043650887906551361 -0.0014147950569167733 0.010499999858438969
   vertex -0.043650887906551361 0.009585205465555191 0.010499999858438969
  endloop
 endfacet
 facet normal -1 0 0
  outer loop
   vertex -0.043650887906551361 0 0.0044999998062849045
   vertex -0.043650887906551361 0.009585205465555191 0.010499999858438969
   vertex -0.043650887906551361 0.0031819804571568966 0.0031819804571568966
  endloop
 endfacet
 facet normal -1 0 0
  outer loop
   vertex -0.043650887906551361 0.0031819804571568966 0.0031819804571568966
   vertex -0.043650887906551361 0.009585205465555191 0.010499999858438969
   vertex -0.043650887906551361 0.0044999998062849045 -5.6399328969361128e-18
  endloop
 endfacet
 facet normal -1 0 -0
  outer loop
   vertex -0.043650887906551361 -0.0079147946089506149 -0.025433100759983063
   vertex -0.043650887906551361 0 -0.0044999998062849045
   vertex -0.043650887906551361 0.052085209637880325 -0.025433100759983063
  endloop
 endfacet
 facet normal -1 0 0
  outer loop
   vertex -0.043650887906551361 0 -0.0044999998062849045
   vertex -0.043650887906551361 -0.0079147946089506149 -0.025433100759983063
   vertex -0.043650887906551361 -0.0031819804571568966 -0.0031819804571568966
  endloop
 endfacet
 facet normal -1 0 0
  outer loop
   vertex -0.043650887906551361 -0.0031819804571568966 -0.0031819804571568966
   vertex -0.043650887906551361 -0.0079147946089506149 -0.025433100759983063
   vertex -0.043650887906551361 -0.0044999998062849045 5.6399328969361128e-18
  endloop
 endfacet
 facet normal -1 0 0
  outer loop
   vertex -0.043650887906551361 0.052085209637880325 -0.025433100759983063
   vertex -0.043650887906551361 0 -0.0044999998062849045
   vertex -0.043650887906551361 0.0031819804571568966 -0.0031819804571568966
  endloop
 endfacet
 facet normal -1 0 0
  outer loop
   vertex -0.043650887906551361 0.052085209637880325 -0.025433100759983063
   vertex -0.043650887906551361 0.0031819804571568966 -0.0031819804571568966
   vertex -0.043650887906551361 0.0044999998062849045 -5.6399328969361128e-18
  endloop
 endfacet
 facet normal -1 0 0
  outer loop
   vertex -0.043650887906551361 0.052085209637880325 -0.025433100759983063
   vertex -0.043650887906551361 0.0044999998062849045 -5.6399328969361128e-18
   vertex -0.043650887906551361 0.009585205465555191 0.010499999858438969
  endloop
 endfacet
 facet normal -1 0 0
  outer loop
   vertex -0.043650887906551361 0.052085209637880325 -0.025433100759983063
   vertex -0.043650887906551361 0.009585205465555191 0.010499999858438969
   vertex -0.043650887906551361 0.052085209637880325 -0.01381778996437788
  endloop
 endfacet
 facet normal 1 0 0
  outer loop
   vertex -0.039650887250900269 -0.0084147946909070015 -0.019103879109025002
   vertex -0.039650887250900269 -0.0031819804571568966 -0.0031819804571568966
   vertex -0.039650887250900269 -0.0044999998062849045 5.6399328969361128e-18
  endloop
 endfacet
 facet normal 1 0 0
  outer loop
   vertex -0.039650887250900269 -0.0031819804571568966 -0.0031819804571568966
   vertex -0.039650887250900269 -0.0084147946909070015 -0.019103879109025002
   vertex -0.039650887250900269 0 -0.0044999998062849045
  endloop
 endfacet
 facet normal 1 0 0
  outer loop
   vertex -0.039650887250900269 0 -0.0044999998062849045
   vertex -0.039650887250900269 -0.0084147946909070015 -0.019103879109025002
   vertex -0.039650887250900269 0.052585210651159286 -0.019103879109025002
  endloop
 endfacet
 facet normal 1 0 0
  outer loop
   vertex -0.039650887250900269 0 -0.0044999998062849045
   vertex -0.039650887250900269 0.052585210651159286 -0.019103879109025002
   vertex -0.039650887250900269 0.0031819804571568966 -0.0031819804571568966
  endloop
 endfacet
 facet normal 1 0 0
  outer loop
   vertex -0.039650887250900269 0.0031819804571568966 -0.0031819804571568966
   vertex -0.039650887250900269 0.052585210651159286 -0.019103879109025002
   vertex -0.039650887250900269 0.0044999998062849045 -5.6399328969361128e-18
  endloop
 endfacet
 facet normal 1 0 0
  outer loop
   vertex -0.039650887250900269 0.0044999998062849045 -5.6399328969361128e-18
   vertex -0.039650887250900269 0.052585210651159286 -0.019103879109025002
   vertex -0.039650887250900269 0.009585205465555191 0.010499999858438969
  endloop
 endfacet
 facet normal 1 0 -0
  outer loop
   vertex -0.039650887250900269 0.009585205465555191 0.010499999858438969
   vertex -0.039650887250900269 0.052585210651159286 -0.019103879109025002
   vertex -0.039650887250900269 0.052585210651159286 -0.014103880152106285
  endloop
 endfacet
 facet normal 1 0 -0
  outer loop
   vertex -0.039650887250900269 -0.0084147946909070015 0.0035000001080334187
   vertex -0.039650887250900269 -0.0044999998062849045 5.6399328969361128e-18
   vertex -0.039650887250900269 -0.0014147950569167733 0.010499999858438969
  endloop
 endfacet
 facet normal 1 0 0
  outer loop
   vertex -0.039650887250900269 -0.0044999998062849045 5.6399328969361128e-18
   vertex -0.039650887250900269 -0.0084147946909070015 0.0035000001080334187
   vertex -0.039650887250900269 -0.0084147946909070015 -0.019103879109025002
  endloop
 endfacet
 facet normal 1 0 0
  outer loop
   vertex -0.039650887250900269 -0.0014147950569167733 0.010499999858438969
   vertex -0.039650887250900269 -0.0044999998062849045 5.6399328969361128e-18
   vertex -0.039650887250900269 -0.0031819804571568966 0.0031819804571568966
  endloop
 endfacet
 facet normal 1 0 0
  outer loop
   vertex -0.039650887250900269 -0.0014147950569167733 0.010499999858438969
   vertex -0.039650887250900269 -0.0031819804571568966 0.0031819804571568966
   vertex -0.039650887250900269 0 0.0044999998062849045
  endloop
 endfacet
 facet normal 1 0 -0
  outer loop
   vertex -0.039650887250900269 -0.0014147950569167733 0.010499999858438969
   vertex -0.039650887250900269 0 0.0044999998062849045
   vertex -0.039650887250900269 0.009585205465555191 0.010499999858438969
  endloop
 endfacet
 facet normal 1 -0 0
  outer loop
   vertex -0.039650887250900269 0.009585205465555191 0.010499999858438969
   vertex -0.039650887250900269 0 0.0044999998062849045
   vertex -0.039650887250900269 0.0031819804571568966 0.0031819804571568966
  endloop
 endfacet
 facet normal 1 -0 0
  outer loop
   vertex -0.039650887250900269 0.009585205465555191 0.010499999858438969
   vertex -0.039650887250900269 0.0031819804571568966 0.0031819804571568966
   vertex -0.039650887250900269 0.0044999998062849045 -5.6399328969361128e-18
  endloop
 endfacet
 facet normal -1 -0 0
  outer loop
   vertex -0.00015088880900293589 -0.0084147946909070015 0.0035000001080334187
   vertex -0.00015088880900293589 -0.0044999998062849045 5.6399328969361128e-18
   vertex -0.00015088880900293589 -0.0084147946909070015 -0.019103879109025002
  endloop
 endfacet
 facet normal -1 0 0
  outer loop
   vertex -0.00015088880900293589 -0.0044999998062849045 5.6399328969361128e-18
   vertex -0.00015088880900293589 -0.0084147946909070015 0.0035000001080334187
   vertex -0.00015088880900293589 -0.0014147950569167733 0.010499999858438969
  endloop
 endfacet
 facet normal -1 0 0
  outer loop
   vertex -0.00015088880900293589 -0.0044999998062849045 5.6399328969361128e-18
   vertex -0.00015088880900293589 -0.0014147950569167733 0.010499999858438969
   vertex -0.00015088880900293589 -0.0031819804571568966 0.0031819804571568966
  endloop
 endfacet
 facet normal -1 0 -0
  outer loop
   vertex -0.00015088880900293589 -0.0031819804571568966 0.0031819804571568966
   vertex -0.00015088880900293589 -0.0014147950569167733 0.010499999858438969
   vertex -0.00015088880900293589 0 0.0044999998062849045
  endloop
 endfacet
 facet normal -1 0 0
  outer loop
   vertex -0.00015088880900293589 0 0.0044999998062849045
   vertex -0.00015088880900293589 -0.0014147950569167733 0.010499999858438969
   vertex -0.00015088880900293589 0.009585205465555191 0.010499999858438969
  endloop
 endfacet
 facet normal -1 0 0
  outer loop
   vertex -0.00015088880900293589 0 0.0044999998062849045
   vertex -0.00015088880900293589 0.009585205465555191 0.010499999858438969
   vertex -0.00015088880900293589 0.0031819804571568966 0.0031819804571568966
  endloop
 endfacet
 facet normal -1 0 0
  outer loop
   vertex -0.00015088880900293589 0.0031819804571568966 0.0031819804571568966
   vertex -0.00015088880900293589 0.009585205465555191 0.010499999858438969
   vertex -0.00015088880900293589 0.0044999998062849045 -5.6399328969361128e-18
  endloop
 endfacet
 facet normal -1 0 -0
  outer loop
   vertex -0.00015088880900293589 -0.0084147946909070015 -0.019103879109025002
   vertex -0.00015088880900293589 0 -0.0044999998062849045
   vertex -0.00015088880900293589 0.052585210651159286 -0.019103879109025002
  endloop
 endfacet
 facet normal -1 0 0
  outer loop
   vertex -0.00015088880900293589 0 -0.0044999998062849045
   vertex -0.00015088880900293589 -0.0084147946909070015 -0.019103879109025002
   vertex -0.00015088880900293589 -0.0031819804571568966 -0.0031819804571568966
  endloop
 endfacet
 facet normal -1 0 0
  outer loop
   vertex -0.00015088880900293589 -0.0031819804571568966 -0.0031819804571568966
   vertex -0.00015088880900293589 -0.0084147946909070015 -0.019103879109025002
   vertex -0.00015088880900293589 -0.0044999998062849045 5.6399328969361128e-18
  endloop
 endfacet
 facet normal -1 0 0
  outer loop
   vertex -0.00015088880900293589 0.052585210651159286 -0.019103879109025002
   vertex -0.00015088880900293589 0 -0.0044999998062849045
   vertex -0.00015088880900293589 0.0031819804571568966 -0.0031819804571568966
  endloop
 endfacet
 facet normal -1 0 0
  outer loop
   vertex -0.00015088880900293589 0.052585210651159286 -0.019103879109025002
   vertex -0.00015088880900293589 0.0031819804571568966 -0.0031819804571568966
   vertex -0.00015088880900293589 0.0044999998062849045 -5.6399328969361128e-18
  endloop
 endfacet
 facet normal -1 0 0
  outer loop
   vertex -0.00015088880900293589 0.052585210651159286 -0.019103879109025002
   vertex -0.00015088880900293589 0.0044999998062849045 -5.6399328969361128e-18
   vertex -0.00015088880900293589 0.009585205465555191 0.010499999858438969
  endloop
 endfacet
 facet normal -1 0 0
  outer loop
   vertex -0.00015088880900293589 0.052585210651159286 -0.019103879109025002
   vertex -0.00015088880900293589 0.009585205465555191 0.010499999858438969
   vertex -0.00015088880900293589 0.052585210651159286 -0.014103880152106285
  endloop
 endfacet
 facet normal -1 0 0
  outer loop
   vertex 1.1279865793872226e-17 -0.0031819804571568966 0.0031819804571568966
   vertex 1.1279865793872226e-17 -0.0040000001899898052 5.6399328969361128e-18
   vertex 1.1279865793872226e-17 -0.0044999998062849045 5.6399328969361128e-18
  endloop
 endfacet
 facet normal -1 0 -0
  outer loop
   vertex 1.1279865793872226e-17 -0.0040000001899898052 5.6399328969361128e-18
   vertex 1.1279865793872226e-17 -0.0031819804571568966 0.0031819804571568966
   vertex 1.1279865793872226e-17 -0.0028284271247684956 0.0028284271247684956
  endloop
 endfacet
 facet normal -1 0 0
  outer loop
   vertex 1.1279865793872226e-17 -0.0028284271247684956 0.0028284271247684956
   vertex 1.1279865793872226e-17 -0.0031819804571568966 0.0031819804571568966
   vertex 1.1279865793872226e-17 0 0.0044999998062849045
  endloop
 endfacet
 facet normal -1 0 -0
  outer loop
   vertex 1.1279865793872226e-17 -0.0028284271247684956 0.0028284271247684956
   vertex 1.1279865793872226e-17 0 0.0044999998062849045
   vertex 1.1279865793872226e-17 0 0.0040000001899898052
  endloop
 endfacet
 facet normal -1 0 0
  outer loop
   vertex 1.1279865793872226e-17 0 0.0040000001899898052
   vertex 1.1279865793872226e-17 0 0.0044999998062849045
   vertex 1.1279865793872226e-17 0.0031819804571568966 0.0031819804571568966
  endloop
 endfacet
 facet normal -1 -0 0
  outer loop
   vertex 1.1279865793872226e-17 0 0.0040000001899898052
   vertex 1.1279865793872226e-17 0.0031819804571568966 0.0031819804571568966
   vertex 1.1279865793872226e-17 0.0028284271247684956 0.0028284271247684956
  endloop
 endfacet
 facet normal -1 0 -0
  outer loop
   vertex 1.1279865793872226e-17 0.0028284271247684956 0.0028284271247684956
   vertex 1.1279865793872226e-17 0.0031819804571568966 0.0031819804571568966
   vertex 1.1279865793872226e-17 0.0040000001899898052 -5.6399328969361128e-18
  endloop
 endfacet
 facet normal -1 0 0
  outer loop
   vertex 1.1279865793872226e-17 0.0040000001899898052 -5.6399328969361128e-18
   vertex 1.1279865793872226e-17 0.0031819804571568966 0.0031819804571568966
   vertex 1.1279865793872226e-17 0.0044999998062849045 -5.6399328969361128e-18
  endloop
 endfacet
 facet normal -1 0 0
  outer loop
   vertex 1.1279865793872226e-17 -0.0040000001899898052 5.6399328969361128e-18
   vertex 1.1279865793872226e-17 -0.0031819804571568966 -0.0031819804571568966
   vertex 1.1279865793872226e-17 -0.0044999998062849045 5.6399328969361128e-18
  endloop
 endfacet
 facet normal -1 0 0
  outer loop
   vertex 1.1279865793872226e-17 -0.0031819804571568966 -0.0031819804571568966
   vertex 1.1279865793872226e-17 -0.0040000001899898052 5.6399328969361128e-18
   vertex 1.1279865793872226e-17 -0.0028284271247684956 -0.0028284271247684956
  endloop
 endfacet
 facet normal -1 0 -0
  outer loop
   vertex 1.1279865793872226e-17 -0.0031819804571568966 -0.0031819804571568966
   vertex 1.1279865793872226e-17 -0.0028284271247684956 -0.0028284271247684956
   vertex 1.1279865793872226e-17 0 -0.0044999998062849045
  endloop
 endfacet
 facet normal -1 0 0
  outer loop
   vertex 1.1279865793872226e-17 0 -0.0044999998062849045
   vertex 1.1279865793872226e-17 -0.0028284271247684956 -0.0028284271247684956
   vertex 1.1279865793872226e-17 0 -0.0040000001899898052
  endloop
 endfacet
 facet normal -1 0 0
  outer loop
   vertex 1.1279865793872226e-17 0 -0.0044999998062849045
   vertex 1.1279865793872226e-17 0 -0.0040000001899898052
   vertex 1.1279865793872226e-17 0.0028284271247684956 -0.0028284271247684956
  endloop
 endfacet
 facet normal -1 0 -0
  outer loop
   vertex 1.1279865793872226e-17 0 -0.0044999998062849045
   vertex 1.1279865793872226e-17 0.0028284271247684956 -0.0028284271247684956
   vertex 1.1279865793872226e-17 0.0031819804571568966 -0.0031819804571568966
  endloop
 endfacet
 facet normal -1 0 0
  outer loop
   vertex 1.1279865793872226e-17 0.0031819804571568966 -0.0031819804571568966
   vertex 1.1279865793872226e-17 0.0028284271247684956 -0.0028284271247684956
   vertex 1.1279865793872226e-17 0.0040000001899898052 -5.6399328969361128e-18
  endloop
 endfacet
 facet normal -1 0 -0
  outer loop
   vertex 1.1279865793872226e-17 0.0031819804571568966 -0.0031819804571568966
   vertex 1.1279865793872226e-17 0.0040000001899898052 -5.6399328969361128e-18
   vertex 1.1279865793872226e-17 0.0044999998062849045 -5.6399328969361128e-18
  endloop
 endfacet
 facet normal 0 0.92387954395020078 0.38268340474910728
  outer loop
   vertex -0.00015088880900293589 -0.0044999998062849045 5.6399328969361128e-18
   vertex 1.1279865793872226e-17 -0.0031819804571568966 -0.0031819804571568966
   vertex -0.00015088880900293589 -0.0031819804571568966 -0.0031819804571568966
  endloop
 endfacet
 facet normal -0 0.92387954395020078 0.38268340474910728
  outer loop
   vertex 1.1279865793872226e-17 -0.0031819804571568966 -0.0031819804571568966
   vertex -0.00015088880900293589 -0.0044999998062849045 5.6399328969361128e-18
   vertex 1.1279865793872226e-17 -0.0044999998062849045 5.6399328969361128e-18
  endloop
 endfacet
 facet normal 0 -0.92387954395020078 -0.38268340474910728
  outer loop
   vertex 1.1279865793872226e-17 0.0031819804571568966 0.0031819804571568966
   vertex -0.00015088880900293589 0.0044999998062849045 -5.6399328969361128e-18
   vertex 1.1279865793872226e-17 0.0044999998062849045 -5.6399328969361128e-18
  endloop
 endfacet
 facet normal -0 -0.92387954395020078 -0.38268340474910728
  outer loop
   vertex -0.00015088880900293589 0.0044999998062849045 -5.6399328969361128e-18
   vertex 1.1279865793872226e-17 0.0031819804571568966 0.0031819804571568966
   vertex -0.00015088880900293589 0.0031819804571568966 0.0031819804571568966
  endloop
 endfacet
 facet normal 0 0.38268340474910789 -0.92387954395020055
  outer loop
   vertex 1.1279865793872226e-17 0 0.0044999998062849045
   vertex -0.00015088880900293589 -0.0031819804571568966 0.0031819804571568966
   vertex -0.00015088880900293589 0 0.0044999998062849045
  endloop
 endfacet
 facet normal 0 0.38268340474910789 -0.92387954395020055
  outer loop
   vertex -0.00015088880900293589 -0.0031819804571568966 0.0031819804571568966
   vertex 1.1279865793872226e-17 0 0.0044999998062849045
   vertex 1.1279865793872226e-17 -0.0031819804571568966 0.0031819804571568966
  endloop
 endfacet
 facet normal 0 0.38268340474910789 0.92387954395020055
  outer loop
   vertex 1.1279865793872226e-17 -0.0031819804571568966 -0.0031819804571568966
   vertex -0.00015088880900293589 0 -0.0044999998062849045
   vertex -0.00015088880900293589 -0.0031819804571568966 -0.0031819804571568966
  endloop
 endfacet
 facet normal 0 0.38268340474910789 0.92387954395020055
  outer loop
   vertex -0.00015088880900293589 0 -0.0044999998062849045
   vertex 1.1279865793872226e-17 -0.0031819804571568966 -0.0031819804571568966
   vertex 1.1279865793872226e-17 0 -0.0044999998062849045
  endloop
 endfacet
 facet normal 0 -0.38268340474910789 0.92387954395020055
  outer loop
   vertex 1.1279865793872226e-17 0 -0.0044999998062849045
   vertex -0.00015088880900293589 0.0031819804571568966 -0.0031819804571568966
   vertex -0.00015088880900293589 0 -0.0044999998062849045
  endloop
 endfacet
 facet normal 0 -0.38268340474910789 0.92387954395020055
  outer loop
   vertex -0.00015088880900293589 0.0031819804571568966 -0.0031819804571568966
   vertex 1.1279865793872226e-17 0 -0.0044999998062849045
   vertex 1.1279865793872226e-17 0.0031819804571568966 -0.0031819804571568966
  endloop
 endfacet
 facet normal 0 0.92387954395020033 -0.38268340474910845
  outer loop
   vertex -0.00015088880900293589 -0.0031819804571568966 0.0031819804571568966
   vertex 1.1279865793872226e-17 -0.0044999998062849045 5.6399328969361128e-18
   vertex -0.00015088880900293589 -0.0044999998062849045 5.6399328969361128e-18
  endloop
 endfacet
 facet normal 0 0.92387954395020033 -0.38268340474910845
  outer loop
   vertex 1.1279865793872226e-17 -0.0044999998062849045 5.6399328969361128e-18
   vertex -0.00015088880900293589 -0.0031819804571568966 0.0031819804571568966
   vertex 1.1279865793872226e-17 -0.0031819804571568966 0.0031819804571568966
  endloop
 endfacet
 facet normal 0 -0.38268340474910789 -0.92387954395020055
  outer loop
   vertex 1.1279865793872226e-17 0.0031819804571568966 0.0031819804571568966
   vertex -0.00015088880900293589 0 0.0044999998062849045
   vertex -0.00015088880900293589 0.0031819804571568966 0.0031819804571568966
  endloop
 endfacet
 facet normal 0 -0.38268340474910789 -0.92387954395020055
  outer loop
   vertex -0.00015088880900293589 0 0.0044999998062849045
   vertex 1.1279865793872226e-17 0.0031819804571568966 0.0031819804571568966
   vertex 1.1279865793872226e-17 0 0.0044999998062849045
  endloop
 endfacet
 facet normal 0 -0.38268340474910789 -0.92387954395020055
  outer loop
   vertex -0.039650887250900269 0.0031819804571568966 0.0031819804571568966
   vertex -0.043650887906551361 0 0.0044999998062849045
   vertex -0.043650887906551361 0.0031819804571568966 0.0031819804571568966
  endloop
 endfacet
 facet normal 0 -0.38268340474910789 -0.92387954395020055
  outer loop
   vertex -0.043650887906551361 0 0.0044999998062849045
   vertex -0.039650887250900269 0.0031819804571568966 0.0031819804571568966
   vertex -0.039650887250900269 0 0.0044999998062849045
  endloop
 endfacet
 facet normal 0 -0.92387954395020078 -0.38268340474910734
  outer loop
   vertex -0.039650887250900269 0.0031819804571568966 0.0031819804571568966
   vertex -0.043650887906551361 0.0044999998062849045 -5.6399328969361128e-18
   vertex -0.039650887250900269 0.0044999998062849045 -5.6399328969361128e-18
  endloop
 endfacet
 facet normal -0 -0.92387954395020078 -0.38268340474910734
  outer loop
   vertex -0.043650887906551361 0.0044999998062849045 -5.6399328969361128e-18
   vertex -0.039650887250900269 0.0031819804571568966 0.0031819804571568966
   vertex -0.043650887906551361 0.0031819804571568966 0.0031819804571568966
  endloop
 endfacet
 facet normal 0 -0.92387954395020022 0.38268340474910845
  outer loop
   vertex -0.039650887250900269 0.0044999998062849045 -5.6399328969361128e-18
   vertex -0.043650887906551361 0.0031819804571568966 -0.0031819804571568966
   vertex -0.039650887250900269 0.0031819804571568966 -0.0031819804571568966
  endloop
 endfacet
 facet normal 0 -0.92387954395020022 0.38268340474910845
  outer loop
   vertex -0.043650887906551361 0.0031819804571568966 -0.0031819804571568966
   vertex -0.039650887250900269 0.0044999998062849045 -5.6399328969361128e-18
   vertex -0.043650887906551361 0.0044999998062849045 -5.6399328969361128e-18
  endloop
 endfacet
 facet normal 0 -0.38268340474910789 0.92387954395020055
  outer loop
   vertex -0.039650887250900269 0 -0.0044999998062849045
   vertex -0.043650887906551361 0.0031819804571568966 -0.0031819804571568966
   vertex -0.043650887906551361 0 -0.0044999998062849045
  endloop
 endfacet
 facet normal 0 -0.38268340474910789 0.92387954395020055
  outer loop
   vertex -0.043650887906551361 0.0031819804571568966 -0.0031819804571568966
   vertex -0.039650887250900269 0 -0.0044999998062849045
   vertex -0.039650887250900269 0.0031819804571568966 -0.0031819804571568966
  endloop
 endfacet
 facet normal 0 0.38268340474910789 0.92387954395020055
  outer loop
   vertex -0.039650887250900269 -0.0031819804571568966 -0.0031819804571568966
   vertex -0.043650887906551361 0 -0.0044999998062849045
   vertex -0.043650887906551361 -0.0031819804571568966 -0.0031819804571568966
  endloop
 endfacet
 facet normal 0 0.38268340474910789 0.92387954395020055
  outer loop
   vertex -0.043650887906551361 0 -0.0044999998062849045
   vertex -0.039650887250900269 -0.0031819804571568966 -0.0031819804571568966
   vertex -0.039650887250900269 0 -0.0044999998062849045
  endloop
 endfacet
 facet normal 0 0.92387954395020078 0.38268340474910734
  outer loop
   vertex -0.043650887906551361 -0.0044999998062849045 5.6399328969361128e-18
   vertex -0.039650887250900269 -0.0031819804571568966 -0.0031819804571568966
   vertex -0.043650887906551361 -0.0031819804571568966 -0.0031819804571568966
  endloop
 endfacet
 facet normal -0 0.92387954395020078 0.38268340474910734
  outer loop
   vertex -0.039650887250900269 -0.0031819804571568966 -0.0031819804571568966
   vertex -0.043650887906551361 -0.0044999998062849045 5.6399328969361128e-18
   vertex -0.039650887250900269 -0.0044999998062849045 5.6399328969361128e-18
  endloop
 endfacet
 facet normal 0 0.92387954395020022 -0.38268340474910845
  outer loop
   vertex -0.043650887906551361 -0.0031819804571568966 0.0031819804571568966
   vertex -0.039650887250900269 -0.0044999998062849045 5.6399328969361128e-18
   vertex -0.043650887906551361 -0.0044999998062849045 5.6399328969361128e-18
  endloop
 endfacet
 facet normal 0 0.92387954395020022 -0.38268340474910845
  outer loop
   vertex -0.039650887250900269 -0.0044999998062849045 5.6399328969361128e-18
   vertex -0.043650887906551361 -0.0031819804571568966 0.0031819804571568966
   vertex -0.039650887250900269 -0.0031819804571568966 0.0031819804571568966
  endloop
 endfacet
 facet normal 0 0.38268340474910789 -0.92387954395020055
  outer loop
   vertex -0.039650887250900269 0 0.0044999998062849045
   vertex -0.043650887906551361 -0.0031819804571568966 0.0031819804571568966
   vertex -0.043650887906551361 0 0.0044999998062849045
  endloop
 endfacet
 facet normal 0 0.38268340474910789 -0.92387954395020055
  outer loop
   vertex -0.043650887906551361 -0.0031819804571568966 0.0031819804571568966
   vertex -0.039650887250900269 0 0.0044999998062849045
   vertex -0.039650887250900269 -0.0031819804571568966 0.0031819804571568966
  endloop
 endfacet
 facet normal 0 -0.38268348532645996 0.92387951057396711
  outer loop
   vertex 0.0038491112645715475 0 -0.0040000001899898052
   vertex 1.1279865793872226e-17 0.0028284271247684956 -0.0028284271247684956
   vertex 1.1279865793872226e-17 0 -0.0040000001899898052
  endloop
 endfacet
 facet normal 0 -0.38268348532645996 0.92387951057396711
  outer loop
   vertex 1.1279865793872226e-17 0.0028284271247684956 -0.0028284271247684956
   vertex 0.0038491112645715475 0 -0.0040000001899898052
   vertex 0.0038491112645715475 0.0028284271247684956 -0.0028284271247684956
  endloop
 endfacet
 facet normal 0 -0.92387951057396678 0.38268348532646063
  outer loop
   vertex 0.0038491112645715475 0.0040000001899898052 -5.6399328969361128e-18
   vertex 1.1279865793872226e-17 0.0028284271247684956 -0.0028284271247684956
   vertex 0.0038491112645715475 0.0028284271247684956 -0.0028284271247684956
  endloop
 endfacet
 facet normal 0 -0.92387951057396678 0.38268348532646063
  outer loop
   vertex 1.1279865793872226e-17 0.0028284271247684956 -0.0028284271247684956
   vertex 0.0038491112645715475 0.0040000001899898052 -5.6399328969361128e-18
   vertex 1.1279865793872226e-17 0.0040000001899898052 -5.6399328969361128e-18
  endloop
 endfacet
 facet normal 0 -0.70710678118654746 0.70710678118654746
  outer loop
   vertex 0.0038491112645715475 -0.0079147946089506149 0.0040000001899898052
   vertex -0.00015088880900293589 -0.0084147946909070015 0.0035000001080334187
   vertex 0.0033491111826151609 -0.0084147946909070015 0.0035000001080334187
  endloop
 endfacet
 facet normal 1.4699656981493369e-09 -0.7071067870664095 0.70710677530668564
  outer loop
   vertex -0.00015088880900293589 -0.0084147946909070015 0.0035000001080334187
   vertex 0.0038491112645715475 -0.0079147946089506149 0.0040000001899898052
   vertex -0.00015088880900293589 -0.0014147950569167733 0.010499999858438969
  endloop
 endfacet
 facet normal 0 -0.70710678751870659 0.70710677485438833
  outer loop
   vertex -0.00015088880900293589 -0.0014147950569167733 0.010499999858438969
   vertex 0.0038491112645715475 -0.0079147946089506149 0.0040000001899898052
   vertex 0.0038491112645715475 -0.0014147950569167733 0.010499999858438969
  endloop
 endfacet
 facet normal 0 0 1
  outer loop
   vertex 0.0038491112645715475 -0.0014147950569167733 0.010499999858438969
   vertex -0.00015088880900293589 0.009585205465555191 0.010499999858438969
   vertex -0.00015088880900293589 -0.0014147950569167733 0.010499999858438969
  endloop
 endfacet
 facet normal 0 -0 1
  outer loop
   vertex -0.00015088880900293589 0.009585205465555191 0.010499999858438969
   vertex 0.0038491112645715475 -0.0014147950569167733 0.010499999858438969
   vertex 0.0038491112645715475 0.009585205465555191 0.010499999858438969
  endloop
 endfacet
 facet normal 0 0 1
  outer loop
   vertex -0.039650887250900269 -0.0014147950569167733 0.010499999858438969
   vertex -0.043650887906551361 0.009585205465555191 0.010499999858438969
   vertex -0.043650887906551361 -0.0014147950569167733 0.010499999858438969
  endloop
 endfacet
 facet normal 0 -0 1
  outer loop
   vertex -0.043650887906551361 0.009585205465555191 0.010499999858438969
   vertex -0.039650887250900269 -0.0014147950569167733 0.010499999858438969
   vertex -0.039650887250900269 0.009585205465555191 0.010499999858438969
  endloop
 endfacet
 facet normal 0 -0.92387951057396733 -0.38268348532645929
  outer loop
   vertex 0.0038491112645715475 0.0028284271247684956 0.0028284271247684956
   vertex 1.1279865793872226e-17 0.0040000001899898052 -5.6399328969361128e-18
   vertex 0.0038491112645715475 0.0040000001899898052 -5.6399328969361128e-18
  endloop
 endfacet
 facet normal -0 -0.92387951057396733 -0.38268348532645929
  outer loop
   vertex 1.1279865793872226e-17 0.0040000001899898052 -5.6399328969361128e-18
   vertex 0.0038491112645715475 0.0028284271247684956 0.0028284271247684956
   vertex 1.1279865793872226e-17 0.0028284271247684956 0.0028284271247684956
  endloop
 endfacet
 facet normal 0 -0.38268348532645996 -0.92387951057396711
  outer loop
   vertex 0.0038491112645715475 0.0028284271247684956 0.0028284271247684956
   vertex 1.1279865793872226e-17 0 0.0040000001899898052
   vertex 1.1279865793872226e-17 0.0028284271247684956 0.0028284271247684956
  endloop
 endfacet
 facet normal 0 -0.38268348532645996 -0.92387951057396711
  outer loop
   vertex 1.1279865793872226e-17 0 0.0040000001899898052
   vertex 0.0038491112645715475 0.0028284271247684956 0.0028284271247684956
   vertex 0.0038491112645715475 0 0.0040000001899898052
  endloop
 endfacet
 facet normal 0 0.38268348532645996 0.92387951057396711
  outer loop
   vertex 0.0038491112645715475 -0.0028284271247684956 -0.0028284271247684956
   vertex 1.1279865793872226e-17 0 -0.0040000001899898052
   vertex 1.1279865793872226e-17 -0.0028284271247684956 -0.0028284271247684956
  endloop
 endfacet
 facet normal 0 0.38268348532645996 0.92387951057396711
  outer loop
   vertex 1.1279865793872226e-17 0 -0.0040000001899898052
   vertex 0.0038491112645715475 -0.0028284271247684956 -0.0028284271247684956
   vertex 0.0038491112645715475 0 -0.0040000001899898052
  endloop
 endfacet
 facet normal 0 0.92387951057396733 0.38268348532645929
  outer loop
   vertex 1.1279865793872226e-17 -0.0040000001899898052 5.6399328969361128e-18
   vertex 0.0038491112645715475 -0.0028284271247684956 -0.0028284271247684956
   vertex 1.1279865793872226e-17 -0.0028284271247684956 -0.0028284271247684956
  endloop
 endfacet
 facet normal -0 0.92387951057396733 0.38268348532645929
  outer loop
   vertex 0.0038491112645715475 -0.0028284271247684956 -0.0028284271247684956
   vertex 1.1279865793872226e-17 -0.0040000001899898052 5.6399328969361128e-18
   vertex 0.0038491112645715475 -0.0040000001899898052 5.6399328969361128e-18
  endloop
 endfacet
 facet normal 0 0.92387951057396678 -0.38268348532646063
  outer loop
   vertex 1.1279865793872226e-17 -0.0028284271247684956 0.0028284271247684956
   vertex 0.0038491112645715475 -0.0040000001899898052 5.6399328969361128e-18
   vertex 1.1279865793872226e-17 -0.0040000001899898052 5.6399328969361128e-18
  endloop
 endfacet
 facet normal 0 0.92387951057396678 -0.38268348532646063
  outer loop
   vertex 0.0038491112645715475 -0.0040000001899898052 5.6399328969361128e-18
   vertex 1.1279865793872226e-17 -0.0028284271247684956 0.0028284271247684956
   vertex 0.0038491112645715475 -0.0028284271247684956 0.0028284271247684956
  endloop
 endfacet
 facet normal 0 0.38268348532645996 -0.92387951057396711
  outer loop
   vertex 0.0038491112645715475 0 0.0040000001899898052
   vertex 1.1279865793872226e-17 -0.0028284271247684956 0.0028284271247684956
   vertex 1.1279865793872226e-17 0 0.0040000001899898052
  endloop
 endfacet
 facet normal 0 0.38268348532645996 -0.92387951057396711
  outer loop
   vertex 1.1279865793872226e-17 -0.0028284271247684956 0.0028284271247684956
   vertex 0.0038491112645715475 0 0.0040000001899898052
   vertex 0.0038491112645715475 -0.0028284271247684956 0.0028284271247684956
  endloop
 endfacet
 facet normal 0 -0.92387954395020033 0.38268340474910845
  outer loop
   vertex 1.1279865793872226e-17 0.0044999998062849045 -5.6399328969361128e-18
   vertex -0.00015088880900293589 0.0031819804571568966 -0.0031819804571568966
   vertex 1.1279865793872226e-17 0.0031819804571568966 -0.0031819804571568966
  endloop
 endfacet
 facet normal 0 -0.92387954395020033 0.38268340474910845
  outer loop
   vertex -0.00015088880900293589 0.0031819804571568966 -0.0031819804571568966
   vertex 1.1279865793872226e-17 0.0044999998062849045 -5.6399328969361128e-18
   vertex -0.00015088880900293589 0.0044999998062849045 -5.6399328969361128e-18
  endloop
 endfacet
 facet normal 1 0 0
  outer loop
   vertex 0.0038491112645715475 -0.0079147946089506149 -0.025433100759983063
   vertex 0.0038491112645715475 -0.0028284271247684956 -0.0028284271247684956
   vertex 0.0038491112645715475 -0.0040000001899898052 5.6399328969361128e-18
  endloop
 endfacet
 facet normal 1 0 0
  outer loop
   vertex 0.0038491112645715475 -0.0028284271247684956 -0.0028284271247684956
   vertex 0.0038491112645715475 -0.0079147946089506149 -0.025433100759983063
   vertex 0.0038491112645715475 0 -0.0040000001899898052
  endloop
 endfacet
 facet normal 1 0 0
  outer loop
   vertex 0.0038491112645715475 0 -0.0040000001899898052
   vertex 0.0038491112645715475 -0.0079147946089506149 -0.025433100759983063
   vertex 0.0038491112645715475 0.052085209637880325 -0.025433100759983063
  endloop
 endfacet
 facet normal 1 0 0
  outer loop
   vertex 0.0038491112645715475 0 -0.0040000001899898052
   vertex 0.0038491112645715475 0.052085209637880325 -0.025433100759983063
   vertex 0.0038491112645715475 0.0028284271247684956 -0.0028284271247684956
  endloop
 endfacet
 facet normal 1 0 0
  outer loop
   vertex 0.0038491112645715475 0.0028284271247684956 -0.0028284271247684956
   vertex 0.0038491112645715475 0.052085209637880325 -0.025433100759983063
   vertex 0.0038491112645715475 0.0040000001899898052 -5.6399328969361128e-18
  endloop
 endfacet
 facet normal 1 0 0
  outer loop
   vertex 0.0038491112645715475 0.0040000001899898052 -5.6399328969361128e-18
   vertex 0.0038491112645715475 0.052085209637880325 -0.025433100759983063
   vertex 0.0038491112645715475 0.009585205465555191 0.010499999858438969
  endloop
 endfacet
 facet normal 1 0 -0
  outer loop
   vertex 0.0038491112645715475 0.009585205465555191 0.010499999858438969
   vertex 0.0038491112645715475 0.052085209637880325 -0.025433100759983063
   vertex 0.0038491112645715475 0.052085209637880325 -0.01381778996437788
  endloop
 endfacet
 facet normal 1 0 -0
  outer loop
   vertex 0.0038491112645715475 -0.0079147946089506149 0.0040000001899898052
   vertex 0.0038491112645715475 -0.0040000001899898052 5.6399328969361128e-18
   vertex 0.0038491112645715475 -0.0014147950569167733 0.010499999858438969
  endloop
 endfacet
 facet normal 1 0 0
  outer loop
   vertex 0.0038491112645715475 -0.0040000001899898052 5.6399328969361128e-18
   vertex 0.0038491112645715475 -0.0079147946089506149 0.0040000001899898052
   vertex 0.0038491112645715475 -0.0079147946089506149 -0.025433100759983063
  endloop
 endfacet
 facet normal 1 0 0
  outer loop
   vertex 0.0038491112645715475 -0.0014147950569167733 0.010499999858438969
   vertex 0.0038491112645715475 -0.0040000001899898052 5.6399328969361128e-18
   vertex 0.0038491112645715475 -0.0028284271247684956 0.0028284271247684956
  endloop
 endfacet
 facet normal 1 0 0
  outer loop
   vertex 0.0038491112645715475 -0.0014147950569167733 0.010499999858438969
   vertex 0.0038491112645715475 -0.0028284271247684956 0.0028284271247684956
   vertex 0.0038491112645715475 0 0.0040000001899898052
  endloop
 endfacet
 facet normal 1 0 -0
  outer loop
   vertex 0.0038491112645715475 -0.0014147950569167733 0.010499999858438969
   vertex 0.0038491112645715475 0 0.0040000001899898052
   vertex 0.0038491112645715475 0.009585205465555191 0.010499999858438969
  endloop
 endfacet
 facet normal 1 -0 0
  outer loop
   vertex 0.0038491112645715475 0.009585205465555191 0.010499999858438969
   vertex 0.0038491112645715475 0 0.0040000001899898052
   vertex 0.0038491112645715475 0.0028284271247684956 0.0028284271247684956
  endloop
 endfacet
 facet normal 1 -0 0
  outer loop
   vertex 0.0038491112645715475 0.009585205465555191 0.010499999858438969
   vertex 0.0038491112645715475 0.0028284271247684956 0.0028284271247684956
   vertex 0.0038491112645715475 0.0040000001899898052 -5.6399328969361128e-18
  endloop
 endfacet
endsolid
