solid Visualization Toolkit generated SLA File
 facet normal -0.70710678015013306 0.15119880480452894 -0.69075243241800688
  outer loop
   vertex -0.020161375403404236 0.013518417254090309 -0.034515336155891418
   vertex -0.019661376252770424 -6.2932296714279801e-05 -0.037999995052814484
   vertex -0.020161377266049385 -0.00011701467155944556 -0.037499994039535522
  endloop
 endfacet
 facet normal -0.70710433740957734 0.15119949742275773 -0.69075478137734825
  outer loop
   vertex -0.019661376252770424 -6.2932296714279801e-05 -0.037999995052814484
   vertex -0.020161375403404236 0.013518417254090309 -0.034515336155891418
   vertex -0.019661376252770424 0.013448627665638924 -0.035042446106672287
  endloop
 endfacet
 facet normal -3.9776986811501341e-07 -0.38268325255714719 -0.92387960699006899
  outer loop
   vertex 0.023838609457015991 -0.0017352530267089605 -0.020353369414806366
   vertex 0.024286609143018723 -0.0045636803843080997 -0.019181797280907631
   vertex 0.023838609457015991 -0.0045636799186468124 -0.019181797280907631
  endloop
 endfacet
 facet normal 0 -0.38268319878033003 -0.9238796292652276
  outer loop
   vertex 0.024286609143018723 -0.0045636803843080997 -0.019181797280907631
   vertex 0.023838609457015991 -0.0017352530267089605 -0.020353369414806366
   vertex 0.024286609143018723 -0.0017352530267089605 -0.020353369414806366
  endloop
 endfacet
 facet normal 0 0.99400117072929584 -0.10936943169272309
  outer loop
   vertex -0.019661376252770424 0.019850097596645355 -0.0083904257044196129
   vertex -0.01765967532992363 0.019937068223953247 -0.0075999954715371132
   vertex -0.01765967532992363 0.019850097596645355 -0.0083904257044196129
  endloop
 endfacet
 facet normal 0 0.99400117072929584 -0.10936943169272309
  outer loop
   vertex -0.01765967532992363 0.019937068223953247 -0.0075999954715371132
   vertex -0.019661376252770424 0.019850097596645355 -0.0083904257044196129
   vertex -0.019661376252770424 0.019937068223953247 -0.0075999954715371132
  endloop
 endfacet
 facet normal 0 1 0
  outer loop
   vertex -0.020161375403404236 -0.0065636797808110714 -0.026645908132195473
   vertex -0.019159676507115364 -0.0065636797808110714 -0.019717704504728317
   vertex -0.019159676507115364 -0.0065636797808110714 -0.026645908132195473
  endloop
 endfacet
 facet normal 0 1 0
  outer loop
   vertex -0.019159676507115364 -0.0065636797808110714 -0.019717704504728317
   vertex -0.020161375403404236 -0.0065636797808110714 -0.026645908132195473
   vertex -0.020161375403404236 -0.0065636797808110714 -0.019717702642083168
  endloop
 endfacet
 facet normal -3.9776986811501341e-07 -0.38268325255714719 0.92387960699006899
  outer loop
   vertex 0.024286609143018723 -0.0045636803843080997 -0.027181796729564667
   vertex 0.023838609457015991 -0.0017352530267089605 -0.026010224595665932
   vertex 0.023838609457015991 -0.0045636799186468124 -0.027181796729564667
  endloop
 endfacet
 facet normal 0 -0.38268319878033003 0.9238796292652276
  outer loop
   vertex 0.023838609457015991 -0.0017352530267089605 -0.026010224595665932
   vertex 0.024286609143018723 -0.0045636803843080997 -0.027181796729564667
   vertex 0.024286609143018723 -0.0017352530267089605 -0.026010224595665932
  endloop
 endfacet
 facet normal 0.38268340474910545 -0.92387954395020155 -8.0644470231720161e-09
  outer loop
   vertex 1.0536816211215161e-11 0.0044999998062849045 0.00050000421470031142
   vertex -0.0031819804571568966 0.0031819804571568966 2.4070573312329202e-10
   vertex 2.2559731587744451e-17 0.0044999998062849045 1.7365049675976962e-10
  endloop
 endfacet
 facet normal 0.38268340366746911 -0.92387954439822983 -5.5086131914820816e-17
  outer loop
   vertex -0.0031819804571568966 0.0031819804571568966 2.4070573312329202e-10
   vertex 1.0536816211215161e-11 0.0044999998062849045 0.00050000421470031142
   vertex -0.0031819804571568966 0.0031819804571568966 0.00050000427290797234
  endloop
 endfacet
 facet normal 0.92387954395020044 0.38268340474910789 0
  outer loop
   vertex -0.0044999998062849045 0 2.6848090417530557e-10
   vertex -0.0031819804571568966 -0.0031819804571568966 0.00050000427290797234
   vertex -0.0031819804571568966 -0.0031819804571568966 2.4070573312329202e-10
  endloop
 endfacet
 facet normal 0.92387954395020055 0.38268340474910789 -0
  outer loop
   vertex -0.0031819804571568966 -0.0031819804571568966 0.00050000427290797234
   vertex -0.0044999998062849045 0 2.6848090417530557e-10
   vertex -0.0044999998062849045 0 0.00050000427290797234
  endloop
 endfacet
 facet normal 0.5773548330829088 0.57735368606137361 0.57734228834128487
  outer loop
   vertex 0.025840314105153084 0.019937068223953247 4.0410021995285206e-09
   vertex 0.025840325281023979 0.019437067210674286 0.00050000374903902411
   vertex 0.026340324431657791 0.019437067210674286 -6.2657914412511673e-09
  endloop
 endfacet
 facet normal -0.57734699844177917 0.57735775234584652 0.57734605670812433
  outer loop
   vertex -0.019661376252770424 0.019437067210674286 0.00050000468036159873
   vertex -0.019661365076899529 0.019937068223953247 4.7141579528897637e-09
   vertex -0.020161375403404236 0.019437067210674286 4.7141579528897637e-09
  endloop
 endfacet
 facet normal 0 0.97607698948434263 -0.21742518391203544
  outer loop
   vertex -0.019661376252770424 0.014045777730643749 -0.034447494894266129
   vertex -0.01765967532992363 0.019850097596645355 -0.0083904257044196129
   vertex -0.017659677192568779 0.014045777730643749 -0.034447494894266129
  endloop
 endfacet
 facet normal 0 0.97607698948434274 -0.21742518391203544
  outer loop
   vertex -0.01765967532992363 0.019850097596645355 -0.0083904257044196129
   vertex -0.019661376252770424 0.014045777730643749 -0.034447494894266129
   vertex -0.019661376252770424 0.019850097596645355 -0.0083904257044196129
  endloop
 endfacet
 facet normal -0.92387954395020055 -0.38268340474910789 0
  outer loop
   vertex 0.0031819804571568966 0.0031819804571568966 0.0005000040982849896
   vertex 0.0044999998062849045 0 7.8820068527551967e-11
   vertex 0.0044999998062849045 0 0.0005000040982849896
  endloop
 endfacet
 facet normal -0.92387954395020055 -0.38268340474910789 -0
  outer loop
   vertex 0.0044999998062849045 0 7.8820068527551967e-11
   vertex 0.0031819804571568966 0.0031819804571568966 0.0005000040982849896
   vertex 0.0031819804571568966 0.0031819804571568966 1.0659525345735332e-10
  endloop
 endfacet
 facet normal 0.71287593052444909 0.6958298046635607 -0.087342948317377239
  outer loop
   vertex -0.01765967532992363 0.019850097596645355 -0.0083904257044196129
   vertex -0.017159676179289818 0.019437067210674286 -0.0075999954715371132
   vertex -0.017159676179289818 0.019337849691510201 -0.0083904257044196129
  endloop
 endfacet
 facet normal 0.70497762490507077 0.70497499866408631 -0.077568032344367668
  outer loop
   vertex -0.017159676179289818 0.019437067210674286 -0.0075999954715371132
   vertex -0.01765967532992363 0.019850097596645355 -0.0083904257044196129
   vertex -0.01765967532992363 0.019937068223953247 -0.0075999954715371132
  endloop
 endfacet
 facet normal 0.70710183845078434 0.69019547903719003 -0.15374391297265877
  outer loop
   vertex -0.017659677192568779 0.014045777730643749 -0.034447494894266129
   vertex -0.017159676179289818 0.019337849691510201 -0.0083904257044196129
   vertex -0.017159676179289818 0.013518417254090309 -0.034515336155891418
  endloop
 endfacet
 facet normal 0.7071027044681667 0.69019462666552367 -0.15374375647759794
  outer loop
   vertex -0.017159676179289818 0.019337849691510201 -0.0083904257044196129
   vertex -0.017659677192568779 0.014045777730643749 -0.034447494894266129
   vertex -0.01765967532992363 0.019850097596645355 -0.0083904257044196129
  endloop
 endfacet
 facet normal -0.38268340474911022 -0.92387954395019956 4.4733592289773033e-17
  outer loop
   vertex 0.0031819804571568966 0.0031819804571568966 0.0005000040982849896
   vertex 2.2559731587744451e-17 0.0044999998062849045 1.7365049675976962e-10
   vertex 0.0031819804571568966 0.0031819804571568966 1.0659525345735332e-10
  endloop
 endfacet
 facet normal -0.38268340583074634 -0.92387954350217116 8.0644470356133419e-09
  outer loop
   vertex 2.2559731587744451e-17 0.0044999998062849045 1.7365049675976962e-10
   vertex 0.0031819804571568966 0.0031819804571568966 0.0005000040982849896
   vertex 1.0536816211215161e-11 0.0044999998062849045 0.00050000421470031142
  endloop
 endfacet
 facet normal 0.38268340474910545 0.92387954395020155 -8.0644469617131848e-09
  outer loop
   vertex -0.0031819804571568966 -0.0031819804571568966 2.4070573312329202e-10
   vertex 1.0536816211215161e-11 -0.0044999998062849045 0.00050000421470031142
   vertex 2.2559731587744451e-17 -0.0044999998062849045 1.7365049675976962e-10
  endloop
 endfacet
 facet normal 0.38268340366746911 0.92387954439822983 -0
  outer loop
   vertex 1.0536816211215161e-11 -0.0044999998062849045 0.00050000421470031142
   vertex -0.0031819804571568966 -0.0031819804571568966 2.4070573312329202e-10
   vertex -0.0031819804571568966 -0.0031819804571568966 0.00050000427290797234
  endloop
 endfacet
 facet normal 1.4472979587800888e-08 0.70710604079266737 0.70710752157965218
  outer loop
   vertex 0.025840325281023979 0.019437067210674286 0.00050000374903902411
   vertex -0.019661365076899529 0.019937068223953247 4.7141579528897637e-09
   vertex -0.019661376252770424 0.019437067210674286 0.00050000468036159873
  endloop
 endfacet
 facet normal 1.0461012162092717e-08 0.7071058582411619 0.70710770413072843
  outer loop
   vertex -0.019661365076899529 0.019937068223953247 4.7141579528897637e-09
   vertex 0.025840325281023979 0.019437067210674286 0.00050000374903902411
   vertex 0.025840314105153084 0.019937068223953247 4.0410021995285206e-09
  endloop
 endfacet
 facet normal 1.1609600265543176e-09 -2.3184011447872569e-07 0.99999999999997302
  outer loop
   vertex 0.0038782104384154081 -0.0015011329669505358 -2.585246738906477e-10
   vertex 0.0040000001899898052 0 8.935677198174119e-11
   vertex 0.0033782103564590216 -0.0015011329669505358 -2.5794419378222244e-10
  endloop
 endfacet
 facet normal 2.1073423080329288e-08 -2.3345565019870921e-07 0.99999999999997247
  outer loop
   vertex 0.0040000001899898052 0 8.935677198174119e-11
   vertex 0.0038782104384154081 -0.0015011329669505358 -2.585246738906477e-10
   vertex 0.0044999998062849045 0 7.8820068527551967e-11
  endloop
 endfacet
 facet normal 2.1073436958128322e-08 -8.3631653972668098e-15 0.99999999999999989
  outer loop
   vertex -0.0040000001899898052 0 2.5794419378222244e-10
   vertex -0.0031819804571568966 0.0031819804571568966 2.4070573312329202e-10
   vertex -0.0044999998062849045 0 2.6848090417530557e-10
  endloop
 endfacet
 facet normal 2.1073394482923807e-08 2.5563094128088718e-15 0.99999999999999989
  outer loop
   vertex -0.0031819804571568966 0.0031819804571568966 2.4070573312329202e-10
   vertex -0.0040000001899898052 0 2.5794419378222244e-10
   vertex -0.0028284271247684956 0.0028284271247684956 2.3325516518291067e-10
  endloop
 endfacet
 facet normal 2.1073417501510381e-08 2.5574895986458474e-14 0.99999999999999989
  outer loop
   vertex -0.0031819804571568966 0.0031819804571568966 2.4070573312329202e-10
   vertex -0.0028284271247684956 0.0028284271247684956 2.3325516518291067e-10
   vertex 2.2559731587744451e-17 0.0044999998062849045 1.7365049675976962e-10
  endloop
 endfacet
 facet normal 2.1073432616022993e-08 -4.427151885027493e-24 0.99999999999999967
  outer loop
   vertex 2.2559731587744451e-17 0.0044999998062849045 1.7365049675976962e-10
   vertex -0.0028284271247684956 0.0028284271247684956 2.3325516518291067e-10
   vertex 2.2559731587744451e-17 0.0040000001899898052 1.7365049675976962e-10
  endloop
 endfacet
 facet normal 2.1073432616023334e-08 -0 0.99999999999999989
  outer loop
   vertex 2.2559731587744451e-17 0.0044999998062849045 1.7365049675976962e-10
   vertex 2.2559731587744451e-17 0.0040000001899898052 1.7365049675976962e-10
   vertex 0.0028284271247684956 0.0028284271247684956 1.1404582833662857e-10
  endloop
 endfacet
 facet normal 2.1073424791855609e-08 -1.3239082250508326e-14 0.99999999999999978
  outer loop
   vertex 2.2559731587744451e-17 0.0044999998062849045 1.7365049675976962e-10
   vertex 0.0028284271247684956 0.0028284271247684956 1.1404582833662857e-10
   vertex 0.0031819804571568966 0.0031819804571568966 1.0659525345735332e-10
  endloop
 endfacet
 facet normal 2.1073415299606816e-08 -3.7468334560095688e-15 0.99999999999999989
  outer loop
   vertex 0.0031819804571568966 0.0031819804571568966 1.0659525345735332e-10
   vertex 0.0028284271247684956 0.0028284271247684956 1.1404582833662857e-10
   vertex 0.0040000001899898052 0 8.935677198174119e-11
  endloop
 endfacet
 facet normal 2.1073423080329864e-08 -1.7465744743605455e-15 0.99999999999999989
  outer loop
   vertex 0.0031819804571568966 0.0031819804571568966 1.0659525345735332e-10
   vertex 0.0040000001899898052 0 8.935677198174119e-11
   vertex 0.0044999998062849045 0 7.8820068527551967e-11
  endloop
 endfacet
 facet normal 2.1073436958128322e-08 8.3631653972668098e-15 0.99999999999999989
  outer loop
   vertex -0.0031819804571568966 -0.0031819804571568966 2.4070573312329202e-10
   vertex -0.0040000001899898052 0 2.5794419378222244e-10
   vertex -0.0044999998062849045 0 2.6848090417530557e-10
  endloop
 endfacet
 facet normal 2.1073394482923807e-08 -2.5563094128088718e-15 0.99999999999999989
  outer loop
   vertex -0.0040000001899898052 0 2.5794419378222244e-10
   vertex -0.0031819804571568966 -0.0031819804571568966 2.4070573312329202e-10
   vertex -0.0028284271247684956 -0.0028284271247684956 2.3325516518291067e-10
  endloop
 endfacet
 facet normal 2.1073417501510381e-08 -2.5574895986458474e-14 0.99999999999999989
  outer loop
   vertex -0.0028284271247684956 -0.0028284271247684956 2.3325516518291067e-10
   vertex -0.0031819804571568966 -0.0031819804571568966 2.4070573312329202e-10
   vertex 2.2559731587744451e-17 -0.0044999998062849045 1.7365049675976962e-10
  endloop
 endfacet
 facet normal 2.1073432616023e-08 -0 0.99999999999999989
  outer loop
   vertex -0.0028284271247684956 -0.0028284271247684956 2.3325516518291067e-10
   vertex 2.2559731587744451e-17 -0.0044999998062849045 1.7365049675976962e-10
   vertex 2.2559731587744451e-17 -0.0040000001899898052 1.7365049675976962e-10
  endloop
 endfacet
 facet normal 2.1073430275662566e-08 -0 0.99999999999999978
  outer loop
   vertex 2.2559731587744451e-17 -0.0040000001899898052 1.7365049675976962e-10
   vertex 2.2559731587744451e-17 -0.0044999998062849045 1.7365049675976962e-10
   vertex 0.0031819804571568966 -0.0031819804571568966 1.0659525345735332e-10
  endloop
 endfacet
 facet normal 2.1073426446739546e-08 1.4893966183243925e-14 0.99999999999999989
  outer loop
   vertex 2.2559731587744451e-17 -0.0040000001899898052 1.7365049675976962e-10
   vertex 0.0031819804571568966 -0.0031819804571568966 1.0659525345735332e-10
   vertex 0.0028284271247684956 -0.0028284271247684956 1.1404582833662857e-10
  endloop
 endfacet
 facet normal 2.1307626440636747e-07 1.9200285285359499e-07 0.99999999999995881
  outer loop
   vertex 0.0028284271247684956 -0.0028284271247684956 1.1404582833662857e-10
   vertex 0.0031819804571568966 -0.0031819804571568966 1.0659525345735332e-10
   vertex 0.0033782103564590216 -0.0015011329669505358 -2.5794419378222244e-10
  endloop
 endfacet
 facet normal 1.1609600265543215e-09 2.1674282425571845e-07 0.99999999999997657
  outer loop
   vertex 0.0033782103564590216 -0.0015011329669505358 -2.5794419378222244e-10
   vertex 0.0031819804571568966 -0.0031819804571568966 1.0659525345735332e-10
   vertex 0.0038782104384154081 -0.0015011329669505358 -2.585246738906477e-10
  endloop
 endfacet
 facet normal 0 -0.9238795151872905 0.38268347418891385
  outer loop
   vertex 0.024286609143018723 -0.00056368019431829453 -0.023181797936558723
   vertex 0.023838609457015991 -0.0017352530267089605 -0.026010224595665932
   vertex 0.024286609143018723 -0.0017352530267089605 -0.026010224595665932
  endloop
 endfacet
 facet normal 1.3510041539955214e-06 -0.92387959084262816 0.38268329153835906
  outer loop
   vertex 0.023838609457015991 -0.0017352530267089605 -0.026010224595665932
   vertex 0.024286609143018723 -0.00056368019431829453 -0.023181797936558723
   vertex 0.023838609457015991 -0.0005636800779029727 -0.023181796073913574
  endloop
 endfacet
 facet normal 0.54398711395579458 0.59223334047044396 -0.5944221482122487
  outer loop
   vertex -0.017159676179289818 0.013518417254090309 -0.034515336155891418
   vertex -0.017659677192568779 0.013448627665638924 -0.035042446106672287
   vertex -0.017659677192568779 0.014045777730643749 -0.034447494894266129
  endloop
 endfacet
 facet normal -1.8311549836134875e-06 -0.92387960428612881 -0.38268325908086576
  outer loop
   vertex 0.024286609143018723 -0.0017352530267089605 -0.020353369414806366
   vertex 0.023838609457015991 -0.0005636800779029727 -0.023181796073913574
   vertex 0.024286609143018723 -0.00056368019431829453 -0.023181797936558723
  endloop
 endfacet
 facet normal -0 -0.92387950174307032 -0.38268350664612683
  outer loop
   vertex 0.023838609457015991 -0.0005636800779029727 -0.023181796073913574
   vertex 0.024286609143018723 -0.0017352530267089605 -0.020353369414806366
   vertex 0.023838609457015991 -0.0017352530267089605 -0.020353369414806366
  endloop
 endfacet
 facet normal -0.92387954395020055 0.38268340474910789 0
  outer loop
   vertex 0.0044999998062849045 0 0.0005000040982849896
   vertex 0.0031819804571568966 -0.0031819804571568966 1.0659525345735332e-10
   vertex 0.0031819804571568966 -0.0031819804571568966 0.0005000040982849896
  endloop
 endfacet
 facet normal -0.92387950248029072 0.38268350486559166 -7.4644771673188617e-07
  outer loop
   vertex 0.0031819804571568966 -0.0031819804571568966 1.0659525345735332e-10
   vertex 0.0044999998062849045 0 0.0005000040982849896
   vertex 0.0038782104384154081 -0.0015011329669505358 -2.585246738906477e-10
  endloop
 endfacet
 facet normal -0.92387959038462464 0.38268329264646284 0
  outer loop
   vertex 0.0038782104384154081 -0.0015011329669505358 -2.585246738906477e-10
   vertex 0.0044999998062849045 0 0.0005000040982849896
   vertex 0.0044999998062849045 0 7.8820068527551967e-11
  endloop
 endfacet
 facet normal 0.70710426916064739 -6.1016386648815779e-07 -0.70710929320326044
  outer loop
   vertex 0.02584032341837883 -6.2932289438322186e-05 -0.034000005573034286
   vertex 0.026340324431657791 -0.012814262881875038 -0.033499997109174728
   vertex 0.02584032341837883 -0.013014473021030426 -0.033999994397163391
  endloop
 endfacet
 facet normal 0.70711204947305706 0 -0.70710151286078649
  outer loop
   vertex 0.026340324431657791 -0.012814262881875038 -0.033499997109174728
   vertex 0.02584032341837883 -6.2932289438322186e-05 -0.034000005573034286
   vertex 0.026340324431657791 -0.00011701466428348795 -0.033499997109174728
  endloop
 endfacet
 facet normal -2.1510543177243327e-07 -0.92387955030605506 0.38268338940465529
  outer loop
   vertex 0.023838631808757782 -6.3680097809992731e-05 -0.023181796073913574
   vertex 0.023338627070188522 -0.0013816994614899158 -0.026363776996731758
   vertex 0.023838631808757782 -0.0013816995779052377 -0.026363776996731758
  endloop
 endfacet
 facet normal -1.7477316373898403e-07 -0.92387955254676479 0.38268338399512364
  outer loop
   vertex 0.023338627070188522 -0.0013816994614899158 -0.026363776996731758
   vertex 0.023838631808757782 -6.3680097809992731e-05 -0.023181796073913574
   vertex 0.023338627070188522 -6.3680003222543746e-05 -0.023181796073913574
  endloop
 endfacet
 facet normal 0.92387954395020055 -0.38268340474910789 0
  outer loop
   vertex -0.0031819804571568966 0.0031819804571568966 2.4070573312329202e-10
   vertex -0.0044999998062849045 0 0.00050000427290797234
   vertex -0.0044999998062849045 0 2.6848090417530557e-10
  endloop
 endfacet
 facet normal 0.92387954395020044 -0.38268340474910789 0
  outer loop
   vertex -0.0044999998062849045 0 0.00050000427290797234
   vertex -0.0031819804571568966 0.0031819804571568966 2.4070573312329202e-10
   vertex -0.0031819804571568966 0.0031819804571568966 0.00050000427290797234
  endloop
 endfacet
 facet normal -3.2492721711568396e-08 0 -0.99999999999999944
  outer loop
   vertex -0.017159676179289818 0.019437067210674286 -0.0024999952875077724
   vertex -0.0028284271247684956 0.0028284271247684956 -0.0024999957531690598
   vertex -0.017159676179289818 -0.01356293261051178 -0.0024999952875077724
  endloop
 endfacet
 facet normal -2.7020979548451431e-07 -2.0512110390321196e-07 -0.99999999999994249
  outer loop
   vertex -0.0028284271247684956 0.0028284271247684956 -0.0024999957531690598
   vertex -0.017159676179289818 0.019437067210674286 -0.0024999952875077724
   vertex 0.023338634520769119 0.019437067210674286 -0.0025000062305480242
  endloop
 endfacet
 facet normal -6.1744670024444109e-08 2.557548387517219e-08 -0.99999999999999778
  outer loop
   vertex -0.017159676179289818 -0.01356293261051178 -0.0024999952875077724
   vertex -0.0028284271247684956 0.0028284271247684956 -0.0024999957531690598
   vertex -0.0040000001899898052 0 -0.0024999957531690598
  endloop
 endfacet
 facet normal 7.5215923153843459e-07 -1.8158726895962784e-06 -0.99999999999806843
  outer loop
   vertex -0.0028284271247684956 0.0028284271247684956 -0.0024999957531690598
   vertex 0.023338634520769119 0.019437067210674286 -0.0025000062305480242
   vertex -5.2683472168135737e-11 0.0040000001899898052 -0.0024999957531690598
  endloop
 endfacet
 facet normal -2.2349295892486626e-07 -3.4082630199676835e-07 -0.99999999999991696
  outer loop
   vertex -5.2683472168135737e-11 0.0040000001899898052 -0.0024999957531690598
   vertex 0.023338634520769119 0.019437067210674286 -0.0025000062305480242
   vertex 0.0028284271247684956 0.0028284271247684956 -0.0024999959859997034
  endloop
 endfacet
 facet normal -3.7402882076871382e-07 -1.5492777382208078e-07 -0.99999999999991795
  outer loop
   vertex 0.0028284271247684956 0.0028284271247684956 -0.0024999959859997034
   vertex 0.023338634520769119 0.019437067210674286 -0.0025000062305480242
   vertex 0.0039999997243285179 0 -0.0024999959859997034
  endloop
 endfacet
 facet normal -2.2481563281227332e-07 -3.0338532235171099e-07 -0.99999999999992861
  outer loop
   vertex 0.0039999997243285179 0 -0.0024999959859997034
   vertex 0.023338634520769119 0.019437067210674286 -0.0025000062305480242
   vertex 0.023338625207543373 -0.01356293261051178 -0.0024999962188303471
  endloop
 endfacet
 facet normal -2.2996583627536287e-08 -7.4294533430280549e-09 -0.99999999999999967
  outer loop
   vertex -0.017159676179289818 -0.01356293261051178 -0.0024999952875077724
   vertex -5.2683472168135737e-11 -0.0040000001899898052 -0.0024999957531690598
   vertex 0.023338625207543373 -0.01356293261051178 -0.0024999962188303471
  endloop
 endfacet
 facet normal -1.157019237268472e-08 -2.7932910296082379e-08 -0.99999999999999956
  outer loop
   vertex -5.2683472168135737e-11 -0.0040000001899898052 -0.0024999957531690598
   vertex -0.017159676179289818 -0.01356293261051178 -0.0024999952875077724
   vertex -0.0028284271247684956 -0.0028284271247684956 -0.0024999957531690598
  endloop
 endfacet
 facet normal -2.4798728512903541e-08 -1.0271971345145227e-08 -0.99999999999999967
  outer loop
   vertex -0.0028284271247684956 -0.0028284271247684956 -0.0024999957531690598
   vertex -0.017159676179289818 -0.01356293261051178 -0.0024999952875077724
   vertex -0.0040000001899898052 0 -0.0024999957531690598
  endloop
 endfacet
 facet normal -5.0966186207987174e-08 -7.5690112793237627e-08 -0.99999999999999578
  outer loop
   vertex 0.023338625207543373 -0.01356293261051178 -0.0024999962188303471
   vertex -5.2683472168135737e-11 -0.0040000001899898052 -0.0024999957531690598
   vertex 0.0028284271247684956 -0.0028284271247684956 -0.0024999959859997034
  endloop
 endfacet
 facet normal -9.3294310447599147e-09 3.8643759585709566e-09 -1
  outer loop
   vertex 0.023338625207543373 -0.01356293261051178 -0.0024999962188303471
   vertex 0.0028284271247684956 -0.0028284271247684956 -0.0024999959859997034
   vertex 0.0039999997243285179 0 -0.0024999959859997034
  endloop
 endfacet
 facet normal 1 0 0
  outer loop
   vertex -0.017159676179289818 -0.01356293261051178 -0.036785926669836044
   vertex -0.017159676179289818 0.019437067210674286 -0.0024999952875077724
   vertex -0.017159676179289818 -0.01356293261051178 -0.0024999952875077724
  endloop
 endfacet
 facet normal 1 -0 0
  outer loop
   vertex -0.017159676179289818 0.019437067210674286 -0.0024999952875077724
   vertex -0.017159676179289818 -0.01356293261051178 -0.036785926669836044
   vertex -0.017159676179289818 -0.012814262881875038 -0.037499994039535522
  endloop
 endfacet
 facet normal 0.99999999999950262 7.3348379049437132e-07 -6.7588081966425059e-07
  outer loop
   vertex -0.017159676179289818 0.019437067210674286 -0.0024999952875077724
   vertex -0.017159676179289818 -0.012814262881875038 -0.037499994039535522
   vertex -0.017159685492515564 -0.00011701467155944556 -0.037499994039535522
  endloop
 endfacet
 facet normal 0.99999999999973788 -7.1182110194125711e-07 1.3159378659812101e-07
  outer loop
   vertex -0.017159676179289818 0.019437067210674286 -0.0024999952875077724
   vertex -0.017159685492515564 -0.00011701467155944556 -0.037499994039535522
   vertex -0.017159676179289818 0.013518417254090309 -0.034515336155891418
  endloop
 endfacet
 facet normal 1 0 0
  outer loop
   vertex -0.017159676179289818 0.019437067210674286 -0.0024999952875077724
   vertex -0.017159676179289818 0.013518417254090309 -0.034515336155891418
   vertex -0.017159676179289818 0.019337849691510201 -0.0083904257044196129
  endloop
 endfacet
 facet normal 1 0 0
  outer loop
   vertex -0.017159676179289818 0.019437067210674286 -0.0024999952875077724
   vertex -0.017159676179289818 0.019337849691510201 -0.0083904257044196129
   vertex -0.017159676179289818 0.019437067210674286 -0.0075999954715371132
  endloop
 endfacet
 facet normal -0.70191161573034533 0.68881379746788896 -0.18126123722594989
  outer loop
   vertex 0.023338630795478821 0.01934058777987957 -0.0083904387429356575
   vertex 0.023838624358177185 0.014045777730643749 -0.030447496101260185
   vertex 0.023338623344898224 0.013518417254090309 -0.030515335500240326
  endloop
 endfacet
 facet normal -0.70191066616939413 0.6888147129193315 -0.18126143545579823
  outer loop
   vertex 0.023838624358177185 0.014045777730643749 -0.030447496101260185
   vertex 0.023338630795478821 0.01934058777987957 -0.0083904387429356575
   vertex 0.023838633671402931 0.019850097596645355 -0.0083904359489679337
  endloop
 endfacet
 facet normal 0 0.96707636785496898 -0.25448634292716144
  outer loop
   vertex 0.023838624358177185 0.014045777730643749 -0.030447496101260185
   vertex 0.02584032341837883 0.019850097596645355 -0.0083904359489679337
   vertex 0.02584032341837883 0.014045777730643749 -0.030447496101260185
  endloop
 endfacet
 facet normal 0 0.96707636785496898 -0.25448634292716144
  outer loop
   vertex 0.02584032341837883 0.019850097596645355 -0.0083904359489679337
   vertex 0.023838624358177185 0.014045777730643749 -0.030447496101260185
   vertex 0.023838633671402931 0.019850097596645355 -0.0083904359489679337
  endloop
 endfacet
 facet normal -1.9106541796227752e-07 0.707113297425633 -0.7071002648873862
  outer loop
   vertex -0.017159676179289818 0.019437067210674286 -0.0024999952875077724
   vertex 0.023838633671402931 0.019937068223953247 -0.0019999961368739605
   vertex 0.023338634520769119 0.019437067210674286 -0.0025000062305480242
  endloop
 endfacet
 facet normal -1.190190569240131e-08 0.70710595205519866 -0.70710761031692404
  outer loop
   vertex 0.023838633671402931 0.019937068223953247 -0.0019999961368739605
   vertex -0.017159676179289818 0.019437067210674286 -0.0024999952875077724
   vertex -0.01765967532992363 0.019937068223953247 -0.0019999954383820295
  endloop
 endfacet
 facet normal -0.70710678118724546 0.70710678118580239 2.5825260922020306e-07
  outer loop
   vertex 0.023338634520769119 0.019437067210674286 -0.0025000062305480242
   vertex 0.023838633671402931 0.019937068223953247 -0.0076000061817467213
   vertex 0.023338630795478821 0.019437065348029137 -0.0076000089757144451
  endloop
 endfacet
 facet normal -0.70710809827412102 0.70710546409652086 0
  outer loop
   vertex 0.023838633671402931 0.019937068223953247 -0.0076000061817467213
   vertex 0.023338634520769119 0.019437067210674286 -0.0025000062305480242
   vertex 0.023838633671402931 0.019937068223953247 -0.0019999961368739605
  endloop
 endfacet
 facet normal 0 -0.5000000899537792 -0.86602535184959373
  outer loop
   vertex -0.019159676507115364 -0.00056367926299571991 -0.02318180538713932
   vertex -0.020161375403404236 -0.0065636797808110714 -0.019717702642083168
   vertex -0.020161375403404236 -0.00056367926299571991 -0.02318180538713932
  endloop
 endfacet
 facet normal -1.6103622990384259e-06 -0.49999988831589176 -0.86602546826378179
  outer loop
   vertex -0.020161375403404236 -0.0065636797808110714 -0.019717702642083168
   vertex -0.019159676507115364 -0.00056367926299571991 -0.02318180538713932
   vertex -0.019159676507115364 -0.0065636797808110714 -0.019717704504728317
  endloop
 endfacet
 facet normal -1 0 0
  outer loop
   vertex 0.024286609143018723 -0.0073921075090765953 -0.020353369414806366
   vertex 0.024286609143018723 -0.0073921075090765953 -0.026010224595665932
   vertex 0.024286609143018723 -0.008563680574297905 -0.023181797936558723
  endloop
 endfacet
 facet normal -1 0 0
  outer loop
   vertex 0.024286609143018723 -0.0073921075090765953 -0.026010224595665932
   vertex 0.024286609143018723 -0.0073921075090765953 -0.020353369414806366
   vertex 0.024286609143018723 -0.0045636803843080997 -0.019181797280907631
  endloop
 endfacet
 facet normal -1 0 -0
  outer loop
   vertex 0.024286609143018723 -0.0073921075090765953 -0.026010224595665932
   vertex 0.024286609143018723 -0.0045636803843080997 -0.019181797280907631
   vertex 0.024286609143018723 -0.0045636803843080997 -0.027181796729564667
  endloop
 endfacet
 facet normal -1 0 0
  outer loop
   vertex 0.024286609143018723 -0.0045636803843080997 -0.027181796729564667
   vertex 0.024286609143018723 -0.0045636803843080997 -0.019181797280907631
   vertex 0.024286609143018723 -0.0017352530267089605 -0.020353369414806366
  endloop
 endfacet
 facet normal -1 0 -0
  outer loop
   vertex 0.024286609143018723 -0.0045636803843080997 -0.027181796729564667
   vertex 0.024286609143018723 -0.0017352530267089605 -0.020353369414806366
   vertex 0.024286609143018723 -0.0017352530267089605 -0.026010224595665932
  endloop
 endfacet
 facet normal -1 0 0
  outer loop
   vertex 0.024286609143018723 -0.0017352530267089605 -0.026010224595665932
   vertex 0.024286609143018723 -0.0017352530267089605 -0.020353369414806366
   vertex 0.024286609143018723 -0.00056368019431829453 -0.023181797936558723
  endloop
 endfacet
 facet normal -1 0 0
  outer loop
   vertex -0.019159676507115364 -0.00056367926299571991 -0.02318180538713932
   vertex -0.019159676507115364 -0.0065636797808110714 -0.026645908132195473
   vertex -0.019159676507115364 -0.0065636797808110714 -0.019717704504728317
  endloop
 endfacet
 facet normal 9.6030181555894292e-07 0.92387948829842337 0.38268353910316188
  outer loop
   vertex 0.023838609457015991 -0.007392107043415308 -0.026010224595665932
   vertex 0.024286609143018723 -0.008563680574297905 -0.023181797936558723
   vertex 0.024286609143018723 -0.0073921075090765953 -0.026010224595665932
  endloop
 endfacet
 facet normal 3.5116685573759348e-06 0.92387963116957394 0.38268319416671548
  outer loop
   vertex 0.024286609143018723 -0.008563680574297905 -0.023181797936558723
   vertex 0.023838609457015991 -0.007392107043415308 -0.026010224595665932
   vertex 0.023838607594370842 -0.0085636796429753304 -0.023181796073913574
  endloop
 endfacet
 facet normal 0.70710445118995446 -0.48803536029666689 -0.51168816891487312
  outer loop
   vertex 0.02584032341837883 -0.013014473021030426 -0.033999994397163391
   vertex 0.026340324431657791 -0.01356293261051178 -0.032785933464765549
   vertex 0.02584032341837883 -0.014062932692468166 -0.032999999821186066
  endloop
 endfacet
 facet normal 0.70710371366647395 -0.48803630152727595 -0.51168829037868269
  outer loop
   vertex 0.026340324431657791 -0.01356293261051178 -0.032785933464765549
   vertex 0.02584032341837883 -0.013014473021030426 -0.033999994397163391
   vertex 0.026340324431657791 -0.012814262881875038 -0.033499997109174728
  endloop
 endfacet
 facet normal 3.2952267681023092e-07 0.92387957739921411 -0.38268332399588711
  outer loop
   vertex 0.023838607594370842 -0.0085636796429753304 -0.023181796073913574
   vertex 0.024286609143018723 -0.0073921075090765953 -0.020353369414806366
   vertex 0.024286609143018723 -0.008563680574297905 -0.023181797936558723
  endloop
 endfacet
 facet normal 9.6030187145564872e-07 0.92387954207507894 -0.38268340927484701
  outer loop
   vertex 0.024286609143018723 -0.0073921075090765953 -0.020353369414806366
   vertex 0.023838607594370842 -0.0085636796429753304 -0.023181796073913574
   vertex 0.023838609457015991 -0.007392107043415308 -0.020353369414806366
  endloop
 endfacet
 facet normal 3.9776984016655897e-07 0.3826832256687217 0.92387961812761288
  outer loop
   vertex 0.024286609143018723 -0.0073921075090765953 -0.026010224595665932
   vertex 0.023838609457015991 -0.0045636799186468124 -0.027181796729564667
   vertex 0.023838609457015991 -0.007392107043415308 -0.026010224595665932
  endloop
 endfacet
 facet normal 3.9776984016655897e-07 0.3826832256687217 0.92387961812761288
  outer loop
   vertex 0.023838609457015991 -0.0045636799186468124 -0.027181796729564667
   vertex 0.024286609143018723 -0.0073921075090765953 -0.026010224595665932
   vertex 0.024286609143018723 -0.0045636803843080997 -0.027181796729564667
  endloop
 endfacet
 facet normal 0.70710678118654757 0.70710678118654757 0
  outer loop
   vertex 0.02584032341837883 0.019937068223953247 -0.0076000061817467213
   vertex 0.026340324431657791 0.019437067210674286 -6.2657914412511673e-09
   vertex 0.026340324431657791 0.019437067210674286 -0.0076000071130692959
  endloop
 endfacet
 facet normal 0.70710019579414474 0.70711336651708911 8.6649669613196759e-07
  outer loop
   vertex 0.026340324431657791 0.019437067210674286 -6.2657914412511673e-09
   vertex 0.02584032341837883 0.019937068223953247 -0.0076000061817467213
   vertex 0.025840314105153084 0.019937068223953247 4.0410021995285206e-09
  endloop
 endfacet
 facet normal 0 1 0
  outer loop
   vertex -0.019661376252770424 0.019937068223953247 -0.0075999954715371132
   vertex -0.01765967532992363 0.019937068223953247 -0.0019999954383820295
   vertex -0.01765967532992363 0.019937068223953247 -0.0075999954715371132
  endloop
 endfacet
 facet normal 0 1 0
  outer loop
   vertex -0.01765967532992363 0.019937068223953247 -0.0019999954383820295
   vertex -0.019661376252770424 0.019937068223953247 -0.0075999954715371132
   vertex -0.019661365076899529 0.019937068223953247 4.7141579528897637e-09
  endloop
 endfacet
 facet normal 0 1 0
  outer loop
   vertex -0.01765967532992363 0.019937068223953247 -0.0019999954383820295
   vertex -0.019661365076899529 0.019937068223953247 4.7141579528897637e-09
   vertex 0.025840314105153084 0.019937068223953247 4.0410021995285206e-09
  endloop
 endfacet
 facet normal 0 1 0
  outer loop
   vertex 0.023838633671402931 0.019937068223953247 -0.0076000061817467213
   vertex 0.025840314105153084 0.019937068223953247 4.0410021995285206e-09
   vertex 0.02584032341837883 0.019937068223953247 -0.0076000061817467213
  endloop
 endfacet
 facet normal 0 1 0
  outer loop
   vertex 0.025840314105153084 0.019937068223953247 4.0410021995285206e-09
   vertex 0.023838633671402931 0.019937068223953247 -0.0076000061817467213
   vertex 0.023838633671402931 0.019937068223953247 -0.0019999961368739605
  endloop
 endfacet
 facet normal 0 1 -0
  outer loop
   vertex 0.025840314105153084 0.019937068223953247 4.0410021995285206e-09
   vertex 0.023838633671402931 0.019937068223953247 -0.0019999961368739605
   vertex -0.01765967532992363 0.019937068223953247 -0.0019999954383820295
  endloop
 endfacet
 facet normal 0.70710613118621457 -0.70710743118628194 -3.9911747361300999e-08
  outer loop
   vertex 0.026340324431657791 -0.01356293261051178 -0.032785933464765549
   vertex 0.025840325281023979 -0.014062932692468166 3.7447449585670256e-09
   vertex 0.02584032341837883 -0.014062932692468166 -0.032999999821186066
  endloop
 endfacet
 facet normal 0.70710743973125423 -0.70710612264122752 0
  outer loop
   vertex 0.025840325281023979 -0.014062932692468166 3.7447449585670256e-09
   vertex 0.026340324431657791 -0.01356293261051178 -0.032785933464765549
   vertex 0.026340324431657791 -0.01356293261051178 3.734208497974123e-09
  endloop
 endfacet
 facet normal 0.70710742091568857 -0.70710614145682671 -3.7631147375369161e-08
  outer loop
   vertex -0.017659677192568779 -0.014062932692468166 -0.03699999675154686
   vertex -0.017159676179289818 -0.01356293261051178 -0.0024999952875077724
   vertex -0.01765967532992363 -0.014062932692468166 -0.0019999954383820295
  endloop
 endfacet
 facet normal 0.70710612264245409 -0.70710743973002754 0
  outer loop
   vertex -0.017159676179289818 -0.01356293261051178 -0.0024999952875077724
   vertex -0.017659677192568779 -0.014062932692468166 -0.03699999675154686
   vertex -0.017159676179289818 -0.01356293261051178 -0.036785926669836044
  endloop
 endfacet
 facet normal -0.71287593052444909 0.6958298046635607 -0.087342948317377239
  outer loop
   vertex -0.020161375403404236 0.019437067210674286 -0.0075999954715371132
   vertex -0.019661376252770424 0.019850097596645355 -0.0083904257044196129
   vertex -0.020161375403404236 0.019337849691510201 -0.0083904257044196129
  endloop
 endfacet
 facet normal -0.70497762490507077 0.70497499866408631 -0.077568032344367668
  outer loop
   vertex -0.019661376252770424 0.019850097596645355 -0.0083904257044196129
   vertex -0.020161375403404236 0.019437067210674286 -0.0075999954715371132
   vertex -0.019661376252770424 0.019937068223953247 -0.0075999954715371132
  endloop
 endfacet
 facet normal -1 -0 0
  outer loop
   vertex -0.020161375403404236 -0.01356293261051178 4.7141579528897637e-09
   vertex -0.020161375403404236 -0.0065636797808110714 -0.019717702642083168
   vertex -0.020161375403404236 -0.01356293261051178 -0.036785926669836044
  endloop
 endfacet
 facet normal -1 0 0
  outer loop
   vertex -0.020161375403404236 -0.0065636797808110714 -0.019717702642083168
   vertex -0.020161375403404236 -0.01356293261051178 4.7141579528897637e-09
   vertex -0.020161375403404236 0.019437067210674286 4.7141579528897637e-09
  endloop
 endfacet
 facet normal -0.99999999999813172 -1.7884410467235128e-06 7.3339505250684672e-07
  outer loop
   vertex -0.020161375403404236 -0.01356293261051178 -0.036785926669836044
   vertex -0.020161375403404236 -0.0065636797808110714 -0.019717702642083168
   vertex -0.020161377266049385 -0.012814262881875038 -0.037499994039535522
  endloop
 endfacet
 facet normal -1 0 0
  outer loop
   vertex -0.020161375403404236 -0.0065636797808110714 -0.019717702642083168
   vertex -0.020161375403404236 0.019437067210674286 4.7141579528897637e-09
   vertex -0.020161375403404236 -0.00056367926299571991 -0.02318180538713932
  endloop
 endfacet
 facet normal -0.99999999999998157 -1.4551827658621344e-07 1.2554990937154526e-07
  outer loop
   vertex -0.020161375403404236 -0.00056367926299571991 -0.02318180538713932
   vertex -0.020161375403404236 0.019437067210674286 4.7141579528897637e-09
   vertex -0.020161377266049385 -0.00011701467155944556 -0.037499994039535522
  endloop
 endfacet
 facet normal -0.99999999999998956 1.4193067564630698e-07 -2.4338104914411867e-08
  outer loop
   vertex -0.020161377266049385 -0.00011701467155944556 -0.037499994039535522
   vertex -0.020161375403404236 0.019437067210674286 4.7141579528897637e-09
   vertex -0.020161375403404236 0.013518417254090309 -0.034515336155891418
  endloop
 endfacet
 facet normal -1 0 0
  outer loop
   vertex -0.020161375403404236 0.013518417254090309 -0.034515336155891418
   vertex -0.020161375403404236 0.019437067210674286 4.7141579528897637e-09
   vertex -0.020161375403404236 0.019337849691510201 -0.0083904257044196129
  endloop
 endfacet
 facet normal -1 0 -0
  outer loop
   vertex -0.020161375403404236 0.019337849691510201 -0.0083904257044196129
   vertex -0.020161375403404236 0.019437067210674286 4.7141579528897637e-09
   vertex -0.020161375403404236 0.019437067210674286 -0.0075999954715371132
  endloop
 endfacet
 facet normal -0.99999999999998523 0 1.7160773971498791e-07
  outer loop
   vertex -0.020161377266049385 -0.012814262881875038 -0.037499994039535522
   vertex -0.020161375403404236 -0.0065636797808110714 -0.026645908132195473
   vertex -0.020161377266049385 -0.00011701467155944556 -0.037499994039535522
  endloop
 endfacet
 facet normal -0.99999999999995559 2.9799542204531559e-07 0
  outer loop
   vertex -0.020161375403404236 -0.0065636797808110714 -0.026645908132195473
   vertex -0.020161377266049385 -0.012814262881875038 -0.037499994039535522
   vertex -0.020161375403404236 -0.0065636797808110714 -0.019717702642083168
  endloop
 endfacet
 facet normal -0.99999999999998912 -7.37783839763962e-08 1.277878788941006e-07
  outer loop
   vertex -0.020161377266049385 -0.00011701467155944556 -0.037499994039535522
   vertex -0.020161375403404236 -0.0065636797808110714 -0.026645908132195473
   vertex -0.020161375403404236 -0.00056367926299571991 -0.02318180538713932
  endloop
 endfacet
 facet normal 0 -0.69018529759159175 -0.7236326796023006
  outer loop
   vertex -0.017659686505794525 -0.013014473021030426 -0.037999995052814484
   vertex -0.019661376252770424 -0.014062932692468166 -0.03699999675154686
   vertex -0.019661376252770424 -0.013014473021030426 -0.037999995052814484
  endloop
 endfacet
 facet normal 0 -0.69018529759159175 -0.7236326796023006
  outer loop
   vertex -0.019661376252770424 -0.014062932692468166 -0.03699999675154686
   vertex -0.017659686505794525 -0.013014473021030426 -0.037999995052814484
   vertex -0.017659677192568779 -0.014062932692468166 -0.03699999675154686
  endloop
 endfacet
 facet normal 3.9776984016655897e-07 0.3826832256687217 -0.92387961812761288
  outer loop
   vertex 0.023838609457015991 -0.0045636799186468124 -0.019181797280907631
   vertex 0.024286609143018723 -0.0073921075090765953 -0.020353369414806366
   vertex 0.023838609457015991 -0.007392107043415308 -0.020353369414806366
  endloop
 endfacet
 facet normal 3.9776984016655897e-07 0.3826832256687217 -0.92387961812761288
  outer loop
   vertex 0.024286609143018723 -0.0073921075090765953 -0.020353369414806366
   vertex 0.023838609457015991 -0.0045636799186468124 -0.019181797280907631
   vertex 0.024286609143018723 -0.0045636803843080997 -0.019181797280907631
  endloop
 endfacet
 facet normal -0.99999999999987044 5.0520565029715928e-07 6.1501981401639096e-08
  outer loop
   vertex 0.023338625207543373 -0.01356293261051178 -0.0024999962188303471
   vertex 0.023338627070188522 -0.007745660375803709 -0.01999981701374054
   vertex 0.023338623344898224 -0.01356293261051178 -0.032785933464765549
  endloop
 endfacet
 facet normal -0.99999999999996025 2.822189597042715e-07 -1.2623022453994336e-08
  outer loop
   vertex 0.023338627070188522 -0.007745660375803709 -0.01999981701374054
   vertex 0.023338625207543373 -0.01356293261051178 -0.0024999962188303471
   vertex 0.023338634520769119 0.019437067210674286 -0.0025000062305480242
  endloop
 endfacet
 facet normal -0.99999999996759026 -7.2144487142309531e-06 3.5736967254587434e-06
  outer loop
   vertex 0.023338623344898224 -0.01356293261051178 -0.032785933464765549
   vertex 0.023338627070188522 -0.007745660375803709 -0.01999981701374054
   vertex 0.023338625207543373 -0.0090636797249317169 -0.023181796073913574
  endloop
 endfacet
 facet normal -0.9999999999999829 1.2785129049169843e-07 1.3404742239394508e-07
  outer loop
   vertex 0.023338623344898224 -0.01356293261051178 -0.032785933464765549
   vertex 0.023338625207543373 -0.0090636797249317169 -0.023181796073913574
   vertex 0.023338623344898224 -0.012814262881875038 -0.033499997109174728
  endloop
 endfacet
 facet normal -0.99999999999916489 -4.9454547091401819e-07 1.1939372185650669e-06
  outer loop
   vertex 0.023338627070188522 -0.007745660375803709 -0.01999981701374054
   vertex 0.023338634520769119 0.019437067210674286 -0.0025000062305480242
   vertex 0.023338627070188522 -0.0045636799186468124 -0.01868179626762867
  endloop
 endfacet
 facet normal -0.99999999999995237 1.1813753450333405e-07 2.8520895984015206e-07
  outer loop
   vertex 0.023338627070188522 -0.0045636799186468124 -0.01868179626762867
   vertex 0.023338634520769119 0.019437067210674286 -0.0025000062305480242
   vertex 0.023338627070188522 -0.0013816994614899158 -0.01999981701374054
  endloop
 endfacet
 facet normal -0.99999999999995892 2.6545290799803912e-07 1.0995424274603749e-07
  outer loop
   vertex 0.023338627070188522 -0.0013816994614899158 -0.01999981701374054
   vertex 0.023338634520769119 0.019437067210674286 -0.0025000062305480242
   vertex 0.023338627070188522 -6.3680003222543746e-05 -0.023181796073913574
  endloop
 endfacet
 facet normal -0.99999999999991462 -5.2856646474661873e-08 4.1008659127829708e-07
  outer loop
   vertex 0.023338627070188522 -6.3680003222543746e-05 -0.023181796073913574
   vertex 0.023338634520769119 0.019437067210674286 -0.0025000062305480242
   vertex 0.023338623344898224 0.013518417254090309 -0.030515335500240326
  endloop
 endfacet
 facet normal -0.99999999999906952 -1.1981939004271195e-06 6.5205591539771101e-07
  outer loop
   vertex 0.023338623344898224 0.013518417254090309 -0.030515335500240326
   vertex 0.023338634520769119 0.019437067210674286 -0.0025000062305480242
   vertex 0.023338630795478821 0.01934058777987957 -0.0083904387429356575
  endloop
 endfacet
 facet normal -0.99999999998182598 -5.9845010887865757e-06 7.3045087062488862e-07
  outer loop
   vertex 0.023338630795478821 0.01934058777987957 -0.0083904387429356575
   vertex 0.023338634520769119 0.019437067210674286 -0.0025000062305480242
   vertex 0.023338630795478821 0.019437065348029137 -0.0076000089757144451
  endloop
 endfacet
 facet normal -0.99999999999954636 8.8018054808891052e-07 -3.6414798614149991e-07
  outer loop
   vertex 0.023338623344898224 -0.012814262881875038 -0.033499997109174728
   vertex 0.023338625207543373 -0.007745660375803709 -0.026363776996731758
   vertex 0.023338634520769119 -0.00011701466428348795 -0.033499997109174728
  endloop
 endfacet
 facet normal -0.99999999999996847 2.3211917001433018e-07 9.6146886107494719e-08
  outer loop
   vertex 0.023338625207543373 -0.007745660375803709 -0.026363776996731758
   vertex 0.023338623344898224 -0.012814262881875038 -0.033499997109174728
   vertex 0.023338625207543373 -0.0090636797249317169 -0.023181796073913574
  endloop
 endfacet
 facet normal -0.9999999999992536 8.0396207887722753e-08 -1.2191204058368644e-06
  outer loop
   vertex 0.023338634520769119 -0.00011701466428348795 -0.033499997109174728
   vertex 0.023338625207543373 -0.007745660375803709 -0.026363776996731758
   vertex 0.023338627070188522 -0.0045636799186468124 -0.027681797742843628
  endloop
 endfacet
 facet normal -0.99999999999944578 4.028859335316569e-07 -9.7265173613005795e-07
  outer loop
   vertex 0.023338634520769119 -0.00011701466428348795 -0.033499997109174728
   vertex 0.023338627070188522 -0.0045636799186468124 -0.027681797742843628
   vertex 0.023338627070188522 -0.0013816994614899158 -0.026363776996731758
  endloop
 endfacet
 facet normal -0.99999999999817446 1.7652879669819353e-06 -7.3120610913869584e-07
  outer loop
   vertex 0.023338634520769119 -0.00011701466428348795 -0.033499997109174728
   vertex 0.023338627070188522 -0.0013816994614899158 -0.026363776996731758
   vertex 0.023338627070188522 -6.3680003222543746e-05 -0.023181796073913574
  endloop
 endfacet
 facet normal -0.99999999999952249 -6.6231274498259735e-07 -7.1865786931361136e-07
  outer loop
   vertex 0.023338634520769119 -0.00011701466428348795 -0.033499997109174728
   vertex 0.023338627070188522 -6.3680003222543746e-05 -0.023181796073913574
   vertex 0.023338623344898224 0.013518417254090309 -0.030515335500240326
  endloop
 endfacet
 facet normal 0.70175089634894583 0.68876506118716208 -0.18206693813346767
  outer loop
   vertex 0.02584032341837883 0.014045777730643749 -0.030447496101260185
   vertex 0.026340324431657791 0.019348902627825737 -0.0084584224969148636
   vertex 0.026340324431657791 0.013518417254090309 -0.030515335500240326
  endloop
 endfacet
 facet normal 0.68288380830679263 0.70647540216404447 -0.18590914579321607
  outer loop
   vertex 0.026340324431657791 0.019348902627825737 -0.0084584224969148636
   vertex 0.02584032341837883 0.014045777730643749 -0.030447496101260185
   vertex 0.02584032341837883 0.019850097596645355 -0.0083904359489679337
  endloop
 endfacet
 facet normal 0.68271643394689074 0.70642008177664328 -0.1867322652396245
  outer loop
   vertex 0.026340324431657791 0.019348902627825737 -0.0084584224969148636
   vertex 0.02584032341837883 0.019850097596645355 -0.0083904359489679337
   vertex 0.026340324431657791 0.019366873428225517 -0.0083904378116130829
  endloop
 endfacet
 facet normal -0.7071061226424542 -0.70710743973002754 0
  outer loop
   vertex 0.023838624358177185 -0.014062932692468166 -0.0019999961368739605
   vertex 0.023338623344898224 -0.01356293261051178 -0.032785933464765549
   vertex 0.023838624358177185 -0.014062932692468166 -0.032999999821186066
  endloop
 endfacet
 facet normal -0.70710746147550818 -0.70710610089693104 4.3488509944632576e-08
  outer loop
   vertex 0.023338623344898224 -0.01356293261051178 -0.032785933464765549
   vertex 0.023838624358177185 -0.014062932692468166 -0.0019999961368739605
   vertex 0.023338625207543373 -0.01356293261051178 -0.0024999962188303471
  endloop
 endfacet
 facet normal 0 -1 0
  outer loop
   vertex 0.025840325281023979 -0.014062932692468166 3.7447449585670256e-09
   vertex 0.023838624358177185 -0.014062932692468166 -0.032999999821186066
   vertex 0.02584032341837883 -0.014062932692468166 -0.032999999821186066
  endloop
 endfacet
 facet normal 0 -1 0
  outer loop
   vertex 0.023838624358177185 -0.014062932692468166 -0.032999999821186066
   vertex 0.025840325281023979 -0.014062932692468166 3.7447449585670256e-09
   vertex 0.023838624358177185 -0.014062932692468166 -0.0019999961368739605
  endloop
 endfacet
 facet normal 0 -1 0
  outer loop
   vertex 0.023838624358177185 -0.014062932692468166 -0.0019999961368739605
   vertex 0.025840325281023979 -0.014062932692468166 3.7447449585670256e-09
   vertex -0.01765967532992363 -0.014062932692468166 -0.0019999954383820295
  endloop
 endfacet
 facet normal 0 -1 0
  outer loop
   vertex -0.01765967532992363 -0.014062932692468166 -0.0019999954383820295
   vertex -0.019661376252770424 -0.014062932692468166 -0.03699999675154686
   vertex -0.017659677192568779 -0.014062932692468166 -0.03699999675154686
  endloop
 endfacet
 facet normal -0 -1 0
  outer loop
   vertex -0.019661376252770424 -0.014062932692468166 -0.03699999675154686
   vertex -0.01765967532992363 -0.014062932692468166 -0.0019999954383820295
   vertex -0.019661376252770424 -0.014062932692468166 4.7036214922968611e-09
  endloop
 endfacet
 facet normal 0 -1 0
  outer loop
   vertex -0.019661376252770424 -0.014062932692468166 4.7036214922968611e-09
   vertex -0.01765967532992363 -0.014062932692468166 -0.0019999954383820295
   vertex 0.025840325281023979 -0.014062932692468166 3.7447449585670256e-09
  endloop
 endfacet
 facet normal 0 0 -1
  outer loop
   vertex -0.017659686505794525 -6.2932296714279801e-05 -0.037999995052814484
   vertex -0.019661376252770424 -0.013014473021030426 -0.037999995052814484
   vertex -0.019661376252770424 -6.2932296714279801e-05 -0.037999995052814484
  endloop
 endfacet
 facet normal 0 -0 -1
  outer loop
   vertex -0.019661376252770424 -0.013014473021030426 -0.037999995052814484
   vertex -0.017659686505794525 -6.2932296714279801e-05 -0.037999995052814484
   vertex -0.017659686505794525 -0.013014473021030426 -0.037999995052814484
  endloop
 endfacet
 facet normal 0.70710678118654757 0 -0.70710678118654757
  outer loop
   vertex -0.017159685492515564 -0.00011701467155944556 -0.037499994039535522
   vertex -0.017659686505794525 -0.013014473021030426 -0.037999995052814484
   vertex -0.017659686505794525 -6.2932296714279801e-05 -0.037999995052814484
  endloop
 endfacet
 facet normal 0.70710009194730805 5.1864645570068795e-07 -0.70711347036231698
  outer loop
   vertex -0.017659686505794525 -0.013014473021030426 -0.037999995052814484
   vertex -0.017159685492515564 -0.00011701467155944556 -0.037499994039535522
   vertex -0.017159676179289818 -0.012814262881875038 -0.037499994039535522
  endloop
 endfacet
 facet normal 0.70710566602570957 -0.4880321848193076 -0.51168951880493996
  outer loop
   vertex -0.017659686505794525 -0.013014473021030426 -0.037999995052814484
   vertex -0.017159676179289818 -0.01356293261051178 -0.036785926669836044
   vertex -0.017659677192568779 -0.014062932692468166 -0.03699999675154686
  endloop
 endfacet
 facet normal 0.70709866556029943 -0.48804111885449453 -0.51169067166609283
  outer loop
   vertex -0.017159676179289818 -0.01356293261051178 -0.036785926669836044
   vertex -0.017659686505794525 -0.013014473021030426 -0.037999995052814484
   vertex -0.017159676179289818 -0.012814262881875038 -0.037499994039535522
  endloop
 endfacet
 facet normal 1 0 -0
  outer loop
   vertex 0.026340324431657791 -0.012814262881875038 -0.033499997109174728
   vertex 0.026340324431657791 -0.0065636797808110714 -0.026645908132195473
   vertex 0.026340324431657791 -0.0065636797808110714 -0.019717704504728317
  endloop
 endfacet
 facet normal 1 0 0
  outer loop
   vertex 0.026340324431657791 -0.0065636797808110714 -0.026645908132195473
   vertex 0.026340324431657791 -0.012814262881875038 -0.033499997109174728
   vertex 0.026340324431657791 -0.00011701466428348795 -0.033499997109174728
  endloop
 endfacet
 facet normal 1 0 0
  outer loop
   vertex 0.026340324431657791 -0.0065636797808110714 -0.026645908132195473
   vertex 0.026340324431657791 -0.00011701466428348795 -0.033499997109174728
   vertex 0.026340324431657791 -0.000563679204788059 -0.02318180538713932
  endloop
 endfacet
 facet normal 1 0 -0
  outer loop
   vertex 0.026340324431657791 -0.01356293261051178 3.734208497974123e-09
   vertex 0.026340324431657791 -0.0065636797808110714 -0.019717704504728317
   vertex 0.026340324431657791 0.019437067210674286 -6.2657914412511673e-09
  endloop
 endfacet
 facet normal 1 0 0
  outer loop
   vertex 0.026340324431657791 -0.0065636797808110714 -0.019717704504728317
   vertex 0.026340324431657791 -0.01356293261051178 3.734208497974123e-09
   vertex 0.026340324431657791 -0.01356293261051178 -0.032785933464765549
  endloop
 endfacet
 facet normal 1 -0 0
  outer loop
   vertex 0.026340324431657791 -0.0065636797808110714 -0.019717704504728317
   vertex 0.026340324431657791 -0.01356293261051178 -0.032785933464765549
   vertex 0.026340324431657791 -0.012814262881875038 -0.033499997109174728
  endloop
 endfacet
 facet normal 1 -0 0
  outer loop
   vertex 0.026340324431657791 0.019437067210674286 -6.2657914412511673e-09
   vertex 0.026340324431657791 -0.0065636797808110714 -0.019717704504728317
   vertex 0.026340324431657791 -0.000563679204788059 -0.02318180538713932
  endloop
 endfacet
 facet normal 1 -0 0
  outer loop
   vertex 0.026340324431657791 0.019437067210674286 -6.2657914412511673e-09
   vertex 0.026340324431657791 -0.000563679204788059 -0.02318180538713932
   vertex 0.026340324431657791 -0.00011701466428348795 -0.033499997109174728
  endloop
 endfacet
 facet normal 1 0 0
  outer loop
   vertex 0.026340324431657791 0.019437067210674286 -6.2657914412511673e-09
   vertex 0.026340324431657791 -0.00011701466428348795 -0.033499997109174728
   vertex 0.026340324431657791 0.013518417254090309 -0.030515335500240326
  endloop
 endfacet
 facet normal 1 0 0
  outer loop
   vertex 0.026340324431657791 0.019437067210674286 -6.2657914412511673e-09
   vertex 0.026340324431657791 0.013518417254090309 -0.030515335500240326
   vertex 0.026340324431657791 0.019348902627825737 -0.0084584224969148636
  endloop
 endfacet
 facet normal 1 0 0
  outer loop
   vertex 0.026340324431657791 0.019437067210674286 -6.2657914412511673e-09
   vertex 0.026340324431657791 0.019348902627825737 -0.0084584224969148636
   vertex 0.026340324431657791 0.019366873428225517 -0.0083904378116130829
  endloop
 endfacet
 facet normal 1 0 0
  outer loop
   vertex 0.026340324431657791 0.019437067210674286 -6.2657914412511673e-09
   vertex 0.026340324431657791 0.019366873428225517 -0.0083904378116130829
   vertex 0.026340324431657791 0.019437067210674286 -0.0076000071130692959
  endloop
 endfacet
 facet normal 0.57735096434135813 -0.57734987677511285 0.57734996645177505
  outer loop
   vertex 0.026340324431657791 -0.01356293261051178 3.734208497974123e-09
   vertex 0.025840325281023979 -0.01356293261051178 0.00050000374903902411
   vertex 0.025840325281023979 -0.014062932692468166 3.7447449585670256e-09
  endloop
 endfacet
 facet normal -1.1901897278994901e-08 -0.70710661059944957 -0.70710695177360416
  outer loop
   vertex -0.017159676179289818 -0.01356293261051178 -0.0024999952875077724
   vertex 0.023838624358177185 -0.014062932692468166 -0.0019999961368739605
   vertex -0.01765967532992363 -0.014062932692468166 -0.0019999954383820295
  endloop
 endfacet
 facet normal -1.6261040040180608e-08 -0.70710678931705229 -0.70710677305604253
  outer loop
   vertex 0.023838624358177185 -0.014062932692468166 -0.0019999961368739605
   vertex -0.017159676179289818 -0.01356293261051178 -0.0024999952875077724
   vertex 0.023338625207543373 -0.01356293261051178 -0.0024999962188303471
  endloop
 endfacet
 facet normal -0.7071031555475642 0.69019419346491506 -0.15374362660608876
  outer loop
   vertex -0.020161375403404236 0.019337849691510201 -0.0083904257044196129
   vertex -0.019661376252770424 0.014045777730643749 -0.034447494894266129
   vertex -0.020161375403404236 0.013518417254090309 -0.034515336155891418
  endloop
 endfacet
 facet normal -0.70710270996315761 0.69019463202911957 -0.15374370712633029
  outer loop
   vertex -0.019661376252770424 0.014045777730643749 -0.034447494894266129
   vertex -0.020161375403404236 0.019337849691510201 -0.0083904257044196129
   vertex -0.019661376252770424 0.019850097596645355 -0.0083904257044196129
  endloop
 endfacet
 facet normal 0 0.21382764088866832 -0.97687140401999006
  outer loop
   vertex -0.019661376252770424 0.013448627665638924 -0.035042446106672287
   vertex -0.017659686505794525 -6.2932296714279801e-05 -0.037999995052814484
   vertex -0.019661376252770424 -6.2932296714279801e-05 -0.037999995052814484
  endloop
 endfacet
 facet normal 0 0.21382764088866835 -0.97687140401999017
  outer loop
   vertex -0.017659686505794525 -6.2932296714279801e-05 -0.037999995052814484
   vertex -0.019661376252770424 0.013448627665638924 -0.035042446106672287
   vertex -0.017659677192568779 0.013448627665638924 -0.035042446106672287
  endloop
 endfacet
 facet normal -0.70710735788178181 -1.4179528245772754e-19 0.70710620449084294
  outer loop
   vertex -0.020161375403404236 -0.01356293261051178 4.7141579528897637e-09
   vertex -0.019661376252770424 0.019437067210674286 0.00050000468036159873
   vertex -0.020161375403404236 0.019437067210674286 4.7141579528897637e-09
  endloop
 endfacet
 facet normal -0.70710735788178181 -1.4179528245772754e-19 0.70710620449084294
  outer loop
   vertex -0.019661376252770424 0.019437067210674286 0.00050000468036159873
   vertex -0.020161375403404236 -0.01356293261051178 4.7141579528897637e-09
   vertex -0.019661376252770424 -0.01356293261051178 0.00050000468036159873
  endloop
 endfacet
 facet normal 1.490116037692945e-08 -0.70710672627099613 0.70710683610209435
  outer loop
   vertex 0.025840325281023979 -0.01356293261051178 0.00050000374903902411
   vertex -0.019661376252770424 -0.014062932692468166 4.7036214922968611e-09
   vertex 0.025840325281023979 -0.014062932692468166 3.7447449585670256e-09
  endloop
 endfacet
 facet normal 1.4472965956739217e-08 -0.70710670678740284 0.70710685558568442
  outer loop
   vertex -0.019661376252770424 -0.014062932692468166 4.7036214922968611e-09
   vertex 0.025840325281023979 -0.01356293261051178 0.00050000374903902411
   vertex -0.019661376252770424 -0.01356293261051178 0.00050000468036159873
  endloop
 endfacet
 facet normal -0.70710678118654757 -0 -0.70710678118654757
  outer loop
   vertex -0.020161377266049385 -0.012814262881875038 -0.037499994039535522
   vertex -0.019661376252770424 -6.2932296714279801e-05 -0.037999995052814484
   vertex -0.019661376252770424 -0.013014473021030426 -0.037999995052814484
  endloop
 endfacet
 facet normal -0.70710678118654746 0 -0.70710678118654746
  outer loop
   vertex -0.019661376252770424 -6.2932296714279801e-05 -0.037999995052814484
   vertex -0.020161377266049385 -0.012814262881875038 -0.037499994039535522
   vertex -0.020161377266049385 -0.00011701467155944556 -0.037499994039535522
  endloop
 endfacet
 facet normal -0.71113995636074434 0.69787126696117818 -0.085180145675142052
  outer loop
   vertex 0.023338630795478821 0.019437065348029137 -0.0076000089757144451
   vertex 0.023838633671402931 0.019850097596645355 -0.0083904359489679337
   vertex 0.023338630795478821 0.01934058777987957 -0.0083904387429356575
  endloop
 endfacet
 facet normal -0.70497608336015194 0.70497651680400519 -0.077568245081814868
  outer loop
   vertex 0.023838633671402931 0.019850097596645355 -0.0083904359489679337
   vertex 0.023338630795478821 0.019437065348029137 -0.0076000089757144451
   vertex 0.023838633671402931 0.019937068223953247 -0.0076000061817467213
  endloop
 endfacet
 facet normal -0 -0.38268375095928803 -0.92387940054518458
  outer loop
   vertex 0.023338627070188522 -0.0013816994614899158 -0.01999981701374054
   vertex 0.023838631808757782 -0.0045636799186468124 -0.01868179626762867
   vertex 0.023338627070188522 -0.0045636799186468124 -0.01868179626762867
  endloop
 endfacet
 facet normal -8.9099662424309417e-08 -0.38268376290970835 -0.9238793955951492
  outer loop
   vertex 0.023838631808757782 -0.0045636799186468124 -0.01868179626762867
   vertex 0.023338627070188522 -0.0013816994614899158 -0.01999981701374054
   vertex 0.023838631808757782 -0.0013816995779052377 -0.01999981701374054
  endloop
 endfacet
 facet normal 8.60421784128542e-07 0.92387961155159026 0.38268324154389421
  outer loop
   vertex 0.023338625207543373 -0.007745660375803709 -0.026363776996731758
   vertex 0.023838629946112633 -0.0090636797249317169 -0.023181796073913574
   vertex 0.023838629946112633 -0.0077456608414649963 -0.026363776996731758
  endloop
 endfacet
 facet normal 0 0.92387956375029001 0.38268335694745559
  outer loop
   vertex 0.023838629946112633 -0.0090636797249317169 -0.023181796073913574
   vertex 0.023338625207543373 -0.007745660375803709 -0.026363776996731758
   vertex 0.023338625207543373 -0.0090636797249317169 -0.023181796073913574
  endloop
 endfacet
 facet normal 0 0.70580241806570743 -0.70840874264269238
  outer loop
   vertex 0.023838624358177185 0.014045777730643749 -0.030447496101260185
   vertex 0.02584032341837883 0.013448627665638924 -0.031042449176311493
   vertex 0.023838624358177185 0.013448627665638924 -0.031042449176311493
  endloop
 endfacet
 facet normal 0 0.70580241806570743 -0.70840874264269238
  outer loop
   vertex 0.02584032341837883 0.013448627665638924 -0.031042449176311493
   vertex 0.023838624358177185 0.014045777730643749 -0.030447496101260185
   vertex 0.02584032341837883 0.014045777730643749 -0.030447496101260185
  endloop
 endfacet
 facet normal 0 -8.6289894978446752e-07 -0.99999999999962763
  outer loop
   vertex 0.02584032341837883 -6.2932289438322186e-05 -0.034000005573034286
   vertex 0.023838633671402931 -0.013014473021030426 -0.033999994397163391
   vertex 0.023838633671402931 -6.2932289438322186e-05 -0.034000005573034286
  endloop
 endfacet
 facet normal 0 -8.6289894978446752e-07 -0.99999999999962763
  outer loop
   vertex 0.023838633671402931 -0.013014473021030426 -0.033999994397163391
   vertex 0.02584032341837883 -6.2932289438322186e-05 -0.034000005573034286
   vertex 0.02584032341837883 -0.013014473021030426 -0.033999994397163391
  endloop
 endfacet
 facet normal 1 0 0
  outer loop
   vertex 0.025340324267745018 -0.00056367926299571991 -0.02318180538713932
   vertex 0.025340324267745018 -0.0065636797808110714 -0.019717704504728317
   vertex 0.025340324267745018 -0.0065636797808110714 -0.026645908132195473
  endloop
 endfacet
 facet normal 0 -0.5000000899537792 0.86602535184959373
  outer loop
   vertex 0.026340324431657791 -0.0065636797808110714 -0.026645908132195473
   vertex 0.025340324267745018 -0.00056367926299571991 -0.02318180538713932
   vertex 0.025340324267745018 -0.0065636797808110714 -0.026645908132195473
  endloop
 endfacet
 facet normal 2.9103830710484942e-08 -0.5000000863158004 0.86602535394998192
  outer loop
   vertex 0.025340324267745018 -0.00056367926299571991 -0.02318180538713932
   vertex 0.026340324431657791 -0.0065636797808110714 -0.026645908132195473
   vertex 0.026340324431657791 -0.000563679204788059 -0.02318180538713932
  endloop
 endfacet
 facet normal 0.5439894525965715 0.59223320085179076 -0.59442014709507041
  outer loop
   vertex 0.026340324431657791 0.013518417254090309 -0.030515335500240326
   vertex 0.02584032341837883 0.013448627665638924 -0.031042449176311493
   vertex 0.02584032341837883 0.014045777730643749 -0.030447496101260185
  endloop
 endfacet
 facet normal 0.7071119217188041 0.15119779337748238 -0.690747390469859
  outer loop
   vertex 0.02584032341837883 -6.2932289438322186e-05 -0.034000005573034286
   vertex 0.026340324431657791 0.013518417254090309 -0.030515335500240326
   vertex 0.026340324431657791 -0.00011701466428348795 -0.033499997109174728
  endloop
 endfacet
 facet normal 0.70710552626968559 0.15119960677230096 -0.69075354044027359
  outer loop
   vertex 0.026340324431657791 0.013518417254090309 -0.030515335500240326
   vertex 0.02584032341837883 -6.2932289438322186e-05 -0.034000005573034286
   vertex 0.02584032341837883 0.013448627665638924 -0.031042449176311493
  endloop
 endfacet
 facet normal 0 -0.38268375095928803 0.92387940054518458
  outer loop
   vertex 0.023838631808757782 -0.0045636799186468124 -0.027681797742843628
   vertex 0.023338627070188522 -0.0013816994614899158 -0.026363776996731758
   vertex 0.023338627070188522 -0.0045636799186468124 -0.027681797742843628
  endloop
 endfacet
 facet normal -8.9099662424309417e-08 -0.38268376290970835 0.9238793955951492
  outer loop
   vertex 0.023338627070188522 -0.0013816994614899158 -0.026363776996731758
   vertex 0.023838631808757782 -0.0045636799186468124 -0.027681797742843628
   vertex 0.023838631808757782 -0.0013816995779052377 -0.026363776996731758
  endloop
 endfacet
 facet normal 0.70710681076894188 0.15119824519721986 -0.69075252356647754
  outer loop
   vertex -0.017659686505794525 -6.2932296714279801e-05 -0.037999995052814484
   vertex -0.017159676179289818 0.013518417254090309 -0.034515336155891418
   vertex -0.017159685492515564 -0.00011701467155944556 -0.037499994039535522
  endloop
 endfacet
 facet normal 0.70710310643883301 0.15119929552976591 -0.69075608567413638
  outer loop
   vertex -0.017159676179289818 0.013518417254090309 -0.034515336155891418
   vertex -0.017659686505794525 -6.2932296714279801e-05 -0.037999995052814484
   vertex -0.017659677192568779 0.013448627665638924 -0.035042446106672287
  endloop
 endfacet
 facet normal 0 0.99400116372465652 -0.10936949535418243
  outer loop
   vertex 0.023838633671402931 0.019850097596645355 -0.0083904359489679337
   vertex 0.02584032341837883 0.019937068223953247 -0.0076000061817467213
   vertex 0.02584032341837883 0.019850097596645355 -0.0083904359489679337
  endloop
 endfacet
 facet normal 0 0.99400116372465652 -0.10936949535418243
  outer loop
   vertex 0.02584032341837883 0.019937068223953247 -0.0076000061817467213
   vertex 0.023838633671402931 0.019850097596645355 -0.0083904359489679337
   vertex 0.023838633671402931 0.019937068223953247 -0.0076000061817467213
  endloop
 endfacet
 facet normal 3.563999662483783e-07 0.38268375095926371 -0.92387940054512596
  outer loop
   vertex 0.023338627070188522 -0.0045636799186468124 -0.01868179626762867
   vertex 0.023838629946112633 -0.0077456608414649963 -0.01999981701374054
   vertex 0.023338627070188522 -0.007745660375803709 -0.01999981701374054
  endloop
 endfacet
 facet normal 0 0.3826837031576073 -0.9238794203453069
  outer loop
   vertex 0.023838629946112633 -0.0077456608414649963 -0.01999981701374054
   vertex 0.023338627070188522 -0.0045636799186468124 -0.01868179626762867
   vertex 0.023838631808757782 -0.0045636799186468124 -0.01868179626762867
  endloop
 endfacet
 facet normal -0.99999999882936397 -4.4703476201740708e-05 1.8516786149842026e-05
  outer loop
   vertex 0.023838629946112633 -0.0077456608414649963 -0.01999981701374054
   vertex 0.023838607594370842 -0.0085636796429753304 -0.023181796073913574
   vertex 0.023838629946112633 -0.0090636797249317169 -0.023181796073913574
  endloop
 endfacet
 facet normal -0.99999999902730119 -4.0512534217831485e-05 1.7439384548630332e-05
  outer loop
   vertex 0.023838607594370842 -0.0085636796429753304 -0.023181796073913574
   vertex 0.023838629946112633 -0.0077456608414649963 -0.01999981701374054
   vertex 0.023838609457015991 -0.007392107043415308 -0.020353369414806366
  endloop
 endfacet
 facet normal -0.99999999900622993 -1.6559840703869295e-05 4.1392172705124872e-05
  outer loop
   vertex 0.023838609457015991 -0.007392107043415308 -0.020353369414806366
   vertex 0.023838629946112633 -0.0077456608414649963 -0.01999981701374054
   vertex 0.023838631808757782 -0.0045636799186468124 -0.01868179626762867
  endloop
 endfacet
 facet normal -0.99999999882936852 -1.8516739920562236e-05 4.4703392935196556e-05
  outer loop
   vertex 0.023838609457015991 -0.007392107043415308 -0.020353369414806366
   vertex 0.023838631808757782 -0.0045636799186468124 -0.01868179626762867
   vertex 0.023838609457015991 -0.0045636799186468124 -0.019181797280907631
  endloop
 endfacet
 facet normal -0.99999999882936796 1.8516770375912582e-05 4.4703392935196529e-05
  outer loop
   vertex 0.023838609457015991 -0.0045636799186468124 -0.019181797280907631
   vertex 0.023838631808757782 -0.0045636799186468124 -0.01868179626762867
   vertex 0.023838631808757782 -0.0013816995779052377 -0.01999981701374054
  endloop
 endfacet
 facet normal -0.99999999882935897 1.851681770841329e-05 4.4703577051888195e-05
  outer loop
   vertex 0.023838609457015991 -0.0045636799186468124 -0.019181797280907631
   vertex 0.023838631808757782 -0.0013816995779052377 -0.01999981701374054
   vertex 0.023838609457015991 -0.0017352530267089605 -0.020353369414806366
  endloop
 endfacet
 facet normal -0.99999999882936186 4.4703511993015498e-05 1.8516805164102316e-05
  outer loop
   vertex 0.023838609457015991 -0.0017352530267089605 -0.020353369414806366
   vertex 0.023838631808757782 -0.0013816995779052377 -0.01999981701374054
   vertex 0.023838609457015991 -0.0005636800779029727 -0.023181796073913574
  endloop
 endfacet
 facet normal -0.9999999988293633 4.4703485309037784e-05 1.8516798304216169e-05
  outer loop
   vertex 0.023838609457015991 -0.0005636800779029727 -0.023181796073913574
   vertex 0.023838631808757782 -0.0013816995779052377 -0.01999981701374054
   vertex 0.023838631808757782 -6.3680097809992731e-05 -0.023181796073913574
  endloop
 endfacet
 facet normal -0.99999999882936408 -4.4703476201740714e-05 -1.8516775310618685e-05
  outer loop
   vertex 0.023838607594370842 -0.0085636796429753304 -0.023181796073913574
   vertex 0.023838629946112633 -0.0077456608414649963 -0.026363776996731758
   vertex 0.023838629946112633 -0.0090636797249317169 -0.023181796073913574
  endloop
 endfacet
 facet normal -0.99999999902730097 -4.0512542338652768e-05 -1.7439376427776946e-05
  outer loop
   vertex 0.023838629946112633 -0.0077456608414649963 -0.026363776996731758
   vertex 0.023838607594370842 -0.0085636796429753304 -0.023181796073913574
   vertex 0.023838609457015991 -0.007392107043415308 -0.026010224595665932
  endloop
 endfacet
 facet normal -0.99999999900622993 -1.6559840703869295e-05 -4.1392172705124872e-05
  outer loop
   vertex 0.023838629946112633 -0.0077456608414649963 -0.026363776996731758
   vertex 0.023838609457015991 -0.007392107043415308 -0.026010224595665932
   vertex 0.023838631808757782 -0.0045636799186468124 -0.027681797742843628
  endloop
 endfacet
 facet normal -0.99999999882936852 -1.8516739920562236e-05 -4.4703392935196556e-05
  outer loop
   vertex 0.023838631808757782 -0.0045636799186468124 -0.027681797742843628
   vertex 0.023838609457015991 -0.007392107043415308 -0.026010224595665932
   vertex 0.023838609457015991 -0.0045636799186468124 -0.027181796729564667
  endloop
 endfacet
 facet normal -0.99999999882936852 1.8516741444824533e-05 -4.4703392935196556e-05
  outer loop
   vertex 0.023838631808757782 -0.0045636799186468124 -0.027681797742843628
   vertex 0.023838609457015991 -0.0045636799186468124 -0.027181796729564667
   vertex 0.023838609457015991 -0.0017352530267089605 -0.026010224595665932
  endloop
 endfacet
 facet normal -0.99999999882935942 1.8516838165842291e-05 -4.4703556594398604e-05
  outer loop
   vertex 0.023838631808757782 -0.0045636799186468124 -0.027681797742843628
   vertex 0.023838609457015991 -0.0017352530267089605 -0.026010224595665932
   vertex 0.023838631808757782 -0.0013816995779052377 -0.026363776996731758
  endloop
 endfacet
 facet normal -0.99999999882936164 4.4703520615553579e-05 -1.8516796541538668e-05
  outer loop
   vertex 0.023838631808757782 -0.0013816995779052377 -0.026363776996731758
   vertex 0.023838609457015991 -0.0017352530267089605 -0.026010224595665932
   vertex 0.023838609457015991 -0.0005636800779029727 -0.023181796073913574
  endloop
 endfacet
 facet normal -0.99999999882936341 4.4703485309037791e-05 -1.8516787464985709e-05
  outer loop
   vertex 0.023838631808757782 -0.0013816995779052377 -0.026363776996731758
   vertex 0.023838609457015991 -0.0005636800779029727 -0.023181796073913574
   vertex 0.023838631808757782 -6.3680097809992731e-05 -0.023181796073913574
  endloop
 endfacet
 facet normal 3.5639863856745842e-07 0.38268375095908563 0.92387940054519968
  outer loop
   vertex 0.023838629946112633 -0.0077456608414649963 -0.026363776996731758
   vertex 0.023338627070188522 -0.0045636799186468124 -0.027681797742843628
   vertex 0.023338625207543373 -0.007745660375803709 -0.026363776996731758
  endloop
 endfacet
 facet normal 0 0.3826837031576073 0.9238794203453069
  outer loop
   vertex 0.023338627070188522 -0.0045636799186468124 -0.027681797742843628
   vertex 0.023838629946112633 -0.0077456608414649963 -0.026363776996731758
   vertex 0.023838631808757782 -0.0045636799186468124 -0.027681797742843628
  endloop
 endfacet
 facet normal -0.38268340474911022 0.92387954395019956 0
  outer loop
   vertex 2.2559731587744451e-17 -0.0044999998062849045 1.7365049675976962e-10
   vertex 0.0031819804571568966 -0.0031819804571568966 0.0005000040982849896
   vertex 0.0031819804571568966 -0.0031819804571568966 1.0659525345735332e-10
  endloop
 endfacet
 facet normal -0.38268340583074634 0.92387954350217116 8.0644469845070549e-09
  outer loop
   vertex 0.0031819804571568966 -0.0031819804571568966 0.0005000040982849896
   vertex 2.2559731587744451e-17 -0.0044999998062849045 1.7365049675976962e-10
   vertex 1.0536816211215161e-11 -0.0044999998062849045 0.00050000421470031142
  endloop
 endfacet
 facet normal 0 0.92387953235157305 -0.38268343275067268
  outer loop
   vertex 0.023338625207543373 -0.0090636797249317169 -0.023181796073913574
   vertex 0.023838629946112633 -0.0077456608414649963 -0.01999981701374054
   vertex 0.023838629946112633 -0.0090636797249317169 -0.023181796073913574
  endloop
 endfacet
 facet normal 8.604248711516736e-07 0.92387948454936719 -0.38268354815441857
  outer loop
   vertex 0.023838629946112633 -0.0077456608414649963 -0.01999981701374054
   vertex 0.023338625207543373 -0.0090636797249317169 -0.023181796073913574
   vertex 0.023338627070188522 -0.007745660375803709 -0.01999981701374054
  endloop
 endfacet
 facet normal -0.70710347818405284 -0.48803274279351505 -0.51169201000353093
  outer loop
   vertex 0.023338623344898224 -0.01356293261051178 -0.032785933464765549
   vertex 0.023838633671402931 -0.013014473021030426 -0.033999994397163391
   vertex 0.023838624358177185 -0.014062932692468166 -0.032999999821186066
  endloop
 endfacet
 facet normal -0.70709712823683879 -0.4880408466073835 -0.51169305572966695
  outer loop
   vertex 0.023838633671402931 -0.013014473021030426 -0.033999994397163391
   vertex 0.023338623344898224 -0.01356293261051178 -0.032785933464765549
   vertex 0.023338623344898224 -0.012814262881875038 -0.033499997109174728
  endloop
 endfacet
 facet normal 0 0.21382815503834168 -0.97687129147748974
  outer loop
   vertex 0.02584032341837883 0.013448627665638924 -0.031042449176311493
   vertex 0.023838633671402931 -6.2932289438322186e-05 -0.034000005573034286
   vertex 0.023838624358177185 0.013448627665638924 -0.031042449176311493
  endloop
 endfacet
 facet normal 0 0.21382815503834171 -0.97687129147748986
  outer loop
   vertex 0.023838633671402931 -6.2932289438322186e-05 -0.034000005573034286
   vertex 0.02584032341837883 0.013448627665638924 -0.031042449176311493
   vertex 0.02584032341837883 -6.2932289438322186e-05 -0.034000005573034286
  endloop
 endfacet
 facet normal -0.70709768373618531 -6.1016954895071345e-07 -0.70711587851960256
  outer loop
   vertex 0.023338623344898224 -0.012814262881875038 -0.033499997109174728
   vertex 0.023838633671402931 -6.2932289438322186e-05 -0.034000005573034286
   vertex 0.023838633671402931 -0.013014473021030426 -0.033999994397163391
  endloop
 endfacet
 facet normal -0.70711340021030167 6.2238746015839876e-07 -0.70710016210056026
  outer loop
   vertex 0.023838633671402931 -6.2932289438322186e-05 -0.034000005573034286
   vertex 0.023338623344898224 -0.012814262881875038 -0.033499997109174728
   vertex 0.023338634520769119 -0.00011701466428348795 -0.033499997109174728
  endloop
 endfacet
 facet normal -1.7477314833251499e-07 -0.92387947110564739 -0.38268358061134372
  outer loop
   vertex 0.023838631808757782 -0.0013816995779052377 -0.01999981701374054
   vertex 0.023338627070188522 -6.3680003222543746e-05 -0.023181796073913574
   vertex 0.023838631808757782 -6.3680097809992731e-05 -0.023181796073913574
  endloop
 endfacet
 facet normal -2.1510541385402413e-07 -0.92387947334634446 -0.38268357520180429
  outer loop
   vertex 0.023338627070188522 -6.3680003222543746e-05 -0.023181796073913574
   vertex 0.023838631808757782 -0.0013816995779052377 -0.01999981701374054
   vertex 0.023338627070188522 -0.0013816994614899158 -0.01999981701374054
  endloop
 endfacet
 facet normal -0.5439894525965715 0.59223320085179076 -0.59442014709507041
  outer loop
   vertex 0.023838624358177185 0.014045777730643749 -0.030447496101260185
   vertex 0.023838624358177185 0.013448627665638924 -0.031042449176311493
   vertex 0.023338623344898224 0.013518417254090309 -0.030515335500240326
  endloop
 endfacet
 facet normal -0 -0.69018395122272047 -0.72363396373760225
  outer loop
   vertex 0.023838633671402931 -0.013014473021030426 -0.033999994397163391
   vertex 0.02584032341837883 -0.014062932692468166 -0.032999999821186066
   vertex 0.023838624358177185 -0.014062932692468166 -0.032999999821186066
  endloop
 endfacet
 facet normal 0 -0.69018395122272047 -0.72363396373760236
  outer loop
   vertex 0.02584032341837883 -0.014062932692468166 -0.032999999821186066
   vertex 0.023838633671402931 -0.013014473021030426 -0.033999994397163391
   vertex 0.02584032341837883 -0.013014473021030426 -0.033999994397163391
  endloop
 endfacet
 facet normal 0 1 0
  outer loop
   vertex 0.025340324267745018 -0.0065636797808110714 -0.026645908132195473
   vertex 0.026340324431657791 -0.0065636797808110714 -0.019717704504728317
   vertex 0.026340324431657791 -0.0065636797808110714 -0.026645908132195473
  endloop
 endfacet
 facet normal 0 1 0
  outer loop
   vertex 0.026340324431657791 -0.0065636797808110714 -0.019717704504728317
   vertex 0.025340324267745018 -0.0065636797808110714 -0.026645908132195473
   vertex 0.025340324267745018 -0.0065636797808110714 -0.019717704504728317
  endloop
 endfacet
 facet normal 2.9103819185413016e-08 -0.49999988831653991 -0.86602546826490434
  outer loop
   vertex 0.026340324431657791 -0.000563679204788059 -0.02318180538713932
   vertex 0.025340324267745018 -0.0065636797808110714 -0.019717704504728317
   vertex 0.025340324267745018 -0.00056367926299571991 -0.02318180538713932
  endloop
 endfacet
 facet normal 0 -0.49999988467856188 -0.86602547036529176
  outer loop
   vertex 0.025340324267745018 -0.0065636797808110714 -0.019717704504728317
   vertex 0.026340324431657791 -0.000563679204788059 -0.02318180538713932
   vertex 0.026340324431657791 -0.0065636797808110714 -0.019717704504728317
  endloop
 endfacet
 facet normal -0.7071132694163822 0.15119695213272483 -0.69074619498123135
  outer loop
   vertex 0.023338623344898224 0.013518417254090309 -0.030515335500240326
   vertex 0.023838633671402931 -6.2932289438322186e-05 -0.034000005573034286
   vertex 0.023338634520769119 -0.00011701466428348795 -0.033499997109174728
  endloop
 endfacet
 facet normal -0.70710561239370928 0.15119912324879708 -0.69075355811614347
  outer loop
   vertex 0.023838633671402931 -6.2932289438322186e-05 -0.034000005573034286
   vertex 0.023338623344898224 0.013518417254090309 -0.030515335500240326
   vertex 0.023838624358177185 0.013448627665638924 -0.031042449176311493
  endloop
 endfacet
 facet normal 0.70710809827412102 0.70710546409652086 0
  outer loop
   vertex -0.01765967532992363 0.019937068223953247 -0.0019999954383820295
   vertex -0.017159676179289818 0.019437067210674286 -0.0075999954715371132
   vertex -0.01765967532992363 0.019937068223953247 -0.0075999954715371132
  endloop
 endfacet
 facet normal 0.70710809827412091 0.70710546409652086 0
  outer loop
   vertex -0.017159676179289818 0.019437067210674286 -0.0075999954715371132
   vertex -0.01765967532992363 0.019937068223953247 -0.0019999954383820295
   vertex -0.017159676179289818 0.019437067210674286 -0.0024999952875077724
  endloop
 endfacet
 facet normal 0.38268349141060837 -0.92387950805383001 -8.0644545975416188e-09
  outer loop
   vertex 2.2559731587744451e-17 0.0040000001899898052 1.7365049675976962e-10
   vertex -0.0028284271247684956 0.0028284271247684956 -0.0024999957531690598
   vertex -5.2683472168135737e-11 0.0040000001899898052 -0.0024999957531690598
  endloop
 endfacet
 facet normal 0.38268348532645746 -0.92387951057396833 2.1244425462680137e-17
  outer loop
   vertex -0.0028284271247684956 0.0028284271247684956 -0.0024999957531690598
   vertex 2.2559731587744451e-17 0.0040000001899898052 1.7365049675976962e-10
   vertex -0.0028284271247684956 0.0028284271247684956 2.3325516518291067e-10
  endloop
 endfacet
 facet normal -0.38268347924231183 -0.92387951309410421 4.2559351360918456e-18
  outer loop
   vertex 0.0028284271247684956 0.0028284271247684956 1.1404582833662857e-10
   vertex -5.2683472168135737e-11 0.0040000001899898052 -0.0024999957531690598
   vertex 0.0028284271247684956 0.0028284271247684956 -0.0024999959859997034
  endloop
 endfacet
 facet normal -0.38268348532646251 -0.92387951057396622 8.0644544948281454e-09
  outer loop
   vertex -5.2683472168135737e-11 0.0040000001899898052 -0.0024999957531690598
   vertex 0.0028284271247684956 0.0028284271247684956 1.1404582833662857e-10
   vertex 2.2559731587744451e-17 0.0040000001899898052 1.7365049675976962e-10
  endloop
 endfacet
 facet normal -0.92387953490733077 0.38268342658052756 0
  outer loop
   vertex 0.0033782103564590216 -0.0015011329669505358 -2.5794419378222244e-10
   vertex 0.0028284271247684956 -0.0028284271247684956 -0.0024999959859997034
   vertex 0.0028284271247684956 -0.0028284271247684956 1.1404582833662857e-10
  endloop
 endfacet
 facet normal -0.92387956435083152 0.38268335549761689 4.4214265589730334e-08
  outer loop
   vertex 0.0028284271247684956 -0.0028284271247684956 -0.0024999959859997034
   vertex 0.0033782103564590216 -0.0015011329669505358 -2.5794419378222244e-10
   vertex 0.0039999997243285179 0 -0.0024999959859997034
  endloop
 endfacet
 facet normal -0.92387948905852879 0.38268353726927207 1.7208623502773557e-07
  outer loop
   vertex 0.0039999997243285179 0 -0.0024999959859997034
   vertex 0.0033782103564590216 -0.0015011329669505358 -2.5794419378222244e-10
   vertex 0.0040000001899898052 0 8.935677198174119e-11
  endloop
 endfacet
 facet normal 0.38268349141060837 0.92387950805383001 -8.0644546200605985e-09
  outer loop
   vertex -0.0028284271247684956 -0.0028284271247684956 -0.0024999957531690598
   vertex 2.2559731587744451e-17 -0.0040000001899898052 1.7365049675976962e-10
   vertex -5.2683472168135737e-11 -0.0040000001899898052 -0.0024999957531690598
  endloop
 endfacet
 facet normal 0.38268348532645746 0.92387951057396833 -0
  outer loop
   vertex 2.2559731587744451e-17 -0.0040000001899898052 1.7365049675976962e-10
   vertex -0.0028284271247684956 -0.0028284271247684956 -0.0024999957531690598
   vertex -0.0028284271247684956 -0.0028284271247684956 2.3325516518291067e-10
  endloop
 endfacet
 facet normal -0.38268347924231183 0.92387951309410421 0
  outer loop
   vertex -5.2683472168135737e-11 -0.0040000001899898052 -0.0024999957531690598
   vertex 0.0028284271247684956 -0.0028284271247684956 1.1404582833662857e-10
   vertex 0.0028284271247684956 -0.0028284271247684956 -0.0024999959859997034
  endloop
 endfacet
 facet normal -0.38268348532646251 0.92387951057396622 8.0644544918467615e-09
  outer loop
   vertex 0.0028284271247684956 -0.0028284271247684956 1.1404582833662857e-10
   vertex -5.2683472168135737e-11 -0.0040000001899898052 -0.0024999957531690598
   vertex 2.2559731587744451e-17 -0.0040000001899898052 1.7365049675976962e-10
  endloop
 endfacet
 facet normal 0.92387951057396722 0.38268348532646002 0
  outer loop
   vertex -0.0040000001899898052 0 -0.0024999957531690598
   vertex -0.0028284271247684956 -0.0028284271247684956 2.3325516518291067e-10
   vertex -0.0028284271247684956 -0.0028284271247684956 -0.0024999957531690598
  endloop
 endfacet
 facet normal 0.92387951057396711 0.38268348532646002 -0
  outer loop
   vertex -0.0028284271247684956 -0.0028284271247684956 2.3325516518291067e-10
   vertex -0.0040000001899898052 0 -0.0024999957531690598
   vertex -0.0040000001899898052 0 2.5794419378222244e-10
  endloop
 endfacet
 facet normal 0.92387951057396711 -0.38268348532646002 0
  outer loop
   vertex -0.0028284271247684956 0.0028284271247684956 -0.0024999957531690598
   vertex -0.0040000001899898052 0 2.5794419378222244e-10
   vertex -0.0040000001899898052 0 -0.0024999957531690598
  endloop
 endfacet
 facet normal 0.92387951057396722 -0.38268348532646002 0
  outer loop
   vertex -0.0040000001899898052 0 2.5794419378222244e-10
   vertex -0.0028284271247684956 0.0028284271247684956 -0.0024999957531690598
   vertex -0.0028284271247684956 0.0028284271247684956 2.3325516518291067e-10
  endloop
 endfacet
 facet normal -0.92387951057395301 -0.38268348532645563 1.7208623903530189e-07
  outer loop
   vertex 0.0028284271247684956 0.0028284271247684956 1.1404582833662857e-10
   vertex 0.0039999997243285179 0 -0.0024999959859997034
   vertex 0.0040000001899898052 0 8.935677198174119e-11
  endloop
 endfacet
 facet normal -0.92387956435083252 -0.38268335549761734 -0
  outer loop
   vertex 0.0039999997243285179 0 -0.0024999959859997034
   vertex 0.0028284271247684956 0.0028284271247684956 1.1404582833662857e-10
   vertex 0.0028284271247684956 0.0028284271247684956 -0.0024999959859997034
  endloop
 endfacet
 facet normal 0.70710739226615027 0 0.70710617010641652
  outer loop
   vertex 0.026340324431657791 -0.01356293261051178 3.734208497974123e-09
   vertex 0.025840325281023979 0.019437067210674286 0.00050000374903902411
   vertex 0.025840325281023979 -0.01356293261051178 0.00050000374903902411
  endloop
 endfacet
 facet normal 0.70711446322151739 2.1427245412187945e-07 0.70709909906808632
  outer loop
   vertex 0.025840325281023979 0.019437067210674286 0.00050000374903902411
   vertex 0.026340324431657791 -0.01356293261051178 3.734208497974123e-09
   vertex 0.026340324431657791 0.019437067210674286 -6.2657914412511673e-09
  endloop
 endfacet
 facet normal 1.9608605906852376e-08 8.1221498191567433e-09 0.99999999999999978
  outer loop
   vertex -0.019661376252770424 -0.01356293261051178 0.00050000468036159873
   vertex -0.0031819804571568966 -0.0031819804571568966 0.00050000427290797234
   vertex -0.0044999998062849045 0 0.00050000427290797234
  endloop
 endfacet
 facet normal 2.0844527869764526e-08 6.1601672477662349e-09 0.99999999999999978
  outer loop
   vertex -0.0031819804571568966 -0.0031819804571568966 0.00050000427290797234
   vertex -0.019661376252770424 -0.01356293261051178 0.00050000468036159873
   vertex 1.0536816211215161e-11 -0.0044999998062849045 0.00050000421470031142
  endloop
 endfacet
 facet normal 2.0467862590232566e-08 6.9773152887125124e-09 0.99999999999999978
  outer loop
   vertex 1.0536816211215161e-11 -0.0044999998062849045 0.00050000421470031142
   vertex -0.019661376252770424 -0.01356293261051178 0.00050000468036159873
   vertex 0.025840325281023979 -0.01356293261051178 0.00050000374903902411
  endloop
 endfacet
 facet normal 2.6532872435259039e-08 2.4269932430384064e-08 0.99999999999999933
  outer loop
   vertex 1.0536816211215161e-11 -0.0044999998062849045 0.00050000421470031142
   vertex 0.025840325281023979 -0.01356293261051178 0.00050000374903902411
   vertex 0.0031819804571568966 -0.0031819804571568966 0.0005000040982849896
  endloop
 endfacet
 facet normal 1.2955055814421449e-08 -5.3661593659495065e-09 0.99999999999999989
  outer loop
   vertex 0.0031819804571568966 -0.0031819804571568966 0.0005000040982849896
   vertex 0.025840325281023979 -0.01356293261051178 0.00050000374903902411
   vertex 0.0044999998062849045 0 0.0005000040982849896
  endloop
 endfacet
 facet normal 2.046786259023257e-08 -4.3159177642910471e-09 0.99999999999999989
  outer loop
   vertex -0.019661376252770424 0.019437067210674286 0.00050000468036159873
   vertex -0.0031819804571568966 0.0031819804571568966 0.00050000427290797234
   vertex 0.025840325281023979 0.019437067210674286 0.00050000374903902411
  endloop
 endfacet
 facet normal 2.4725034306338305e-08 0 0.99999999999999956
  outer loop
   vertex -0.0031819804571568966 0.0031819804571568966 0.00050000427290797234
   vertex -0.019661376252770424 0.019437067210674286 0.00050000468036159873
   vertex -0.019661376252770424 -0.01356293261051178 0.00050000468036159873
  endloop
 endfacet
 facet normal 4.2694689943763319e-08 -1.7684718120858769e-08 0.99999999999999889
  outer loop
   vertex -0.0031819804571568966 0.0031819804571568966 0.00050000427290797234
   vertex -0.019661376252770424 -0.01356293261051178 0.00050000468036159873
   vertex -0.0044999998062849045 0 0.00050000427290797234
  endloop
 endfacet
 facet normal 1.8981027604093563e-08 -1.661279237639534e-09 0.99999999999999978
  outer loop
   vertex 0.025840325281023979 0.019437067210674286 0.00050000374903902411
   vertex -0.0031819804571568966 0.0031819804571568966 0.00050000427290797234
   vertex 1.0536816211215161e-11 0.0044999998062849045 0.00050000421470031142
  endloop
 endfacet
 facet normal 2.8835960761636771e-08 -1.8709784905826663e-08 0.99999999999999956
  outer loop
   vertex 0.025840325281023979 0.019437067210674286 0.00050000374903902411
   vertex 1.0536816211215161e-11 0.0044999998062849045 0.00050000421470031142
   vertex 0.0031819804571568966 0.0031819804571568966 0.0005000040982849896
  endloop
 endfacet
 facet normal 1.188258158089407e-08 4.9219260306846765e-09 0.99999999999999989
  outer loop
   vertex 0.025840325281023979 0.019437067210674286 0.00050000374903902411
   vertex 0.0031819804571568966 0.0031819804571568966 0.0005000040982849896
   vertex 0.0044999998062849045 0 0.0005000040982849896
  endloop
 endfacet
 facet normal 1.6365540717465303e-08 0 0.99999999999999989
  outer loop
   vertex 0.025840325281023979 0.019437067210674286 0.00050000374903902411
   vertex 0.0044999998062849045 0 0.0005000040982849896
   vertex 0.025840325281023979 -0.01356293261051178 0.00050000374903902411
  endloop
 endfacet
 facet normal -0.54398854077694936 0.5922326875939582 -0.59442149292282709
  outer loop
   vertex -0.019661376252770424 0.014045777730643749 -0.034447494894266129
   vertex -0.019661376252770424 0.013448627665638924 -0.035042446106672287
   vertex -0.020161375403404236 0.013518417254090309 -0.034515336155891418
  endloop
 endfacet
 facet normal 0.69352754387742921 0.71760606368181901 -0.06372662905274093
  outer loop
   vertex 0.02584032341837883 0.019850097596645355 -0.0083904359489679337
   vertex 0.026340324431657791 0.019437067210674286 -0.0076000071130692959
   vertex 0.026340324431657791 0.019366873428225517 -0.0083904378116130829
  endloop
 endfacet
 facet normal 0.70497622871052923 0.70497637319232243 -0.077568229280286824
  outer loop
   vertex 0.026340324431657791 0.019437067210674286 -0.0076000071130692959
   vertex 0.02584032341837883 0.019850097596645355 -0.0083904359489679337
   vertex 0.02584032341837883 0.019937068223953247 -0.0076000061817467213
  endloop
 endfacet
 facet normal -0.70710809827412091 0.70710546409652075 0
  outer loop
   vertex -0.020161375403404236 0.019437067210674286 4.7141579528897637e-09
   vertex -0.019661376252770424 0.019937068223953247 -0.0075999954715371132
   vertex -0.020161375403404236 0.019437067210674286 -0.0075999954715371132
  endloop
 endfacet
 facet normal -0.7071001957850972 0.70711336652590295 1.0397974085672341e-06
  outer loop
   vertex -0.019661376252770424 0.019937068223953247 -0.0075999954715371132
   vertex -0.020161375403404236 0.019437067210674286 4.7141579528897637e-09
   vertex -0.019661365076899529 0.019937068223953247 4.7141579528897637e-09
  endloop
 endfacet
 facet normal 0 0.70580130914780537 -0.70840984747901703
  outer loop
   vertex -0.019661376252770424 0.014045777730643749 -0.034447494894266129
   vertex -0.017659677192568779 0.013448627665638924 -0.035042446106672287
   vertex -0.019661376252770424 0.013448627665638924 -0.035042446106672287
  endloop
 endfacet
 facet normal 0 0.70580130914780537 -0.70840984747901703
  outer loop
   vertex -0.017659677192568779 0.013448627665638924 -0.035042446106672287
   vertex -0.019661376252770424 0.014045777730643749 -0.034447494894266129
   vertex -0.017659677192568779 0.014045777730643749 -0.034447494894266129
  endloop
 endfacet
 facet normal -0.57735093751388955 -0.5773498742805917 0.57734999577380952
  outer loop
   vertex -0.019661376252770424 -0.01356293261051178 0.00050000468036159873
   vertex -0.020161375403404236 -0.01356293261051178 4.7141579528897637e-09
   vertex -0.019661376252770424 -0.014062932692468166 4.7036214922968611e-09
  endloop
 endfacet
 facet normal -0.70710743973125423 -0.70710612264122752 0
  outer loop
   vertex -0.020161375403404236 -0.01356293261051178 4.7141579528897637e-09
   vertex -0.019661376252770424 -0.014062932692468166 -0.03699999675154686
   vertex -0.019661376252770424 -0.014062932692468166 4.7036214922968611e-09
  endloop
 endfacet
 facet normal -0.70710743973125434 -0.70710612264122752 -0
  outer loop
   vertex -0.019661376252770424 -0.014062932692468166 -0.03699999675154686
   vertex -0.020161375403404236 -0.01356293261051178 4.7141579528897637e-09
   vertex -0.020161375403404236 -0.01356293261051178 -0.036785926669836044
  endloop
 endfacet
 facet normal 0 -0.5000000899537792 0.86602535184959373
  outer loop
   vertex -0.019159676507115364 -0.0065636797808110714 -0.026645908132195473
   vertex -0.020161375403404236 -0.00056367926299571991 -0.02318180538713932
   vertex -0.020161375403404236 -0.0065636797808110714 -0.026645908132195473
  endloop
 endfacet
 facet normal 0 -0.5000000899537792 0.86602535184959373
  outer loop
   vertex -0.020161375403404236 -0.00056367926299571991 -0.02318180538713932
   vertex -0.019159676507115364 -0.0065636797808110714 -0.026645908132195473
   vertex -0.019159676507115364 -0.00056367926299571991 -0.02318180538713932
  endloop
 endfacet
 facet normal -0.70710795609879795 -0.48803389329376129 -0.51168472462866632
  outer loop
   vertex -0.020161375403404236 -0.01356293261051178 -0.036785926669836044
   vertex -0.019661376252770424 -0.013014473021030426 -0.037999995052814484
   vertex -0.019661376252770424 -0.014062932692468166 -0.03699999675154686
  endloop
 endfacet
 facet normal -0.7071049960924739 -0.48803767087766292 -0.51168521212300866
  outer loop
   vertex -0.019661376252770424 -0.013014473021030426 -0.037999995052814484
   vertex -0.020161375403404236 -0.01356293261051178 -0.036785926669836044
   vertex -0.020161377266049385 -0.012814262881875038 -0.037499994039535522
  endloop
 endfacet
endsolid
