solid Visualization Toolkit generated SLA File
 facet normal 0.92387954394898975 -1.6785226054679802e-06 0.38268340474834989
  outer loop
   vertex 0.0044999998062849045 -6.078912484497323e-09 -7.8959061384286191e-17
   vertex 0.0031819816213101149 0.00080000568414106965 0.0031819811556488276
   vertex 0.0031819804571568966 -6.547053565952865e-09 0.0031819804571568966
  endloop
 endfacet
 facet normal 0.92387952570927134 -1.8837126287502763e-06 0.3826834487819708
  outer loop
   vertex 0.0031819816213101149 0.00080000568414106965 0.0031819811556488276
   vertex 0.0044999998062849045 -6.078912484497323e-09 -7.8959061384286191e-17
   vertex 0.0045000012032687664 0.00080000614980235696 5.6534538162011927e-10
  endloop
 endfacet
 facet normal 0.38268340474675272 -1.5924761929585036e-06 0.92387954394980365
  outer loop
   vertex 0.0031819804571568966 -6.547053565952865e-09 0.0031819804571568966
   vertex 1.0807078565377992e-09 0.00080000906018540263 0.0045000007376074791
   vertex -4.2045699062166764e-15 -3.1800193589504033e-09 0.0044999998062849045
  endloop
 endfacet
 facet normal 0.38268345388328473 -1.3635098618442674e-06 0.9238795235971522
  outer loop
   vertex 1.0807078565377992e-09 0.00080000906018540263 0.0045000007376074791
   vertex 0.0031819804571568966 -6.547053565952865e-09 0.0031819804571568966
   vertex 0.0031819816213101149 0.00080000568414106965 0.0031819811556488276
  endloop
 endfacet
 facet normal 0.38268340474956919 2.0805129352201509e-08 -0.92387954395000926
  outer loop
   vertex 1.0807162942327864e-09 0.0008000154048204422 -0.0044999993406236172
   vertex 0.0031819804571568966 -2.049826974825919e-09 -0.0031819804571568966
   vertex 4.2102098750959691e-15 3.1800193589504033e-09 -0.0044999998062849045
  endloop
 endfacet
 facet normal 0.38268339618400737 -1.9108667918948052e-08 -0.92387954749798085
  outer loop
   vertex 0.0031819804571568966 -2.049826974825919e-09 -0.0031819804571568966
   vertex 1.0807162942327864e-09 0.0008000154048204422 -0.0044999993406236172
   vertex 0.0031819816213101149 0.00080001016613095999 -0.0031819799914956093
  endloop
 endfacet
 facet normal -1.3508691855853186e-06 -0.99999999999883793 -7.0667170833585112e-07
  outer loop
   vertex 0.0031819804571568966 -2.049826974825919e-09 -0.0031819804571568966
   vertex 3.7477353916092783e-15 2.8266837759360897e-09 -0.0040000001899898052
   vertex 4.2102098750959691e-15 3.1800193589504033e-09 -0.0044999998062849045
  endloop
 endfacet
 facet normal -1.350869431398356e-06 -0.99999999999883793 -7.0667075215808381e-07
  outer loop
   vertex 3.7477353916092783e-15 2.8266837759360897e-09 -0.0040000001899898052
   vertex 0.0031819804571568966 -2.049826974825919e-09 -0.0031819804571568966
   vertex 0.0028284271247684956 -1.8220683850600494e-09 -0.0028284271247684956
  endloop
 endfacet
 facet normal -1.3508696398265444e-06 -0.99999999999883793 -7.0667096058627211e-07
  outer loop
   vertex 0.0028284271247684956 -1.8220683850600494e-09 -0.0028284271247684956
   vertex 0.0031819804571568966 -2.049826974825919e-09 -0.0031819804571568966
   vertex 0.0044999998062849045 -6.078912484497323e-09 -7.8959061384286191e-17
  endloop
 endfacet
 facet normal -1.3508706750422139e-06 -0.99999999999883793 -7.0667034878396759e-07
  outer loop
   vertex 0.0028284271247684956 -1.8220683850600494e-09 -0.0028284271247684956
   vertex 0.0044999998062849045 -6.078912484497323e-09 -7.8959061384286191e-17
   vertex 0.0040000001899898052 -5.4034776653111294e-09 -7.8959061384286191e-17
  endloop
 endfacet
 facet normal -1.3508706750422141e-06 -0.99999999999883793 -7.0667145810799041e-07
  outer loop
   vertex 0.0040000001899898052 -5.4034776653111294e-09 -7.8959061384286191e-17
   vertex 0.0044999998062849045 -6.078912484497323e-09 -7.8959061384286191e-17
   vertex 0.0031819804571568966 -6.547053565952865e-09 0.0031819804571568966
  endloop
 endfacet
 facet normal -1.3508699247595751e-06 -0.99999999999883793 -7.0667126522622619e-07
  outer loop
   vertex 0.0040000001899898052 -5.4034776653111294e-09 -7.8959061384286191e-17
   vertex 0.0031819804571568966 -6.547053565952865e-09 0.0031819804571568966
   vertex 0.0028284271247684956 -5.8196030217061434e-09 0.0028284271247684956
  endloop
 endfacet
 facet normal -1.3508697069702075e-06 -0.99999999999883793 -7.0667148301559414e-07
  outer loop
   vertex 0.0028284271247684956 -5.8196030217061434e-09 0.0028284271247684956
   vertex 0.0031819804571568966 -6.547053565952865e-09 0.0031819804571568966
   vertex -3.7308154849714e-15 -2.8266837759360897e-09 0.0040000001899898052
  endloop
 endfacet
 facet normal -1.3508697648952775e-06 -0.99999999999883793 -7.0667170833588077e-07
  outer loop
   vertex -3.7308154849714e-15 -2.8266837759360897e-09 0.0040000001899898052
   vertex 0.0031819804571568966 -6.547053565952865e-09 0.0031819804571568966
   vertex -4.2045699062166764e-15 -3.1800193589504033e-09 0.0044999998062849045
  endloop
 endfacet
 facet normal -1.3508697648952626e-06 -0.99999999999883793 -7.0667170833585049e-07
  outer loop
   vertex 3.7477353916092783e-15 2.8266837759360897e-09 -0.0040000001899898052
   vertex -0.0031819804571568966 6.547053565952865e-09 -0.0031819804571568966
   vertex 4.2102098750959691e-15 3.1800193589504033e-09 -0.0044999998062849045
  endloop
 endfacet
 facet normal -1.3508697069702018e-06 -0.99999999999883793 -7.0667148301559985e-07
  outer loop
   vertex -0.0031819804571568966 6.547053565952865e-09 -0.0031819804571568966
   vertex 3.7477353916092783e-15 2.8266837759360897e-09 -0.0040000001899898052
   vertex -0.0028284271247684956 5.8196030217061434e-09 -0.0028284271247684956
  endloop
 endfacet
 facet normal -1.350870008124256e-06 -0.99999999999883793 -7.0667118186154549e-07
  outer loop
   vertex -0.0031819804571568966 6.547053565952865e-09 -0.0031819804571568966
   vertex -0.0028284271247684956 5.8196030217061434e-09 -0.0028284271247684956
   vertex -0.0044999998062849045 6.078912484497323e-09 1.0151879131766942e-16
  endloop
 endfacet
 facet normal -1.3508706750422141e-06 -0.99999999999883793 -7.0667157600351568e-07
  outer loop
   vertex -0.0044999998062849045 6.078912484497323e-09 1.0151879131766942e-16
   vertex -0.0028284271247684956 5.8196030217061434e-09 -0.0028284271247684956
   vertex -0.0040000001899898052 5.4034776653111294e-09 1.0151879131766942e-16
  endloop
 endfacet
 facet normal -1.3508706750422139e-06 -0.99999999999883793 -7.0667034878397331e-07
  outer loop
   vertex -0.0044999998062849045 6.078912484497323e-09 1.0151879131766942e-16
   vertex -0.0040000001899898052 5.4034776653111294e-09 1.0151879131766942e-16
   vertex -0.0028284271247684956 1.8220683850600494e-09 0.0028284271247684956
  endloop
 endfacet
 facet normal -1.3508696398265478e-06 -0.99999999999883793 -7.066709605862756e-07
  outer loop
   vertex -0.0044999998062849045 6.078912484497323e-09 1.0151879131766942e-16
   vertex -0.0028284271247684956 1.8220683850600494e-09 0.0028284271247684956
   vertex -0.0031819804571568966 2.049826974825919e-09 0.0031819804571568966
  endloop
 endfacet
 facet normal -1.3508694313983503e-06 -0.99999999999883793 -7.066707521580782e-07
  outer loop
   vertex -0.0031819804571568966 2.049826974825919e-09 0.0031819804571568966
   vertex -0.0028284271247684956 1.8220683850600494e-09 0.0028284271247684956
   vertex -3.7308154849714e-15 -2.8266837759360897e-09 0.0040000001899898052
  endloop
 endfacet
 facet normal -1.3508691855853036e-06 -0.99999999999883793 -7.066717083358814e-07
  outer loop
   vertex -0.0031819804571568966 2.049826974825919e-09 0.0031819804571568966
   vertex -3.7308154849714e-15 -2.8266837759360897e-09 0.0040000001899898052
   vertex -4.2045699062166764e-15 -3.1800193589504033e-09 0.0044999998062849045
  endloop
 endfacet
 facet normal 0.92387954394876304 -1.3428500827651796e-06 -0.38268340475022233
  outer loop
   vertex 0.0031819804571568966 -2.049826974825919e-09 -0.0031819804571568966
   vertex 0.0045000012032687664 0.00080000614980235696 5.6534538162011927e-10
   vertex 0.0044999998062849045 -6.078912484497323e-09 -7.8959061384286191e-17
  endloop
 endfacet
 facet normal 0.9238795242868949 -1.1216534380361394e-06 -0.38268345221888361
  outer loop
   vertex 0.0045000012032687664 0.00080000614980235696 5.6534538162011927e-10
   vertex 0.0031819804571568966 -2.049826974825919e-09 -0.0031819804571568966
   vertex 0.0031819816213101149 0.00080001016613095999 -0.0031819799914956093
  endloop
 endfacet
 facet normal -0.38268340475002122 -3.6114538773657135e-07 0.92387954394975158
  outer loop
   vertex -4.2045699062166764e-15 -3.1800193589504033e-09 0.0044999998062849045
   vertex -0.003181979525834322 0.00080001424066722393 0.0031819811556488276
   vertex -0.0031819804571568966 2.049826974825919e-09 0.0031819804571568966
  endloop
 endfacet
 facet normal -0.38268344711664243 -5.5856550665092826e-07 0.9238795264008246
  outer loop
   vertex -0.003181979525834322 0.00080001424066722393 0.0031819811556488276
   vertex -4.2045699062166764e-15 -3.1800193589504033e-09 0.0044999998062849045
   vertex 1.0807078565377992e-09 0.00080000906018540263 0.0045000007376074791
  endloop
 endfacet
 facet normal -0.92387954394943805 1.3459521579274027e-06 -0.38268340474858181
  outer loop
   vertex -0.0044999988749623299 0.00080001831520348787 5.6534554815357296e-10
   vertex -0.0031819804571568966 6.547053565952865e-09 -0.0031819804571568966
   vertex -0.0044999998062849045 6.078912484497323e-09 1.0151879131766942e-16
  endloop
 endfacet
 facet normal -0.92387954818810125 1.2982685483866021e-06 -0.38268339451570726
  outer loop
   vertex -0.0031819804571568966 6.547053565952865e-09 -0.0031819804571568966
   vertex -0.0044999988749623299 0.00080001831520348787 5.6534554815357296e-10
   vertex -0.003181979525834322 0.00080001878086477518 -0.0031819799914956093
  endloop
 endfacet
 facet normal -0.92387954394961036 7.4139945864377347e-07 0.38268340474981438
  outer loop
   vertex -0.003181979525834322 0.00080001424066722393 0.0031819811556488276
   vertex -0.0044999998062849045 6.078912484497323e-09 1.0151879131766942e-16
   vertex -0.0031819804571568966 2.049826974825919e-09 0.0031819804571568966
  endloop
 endfacet
 facet normal -0.92387954961097063 8.0508964603015464e-07 0.3826833910819516
  outer loop
   vertex -0.0044999998062849045 6.078912484497323e-09 1.0151879131766942e-16
   vertex -0.003181979525834322 0.00080001424066722393 0.0031819811556488276
   vertex -0.0044999988749623299 0.00080001831520348787 5.6534554815357296e-10
  endloop
 endfacet
 facet normal -0.38268340474760265 9.8325575313486615e-07 -0.92387954395030081
  outer loop
   vertex -0.003181979525834322 0.00080001878086477518 -0.0031819799914956093
   vertex 4.2102098750959691e-15 3.1800193589504033e-09 -0.0044999998062849045
   vertex -0.0031819804571568966 6.547053565952865e-09 -0.0031819804571568966
  endloop
 endfacet
 facet normal -0.38268338941218538 1.0547157629223734e-06 -0.92387955030235913
  outer loop
   vertex 4.2102098750959691e-15 3.1800193589504033e-09 -0.0044999998062849045
   vertex -0.003181979525834322 0.00080001878086477518 -0.0031819799914956093
   vertex 1.0807162942327864e-09 0.0008000154048204422 -0.0044999993406236172
  endloop
 endfacet
 facet normal -0.70526682017925235 -0.70710609730165985 -0.050987052406094406
  outer loop
   vertex -0.0055136275477707386 0.00080001266906037927 -0.03097180463373661
   vertex -0.0083748707547783852 0.0013000122271478176 0.0016715250676497817
   vertex -0.00600024638697505 0.0013000126928091049 -0.031174933537840843
  endloop
 endfacet
 facet normal -0.70526590367921571 -0.70710701822621103 -0.050986957967463269
  outer loop
   vertex -0.0083748707547783852 0.0013000122271478176 0.0016715250676497817
   vertex -0.0055136275477707386 0.00080001266906037927 -0.03097180463373661
   vertex -0.0078650256618857384 0.00080001220339909196 0.0015534000704064965
  endloop
 endfacet
 facet normal 6.7309723583376798e-05 0.69709820296884462 0.71697565571434041
  outer loop
   vertex 0.025165729224681854 0.038155782967805862 0.02089298702776432
   vertex 0.025392038747668266 0.038700010627508163 0.020363826304674149
   vertex 0.025132689625024796 0.038200013339519501 0.020849986001849174
  endloop
 endfacet
 facet normal 3.4921551064866329e-06 0.69711184593932984 0.71696239388050542
  outer loop
   vertex 0.025392038747668266 0.038700010627508163 0.020363826304674149
   vertex 0.025165729224681854 0.038155782967805862 0.02089298702776432
   vertex 0.026161549612879753 0.0380818210542202 0.020964896306395531
  endloop
 endfacet
 facet normal 0 0.69710961143856975 0.71696456651634211
  outer loop
   vertex 0.025392038747668266 0.038700010627508163 0.020363826304674149
   vertex 0.026161549612879753 0.0380818210542202 0.020964896306395531
   vertex 0.02617160975933075 0.038700010627508163 0.020363826304674149
  endloop
 endfacet
 facet normal 0.67443652061836012 4.487579750756079e-05 0.73833283662746785
  outer loop
   vertex 0.026163758710026741 0.0014184218598529696 0.020965106785297394
   vertex 0.027177128940820694 0.037081841379404068 0.020037267357110977
   vertex 0.026161549612879753 0.0380818210542202 0.020964896306395531
  endloop
 endfacet
 facet normal 0.67520518598504875 4.7478469347055953e-06 0.73762995925894548
  outer loop
   vertex 0.027177128940820694 0.037081841379404068 0.020037267357110977
   vertex 0.026163758710026741 0.0014184218598529696 0.020965106785297394
   vertex 0.027177199721336365 0.0024184419307857752 0.020037425681948662
  endloop
 endfacet
 facet normal -0.28943314855338703 -0.70710733509400414 0.64515708875802413
  outer loop
   vertex 0.025207569822669029 0.00079996191198006272 0.020363746210932732
   vertex -0.0050824633799493313 0.0013000121107324958 0.0073229679837822914
   vertex -0.0047312742099165916 0.00080001208698377013 0.0069325082004070282
  endloop
 endfacet
 facet normal -0.28944707093897482 -0.70707085354909149 0.64519082540455208
  outer loop
   vertex -0.0050824633799493313 0.0013000121107324958 0.0073229679837822914
   vertex 0.025207569822669029 0.00079996191198006272 0.020363746210932732
   vertex 0.025165729224681854 0.0013000118779018521 0.020892985165119171
  endloop
 endfacet
 facet normal -0.99739693856805556 0 -0.072106497176540094
  outer loop
   vertex -0.0083748707547783852 0.0028000122401863337 0.0016715250676497817
   vertex -0.00600024638697505 0.0013000126928091049 -0.031174933537840843
   vertex -0.0083748707547783852 0.0013000122271478176 0.0016715250676497817
  endloop
 endfacet
 facet normal -0.99739693856805556 0 -0.072106497176540094
  outer loop
   vertex -0.00600024638697505 0.0013000126928091049 -0.031174933537840843
   vertex -0.0083748707547783852 0.0028000122401863337 0.0016715250676497817
   vertex -0.00600024638697505 0.002800012705847621 -0.031174933537840843
  endloop
 endfacet
 facet normal 0.51180493053881015 3.1776967976153854e-07 0.85910168960144806
  outer loop
   vertex 0.0065488796681165695 0.036700010299682617 0.0071032857522368431
   vertex 0.010145179927349091 0.038200013339519501 0.0049608098343014717
   vertex 0.0065488787367939949 0.038200013339519501 0.0071032857522368431
  endloop
 endfacet
 facet normal 0.5118051104619662 -2.6669969204740485e-07 0.85910158241324608
  outer loop
   vertex 0.010145179927349091 0.038200013339519501 0.0049608098343014717
   vertex 0.0065488796681165695 0.036700010299682617 0.0071032857522368431
   vertex 0.010145179927349091 0.036700010299682617 0.0049608093686401844
  endloop
 endfacet
 facet normal -0.072076068740576274 0 0.99739913791566104
  outer loop
   vertex 0.026163758710026741 0.0014184218598529696 0.020965106785297394
   vertex 0.025165729224681854 0.00280001200735569 0.020892985165119171
   vertex 0.025165729224681854 0.0013000118779018521 0.020892985165119171
  endloop
 endfacet
 facet normal -0.072133457253757471 -4.1672784220526337e-05 0.99739498826091944
  outer loop
   vertex 0.025165729224681854 0.00280001200735569 0.020892985165119171
   vertex 0.026163758710026741 0.0014184218598529696 0.020965106785297394
   vertex 0.025464950129389763 0.00280001200735569 0.020914625376462936
  endloop
 endfacet
 facet normal -0.07108799887760324 0.00048985845779867736 0.99746992759394471
  outer loop
   vertex 0.025464950129389763 0.00280001200735569 0.020914625376462936
   vertex 0.026163758710026741 0.0014184218598529696 0.020965106785297394
   vertex 0.025464950129389763 0.036700010299682617 0.02089797705411911
  endloop
 endfacet
 facet normal 0.95849659064838644 0 -0.28510399105487727
  outer loop
   vertex 0.015313579700887203 0.001800013124011457 -0.057318143546581268
   vertex 0.027683930471539497 0.037700023502111435 -0.015730023384094238
   vertex 0.027683930471539497 0.001800012425519526 -0.015730023384094238
  endloop
 endfacet
 facet normal 0.9584971427452933 -2.3404514652499093e-06 -0.28510213493348507
  outer loop
   vertex 0.027683930471539497 0.037700023502111435 -0.015730023384094238
   vertex 0.015313579700887203 0.001800013124011457 -0.057318143546581268
   vertex 0.0096334628760814667 0.0067807934246957302 -0.076414413750171661
  endloop
 endfacet
 facet normal 0.95849680725820263 6.9096232666439719e-08 -0.28510326282914961
  outer loop
   vertex 0.027683930471539497 0.037700023502111435 -0.015730023384094238
   vertex 0.0096334628760814667 0.0067807934246957302 -0.076414413750171661
   vertex 0.0096334610134363174 0.032619241625070572 -0.076414413750171661
  endloop
 endfacet
 facet normal 0.95849678366709079 1.1001737030398276e-06 -0.28510334213865657
  outer loop
   vertex 0.027683930471539497 0.037700023502111435 -0.015730023384094238
   vertex 0.0096334610134363174 0.032619241625070572 -0.076414413750171661
   vertex 0.015427639707922935 0.037700023502111435 -0.056934785097837448
  endloop
 endfacet
 facet normal 0.6777574916582727 -0.70710880944872423 -0.20159839806182517
  outer loop
   vertex 0.027683930471539497 0.001800012425519526 -0.015730023384094238
   vertex 0.014319979585707188 0.00080001307651400566 -0.057151034474372864
   vertex 0.015313579700887203 0.001800013124011457 -0.057318143546581268
  endloop
 endfacet
 facet normal 0.67775892000933258 -0.70710729859823396 -0.20159889537616821
  outer loop
   vertex 0.014319979585707188 0.00080001307651400566 -0.057151034474372864
   vertex 0.027683930471539497 0.001800012425519526 -0.015730023384094238
   vertex 0.026766449213027954 0.00080001243622973561 -0.015307024121284485
  endloop
 endfacet
 facet normal -0.86406275019933831 0 0.50338411150726248
  outer loop
   vertex -0.0050824633799493313 0.00280001200735569 0.0073229679837822914
   vertex -0.0083748707547783852 0.0013000122271478176 0.0016715250676497817
   vertex -0.0050824633799493313 0.0013000121107324958 0.0073229679837822914
  endloop
 endfacet
 facet normal -0.8640627501993382 0 0.50338411150726248
  outer loop
   vertex -0.0083748707547783852 0.0013000122271478176 0.0016715250676497817
   vertex -0.0050824633799493313 0.00280001200735569 0.0073229679837822914
   vertex -0.0083748707547783852 0.0028000122401863337 0.0016715250676497817
  endloop
 endfacet
 facet normal -0.40931917071843188 0 0.91239126282663141
  outer loop
   vertex 0.025165729224681854 0.0013000118779018521 0.020892985165119171
   vertex -0.0050824633799493313 0.00280001200735569 0.0073229679837822914
   vertex -0.0050824633799493313 0.0013000121107324958 0.0073229679837822914
  endloop
 endfacet
 facet normal -0.40931917071843188 0 0.91239126282663141
  outer loop
   vertex -0.0050824633799493313 0.00280001200735569 0.0073229679837822914
   vertex 0.025165729224681854 0.0013000118779018521 0.020892985165119171
   vertex 0.025165729224681854 0.00280001200735569 0.020892985165119171
  endloop
 endfacet
 facet normal 0.99412281580968009 2.8084464642774755e-09 -0.10825815020880852
  outer loop
   vertex 0.027683930471539497 0.001800012425519526 -0.015730023384094238
   vertex 0.027761729434132576 0.037700023502111435 -0.015015603043138981
   vertex 0.027761729434132576 0.001800012425519526 -0.015015603974461555
  endloop
 endfacet
 facet normal 0.99412283099791443 0 -0.10825801073681342
  outer loop
   vertex 0.027761729434132576 0.037700023502111435 -0.015015603043138981
   vertex 0.027683930471539497 0.001800012425519526 -0.015730023384094238
   vertex 0.027683930471539497 0.037700023502111435 -0.015730023384094238
  endloop
 endfacet
 facet normal -0.072023555799878153 0 0.997402931322112
  outer loop
   vertex 0.026161549612879753 0.0380818210542202 0.020964896306395531
   vertex 0.025165729224681854 0.038155782967805862 0.02089298702776432
   vertex 0.025165729224681854 0.036700010299682617 0.02089298702776432
  endloop
 endfacet
 facet normal -8.6881585775779567e-07 -0.99999999999786071 -1.8771608558653513e-06
  outer loop
   vertex 0.026766449213027954 0.00080001243622973561 -0.015307024121284485
   vertex 0.0031819816213101149 0.00080001016613095999 -0.0031819799914956093
   vertex 1.0807162942327864e-09 0.0008000154048204422 -0.0044999993406236172
  endloop
 endfacet
 facet normal -1.5097648564971627e-06 -0.99999999999398104 -3.1238730926947119e-06
  outer loop
   vertex 0.0031819816213101149 0.00080001016613095999 -0.0031819799914956093
   vertex 0.026766449213027954 0.00080001243622973561 -0.015307024121284485
   vertex 0.026173898950219154 0.00079990189988166094 0.020363746210932732
  endloop
 endfacet
 facet normal -5.9329891157737047e-06 -0.99999999998168554 1.1953144160496059e-06
  outer loop
   vertex 0.0031819816213101149 0.00080001016613095999 -0.0031819799914956093
   vertex 0.026173898950219154 0.00079990189988166094 0.020363746210932732
   vertex 0.0045000012032687664 0.00080000614980235696 5.6534538162011927e-10
  endloop
 endfacet
 facet normal -3.3634584388291202e-06 -0.99999999999315847 -1.5395333924140134e-06
  outer loop
   vertex 0.0045000012032687664 0.00080000614980235696 5.6534538162011927e-10
   vertex 0.026173898950219154 0.00079990189988166094 0.020363746210932732
   vertex 0.0031819816213101149 0.00080000568414106965 0.0031819811556488276
  endloop
 endfacet
 facet normal -2.2923702583033849e-06 -0.99999999999295375 -2.9728186701116435e-06
  outer loop
   vertex 0.0031819816213101149 0.00080000568414106965 0.0031819811556488276
   vertex 0.026173898950219154 0.00079990189988166094 0.020363746210932732
   vertex 1.0807078565377992e-09 0.00080000906018540263 0.0045000007376074791
  endloop
 endfacet
 facet normal -2.2251716446549618e-06 -0.99999999999276989 -3.0836909514114383e-06
  outer loop
   vertex 1.0807078565377992e-09 0.00080000906018540263 0.0045000007376074791
   vertex 0.026173898950219154 0.00079990189988166094 0.020363746210932732
   vertex -0.0047312742099165916 0.00080001208698377013 0.0069325082004070282
  endloop
 endfacet
 facet normal -6.2103165506155843e-05 -0.99999998900021303 0.00013469510267373683
  outer loop
   vertex -0.0047312742099165916 0.00080001208698377013 0.0069325082004070282
   vertex 0.026173898950219154 0.00079990189988166094 0.020363746210932732
   vertex 0.025207569822669029 0.00079996191198006272 0.020363746210932732
  endloop
 endfacet
 facet normal -9.6007478851440898e-06 -0.99999999994987876 2.8404335932208661e-06
  outer loop
   vertex 0.026766449213027954 0.00080001243622973561 -0.015307024121284485
   vertex 0.013361509889364243 0.00080002308823168278 -0.056865975260734558
   vertex 0.014319979585707188 0.00080001307651400566 -0.057151034474372864
  endloop
 endfacet
 facet normal 0.0002380424482913848 -0.99999996870050978 -7.7037473026526844e-05
  outer loop
   vertex 0.013361509889364243 0.00080002308823168278 -0.056865975260734558
   vertex 0.026766449213027954 0.00080001243622973561 -0.015307024121284485
   vertex 0.014319969341158867 0.00080000300658866763 -0.053643703460693359
  endloop
 endfacet
 facet normal -1.5024773629739118e-07 -0.99999999999994527 2.9474896335074212e-07
  outer loop
   vertex 0.014319969341158867 0.00080000300658866763 -0.053643703460693359
   vertex 0.026766449213027954 0.00080001243622973561 -0.015307024121284485
   vertex -0.0055136275477707386 0.00080001266906037927 -0.03097180463373661
  endloop
 endfacet
 facet normal -6.3814399468504507e-08 -0.99999999999999112 1.1663764252434578e-07
  outer loop
   vertex -0.0055136275477707386 0.00080001266906037927 -0.03097180463373661
   vertex 0.026766449213027954 0.00080001243622973561 -0.015307024121284485
   vertex 1.0807162942327864e-09 0.0008000154048204422 -0.0044999993406236172
  endloop
 endfacet
 facet normal -9.3731533611667852e-07 -0.99999999999951605 2.985730911265347e-07
  outer loop
   vertex -0.0055136275477707386 0.00080001266906037927 -0.03097180463373661
   vertex 1.0807162942327864e-09 0.0008000154048204422 -0.0044999993406236172
   vertex -0.003181979525834322 0.00080001878086477518 -0.0031819799914956093
  endloop
 endfacet
 facet normal 1.499680759527332e-06 -0.99999999999887113 9.4101951094869846e-08
  outer loop
   vertex -0.0055136275477707386 0.00080001266906037927 -0.03097180463373661
   vertex -0.003181979525834322 0.00080001878086477518 -0.0031819799914956093
   vertex -0.0078650256618857384 0.00080001220339909196 0.0015534000704064965
  endloop
 endfacet
 facet normal 2.1621478031757071e-06 -0.99999999999738187 7.492476180685507e-07
  outer loop
   vertex -0.0078650256618857384 0.00080001220339909196 0.0015534000704064965
   vertex -0.003181979525834322 0.00080001878086477518 -0.0031819799914956093
   vertex -0.0044999988749623299 0.00080001831520348787 5.6534554815357296e-10
  endloop
 endfacet
 facet normal 1.0284910851475791e-06 -0.99999999999801503 -1.7065180822008881e-06
  outer loop
   vertex -0.0078650256618857384 0.00080001220339909196 0.0015534000704064965
   vertex -0.0044999988749623299 0.00080001831520348787 5.6534554815357296e-10
   vertex -0.003181979525834322 0.00080001424066722393 0.0031819811556488276
  endloop
 endfacet
 facet normal 5.5499842610630591e-07 -0.9999999999997865 -3.4497214047971815e-07
  outer loop
   vertex -0.0078650256618857384 0.00080001220339909196 0.0015534000704064965
   vertex -0.003181979525834322 0.00080001424066722393 0.0031819811556488276
   vertex -0.0047312742099165916 0.00080001208698377013 0.0069325082004070282
  endloop
 endfacet
 facet normal -1.1870932672426784e-06 -0.99999999999872868 -1.064607905660873e-06
  outer loop
   vertex -0.0047312742099165916 0.00080001208698377013 0.0069325082004070282
   vertex -0.003181979525834322 0.00080001424066722393 0.0031819811556488276
   vertex 1.0807078565377992e-09 0.00080000906018540263 0.0045000007376074791
  endloop
 endfacet
 facet normal 0.030829752536790794 -0.69650010580411614 0.7168940849061145
  outer loop
   vertex 0.026173898950219154 0.00079990189988166094 0.020363746210932732
   vertex 0.026163758710026741 0.0014184218598529696 0.020965106785297394
   vertex 0.025165729224681854 0.0013000118779018521 0.020892985165119171
  endloop
 endfacet
 facet normal -4.5140851756313414e-05 -0.72686876573625181 0.68677637944192682
  outer loop
   vertex 0.025165729224681854 0.0013000118779018521 0.020892985165119171
   vertex 0.025207569822669029 0.00079996191198006272 0.020363746210932732
   vertex 0.026173898950219154 0.00079990189988166094 0.020363746210932732
  endloop
 endfacet
 facet normal -0.069147834985028786 -0.97014256799703102 -0.23246929835358726
  outer loop
   vertex 0.014319979585707188 0.00080001307651400566 -0.057151034474372864
   vertex 0.0074313655495643616 0.0060000135563313961 -0.076802700757980347
   vertex 0.0083898613229393959 0.0060000135563313961 -0.077087804675102234
  endloop
 endfacet
 facet normal -0.069148897666948456 -0.97014258070855408 -0.2324689292090294
  outer loop
   vertex 0.0074313655495643616 0.0060000135563313961 -0.076802700757980347
   vertex 0.014319979585707188 0.00080001307651400566 -0.057151034474372864
   vertex 0.013361509889364243 0.00080002308823168278 -0.056865975260734558
  endloop
 endfacet
 facet normal -0.28510456238592513 -9.6906643087421785e-09 -0.9584964207062695
  outer loop
   vertex 0.0083923386409878731 0.033400025218725204 -0.077088542282581329
   vertex 0.0074313655495643616 0.0060000135563313961 -0.076802700757980347
   vertex 0.007431364618241787 0.033400025218725204 -0.076802700757980347
  endloop
 endfacet
 facet normal -0.28510414646887111 -2.5568314255301734e-08 -0.95849654442061283
  outer loop
   vertex 0.0074313655495643616 0.0060000135563313961 -0.076802700757980347
   vertex 0.0083923386409878731 0.033400025218725204 -0.077088542282581329
   vertex 0.0083898613229393959 0.0060000135563313961 -0.077087804675102234
  endloop
 endfacet
 facet normal -0.069147975876794887 0.97014253290714969 -0.23246940288270654
  outer loop
   vertex 0.007431364618241787 0.033400025218725204 -0.076802700757980347
   vertex 0.014433979988098145 0.038700021803379059 -0.056767653673887253
   vertex 0.0083923386409878731 0.033400025218725204 -0.077088542282581329
  endloop
 endfacet
 facet normal -0.069147225391157335 0.97014252410131585 -0.23246966286169982
  outer loop
   vertex 0.014433979988098145 0.038700021803379059 -0.056767653673887253
   vertex 0.007431364618241787 0.033400025218725204 -0.076802700757980347
   vertex 0.013475549407303333 0.038700021803379059 -0.056482572108507156
  endloop
 endfacet
 facet normal -0.095625283408217895 -4.7218180099395065e-08 0.99541740248656274
  outer loop
   vertex 0.026163758710026741 0.0014184218598529696 0.020965106785297394
   vertex 0.026161549612879753 0.0380818210542202 0.020964896306395531
   vertex 0.025464950129389763 0.036700010299682617 0.02089797705411911
  endloop
 endfacet
 facet normal -0.016661077660244522 -0.039984016473667471 0.99906140297673041
  outer loop
   vertex 0.026161549612879753 0.0380818210542202 0.020964896306395531
   vertex 0.025165729224681854 0.036700010299682617 0.02089298702776432
   vertex 0.025464950129389763 0.036700010299682617 0.02089797705411911
  endloop
 endfacet
 facet normal 0.70700369311014488 0.70711157356325538 0.011789845695052164
  outer loop
   vertex 0.02617160975933075 0.038700010627508163 0.020363826304674149
   vertex 0.027761729434132576 0.037700023502111435 -0.015015603043138981
   vertex 0.026766449213027954 0.038700010627508163 -0.015307012945413589
  endloop
 endfacet
 facet normal 0.70700770095700738 0.7071075614108876 0.011790139228810453
  outer loop
   vertex 0.027761729434132576 0.037700023502111435 -0.015015603043138981
   vertex 0.02617160975933075 0.038700010627508163 0.020363826304674149
   vertex 0.027187218889594078 0.03770001232624054 0.019436176866292953
  endloop
 endfacet
 facet normal -0.30040931130308185 0 0.95381038245681105
  outer loop
   vertex -0.00012655592581722885 0.036700010299682617 0.0083105349913239479
   vertex -0.006797371432185173 0.038200013339519501 0.006209514569491148
   vertex -0.006797371432185173 0.036700010299682617 0.006209514569491148
  endloop
 endfacet
 facet normal -0.30040931488017258 -1.7486088099221777e-08 0.95381038133018092
  outer loop
   vertex -0.006797371432185173 0.038200013339519501 0.006209514569491148
   vertex -0.00012655592581722885 0.036700010299682617 0.0083105349913239479
   vertex -0.00012655601312872022 0.038200013339519501 0.0083105349913239479
  endloop
 endfacet
 facet normal -0.71377765455009667 0 -0.70037237228845828
  outer loop
   vertex -0.0060002482496201992 0.038200013339519501 -0.031174933537840843
   vertex 0.014721609652042389 0.036700021475553513 -0.052293412387371063
   vertex -0.0060002482496201992 0.036700014024972916 -0.031174933537840843
  endloop
 endfacet
 facet normal -0.71377765455009667 0 -0.70037237228845828
  outer loop
   vertex 0.014721609652042389 0.036700021475553513 -0.052293412387371063
   vertex -0.0060002482496201992 0.038200013339519501 -0.031174933537840843
   vertex 0.014721609652042389 0.038200013339519501 -0.052293412387371063
  endloop
 endfacet
 facet normal -0.75264775906596171 -0 -0.65842338261409439
  outer loop
   vertex -0.00600024638697505 0.0013000126928091049 -0.031174933537840843
   vertex 0.014151409268379211 0.0028000129386782646 -0.054210413247346878
   vertex 0.014151409268379211 0.0013000030303373933 -0.054210413247346878
  endloop
 endfacet
 facet normal -0.75264775906596182 0 -0.65842338261409439
  outer loop
   vertex 0.014151409268379211 0.0028000129386782646 -0.054210413247346878
   vertex -0.00600024638697505 0.0013000126928091049 -0.031174933537840843
   vertex -0.00600024638697505 0.002800012705847621 -0.031174933537840843
  endloop
 endfacet
 facet normal 0.17796267242572794 1.0358769899164043e-08 0.98403723873799265
  outer loop
   vertex -0.00012655592581722885 0.036700010299682617 0.0083105349913239479
   vertex 0.0065488787367939949 0.038200013339519501 0.0071032857522368431
   vertex -0.00012655601312872022 0.038200013339519501 0.0083105349913239479
  endloop
 endfacet
 facet normal 0.17796265063756822 1.1049353206324053e-07 0.98403724267836457
  outer loop
   vertex 0.0065488787367939949 0.038200013339519501 0.0071032857522368431
   vertex -0.00012655592581722885 0.036700010299682617 0.0083105349913239479
   vertex 0.0065488796681165695 0.036700010299682617 0.0071032857522368431
  endloop
 endfacet
 facet normal -0.92387951057303119 1.4837536724958312e-06 -0.38268348532584334
  outer loop
   vertex 0.002828430850058794 0.0028000026941299438 0.0028284289874136448
   vertex 0.0040000001899898052 -5.4034776653111294e-09 -7.8959061384286191e-17
   vertex 0.0028284271247684956 -5.8196030217061434e-09 0.0028284271247684956
  endloop
 endfacet
 facet normal -0.92387950502220884 1.4996130560152239e-06 -0.3826834987266497
  outer loop
   vertex 0.0040000001899898052 -5.4034776653111294e-09 -7.8959061384286191e-17
   vertex 0.002828430850058794 0.0028000026941299438 0.0028284289874136448
   vertex 0.0040000039152801037 0.0028000031597912312 1.9786847715863587e-09
  endloop
 endfacet
 facet normal -0.38268348532476215 1.1315463106117803e-06 -0.92387951057397755
  outer loop
   vertex 3.7824423593235679e-09 0.0028000057209283113 0.0040000020526349545
   vertex 0.0028284271247684956 -5.8196030217061434e-09 0.0028284271247684956
   vertex -3.7308154849714e-15 -2.8266837759360897e-09 0.0040000001899898052
  endloop
 endfacet
 facet normal -0.38268349192539503 1.1237347201678386e-06 -0.92387950783991479
  outer loop
   vertex 0.0028284271247684956 -5.8196030217061434e-09 0.0028284271247684956
   vertex 3.7824423593235679e-09 0.0028000057209283113 0.0040000020526349545
   vertex 0.002828430850058794 0.0028000026941299438 0.0028284289874136448
  endloop
 endfacet
 facet normal -0.38268348532723329 -2.5128314272562239e-07 0.92387951057361262
  outer loop
   vertex 0.0028284271247684956 -1.8220683850600494e-09 -0.0028284271247684956
   vertex 3.7824499088401353e-09 0.002800011308863759 -0.0039999978616833687
   vertex 3.7477353916092783e-15 2.8266837759360897e-09 -0.0040000001899898052
  endloop
 endfacet
 facet normal -0.38268336209883685 -1.0544724075551815e-07 0.92387956161651252
  outer loop
   vertex 3.7824499088401353e-09 0.002800011308863759 -0.0039999978616833687
   vertex 0.0028284271247684956 -1.8220683850600494e-09 -0.0028284271247684956
   vertex 0.002828430850058794 0.002800006652250886 -0.0028284252621233463
  endloop
 endfacet
 facet normal -0.92387951057310957 9.5875041167658095e-07 0.38268348532732943
  outer loop
   vertex 0.0040000039152801037 0.0028000031597912312 1.9786847715863587e-09
   vertex 0.0028284271247684956 -1.8220683850600494e-09 -0.0028284271247684956
   vertex 0.0040000001899898052 -5.4034776653111294e-09 -7.8959061384286191e-17
  endloop
 endfacet
 facet normal -0.92387951612390906 9.7460986662157687e-07 0.38268347192647567
  outer loop
   vertex 0.0028284271247684956 -1.8220683850600494e-09 -0.0028284271247684956
   vertex 0.0040000039152801037 0.0028000031597912312 1.9786847715863587e-09
   vertex 0.002828430850058794 0.002800006652250886 -0.0028284252621233463
  endloop
 endfacet
 facet normal 0.38268348532703667 1.0544703979817361e-07 -0.92387951057372231
  outer loop
   vertex -0.0028284233994781971 0.0028000103775411844 0.0028284289874136448
   vertex -3.7308154849714e-15 -2.8266837759360897e-09 0.0040000001899898052
   vertex -0.0028284271247684956 1.8220683850600494e-09 0.0028284271247684956
  endloop
 endfacet
 facet normal 0.38268347872639247 9.7635439788795361e-08 -0.92387951330779983
  outer loop
   vertex -3.7308154849714e-15 -2.8266837759360897e-09 0.0040000001899898052
   vertex -0.0028284233994781971 0.0028000103775411844 0.0028284289874136448
   vertex 3.7824423593235679e-09 0.0028000057209283113 0.0040000020526349545
  endloop
 endfacet
 facet normal 0.92387951057308737 -9.7460982207216721e-07 -0.38268348532734331
  outer loop
   vertex -0.0040000001899898052 5.4034776653111294e-09 1.0151879131766942e-16
   vertex -0.0028284233994781971 0.0028000103775411844 0.0028284289874136448
   vertex -0.0028284271247684956 1.8220683850600494e-09 0.0028284271247684956
  endloop
 endfacet
 facet normal 0.92387955879892891 -1.1123982229852899e-06 -0.38268336889948446
  outer loop
   vertex -0.0028284233994781971 0.0028000103775411844 0.0028284289874136448
   vertex -0.0040000001899898052 5.4034776653111294e-09 1.0151879131766942e-16
   vertex -0.0039999959990382195 0.0028000141028314829 1.9786849936309636e-09
  endloop
 endfacet
 facet normal 0.92387951057279549 -1.6532606958822248e-06 0.38268348532571772
  outer loop
   vertex -0.0028284271247684956 5.8196030217061434e-09 -0.0028284271247684956
   vertex -0.0039999959990382195 0.0028000141028314829 1.9786849936309636e-09
   vertex -0.0040000001899898052 5.4034776653111294e-09 1.0151879131766942e-16
  endloop
 endfacet
 facet normal 0.92387956990067222 -1.4837536549326317e-06 0.38268334209623939
  outer loop
   vertex -0.0039999959990382195 0.0028000141028314829 1.9786849936309636e-09
   vertex -0.0028284271247684956 5.8196030217061434e-09 -0.0028284271247684956
   vertex -0.0028284233994781971 0.0028000143356621265 -0.0028284252621233463
  endloop
 endfacet
 facet normal 0.38268348532477064 -1.1237347122554406e-06 0.92387951057398354
  outer loop
   vertex 3.7477353916092783e-15 2.8266837759360897e-09 -0.0040000001899898052
   vertex -0.0028284233994781971 0.0028000143356621265 -0.0028284252621233463
   vertex -0.0028284271247684956 5.8196030217061434e-09 -0.0028284271247684956
  endloop
 endfacet
 facet normal 0.38268334889505407 -1.2851939304752566e-06 0.92387956708480923
  outer loop
   vertex -0.0028284233994781971 0.0028000143356621265 -0.0028284252621233463
   vertex 3.7477353916092783e-15 2.8266837759360897e-09 -0.0040000001899898052
   vertex 3.7824499088401353e-09 0.002800011308863759 -0.0039999978616833687
  endloop
 endfacet
 facet normal 7.3660595161546045e-08 0.99999999999996658 2.4764339605138504e-07
  outer loop
   vertex 0.013475549407303333 0.038700021803379059 -0.056482572108507156
   vertex 0.026766449213027954 0.038700010627508163 -0.015307012945413589
   vertex 0.014433979988098145 0.038700021803379059 -0.056767653673887253
  endloop
 endfacet
 facet normal 1.0711887936429283e-05 0.99999999993755162 -3.1862289441872689e-06
  outer loop
   vertex 0.026766449213027954 0.038700010627508163 -0.015307012945413589
   vertex 0.013475549407303333 0.038700021803379059 -0.056482572108507156
   vertex 0.014884559437632561 0.038700021803379059 -0.051745574921369553
  endloop
 endfacet
 facet normal -3.9525921498796928e-08 0.99999999999994815 3.1959311527137394e-07
  outer loop
   vertex 0.026766449213027954 0.038700010627508163 -0.015307012945413589
   vertex 0.014884559437632561 0.038700021803379059 -0.051745574921369553
   vertex -0.0055147875100374222 0.038700014352798462 -0.03095577284693718
  endloop
 endfacet
 facet normal 1.2837327266596403e-07 0.99999999999999134 -2.6759801288915565e-08
  outer loop
   vertex 0.026766449213027954 0.038700010627508163 -0.015307012945413589
   vertex -0.0055147875100374222 0.038700014352798462 -0.03095577284693718
   vertex -4.1928799321411248e-10 0.038700014352798462 -0.0044999984093010426
  endloop
 endfacet
 facet normal -1.07769334458058e-06 0.99999999999939415 2.2464847356819985e-07
  outer loop
   vertex -4.1928799321411248e-10 0.038700014352798462 -0.0044999984093010426
   vertex -0.0055147875100374222 0.038700014352798462 -0.03095577284693718
   vertex -0.0031819809228181839 0.038700010627508163 -0.003181978827342391
  endloop
 endfacet
 facet normal 1.6717967617043362e-07 0.99999999999997879 1.200877505712462e-07
  outer loop
   vertex -0.0031819809228181839 0.038700010627508163 -0.003181978827342391
   vertex -0.0055147875100374222 0.038700014352798462 -0.03095577284693718
   vertex -0.0080084428191184998 0.038700010627508163 0.0035371605772525072
  endloop
 endfacet
 facet normal 0 1 0
  outer loop
   vertex -0.0031819809228181839 0.038700010627508163 -0.003181978827342391
   vertex -0.0080084428191184998 0.038700010627508163 0.0035371605772525072
   vertex -0.0045000002719461918 0.038700010627508163 1.6300992777829038e-09
  endloop
 endfacet
 facet normal 0 1 0
  outer loop
   vertex -0.0045000002719461918 0.038700010627508163 1.6300992777829038e-09
   vertex -0.0080084428191184998 0.038700010627508163 0.0035371605772525072
   vertex -0.0031819809228181839 0.038700010627508163 0.0031819820869714022
  endloop
 endfacet
 facet normal -0 1 0
  outer loop
   vertex -0.0031819809228181839 0.038700010627508163 0.0031819820869714022
   vertex -0.0080084428191184998 0.038700010627508163 0.0035371605772525072
   vertex -4.1928790994738563e-10 0.038700010627508163 0.0045000016689300537
  endloop
 endfacet
 facet normal 0 1 0
  outer loop
   vertex -4.1928790994738563e-10 0.038700010627508163 0.0045000016689300537
   vertex -0.0080084428191184998 0.038700010627508163 0.0035371605772525072
   vertex -0.0064814342185854912 0.038700010627508163 0.0057848086580634117
  endloop
 endfacet
 facet normal 0 1 0
  outer loop
   vertex -4.1928790994738563e-10 0.038700010627508163 0.0045000016689300537
   vertex 0.010053999722003937 0.038700010627508163 0.0044331294484436512
   vertex 0.0031819799914956093 0.038700010627508163 0.0031819820869714022
  endloop
 endfacet
 facet normal -0 1 0
  outer loop
   vertex 0.010053999722003937 0.038700010627508163 0.0044331294484436512
   vertex -4.1928790994738563e-10 0.038700010627508163 0.0045000016689300537
   vertex 0.0063707795925438404 0.038700010627508163 0.006627383641898632
  endloop
 endfacet
 facet normal 0 1 -0
  outer loop
   vertex 0.0063707795925438404 0.038700010627508163 0.006627383641898632
   vertex -4.1928790994738563e-10 0.038700010627508163 0.0045000016689300537
   vertex -0.0064814342185854912 0.038700010627508163 0.0057848086580634117
  endloop
 endfacet
 facet normal 0 1 0
  outer loop
   vertex 0.0063707795925438404 0.038700010627508163 0.006627383641898632
   vertex -0.0064814342185854912 0.038700010627508163 0.0057848086580634117
   vertex -9.4078917754814029e-05 0.038700010627508163 0.0077965506352484226
  endloop
 endfacet
 facet normal -0 1 0
  outer loop
   vertex 0.026766449213027954 0.038700010627508163 -0.015307012945413589
   vertex 0.01390736922621727 0.038700010627508163 0.005194435827434063
   vertex 0.02617160975933075 0.038700010627508163 0.020363826304674149
  endloop
 endfacet
 facet normal 2.3313211359726433e-07 0.99999999999996214 1.4622695837046707e-07
  outer loop
   vertex 0.01390736922621727 0.038700010627508163 0.005194435827434063
   vertex 0.026766449213027954 0.038700010627508163 -0.015307012945413589
   vertex 0.0031819799914956093 0.038700014352798462 -0.003181978827342391
  endloop
 endfacet
 facet normal 7.0478805047064379e-08 0.99999999999998312 -1.7015086885274428e-07
  outer loop
   vertex 0.0031819799914956093 0.038700014352798462 -0.003181978827342391
   vertex 0.026766449213027954 0.038700010627508163 -0.015307012945413589
   vertex -4.1928799321411248e-10 0.038700014352798462 -0.0044999984093010426
  endloop
 endfacet
 facet normal 5.1342497187090253e-07 0.99999999999984557 -2.1266764374711473e-07
  outer loop
   vertex 0.01390736922621727 0.038700010627508163 0.005194435827434063
   vertex 0.0031819799914956093 0.038700014352798462 -0.003181978827342391
   vertex 0.0044999998062849045 0.038700014352798462 1.6300992777829038e-09
  endloop
 endfacet
 facet normal -2.2063534118534993e-07 0.99999999999935207 1.1167507835712476e-06
  outer loop
   vertex 0.01390736922621727 0.038700010627508163 0.005194435827434063
   vertex 0.0044999998062849045 0.038700014352798462 1.6300992777829038e-09
   vertex 0.010053999722003937 0.038700010627508163 0.0044331294484436512
  endloop
 endfacet
 facet normal -1.982034629528969e-07 0.99999999999938782 1.0886472289440183e-06
  outer loop
   vertex 0.010053999722003937 0.038700010627508163 0.0044331294484436512
   vertex 0.0044999998062849045 0.038700014352798462 1.6300992777829038e-09
   vertex 0.0031819799914956093 0.038700010627508163 0.0031819820869714022
  endloop
 endfacet
 facet normal 0 1 0
  outer loop
   vertex 0.02617160975933075 0.038700010627508163 0.020363826304674149
   vertex 0.01390736922621727 0.038700010627508163 0.005194435827434063
   vertex 0.020790889859199524 0.038700010627508163 0.014374416321516037
  endloop
 endfacet
 facet normal 0 1 0
  outer loop
   vertex 0.02617160975933075 0.038700010627508163 0.020363826304674149
   vertex 0.020790889859199524 0.038700010627508163 0.014374416321516037
   vertex 0.025392038747668266 0.038700010627508163 0.020363826304674149
  endloop
 endfacet
 facet normal -0.19382223976053506 -3.0455324722418621e-07 0.98103666566245984
  outer loop
   vertex 0.013622359372675419 0.036700010299682617 0.0056477915495634079
   vertex 0.010145179927349091 0.038200013339519501 0.0049608098343014717
   vertex 0.010145179927349091 0.036700010299682617 0.0049608093686401844
  endloop
 endfacet
 facet normal -0.19382211331638721 0 0.98103669064391763
  outer loop
   vertex 0.010145179927349091 0.038200013339519501 0.0049608098343014717
   vertex 0.013622359372675419 0.036700010299682617 0.0056477915495634079
   vertex 0.013622359372675419 0.038200013339519501 0.0056477915495634079
  endloop
 endfacet
 facet normal 1.4466583080609036e-07 -0.9999999999999285 -3.4925418444795445e-07
  outer loop
   vertex 0.025766938924789429 0.036700021475553513 -0.015159813687205315
   vertex 0.0031819802243262529 0.036700014024972916 -0.0031819792930036783
   vertex -2.8633365123376109e-10 0.036700014024972916 -0.0044999988749623299
  endloop
 endfacet
 facet normal 6.5231929218620307e-08 -0.99999999999987332 -4.9903179263042537e-07
  outer loop
   vertex 0.0031819802243262529 0.036700014024972916 -0.0031819792930036783
   vertex 0.025766938924789429 0.036700021475553513 -0.015159813687205315
   vertex 0.013622359372675419 0.036700010299682617 0.0056477915495634079
  endloop
 endfacet
 facet normal 3.9603524060941451e-07 -0.99999999999987477 -3.0595493032101183e-07
  outer loop
   vertex 0.013622359372675419 0.036700010299682617 0.0056477915495634079
   vertex 0.025766938924789429 0.036700021475553513 -0.015159813687205315
   vertex 0.025168228894472122 0.036700010299682617 0.020593035966157913
  endloop
 endfacet
 facet normal 9.7481312571502121e-07 -0.99999999999828526 -1.5745265848446145e-06
  outer loop
   vertex 0.0031819802243262529 0.036700014024972916 -0.0031819792930036783
   vertex 0.013622359372675419 0.036700010299682617 0.0056477915495634079
   vertex 0.0044999998062849045 0.036700010299682617 1.3322346559263565e-09
  endloop
 endfacet
 facet normal 0 -1 0
  outer loop
   vertex 0.0044999998062849045 0.036700010299682617 1.3322346559263565e-09
   vertex 0.013622359372675419 0.036700010299682617 0.0056477915495634079
   vertex 0.0031819802243262529 0.036700010299682617 0.0031819818541407585
  endloop
 endfacet
 facet normal 0 -1 0
  outer loop
   vertex 0.0031819802243262529 0.036700010299682617 0.0031819818541407585
   vertex 0.013622359372675419 0.036700010299682617 0.0056477915495634079
   vertex 0.010145179927349091 0.036700010299682617 0.0049608093686401844
  endloop
 endfacet
 facet normal 0 -1 0
  outer loop
   vertex 0.0031819802243262529 0.036700010299682617 0.0031819818541407585
   vertex 0.010145179927349091 0.036700010299682617 0.0049608093686401844
   vertex -2.8633356796703424e-10 0.036700010299682617 0.0045000012032687664
  endloop
 endfacet
 facet normal 0 -1 0
  outer loop
   vertex 0.013622359372675419 0.036700010299682617 0.0056477915495634079
   vertex 0.025168228894472122 0.036700010299682617 0.020593035966157913
   vertex 0.020487319678068161 0.036700010299682617 0.014803016558289528
  endloop
 endfacet
 facet normal -0 -1 0
  outer loop
   vertex 0.020487319678068161 0.036700010299682617 0.014803016558289528
   vertex 0.025168228894472122 0.036700010299682617 0.020593035966157913
   vertex 0.025165729224681854 0.036700010299682617 0.02089298702776432
  endloop
 endfacet
 facet normal 0 -1 0
  outer loop
   vertex 0.025165729224681854 0.036700010299682617 0.02089298702776432
   vertex 0.025168228894472122 0.036700010299682617 0.020593035966157913
   vertex 0.025464950129389763 0.036700010299682617 0.02089797705411911
  endloop
 endfacet
 facet normal 2.7591150475970548e-07 -0.9999999999999587 -8.2069433798142934e-08
  outer loop
   vertex 0.025766938924789429 0.036700021475553513 -0.015159813687205315
   vertex -0.0060002482496201992 0.036700014024972916 -0.031174933537840843
   vertex 0.014721609652042389 0.036700021475553513 -0.052293412387371063
  endloop
 endfacet
 facet normal 2.6453562499828039e-07 -0.99999999999996325 -5.9504526071869346e-08
  outer loop
   vertex -0.0060002482496201992 0.036700014024972916 -0.031174933537840843
   vertex 0.025766938924789429 0.036700021475553513 -0.015159813687205315
   vertex -2.8633365123376109e-10 0.036700014024972916 -0.0044999988749623299
  endloop
 endfacet
 facet normal 1.0709611436318385e-06 -0.99999999999939748 -2.409015242979618e-07
  outer loop
   vertex -0.0060002482496201992 0.036700014024972916 -0.031174933537840843
   vertex -2.8633365123376109e-10 0.036700014024972916 -0.0044999988749623299
   vertex -0.0031819806899875402 0.036700010299682617 -0.0031819792930036783
  endloop
 endfacet
 facet normal -1.5136855642453864e-07 -0.99999999999998168 -1.1784012425021314e-07
  outer loop
   vertex -0.0060002482496201992 0.036700014024972916 -0.031174933537840843
   vertex -0.0031819806899875402 0.036700010299682617 -0.0031819792930036783
   vertex -0.0085196690633893013 0.036700010299682617 0.0036744135431945324
  endloop
 endfacet
 facet normal 0 -1 0
  outer loop
   vertex -0.0085196690633893013 0.036700010299682617 0.0036744135431945324
   vertex -0.0031819806899875402 0.036700010299682617 -0.0031819792930036783
   vertex -0.0045000002719461918 0.036700010299682617 1.3322346559263565e-09
  endloop
 endfacet
 facet normal 0 -1 0
  outer loop
   vertex -0.0085196690633893013 0.036700010299682617 0.0036744135431945324
   vertex -0.0045000002719461918 0.036700010299682617 1.3322346559263565e-09
   vertex -0.0031819806899875402 0.036700010299682617 0.0031819818541407585
  endloop
 endfacet
 facet normal 0 -1 0
  outer loop
   vertex -0.0085196690633893013 0.036700010299682617 0.0036744135431945324
   vertex -0.0031819806899875402 0.036700010299682617 0.0031819818541407585
   vertex -2.8633356796703424e-10 0.036700010299682617 0.0045000012032687664
  endloop
 endfacet
 facet normal -0 -1 0
  outer loop
   vertex -0.0085196690633893013 0.036700010299682617 0.0036744135431945324
   vertex -2.8633356796703424e-10 0.036700010299682617 0.0045000012032687664
   vertex -0.006797371432185173 0.036700010299682617 0.006209514569491148
  endloop
 endfacet
 facet normal 0 -1 0
  outer loop
   vertex -0.006797371432185173 0.036700010299682617 0.006209514569491148
   vertex -2.8633356796703424e-10 0.036700010299682617 0.0045000012032687664
   vertex 0.010145179927349091 0.036700010299682617 0.0049608093686401844
  endloop
 endfacet
 facet normal 0 -1 0
  outer loop
   vertex -0.006797371432185173 0.036700010299682617 0.006209514569491148
   vertex 0.010145179927349091 0.036700010299682617 0.0049608093686401844
   vertex 0.0065488796681165695 0.036700010299682617 0.0071032857522368431
  endloop
 endfacet
 facet normal -0 -1 0
  outer loop
   vertex -0.006797371432185173 0.036700010299682617 0.006209514569491148
   vertex 0.0065488796681165695 0.036700010299682617 0.0071032857522368431
   vertex -0.00012655592581722885 0.036700010299682617 0.0083105349913239479
  endloop
 endfacet
 facet normal -0.13705264382279686 0.70710941826375595 0.69369506515750423
  outer loop
   vertex 0.010145179927349091 0.038200013339519501 0.0049608098343014717
   vertex 0.01390736922621727 0.038700010627508163 0.005194435827434063
   vertex 0.010053999722003937 0.038700010627508163 0.0044331294484436512
  endloop
 endfacet
 facet normal -0.1370525850945829 0.7071085641331093 0.69369594740671836
  outer loop
   vertex 0.01390736922621727 0.038700010627508163 0.005194435827434063
   vertex 0.010145179927349091 0.038200013339519501 0.0049608098343014717
   vertex 0.013622359372675419 0.038200013339519501 0.0056477915495634079
  endloop
 endfacet
 facet normal 0.71790672398968636 -0.69173551495533536 -0.078178724726571489
  outer loop
   vertex 0.027683930471539497 0.001800012425519526 -0.015730023384094238
   vertex 0.027761729434132576 0.001800012425519526 -0.015015603974461555
   vertex 0.026766449213027954 0.00080001243622973561 -0.015307024121284485
  endloop
 endfacet
 facet normal -0.5047212201948954 0.70710089638751583 -0.49524217531723563
  outer loop
   vertex -0.0060002482496201992 0.038200013339519501 -0.031174933537840843
   vertex 0.014884559437632561 0.038700021803379059 -0.051745574921369553
   vertex 0.014721609652042389 0.038200013339519501 -0.052293412387371063
  endloop
 endfacet
 facet normal -0.50471511833588745 0.70710974120969616 -0.49523576527705215
  outer loop
   vertex 0.014884559437632561 0.038700021803379059 -0.051745574921369553
   vertex -0.0060002482496201992 0.038200013339519501 -0.031174933537840843
   vertex -0.0055147875100374222 0.038700014352798462 -0.03095577284693718
  endloop
 endfacet
 facet normal -0.79301293016685814 0 0.60920480348415973
  outer loop
   vertex 0.025165729224681854 0.038155782967805862 0.02089298702776432
   vertex 0.020487319678068161 0.036700010299682617 0.014803016558289528
   vertex 0.025165729224681854 0.036700010299682617 0.02089298702776432
  endloop
 endfacet
 facet normal -0.79301293016685803 0 0.60920480348415973
  outer loop
   vertex 0.020487319678068161 0.036700010299682617 0.014803016558289528
   vertex 0.025165729224681854 0.038155782967805862 0.02089298702776432
   vertex 0.020487319678068161 0.038200013339519501 0.014803016558289528
  endloop
 endfacet
 facet normal -0.79301327757277151 -0.0001001454746678074 0.60920434302799786
  outer loop
   vertex 0.020487319678068161 0.038200013339519501 0.014803016558289528
   vertex 0.025165729224681854 0.038155782967805862 0.02089298702776432
   vertex 0.025132689625024796 0.038200013339519501 0.020849986001849174
  endloop
 endfacet
 facet normal -0.99739694215949071 0 -0.072106447498804072
  outer loop
   vertex -0.0085196690633893013 0.038200013339519501 0.0036744135431945324
   vertex -0.0060002482496201992 0.036700014024972916 -0.031174933537840843
   vertex -0.0085196690633893013 0.036700010299682617 0.0036744135431945324
  endloop
 endfacet
 facet normal -0.9973969421594906 0 -0.072106447498804058
  outer loop
   vertex -0.0060002482496201992 0.036700014024972916 -0.031174933537840843
   vertex -0.0085196690633893013 0.038200013339519501 0.0036744135431945324
   vertex -0.0060002482496201992 0.038200013339519501 -0.031174933537840843
  endloop
 endfacet
 facet normal -0.82716478818298456 0 0.56195944087647298
  outer loop
   vertex -0.006797371432185173 0.038200013339519501 0.006209514569491148
   vertex -0.0085196690633893013 0.036700010299682617 0.0036744135431945324
   vertex -0.006797371432185173 0.036700010299682617 0.006209514569491148
  endloop
 endfacet
 facet normal -0.82716478818298456 0 0.56195944087647298
  outer loop
   vertex -0.0085196690633893013 0.036700010299682617 0.0036744135431945324
   vertex -0.006797371432185173 0.038200013339519501 0.006209514569491148
   vertex -0.0085196690633893013 0.038200013339519501 0.0036744135431945324
  endloop
 endfacet
 facet normal 0.3619001956399841 0.70710708111527698 0.60747660385596269
  outer loop
   vertex 0.0063707795925438404 0.038700010627508163 0.006627383641898632
   vertex 0.010145179927349091 0.038200013339519501 0.0049608098343014717
   vertex 0.010053999722003937 0.038700010627508163 0.0044331294484436512
  endloop
 endfacet
 facet normal 0.36189963712130774 0.70710893025546928 0.60747478417168199
  outer loop
   vertex 0.010145179927349091 0.038200013339519501 0.0049608098343014717
   vertex 0.0063707795925438404 0.038700010627508163 0.006627383641898632
   vertex 0.0065488787367939949 0.038200013339519501 0.0071032857522368431
  endloop
 endfacet
 facet normal 0.80205506404361648 -0.40952647784936269 0.43473640080200976
  outer loop
   vertex 0.027187328785657883 0.0017999119590967894 0.019436066970229149
   vertex 0.026163758710026741 0.0014184218598529696 0.020965106785297394
   vertex 0.026173898950219154 0.00079990189988166094 0.020363746210932732
  endloop
 endfacet
 facet normal 0.80205379040244229 -0.40953110206952847 0.43473439447413476
  outer loop
   vertex 0.026163758710026741 0.0014184218598529696 0.020965106785297394
   vertex 0.027187328785657883 0.0017999119590967894 0.019436066970229149
   vertex 0.027177199721336365 0.0024184419307857752 0.020037425681948662
  endloop
 endfacet
 facet normal -0.73495210360511887 0 0.67811902008895952
  outer loop
   vertex 0.025168228894472122 0.036700010299682617 0.020593035966157913
   vertex 0.025168228894472122 0.00280001200735569 0.020593035966157913
   vertex 0.025464950129389763 0.00280001200735569 0.020914625376462936
  endloop
 endfacet
 facet normal -0.99985981859138906 0 -0.01674345144808884
  outer loop
   vertex 0.025168228894472122 0.036700010299682617 0.020593035966157913
   vertex 0.025766938924789429 0.0028000124730169773 -0.015159813687205315
   vertex 0.025168228894472122 0.00280001200735569 0.020593035966157913
  endloop
 endfacet
 facet normal -0.99985981859138917 0 -0.016743451448088843
  outer loop
   vertex 0.025766938924789429 0.0028000124730169773 -0.015159813687205315
   vertex 0.025168228894472122 0.036700010299682617 0.020593035966157913
   vertex 0.025766938924789429 0.036700021475553513 -0.015159813687205315
  endloop
 endfacet
 facet normal -0.55971271565279279 0.70840637237475523 0.42997917102508088
  outer loop
   vertex 0.020487319678068161 0.038200013339519501 0.014803016558289528
   vertex 0.025392038747668266 0.038700010627508163 0.020363826304674149
   vertex 0.020790889859199524 0.038700010627508163 0.014374416321516037
  endloop
 endfacet
 facet normal -0.55971390129058518 0.70840471014465145 0.42998036623425673
  outer loop
   vertex 0.025392038747668266 0.038700010627508163 0.020363826304674149
   vertex 0.020487319678068161 0.038200013339519501 0.014803016558289528
   vertex 0.025132689625024796 0.038200013339519501 0.020849986001849174
  endloop
 endfacet
 facet normal 0.80143931435232274 0.41016322741908662 0.43527135477037493
  outer loop
   vertex 0.027187218889594078 0.03770001232624054 0.019436176866292953
   vertex 0.026161549612879753 0.0380818210542202 0.020964896306395531
   vertex 0.027177128940820694 0.037081841379404068 0.020037267357110977
  endloop
 endfacet
 facet normal 0.80143701049650407 0.41017158423272049 0.43526772186143892
  outer loop
   vertex 0.026161549612879753 0.0380818210542202 0.020964896306395531
   vertex 0.027187218889594078 0.03770001232624054 0.019436176866292953
   vertex 0.02617160975933075 0.038700010627508163 0.020363826304674149
  endloop
 endfacet
 facet normal 0.71790189821729189 0.69174059418202671 -0.078178097295252005
  outer loop
   vertex 0.026766449213027954 0.038700010627508163 -0.015307012945413589
   vertex 0.027761729434132576 0.037700023502111435 -0.015015603043138981
   vertex 0.027683930471539497 0.037700023502111435 -0.015730023384094238
  endloop
 endfacet
 facet normal 0.62979607461670839 0.68515757396564281 -0.36594535553125968
  outer loop
   vertex 0.014433979988098145 0.038700021803379059 -0.056767653673887253
   vertex 0.0096334610134363174 0.032619241625070572 -0.076414413750171661
   vertex 0.0083923386409878731 0.033400025218725204 -0.077088542282581329
  endloop
 endfacet
 facet normal 0.62883851550399894 0.68601909786099269 -0.36597803047275473
  outer loop
   vertex 0.0096334610134363174 0.032619241625070572 -0.076414413750171661
   vertex 0.014433979988098145 0.038700021803379059 -0.056767653673887253
   vertex 0.015427639707922935 0.037700023502111435 -0.056934785097837448
  endloop
 endfacet
 facet normal -0.71670028220291304 0.00034248460757404391 0.69738123590655809
  outer loop
   vertex 0.025168228894472122 0.036700010299682617 0.020593035966157913
   vertex 0.025464950129389763 0.00280001200735569 0.020914625376462936
   vertex 0.025464950129389763 0.036700010299682617 0.02089797705411911
  endloop
 endfacet
 facet normal 0.6777354910711143 0.70713190756191424 -0.2015913426971602
  outer loop
   vertex 0.014433979988098145 0.038700021803379059 -0.056767653673887253
   vertex 0.027683930471539497 0.037700023502111435 -0.015730023384094238
   vertex 0.015427639707922935 0.037700023502111435 -0.056934785097837448
  endloop
 endfacet
 facet normal 0.67775336835100541 0.70711299605607159 -0.20159757562399458
  outer loop
   vertex 0.027683930471539497 0.037700023502111435 -0.015730023384094238
   vertex 0.014433979988098145 0.038700021803379059 -0.056767653673887253
   vertex 0.026766449213027954 0.038700010627508163 -0.015307012945413589
  endloop
 endfacet
 facet normal 0.70776095483449919 -0.70635419829685986 0.011754886650170066
  outer loop
   vertex 0.026766449213027954 0.00080001243622973561 -0.015307024121284485
   vertex 0.027187328785657883 0.0017999119590967894 0.019436066970229149
   vertex 0.026173898950219154 0.00079990189988166094 0.020363746210932732
  endloop
 endfacet
 facet normal 0.70700883984883223 -0.70710649753561361 0.011785648837702663
  outer loop
   vertex 0.027187328785657883 0.0017999119590967894 0.019436066970229149
   vertex 0.026766449213027954 0.00080001243622973561 -0.015307024121284485
   vertex 0.027761729434132576 0.001800012425519526 -0.015015603974461555
  endloop
 endfacet
 facet normal -0.70526688696181605 0.70710603361367008 -0.050987011898443561
  outer loop
   vertex -0.0085196690633893013 0.038200013339519501 0.0036744135431945324
   vertex -0.0055147875100374222 0.038700014352798462 -0.03095577284693718
   vertex -0.0060002482496201992 0.038200013339519501 -0.031174933537840843
  endloop
 endfacet
 facet normal -0.7052651623020233 0.70710776637817241 -0.050986837230529963
  outer loop
   vertex -0.0055147875100374222 0.038700014352798462 -0.03095577284693718
   vertex -0.0085196690633893013 0.038200013339519501 0.0036744135431945324
   vertex -0.0080084428191184998 0.038700010627508163 0.0035371605772525072
  endloop
 endfacet
 facet normal 0.99986102652333297 0.00016621097526593791 0.016670333338554798
  outer loop
   vertex 0.027761729434132576 0.001800012425519526 -0.015015603974461555
   vertex 0.027177199721336365 0.0024184419307857752 0.020037425681948662
   vertex 0.027187328785657883 0.0017999119590967894 0.019436066970229149
  endloop
 endfacet
 facet normal 0.99986099145261442 -4.3253992906273585e-10 0.01667326516897942
  outer loop
   vertex 0.027177199721336365 0.0024184419307857752 0.020037425681948662
   vertex 0.027761729434132576 0.001800012425519526 -0.015015603974461555
   vertex 0.027761729434132576 0.037700023502111435 -0.015015603043138981
  endloop
 endfacet
 facet normal 0.99986095590459168 2.117818929820513e-06 0.016675396639093717
  outer loop
   vertex 0.027177199721336365 0.0024184419307857752 0.020037425681948662
   vertex 0.027761729434132576 0.037700023502111435 -0.015015603043138981
   vertex 0.027177128940820694 0.037081841379404068 0.020037267357110977
  endloop
 endfacet
 facet normal 0.99986098230825626 -0.00010722368769473433 0.016673468764762792
  outer loop
   vertex 0.027177128940820694 0.037081841379404068 0.020037267357110977
   vertex 0.027761729434132576 0.037700023502111435 -0.015015603043138981
   vertex 0.027187218889594078 0.03770001232624054 0.019436176866292953
  endloop
 endfacet
 facet normal -0.8000611727177146 0 0.59991842771293091
  outer loop
   vertex 0.020487319678068161 0.038200013339519501 0.014803016558289528
   vertex 0.013622359372675419 0.036700010299682617 0.0056477915495634079
   vertex 0.020487319678068161 0.036700010299682617 0.014803016558289528
  endloop
 endfacet
 facet normal -0.8000611727177146 0 0.59991842771293091
  outer loop
   vertex 0.013622359372675419 0.036700010299682617 0.0056477915495634079
   vertex 0.020487319678068161 0.038200013339519501 0.014803016558289528
   vertex 0.013622359372675419 0.038200013339519501 0.0056477915495634079
  endloop
 endfacet
 facet normal -0.58489278516466447 0.70710792397840738 0.39736483703174874
  outer loop
   vertex -0.0085196690633893013 0.038200013339519501 0.0036744135431945324
   vertex -0.0064814342185854912 0.038700010627508163 0.0057848086580634117
   vertex -0.0080084428191184998 0.038700010627508163 0.0035371605772525072
  endloop
 endfacet
 facet normal -0.58489245818946145 0.70710844069896783 0.39736439881469426
  outer loop
   vertex -0.0064814342185854912 0.038700010627508163 0.0057848086580634117
   vertex -0.0085196690633893013 0.038200013339519501 0.0036744135431945324
   vertex -0.006797371432185173 0.038200013339519501 0.006209514569491148
  endloop
 endfacet
 facet normal -0.6109843911723758 -0.70710704340979857 0.35594620787975023
  outer loop
   vertex -0.0047312742099165916 0.00080001208698377013 0.0069325082004070282
   vertex -0.0083748707547783852 0.0013000122271478176 0.0016715250676497817
   vertex -0.0078650256618857384 0.00080001220339909196 0.0015534000704064965
  endloop
 endfacet
 facet normal -0.61098420585718061 -0.70710727943122453 0.35594605710478461
  outer loop
   vertex -0.0083748707547783852 0.0013000122271478176 0.0016715250676497817
   vertex -0.0047312742099165916 0.00080001208698377013 0.0069325082004070282
   vertex -0.0050824633799493313 0.0013000121107324958 0.0073229679837822914
  endloop
 endfacet
 facet normal -0.95849684406517544 0 0.28510313908671481
  outer loop
   vertex 0.025766938924789429 0.036700021475553513 -0.015159813687205315
   vertex 0.014151409268379211 0.0028000129386782646 -0.054210413247346878
   vertex 0.025766938924789429 0.0028000124730169773 -0.015159813687205315
  endloop
 endfacet
 facet normal -0.95849675454995464 -3.7733886579241947e-07 0.28510344003021382
  outer loop
   vertex 0.014151409268379211 0.0028000129386782646 -0.054210413247346878
   vertex 0.025766938924789429 0.036700021475553513 -0.015159813687205315
   vertex 0.0074313655495643616 0.0060000135563313961 -0.076802700757980347
  endloop
 endfacet
 facet normal -0.9584968014707792 -3.2579172589610461e-08 0.28510328228605952
  outer loop
   vertex 0.0074313655495643616 0.0060000135563313961 -0.076802700757980347
   vertex 0.025766938924789429 0.036700021475553513 -0.015159813687205315
   vertex 0.007431364618241787 0.033400025218725204 -0.076802700757980347
  endloop
 endfacet
 facet normal -0.95849678743934441 -9.9167966824496437e-07 0.28510332945701095
  outer loop
   vertex 0.007431364618241787 0.033400025218725204 -0.076802700757980347
   vertex 0.025766938924789429 0.036700021475553513 -0.015159813687205315
   vertex 0.014721609652042389 0.036700021475553513 -0.052293412387371063
  endloop
 endfacet
 facet normal -0.95849679642183017 -7.475553663956326e-07 0.28510329925928551
  outer loop
   vertex 0.007431364618241787 0.033400025218725204 -0.076802700757980347
   vertex 0.014721609652042389 0.036700021475553513 -0.052293412387371063
   vertex 0.013475549407303333 0.038700021803379059 -0.056482572108507156
  endloop
 endfacet
 facet normal -0.95849669889178346 0 0.28510362714906662
  outer loop
   vertex 0.013475549407303333 0.038700021803379059 -0.056482572108507156
   vertex 0.014721609652042389 0.036700021475553513 -0.052293412387371063
   vertex 0.014721609652042389 0.038200013339519501 -0.052293412387371063
  endloop
 endfacet
 facet normal -0.9584969075358849 -6.39740242074201e-06 0.28510292563075923
  outer loop
   vertex 0.013475549407303333 0.038700021803379059 -0.056482572108507156
   vertex 0.014721609652042389 0.038200013339519501 -0.052293412387371063
   vertex 0.014884559437632561 0.038700021803379059 -0.051745574921369553
  endloop
 endfacet
 facet normal -0.95849679693326373 1.307780633771341e-05 0.28510329724092087
  outer loop
   vertex 0.014151409268379211 0.0013000030303373933 -0.054210413247346878
   vertex 0.013361509889364243 0.00080002308823168278 -0.056865975260734558
   vertex 0.014319969341158867 0.00080000300658866763 -0.053643703460693359
  endloop
 endfacet
 facet normal -0.95849641668317509 5.6859158026185064e-06 0.28510457585451598
  outer loop
   vertex 0.013361509889364243 0.00080002308823168278 -0.056865975260734558
   vertex 0.014151409268379211 0.0013000030303373933 -0.054210413247346878
   vertex 0.0074313655495643616 0.0060000135563313961 -0.076802700757980347
  endloop
 endfacet
 facet normal -0.95849673994458673 0 0.28510348913262951
  outer loop
   vertex 0.0074313655495643616 0.0060000135563313961 -0.076802700757980347
   vertex 0.014151409268379211 0.0013000030303373933 -0.054210413247346878
   vertex 0.014151409268379211 0.0028000129386782646 -0.054210413247346878
  endloop
 endfacet
 facet normal -0.53220183604256155 -0.70710763845635705 -0.46557490627137588
  outer loop
   vertex 0.014319969341158867 0.00080000300658866763 -0.053643703460693359
   vertex -0.00600024638697505 0.0013000126928091049 -0.031174933537840843
   vertex 0.014151409268379211 0.0013000030303373933 -0.054210413247346878
  endloop
 endfacet
 facet normal -0.53220380273280843 -0.70710494771232257 -0.46557674477736932
  outer loop
   vertex -0.00600024638697505 0.0013000126928091049 -0.031174933537840843
   vertex 0.014319969341158867 0.00080000300658866763 -0.053643703460693359
   vertex -0.0055136275477707386 0.00080001266906037927 -0.03097180463373661
  endloop
 endfacet
 facet normal -0.21242095570026731 0.70710825510266506 0.67444440330174671
  outer loop
   vertex -0.006797371432185173 0.038200013339519501 0.006209514569491148
   vertex -9.4078917754814029e-05 0.038700010627508163 0.0077965506352484226
   vertex -0.0064814342185854912 0.038700010627508163 0.0057848086580634117
  endloop
 endfacet
 facet normal -0.21242087980916743 0.7071087247767549 0.67444393478308551
  outer loop
   vertex -9.4078917754814029e-05 0.038700010627508163 0.0077965506352484226
   vertex -0.006797371432185173 0.038200013339519501 0.006209514569491148
   vertex -0.00012655601312872022 0.038200013339519501 0.0083105349913239479
  endloop
 endfacet
 facet normal 0.12583825883519589 0.70710898399656663 0.69581722985613803
  outer loop
   vertex -9.4078917754814029e-05 0.038700010627508163 0.0077965506352484226
   vertex 0.0065488787367939949 0.038200013339519501 0.0071032857522368431
   vertex 0.0063707795925438404 0.038700010627508163 0.006627383641898632
  endloop
 endfacet
 facet normal 0.12583826668541281 0.70710872420046589 0.69581749244841529
  outer loop
   vertex 0.0065488787367939949 0.038200013339519501 0.0071032857522368431
   vertex -9.4078917754814029e-05 0.038700010627508163 0.0077965506352484226
   vertex -0.00012655601312872022 0.038200013339519501 0.0083105349913239479
  endloop
 endfacet
 facet normal -0.56572623218260465 0.70710992806651596 0.42420440809854892
  outer loop
   vertex 0.013622359372675419 0.038200013339519501 0.0056477915495634079
   vertex 0.020790889859199524 0.038700010627508163 0.014374416321516037
   vertex 0.01390736922621727 0.038700010627508163 0.005194435827434063
  endloop
 endfacet
 facet normal -0.56572720556683564 0.70710862482316761 0.42420528236011895
  outer loop
   vertex 0.020790889859199524 0.038700010627508163 0.014374416321516037
   vertex 0.013622359372675419 0.038200013339519501 0.0056477915495634079
   vertex 0.020487319678068161 0.038200013339519501 0.014803016558289528
  endloop
 endfacet
 facet normal 1.550070581255714e-09 1 1.1463496118982807e-08
  outer loop
   vertex -0.00600024638697505 0.002800012705847621 -0.031174933537840843
   vertex 0.025766938924789429 0.0028000124730169773 -0.015159813687205315
   vertex 0.014151409268379211 0.0028000129386782646 -0.054210413247346878
  endloop
 endfacet
 facet normal 3.848644408308719e-08 0.99999999999999734 -6.1802557005850068e-08
  outer loop
   vertex 0.025766938924789429 0.0028000124730169773 -0.015159813687205315
   vertex -0.00600024638697505 0.002800012705847621 -0.031174933537840843
   vertex -0.0028284233994781971 0.0028000143356621265 -0.0028284252621233463
  endloop
 endfacet
 facet normal -3.8912695148280862e-07 0.99999999999992417 -1.3954900263609495e-08
  outer loop
   vertex -0.0028284233994781971 0.0028000143356621265 -0.0028284252621233463
   vertex -0.00600024638697505 0.002800012705847621 -0.031174933537840843
   vertex -0.0083748707547783852 0.0028000122401863337 0.0016715250676497817
  endloop
 endfacet
 facet normal 2.552300521000707e-05 0.99999999793175398 5.9034466464315027e-05
  outer loop
   vertex 0.025766938924789429 0.0028000124730169773 -0.015159813687205315
   vertex -0.0028284233994781971 0.0028000143356621265 -0.0028284252621233463
   vertex 3.7824499088401353e-09 0.002800011308863759 -0.0039999978616833687
  endloop
 endfacet
 facet normal -4.6844402936772975e-07 0.99999999999988398 -1.1171775643434055e-07
  outer loop
   vertex -0.0028284233994781971 0.0028000143356621265 -0.0028284252621233463
   vertex -0.0083748707547783852 0.0028000122401863337 0.0016715250676497817
   vertex -0.0039999959990382195 0.0028000141028314829 1.9786849936309636e-09
  endloop
 endfacet
 facet normal 6.6880490639472068e-08 0.99999999999916656 1.2893862690908658e-06
  outer loop
   vertex -0.0039999959990382195 0.0028000141028314829 1.9786849936309636e-09
   vertex -0.0083748707547783852 0.0028000122401863337 0.0016715250676497817
   vertex -0.0028284233994781971 0.0028000103775411844 0.0028284289874136448
  endloop
 endfacet
 facet normal 3.7249815777675173e-07 0.99999999999991507 -1.7581085978667389e-07
  outer loop
   vertex -0.0028284233994781971 0.0028000103775411844 0.0028284289874136448
   vertex -0.0083748707547783852 0.0028000122401863337 0.0016715250676497817
   vertex -0.0050824633799493313 0.00280001200735569 0.0073229679837822914
  endloop
 endfacet
 facet normal 1.4875532356471523e-06 0.99999999999882005 3.8339637547809974e-07
  outer loop
   vertex -0.0028284233994781971 0.0028000103775411844 0.0028284289874136448
   vertex -0.0050824633799493313 0.00280001200735569 0.0073229679837822914
   vertex 3.7824423593235679e-09 0.0028000057209283113 0.0040000020526349545
  endloop
 endfacet
 facet normal -2.4899499552797075e-07 0.99999999999996902 8.8548322457014294e-09
  outer loop
   vertex 0.025766938924789429 0.0028000124730169773 -0.015159813687205315
   vertex 0.002828430850058794 0.002800006652250886 -0.0028284252621233463
   vertex 0.025168228894472122 0.00280001200735569 0.020593035966157913
  endloop
 endfacet
 facet normal 8.1944864707022243e-07 0.99999999999767153 1.9963441788037701e-06
  outer loop
   vertex 0.002828430850058794 0.002800006652250886 -0.0028284252621233463
   vertex 0.025766938924789429 0.0028000124730169773 -0.015159813687205315
   vertex 3.7824499088401353e-09 0.002800011308863759 -0.0039999978616833687
  endloop
 endfacet
 facet normal -2.7120116269951604e-06 0.99999999999354217 2.3581230350597249e-06
  outer loop
   vertex 0.025168228894472122 0.00280001200735569 0.020593035966157913
   vertex 0.002828430850058794 0.002800006652250886 -0.0028284252621233463
   vertex 0.0040000039152801037 0.0028000031597912312 1.9786847715863587e-09
  endloop
 endfacet
 facet normal -4.1207704174086566e-07 0.99999999999991518 -6.0518003608190892e-09
  outer loop
   vertex 0.025168228894472122 0.00280001200735569 0.020593035966157913
   vertex 0.0040000039152801037 0.0028000031597912312 1.9786847715863587e-09
   vertex 0.002828430850058794 0.0028000026941299438 0.0028284289874136448
  endloop
 endfacet
 facet normal 5.6084197388746606e-07 0.99999999999908684 -1.2295415374940301e-06
  outer loop
   vertex 0.025168228894472122 0.00280001200735569 0.020593035966157913
   vertex 0.002828430850058794 0.0028000026941299438 0.0028284289874136448
   vertex 3.7824423593235679e-09 0.0028000057209283113 0.0040000020526349545
  endloop
 endfacet
 facet normal 4.9665389868326484e-07 0.99999999999923572 -1.1321814082575258e-06
  outer loop
   vertex 0.025168228894472122 0.00280001200735569 0.020593035966157913
   vertex 3.7824423593235679e-09 0.0028000057209283113 0.0040000020526349545
   vertex -0.0050824633799493313 0.00280001200735569 0.0073229679837822914
  endloop
 endfacet
 facet normal 0 1 0
  outer loop
   vertex 0.025168228894472122 0.00280001200735569 0.020593035966157913
   vertex -0.0050824633799493313 0.00280001200735569 0.0073229679837822914
   vertex 0.025165729224681854 0.00280001200735569 0.020892985165119171
  endloop
 endfacet
 facet normal -0 1 0
  outer loop
   vertex 0.025168228894472122 0.00280001200735569 0.020593035966157913
   vertex 0.025165729224681854 0.00280001200735569 0.020892985165119171
   vertex 0.025464950129389763 0.00280001200735569 0.020914625376462936
  endloop
 endfacet
 facet normal 0.62886485030078965 -0.68599502416968117 -0.36597790489400317
  outer loop
   vertex 0.0096334628760814667 0.0067807934246957302 -0.076414413750171661
   vertex 0.014319979585707188 0.00080001307651400566 -0.057151034474372864
   vertex 0.0083898613229393959 0.0060000135563313961 -0.077087804675102234
  endloop
 endfacet
 facet normal 0.6288630687476342 -0.68599662364879566 -0.36597796806332594
  outer loop
   vertex 0.014319979585707188 0.00080001307651400566 -0.057151034474372864
   vertex 0.0096334628760814667 0.0067807934246957302 -0.076414413750171661
   vertex 0.015313579700887203 0.001800013124011457 -0.057318143546581268
  endloop
 endfacet
 facet normal 0.38268345769060957 -1.7055721797156874e-07 0.9238795220210968
  outer loop
   vertex -0.0031819806899875402 0.036700010299682617 -0.0031819792930036783
   vertex -4.1928799321411248e-10 0.038700014352798462 -0.0044999984093010426
   vertex -0.0031819809228181839 0.038700010627508163 -0.003181978827342391
  endloop
 endfacet
 facet normal 0.38268346794325819 -1.8966771732379844e-07 0.92387951777430655
  outer loop
   vertex -4.1928799321411248e-10 0.038700014352798462 -0.0044999984093010426
   vertex -0.0031819806899875402 0.036700010299682617 -0.0031819792930036783
   vertex -2.8633365123376109e-10 0.036700014024972916 -0.0044999988749623299
  endloop
 endfacet
 facet normal 0.92387952719625654 -5.6993920505106858e-08 0.38268344519670355
  outer loop
   vertex -0.0031819806899875402 0.036700010299682617 -0.0031819792930036783
   vertex -0.0045000002719461918 0.038700010627508163 1.6300992777829038e-09
   vertex -0.0045000002719461918 0.036700010299682617 1.3322346559263565e-09
  endloop
 endfacet
 facet normal 0.92387954396230887 1.8453307978378292e-08 0.38268340471987505
  outer loop
   vertex -0.0045000002719461918 0.038700010627508163 1.6300992777829038e-09
   vertex -0.0031819806899875402 0.036700010299682617 -0.0031819792930036783
   vertex -0.0031819809228181839 0.038700010627508163 -0.003181978827342391
  endloop
 endfacet
 facet normal 0.92387952280252106 1.5210392470987138e-07 -0.38268345580409252
  outer loop
   vertex -0.0045000002719461918 0.036700010299682617 1.3322346559263565e-09
   vertex -0.0031819809228181839 0.038700010627508163 0.0031819820869714022
   vertex -0.0031819806899875402 0.036700010299682617 0.0031819818541407585
  endloop
 endfacet
 facet normal 0.92387954393809035 5.6993914485507566e-08 -0.38268340477834006
  outer loop
   vertex -0.0031819809228181839 0.038700010627508163 0.0031819820869714022
   vertex -0.0045000002719461918 0.036700010299682617 1.3322346559263565e-09
   vertex -0.0045000002719461918 0.038700010627508163 1.6300992777829038e-09
  endloop
 endfacet
 facet normal 0.38268345769043172 1.5210392483850935e-07 -0.92387952202117374
  outer loop
   vertex -4.1928790994738563e-10 0.038700010627508163 0.0045000016689300537
   vertex -0.0031819806899875402 0.036700010299682617 0.0031819818541407585
   vertex -0.0031819809228181839 0.038700010627508163 0.0031819820869714022
  endloop
 endfacet
 facet normal 0.3826834102413475 2.4054713941585e-07 -0.92387954167520925
  outer loop
   vertex -0.0031819806899875402 0.036700010299682617 0.0031819818541407585
   vertex -4.1928790994738563e-10 0.038700010627508163 0.0045000016689300537
   vertex -2.8633356796703424e-10 0.036700010299682617 0.0045000012032687664
  endloop
 endfacet
 facet normal -0.38268346721118857 1.8966771747874742e-07 -0.92387951807753976
  outer loop
   vertex 0.0031819799914956093 0.038700010627508163 0.0031819820869714022
   vertex -2.8633356796703424e-10 0.036700010299682617 0.0045000012032687664
   vertex -4.1928790994738563e-10 0.038700010627508163 0.0045000016689300537
  endloop
 endfacet
 facet normal -0.38268339925685663 6.3003513293731935e-08 -0.92387954622516311
  outer loop
   vertex -2.8633356796703424e-10 0.036700010299682617 0.0045000012032687664
   vertex 0.0031819799914956093 0.038700010627508163 0.0031819820869714022
   vertex 0.0031819802243262529 0.036700010299682617 0.0031819818541407585
  endloop
 endfacet
 facet normal -0.92387952280252994 -6.3003503936622758e-08 -0.38268345580409618
  outer loop
   vertex 0.0031819799914956093 0.038700010627508163 0.0031819820869714022
   vertex 0.0044999998062849045 0.036700010299682617 1.3322346559263565e-09
   vertex 0.0031819802243262529 0.036700010299682617 0.0031819818541407585
  endloop
 endfacet
 facet normal -0.92387949613645148 5.699382546278702e-08 -0.38268352018169438
  outer loop
   vertex 0.0044999998062849045 0.036700010299682617 1.3322346559263565e-09
   vertex 0.0031819799914956093 0.038700010627508163 0.0031819820869714022
   vertex 0.0044999998062849045 0.038700014352798462 1.6300992777829038e-09
  endloop
 endfacet
 facet normal -0.92387952719628008 -5.6993814375168337e-08 0.3826834451966466
  outer loop
   vertex 0.0044999998062849045 0.038700014352798462 1.6300992777829038e-09
   vertex 0.0031819802243262529 0.036700014024972916 -0.0031819792930036783
   vertex 0.0044999998062849045 0.036700010299682617 1.3322346559263565e-09
  endloop
 endfacet
 facet normal -0.92387949616062881 -1.9665414696642993e-07 0.382683520123279
  outer loop
   vertex 0.0031819802243262529 0.036700014024972916 -0.0031819792930036783
   vertex 0.0044999998062849045 0.038700014352798462 1.6300992777829038e-09
   vertex 0.0031819799914956093 0.038700014352798462 -0.003181978827342391
  endloop
 endfacet
 facet normal -0.38268346721117591 -2.4054713774947303e-07 0.92387951807753321
  outer loop
   vertex -2.8633365123376109e-10 0.036700014024972916 -0.0044999988749623299
   vertex 0.0031819799914956093 0.038700014352798462 -0.003181978827342391
   vertex -4.1928799321411248e-10 0.038700014352798462 -0.0044999984093010426
  endloop
 endfacet
 facet normal -0.38268345695854328 -2.5965763906543742e-07 0.92387952232430792
  outer loop
   vertex 0.0031819799914956093 0.038700014352798462 -0.003181978827342391
   vertex -2.8633365123376109e-10 0.036700014024972916 -0.0044999988749623299
   vertex 0.0031819802243262529 0.036700014024972916 -0.0031819792930036783
  endloop
 endfacet
 facet normal 0.4761916635519895 -6.6725777392741728e-05 -0.87934151221880774
  outer loop
   vertex 0.0083923386409878731 0.033400025218725204 -0.077088542282581329
   vertex 0.0096334628760814667 0.0067807934246957302 -0.076414413750171661
   vertex 0.0083898613229393959 0.0060000135563313961 -0.077087804675102234
  endloop
 endfacet
 facet normal 0.47729769932345406 3.4407493727546304e-08 -0.87874166068335258
  outer loop
   vertex 0.0096334628760814667 0.0067807934246957302 -0.076414413750171661
   vertex 0.0083923386409878731 0.033400025218725204 -0.077088542282581329
   vertex 0.0096334610134363174 0.032619241625070572 -0.076414413750171661
  endloop
 endfacet
endsolid
