solid Visualization Toolkit generated SLA File
 facet normal -1 0 0
  outer loop
   vertex 0.019954312592744827 0.022725021466612816 0.002827532822266221
   vertex 0.019954312592744827 0.022725021466612816 -0.0028293214272707701
   vertex 0.019954312592744827 0.021553449332714081 -8.9434763594908873e-07
  endloop
 endfacet
 facet normal -1 0 0
  outer loop
   vertex 0.019954312592744827 0.022725021466612816 -0.0028293214272707701
   vertex 0.019954312592744827 0.022725021466612816 0.002827532822266221
   vertex 0.019954312592744827 0.025553448125720024 -0.0040008942596614361
  endloop
 endfacet
 facet normal -1 0 0
  outer loop
   vertex 0.019954312592744827 0.025553448125720024 -0.0040008942596614361
   vertex 0.019954312592744827 0.022725021466612816 0.002827532822266221
   vertex 0.019954312592744827 0.025553448125720024 0.0039991056546568871
  endloop
 endfacet
 facet normal -1 0 0
  outer loop
   vertex 0.019954312592744827 0.025553448125720024 -0.0040008942596614361
   vertex 0.019954312592744827 0.025553448125720024 0.0039991056546568871
   vertex 0.019954312592744827 0.028381876647472382 -0.0028293214272707701
  endloop
 endfacet
 facet normal -1 0 0
  outer loop
   vertex 0.019954312592744827 0.028381876647472382 -0.0028293214272707701
   vertex 0.019954312592744827 0.025553448125720024 0.0039991056546568871
   vertex 0.019954312592744827 0.028381876647472382 0.002827532822266221
  endloop
 endfacet
 facet normal -1 0 0
  outer loop
   vertex 0.019954312592744827 0.028381876647472382 -0.0028293214272707701
   vertex 0.019954312592744827 0.028381876647472382 0.002827532822266221
   vertex 0.019954312592744827 0.029553448781371117 -8.9434763594908873e-07
  endloop
 endfacet
 facet normal 0 0.38268347418891391 -0.9238795151872905
  outer loop
   vertex 0.019754320383071899 0.025553448125720024 0.0039991056546568871
   vertex 0.019954312592744827 0.022725021466612816 0.002827532822266221
   vertex 0.019754320383071899 0.022725021466612816 0.002827532822266221
  endloop
 endfacet
 facet normal 0 0.38268347418891391 -0.9238795151872905
  outer loop
   vertex 0.019954312592744827 0.022725021466612816 0.002827532822266221
   vertex 0.019754320383071899 0.025553448125720024 0.0039991056546568871
   vertex 0.019954312592744827 0.025553448125720024 0.0039991056546568871
  endloop
 endfacet
 facet normal 1.6206633064041332e-08 0.92387962069182228 -0.38268321947837519
  outer loop
   vertex 0.019754320383071899 0.022725021466612816 0.002827532822266221
   vertex 0.019954312592744827 0.021553449332714081 -8.9434763594908873e-07
   vertex 0.019754320383071899 0.021553449332714081 -8.9435610561849899e-07
  endloop
 endfacet
 facet normal 0 0.92387962028667248 -0.38268322045649417
  outer loop
   vertex 0.019954312592744827 0.021553449332714081 -8.9434763594908873e-07
   vertex 0.019754320383071899 0.022725021466612816 0.002827532822266221
   vertex 0.019954312592744827 0.022725021466612816 0.002827532822266221
  endloop
 endfacet
 facet normal 0 0.92387961556354947 0.38268323185912895
  outer loop
   vertex 0.019754320383071899 0.021553449332714081 -8.9435610561849899e-07
   vertex 0.019954312592744827 0.022725021466612816 -0.0028293214272707701
   vertex 0.019754320383071899 0.022725021466612816 -0.0028293214272707701
  endloop
 endfacet
 facet normal -1.6206633546942875e-08 0.92387961596869927 0.38268323088100992
  outer loop
   vertex 0.019954312592744827 0.022725021466612816 -0.0028293214272707701
   vertex 0.019754320383071899 0.021553449332714081 -8.9435610561849899e-07
   vertex 0.019954312592744827 0.021553449332714081 -8.9434763594908873e-07
  endloop
 endfacet
 facet normal 0 0.38268347418891391 0.9238795151872905
  outer loop
   vertex 0.019954312592744827 0.022725021466612816 -0.0028293214272707701
   vertex 0.019754320383071899 0.025553448125720024 -0.0040008942596614361
   vertex 0.019754320383071899 0.022725021466612816 -0.0028293214272707701
  endloop
 endfacet
 facet normal 0 0.38268347418891391 0.9238795151872905
  outer loop
   vertex 0.019754320383071899 0.025553448125720024 -0.0040008942596614361
   vertex 0.019954312592744827 0.022725021466612816 -0.0028293214272707701
   vertex 0.019954312592744827 0.025553448125720024 -0.0040008942596614361
  endloop
 endfacet
 facet normal 0 -0.38268325908150735 0.92387960428767768
  outer loop
   vertex 0.019954312592744827 0.025553448125720024 -0.0040008942596614361
   vertex 0.019754320383071899 0.028381876647472382 -0.0028293214272707701
   vertex 0.019754320383071899 0.025553448125720024 -0.0040008942596614361
  endloop
 endfacet
 facet normal 0 -0.38268325908150735 0.92387960428767768
  outer loop
   vertex 0.019754320383071899 0.028381876647472382 -0.0028293214272707701
   vertex 0.019954312592744827 0.025553448125720024 -0.0040008942596614361
   vertex 0.019954312592744827 0.028381876647472382 -0.0028293214272707701
  endloop
 endfacet
 facet normal -1.7292892326510431e-16 -0.92387961556354947 0.38268323185912895
  outer loop
   vertex 0.019954312592744827 0.028381876647472382 -0.0028293214272707701
   vertex 0.019754320383071899 0.029553448781371117 -8.9435610561849899e-07
   vertex 0.019754320383071899 0.028381876647472382 -0.0028293214272707701
  endloop
 endfacet
 facet normal -1.6206633201085029e-08 -0.92387961596869927 0.38268323088100992
  outer loop
   vertex 0.019754320383071899 0.029553448781371117 -8.9435610561849899e-07
   vertex 0.019954312592744827 0.028381876647472382 -0.0028293214272707701
   vertex 0.019954312592744827 0.029553448781371117 -8.9434763594908873e-07
  endloop
 endfacet
 facet normal 1.6206632891112412e-08 -0.92387962069182228 -0.38268321947837519
  outer loop
   vertex 0.019954312592744827 0.029553448781371117 -8.9434763594908873e-07
   vertex 0.019754320383071899 0.028381876647472382 0.002827532822266221
   vertex 0.019754320383071899 0.029553448781371117 -8.9435610561849899e-07
  endloop
 endfacet
 facet normal 3.4585783622484274e-16 -0.92387962028667248 -0.38268322045649417
  outer loop
   vertex 0.019754320383071899 0.028381876647472382 0.002827532822266221
   vertex 0.019954312592744827 0.029553448781371117 -8.9434763594908873e-07
   vertex 0.019954312592744827 0.028381876647472382 0.002827532822266221
  endloop
 endfacet
 facet normal -0 -0.38268325908150735 -0.92387960428767768
  outer loop
   vertex 0.019754320383071899 0.028381876647472382 0.002827532822266221
   vertex 0.019954312592744827 0.025553448125720024 0.0039991056546568871
   vertex 0.019754320383071899 0.025553448125720024 0.0039991056546568871
  endloop
 endfacet
 facet normal 0 -0.38268325908150735 -0.92387960428767768
  outer loop
   vertex 0.019954312592744827 0.025553448125720024 0.0039991056546568871
   vertex 0.019754320383071899 0.028381876647472382 0.002827532822266221
   vertex 0.019954312592744827 0.028381876647472382 0.002827532822266221
  endloop
 endfacet
 facet normal 0 -1 0
  outer loop
   vertex 0.0034641015809029341 0.0080000013113021851 -0.0020000000949949026
   vertex -0.0034641015809029341 0.0080000013113021851 -0.0020000000949949026
   vertex -1.6919799104398645e-17 0.0080000013113021851 -0.0040000001899898052
  endloop
 endfacet
 facet normal 0 -1 0
  outer loop
   vertex -0.0034641015809029341 0.0080000013113021851 -0.0020000000949949026
   vertex 0.0034641015809029341 0.0080000013113021851 -0.0020000000949949026
   vertex 0.0034641015809029341 0.0080000013113021851 0.0020000000949949026
  endloop
 endfacet
 facet normal -0 -1 0
  outer loop
   vertex -0.0034641015809029341 0.0080000013113021851 -0.0020000000949949026
   vertex 0.0034641015809029341 0.0080000013113021851 0.0020000000949949026
   vertex -0.0034641015809029341 0.0080000013113021851 0.0020000000949949026
  endloop
 endfacet
 facet normal 0 -1 0
  outer loop
   vertex -0.0034641015809029341 0.0080000013113021851 0.0020000000949949026
   vertex 0.0034641015809029341 0.0080000013113021851 0.0020000000949949026
   vertex -1.6919799104398645e-17 0.0080000013113021851 0.0040000001899898052
  endloop
 endfacet
 facet normal -0.54889588621773289 0.5240797829177487 -0.65119404729322805
  outer loop
   vertex -0.023745689541101456 0.042435541749000549 -0.014000893570482731
   vertex -0.024245688691735268 0.042533140629529953 -0.013500893488526344
   vertex -0.023745689541101456 0.043042451143264771 -0.013512453995645046
  endloop
 endfacet
 facet normal 1 0 0
  outer loop
   vertex 0.020754311233758926 0.0080000013113021851 -0.013500893488526344
   vertex 0.020754311233758926 0.0085000013932585716 0.013999106362462044
   vertex 0.020754311233758926 0.0080000013113021851 0.013499106280505657
  endloop
 endfacet
 facet normal 1 -0 0
  outer loop
   vertex 0.020754311233758926 0.0085000013932585716 0.013999106362462044
   vertex 0.020754311233758926 0.0080000013113021851 -0.013500893488526344
   vertex 0.020754311233758926 0.0085000013932585716 -0.014000893570482731
  endloop
 endfacet
 facet normal 1 0 0
  outer loop
   vertex 0.020754311233758926 0.0085000013932585716 0.013999106362462044
   vertex 0.020754311233758926 0.0085000013932585716 -0.014000893570482731
   vertex 0.020754311233758926 0.045000001788139343 0.013999106362462044
  endloop
 endfacet
 facet normal 1 0 0
  outer loop
   vertex 0.020754311233758926 0.045000001788139343 0.013999106362462044
   vertex 0.020754311233758926 0.0085000013932585716 -0.014000893570482731
   vertex 0.020754311233758926 0.042435541749000549 -0.014000893570482731
  endloop
 endfacet
 facet normal 1 0 0
  outer loop
   vertex 0.020754311233758926 0.045000001788139343 0.013999106362462044
   vertex 0.020754311233758926 0.042435541749000549 -0.014000893570482731
   vertex 0.020754311233758926 0.043042451143264771 -0.013512453995645046
  endloop
 endfacet
 facet normal 1 0 0
  outer loop
   vertex 0.020754311233758926 0.045000001788139343 0.013999106362462044
   vertex 0.020754311233758926 0.043042451143264771 -0.013512453995645046
   vertex 0.020754311233758926 0.046000000089406967 -8.9723880591918714e-07
  endloop
 endfacet
 facet normal 1 0 -0
  outer loop
   vertex 0.020754311233758926 0.045000001788139343 0.013999106362462044
   vertex 0.020754311233758926 0.046000000089406967 -8.9723880591918714e-07
   vertex 0.020754311233758926 0.046000000089406967 0.012950646691024303
  endloop
 endfacet
 facet normal 0.70710743973125423 0 0.70710612264122752
  outer loop
   vertex 0.021254310384392738 0.044785931706428528 0.013499106280505657
   vertex 0.020754311233758926 0.0085000013932585716 0.013999106362462044
   vertex 0.021254310384392738 0.0085000013932585716 0.013499106280505657
  endloop
 endfacet
 facet normal 0.70710743973125412 0 0.70710612264122741
  outer loop
   vertex 0.020754311233758926 0.0085000013932585716 0.013999106362462044
   vertex 0.021254310384392738 0.044785931706428528 0.013499106280505657
   vertex 0.020754311233758926 0.045000001788139343 0.013999106362462044
  endloop
 endfacet
 facet normal 0 0.70710678118654746 -0.70710678118654746
  outer loop
   vertex -0.021245688199996948 0.011000001803040504 -0.013500893488526344
   vertex 0.01875431090593338 0.010500001721084118 -0.014000893570482731
   vertex -0.021745698526501656 0.010500001721084118 -0.014000893570482731
  endloop
 endfacet
 facet normal 0 0.70710678118654746 -0.70710678118654746
  outer loop
   vertex 0.01875431090593338 0.010500001721084118 -0.014000893570482731
   vertex -0.021245688199996948 0.011000001803040504 -0.013500893488526344
   vertex 0.018254311755299568 0.011000001803040504 -0.013500893488526344
  endloop
 endfacet
 facet normal 0 0.97687139342361251 -0.21382768929820539
  outer loop
   vertex 0.018754320219159126 0.046000000089406967 -8.9723880591918714e-07
   vertex 0.020754311233758926 0.043042451143264771 -0.013512453995645046
   vertex 0.01875431090593338 0.043042451143264771 -0.013512453995645046
  endloop
 endfacet
 facet normal 0 0.9768713934236124 -0.21382768929820536
  outer loop
   vertex 0.020754311233758926 0.043042451143264771 -0.013512453995645046
   vertex 0.018754320219159126 0.046000000089406967 -8.9723880591918714e-07
   vertex 0.020754311233758926 0.046000000089406967 -8.9723880591918714e-07
  endloop
 endfacet
 facet normal 0 1 0
  outer loop
   vertex -0.021245688199996948 0.011000001803040504 0.013499106280505657
   vertex 0.018254311755299568 0.011000001803040504 -0.013500893488526344
   vertex -0.021245688199996948 0.011000001803040504 -0.013500893488526344
  endloop
 endfacet
 facet normal -0 1 0
  outer loop
   vertex 0.018254311755299568 0.011000001803040504 -0.013500893488526344
   vertex -0.021245688199996948 0.011000001803040504 0.013499106280505657
   vertex 0.018254311755299568 0.011000001803040504 0.013499106280505657
  endloop
 endfacet
 facet normal 1 0 0
  outer loop
   vertex -0.021245688199996948 0.042533140629529953 -0.013500893488526344
   vertex -0.021245688199996948 0.011000001803040504 0.013499106280505657
   vertex -0.021245688199996948 0.011000001803040504 -0.013500893488526344
  endloop
 endfacet
 facet normal 1 0 -0
  outer loop
   vertex -0.021245688199996948 0.011000001803040504 0.013499106280505657
   vertex -0.021245688199996948 0.042533140629529953 -0.013500893488526344
   vertex -0.021245688199996948 0.044785931706428528 0.013499106280505657
  endloop
 endfacet
 facet normal 0.99999999998134381 6.0872275302469724e-06 -5.0789822149999873e-07
  outer loop
   vertex -0.021245688199996948 0.044785931706428528 0.013499106280505657
   vertex -0.021245688199996948 0.042533140629529953 -0.013500893488526344
   vertex -0.021245699375867844 0.045500002801418304 5.318861803971231e-05
  endloop
 endfacet
 facet normal 0.99999999999918687 -9.2282764480898168e-07 -8.8018056775916353e-07
  outer loop
   vertex -0.021245688199996948 0.044785931706428528 0.013499106280505657
   vertex -0.021245699375867844 0.045500002801418304 5.318861803971231e-05
   vertex -0.021245688199996948 0.045500002801418304 0.012750436551868916
  endloop
 endfacet
 facet normal 0 1 0
  outer loop
   vertex -0.023745689541101456 0.046000000089406967 0.012950646691024303
   vertex -0.021745698526501656 0.046000000089406967 -8.9723880591918714e-07
   vertex -0.023745689541101456 0.046000000089406967 -8.9723880591918714e-07
  endloop
 endfacet
 facet normal -0 1 0
  outer loop
   vertex -0.021745698526501656 0.046000000089406967 -8.9723880591918714e-07
   vertex -0.023745689541101456 0.046000000089406967 0.012950646691024303
   vertex -0.021745689213275909 0.046000000089406967 0.012950646691024303
  endloop
 endfacet
 facet normal 0.57735098612262814 -0.57734991072279063 0.57734991072279063
  outer loop
   vertex 0.020754311233758926 0.0085000013932585716 0.013999106362462044
   vertex 0.020754311233758926 0.0080000013113021851 0.013499106280505657
   vertex 0.021254310384392738 0.0085000013932585716 0.013499106280505657
  endloop
 endfacet
 facet normal 0 -1 -0
  outer loop
   vertex 0.020754311233758926 0.0080000013113021851 -0.013500893488526344
   vertex 0.0023293714039027691 0.0080000013113021851 -0.0086933327838778496
   vertex -0.023745689541101456 0.0080000013113021851 -0.013500893488526344
  endloop
 endfacet
 facet normal 0 -1 0
  outer loop
   vertex 0.0023293714039027691 0.0080000013113021851 -0.0086933327838778496
   vertex 0.020754311233758926 0.0080000013113021851 -0.013500893488526344
   vertex 0.0044999998062849045 0.0080000013113021851 -0.0077942288480699062
  endloop
 endfacet
 facet normal 0 -1 0
  outer loop
   vertex 0.0044999998062849045 0.0080000013113021851 -0.0077942288480699062
   vertex 0.020754311233758926 0.0080000013113021851 -0.013500893488526344
   vertex 0.0063639609143137932 0.0080000013113021851 -0.0063639609143137932
  endloop
 endfacet
 facet normal 0 -1 0
  outer loop
   vertex 0.0063639609143137932 0.0080000013113021851 -0.0063639609143137932
   vertex 0.020754311233758926 0.0080000013113021851 -0.013500893488526344
   vertex 0.0077942288480699062 0.0080000013113021851 -0.0044999998062849045
  endloop
 endfacet
 facet normal 0 -1 0
  outer loop
   vertex 0.0077942288480699062 0.0080000013113021851 -0.0044999998062849045
   vertex 0.020754311233758926 0.0080000013113021851 -0.013500893488526344
   vertex 0.020754311233758926 0.0080000013113021851 0.013499106280505657
  endloop
 endfacet
 facet normal 0 -1 0
  outer loop
   vertex -0.023745689541101456 0.0080000013113021851 -0.013500893488526344
   vertex 0.0023293714039027691 0.0080000013113021851 -0.0086933327838778496
   vertex -1.4099832862725741e-17 0.0080000013113021851 -0.008999999612569809
  endloop
 endfacet
 facet normal 0 -1 0
  outer loop
   vertex 0.0077942288480699062 0.0080000013113021851 -0.0044999998062849045
   vertex 0.020754311233758926 0.0080000013113021851 0.013499106280505657
   vertex 0.0086933327838778496 0.0080000013113021851 -0.0023293714039027691
  endloop
 endfacet
 facet normal 0 -1 0
  outer loop
   vertex 0.0086933327838778496 0.0080000013113021851 -0.0023293714039027691
   vertex 0.020754311233758926 0.0080000013113021851 0.013499106280505657
   vertex 0.008999999612569809 0.0080000013113021851 2.8199664484680564e-18
  endloop
 endfacet
 facet normal 0 -1 0
  outer loop
   vertex 0.008999999612569809 0.0080000013113021851 2.8199664484680564e-18
   vertex 0.020754311233758926 0.0080000013113021851 0.013499106280505657
   vertex 0.0086933327838778496 0.0080000013113021851 0.0023293714039027691
  endloop
 endfacet
 facet normal 0 -1 0
  outer loop
   vertex 0.0086933327838778496 0.0080000013113021851 0.0023293714039027691
   vertex 0.020754311233758926 0.0080000013113021851 0.013499106280505657
   vertex 0.0077942288480699062 0.0080000013113021851 0.0044999998062849045
  endloop
 endfacet
 facet normal 0 -1 0
  outer loop
   vertex 0.0077942288480699062 0.0080000013113021851 0.0044999998062849045
   vertex 0.020754311233758926 0.0080000013113021851 0.013499106280505657
   vertex 0.0063639609143137932 0.0080000013113021851 0.0063639609143137932
  endloop
 endfacet
 facet normal 0 -1 0
  outer loop
   vertex 0.0063639609143137932 0.0080000013113021851 0.0063639609143137932
   vertex 0.020754311233758926 0.0080000013113021851 0.013499106280505657
   vertex 0.0044999998062849045 0.0080000013113021851 0.0077942288480699062
  endloop
 endfacet
 facet normal 0 -1 0
  outer loop
   vertex 0.0044999998062849045 0.0080000013113021851 0.0077942288480699062
   vertex 0.020754311233758926 0.0080000013113021851 0.013499106280505657
   vertex 0.0023293714039027691 0.0080000013113021851 0.0086933327838778496
  endloop
 endfacet
 facet normal 0 -1 0
  outer loop
   vertex 0.0023293714039027691 0.0080000013113021851 0.0086933327838778496
   vertex 0.020754311233758926 0.0080000013113021851 0.013499106280505657
   vertex -1.6919799104398645e-17 0.0080000013113021851 0.008999999612569809
  endloop
 endfacet
 facet normal -0 -1 0
  outer loop
   vertex -0.023745689541101456 0.0080000013113021851 -0.013500893488526344
   vertex -0.0063639609143137932 0.0080000013113021851 -0.0063639609143137932
   vertex -0.023745689541101456 0.0080000013113021851 0.013499106280505657
  endloop
 endfacet
 facet normal 0 -1 0
  outer loop
   vertex -0.0063639609143137932 0.0080000013113021851 -0.0063639609143137932
   vertex -0.023745689541101456 0.0080000013113021851 -0.013500893488526344
   vertex -0.0044999998062849045 0.0080000013113021851 -0.0077942288480699062
  endloop
 endfacet
 facet normal 0 -1 0
  outer loop
   vertex -0.0044999998062849045 0.0080000013113021851 -0.0077942288480699062
   vertex -0.023745689541101456 0.0080000013113021851 -0.013500893488526344
   vertex -0.0023293714039027691 0.0080000013113021851 -0.0086933327838778496
  endloop
 endfacet
 facet normal 0 -1 0
  outer loop
   vertex -0.0023293714039027691 0.0080000013113021851 -0.0086933327838778496
   vertex -0.023745689541101456 0.0080000013113021851 -0.013500893488526344
   vertex -1.4099832862725741e-17 0.0080000013113021851 -0.008999999612569809
  endloop
 endfacet
 facet normal 0 -1 0
  outer loop
   vertex -0.023745689541101456 0.0080000013113021851 0.013499106280505657
   vertex -0.0063639609143137932 0.0080000013113021851 -0.0063639609143137932
   vertex -0.0077942288480699062 0.0080000013113021851 -0.0044999998062849045
  endloop
 endfacet
 facet normal 0 -1 0
  outer loop
   vertex -0.023745689541101456 0.0080000013113021851 0.013499106280505657
   vertex -0.0077942288480699062 0.0080000013113021851 -0.0044999998062849045
   vertex -0.0086933327838778496 0.0080000013113021851 -0.0023293714039027691
  endloop
 endfacet
 facet normal 0 -1 0
  outer loop
   vertex -0.023745689541101456 0.0080000013113021851 0.013499106280505657
   vertex -0.0086933327838778496 0.0080000013113021851 -0.0023293714039027691
   vertex -0.008999999612569809 0.0080000013113021851 2.8199664484680564e-18
  endloop
 endfacet
 facet normal 0 -1 0
  outer loop
   vertex -0.023745689541101456 0.0080000013113021851 0.013499106280505657
   vertex -0.008999999612569809 0.0080000013113021851 2.8199664484680564e-18
   vertex -0.0086933327838778496 0.0080000013113021851 0.0023293714039027691
  endloop
 endfacet
 facet normal 0 -1 0
  outer loop
   vertex -0.023745689541101456 0.0080000013113021851 0.013499106280505657
   vertex -0.0086933327838778496 0.0080000013113021851 0.0023293714039027691
   vertex -0.0077942288480699062 0.0080000013113021851 0.0044999998062849045
  endloop
 endfacet
 facet normal 0 -1 0
  outer loop
   vertex -0.023745689541101456 0.0080000013113021851 0.013499106280505657
   vertex -0.0077942288480699062 0.0080000013113021851 0.0044999998062849045
   vertex -0.0063639609143137932 0.0080000013113021851 0.0063639609143137932
  endloop
 endfacet
 facet normal 0 -1 0
  outer loop
   vertex -0.023745689541101456 0.0080000013113021851 0.013499106280505657
   vertex -0.0063639609143137932 0.0080000013113021851 0.0063639609143137932
   vertex -0.0044999998062849045 0.0080000013113021851 0.0077942288480699062
  endloop
 endfacet
 facet normal 0 -1 0
  outer loop
   vertex -0.023745689541101456 0.0080000013113021851 0.013499106280505657
   vertex -0.0044999998062849045 0.0080000013113021851 0.0077942288480699062
   vertex -0.0023293714039027691 0.0080000013113021851 0.0086933327838778496
  endloop
 endfacet
 facet normal 0 -1 0
  outer loop
   vertex -0.023745689541101456 0.0080000013113021851 0.013499106280505657
   vertex -0.0023293714039027691 0.0080000013113021851 0.0086933327838778496
   vertex -1.6919799104398645e-17 0.0080000013113021851 0.008999999612569809
  endloop
 endfacet
 facet normal 0 -1 0
  outer loop
   vertex -0.023745689541101456 0.0080000013113021851 0.013499106280505657
   vertex -1.6919799104398645e-17 0.0080000013113021851 0.008999999612569809
   vertex 0.020754311233758926 0.0080000013113021851 0.013499106280505657
  endloop
 endfacet
 facet normal -0.70710743973125423 -0 -0.70710612264122752
  outer loop
   vertex 0.018254311755299568 0.011000001803040504 -0.013500893488526344
   vertex 0.01875431090593338 0.042435541749000549 -0.014000893570482731
   vertex 0.01875431090593338 0.010500001721084118 -0.014000893570482731
  endloop
 endfacet
 facet normal -0.70710743973125423 0 -0.70710612264122752
  outer loop
   vertex 0.01875431090593338 0.042435541749000549 -0.014000893570482731
   vertex 0.018254311755299568 0.011000001803040504 -0.013500893488526344
   vertex 0.018254311755299568 0.042533140629529953 -0.013500893488526344
  endloop
 endfacet
 facet normal 0.70710549159254643 0.70710807077801385 -5.0846702950830862e-07
  outer loop
   vertex -0.021745689213275909 0.046000000089406967 0.012950646691024303
   vertex -0.021245699375867844 0.045500002801418304 5.318861803971231e-05
   vertex -0.021745698526501656 0.046000000089406967 -8.9723880591918714e-07
  endloop
 endfacet
 facet normal 0.70710402239168024 0.7071095399703774 -6.2237921989400354e-07
  outer loop
   vertex -0.021245699375867844 0.045500002801418304 5.318861803971231e-05
   vertex -0.021745689213275909 0.046000000089406967 0.012950646691024303
   vertex -0.021245688199996948 0.045500002801418304 0.012750436551868916
  endloop
 endfacet
 facet normal 0.70710743973125423 0 -0.70710612264122752
  outer loop
   vertex 0.020754311233758926 0.042435541749000549 -0.014000893570482731
   vertex 0.021254310384392738 0.0085000013932585716 -0.013500893488526344
   vertex 0.020754311233758926 0.0085000013932585716 -0.014000893570482731
  endloop
 endfacet
 facet normal 0.70710743973125423 0 -0.70710612264122752
  outer loop
   vertex 0.021254310384392738 0.0085000013932585716 -0.013500893488526344
   vertex 0.020754311233758926 0.042435541749000549 -0.014000893570482731
   vertex 0.021254310384392738 0.042533140629529953 -0.013500893488526344
  endloop
 endfacet
 facet normal 0.54889445749168631 0.52408037113332662 -0.65119477817904992
  outer loop
   vertex -0.021245688199996948 0.042533140629529953 -0.013500893488526344
   vertex -0.021745689213275909 0.042435541749000549 -0.014000893570482731
   vertex -0.021745689213275909 0.043042451143264771 -0.013512453995645046
  endloop
 endfacet
 facet normal 0 0.62697164415313034 -0.77904207680196613
  outer loop
   vertex -0.021745689213275909 0.043042451143264771 -0.013512453995645046
   vertex -0.023745689541101456 0.042435541749000549 -0.014000893570482731
   vertex -0.023745689541101456 0.043042451143264771 -0.013512453995645046
  endloop
 endfacet
 facet normal 0 0.62697164415313034 -0.77904207680196613
  outer loop
   vertex -0.023745689541101456 0.042435541749000549 -0.014000893570482731
   vertex -0.021745689213275909 0.043042451143264771 -0.013512453995645046
   vertex -0.021745689213275909 0.042435541749000549 -0.014000893570482731
  endloop
 endfacet
 facet normal 0 -0.70710678118654757 0.70710678118654757
  outer loop
   vertex 0.020754311233758926 0.0085000013932585716 0.013999106362462044
   vertex -0.023745689541101456 0.0080000013113021851 0.013499106280505657
   vertex 0.020754311233758926 0.0080000013113021851 0.013499106280505657
  endloop
 endfacet
 facet normal 0 -0.70710678118654757 0.70710678118654757
  outer loop
   vertex -0.023745689541101456 0.0080000013113021851 0.013499106280505657
   vertex 0.020754311233758926 0.0085000013932585716 0.013999106362462044
   vertex -0.023745689541101456 0.0085000013932585716 0.013999106362462044
  endloop
 endfacet
 facet normal 0.70710727404032192 0.51168317075059733 0.48803651069349324
  outer loop
   vertex -0.021245688199996948 0.045500002801418304 0.012750436551868916
   vertex -0.021745689213275909 0.045000001788139343 0.013999106362462044
   vertex -0.021245688199996948 0.044785931706428528 0.013499106280505657
  endloop
 endfacet
 facet normal 0.70710356984288503 0.51168789865764486 0.48803692061438531
  outer loop
   vertex -0.021745689213275909 0.045000001788139343 0.013999106362462044
   vertex -0.021245688199996948 0.045500002801418304 0.012750436551868916
   vertex -0.021745689213275909 0.046000000089406967 0.012950646691024303
  endloop
 endfacet
 facet normal 0.70710935778650019 0.69074981811494052 -0.15119869346307094
  outer loop
   vertex 0.020754311233758926 0.043042451143264771 -0.013512453995645046
   vertex 0.021254310384392738 0.045500002801418304 5.318861803971231e-05
   vertex 0.021254310384392738 0.042533140629529953 -0.013500893488526344
  endloop
 endfacet
 facet normal 0.70710603913545489 0.6907531115247123 -0.15119916777911513
  outer loop
   vertex 0.021254310384392738 0.045500002801418304 5.318861803971231e-05
   vertex 0.020754311233758926 0.043042451143264771 -0.013512453995645046
   vertex 0.020754311233758926 0.046000000089406967 -8.9723880591918714e-07
  endloop
 endfacet
 facet normal 0 -0.866025459863356 0.49999990286845336
  outer loop
   vertex 0.021254310384392738 0.029017550870776176 0.0019991064909845591
   vertex 0.020254310220479965 0.025553449988365173 -0.0040008937940001488
   vertex 0.021254310384392738 0.025553449988365173 -0.0040008937940001488
  endloop
 endfacet
 facet normal 0 -0.866025459863356 0.49999990286845336
  outer loop
   vertex 0.020254310220479965 0.025553449988365173 -0.0040008937940001488
   vertex 0.021254310384392738 0.029017550870776176 0.0019991064909845591
   vertex 0.020254310220479965 0.029017550870776176 0.0019991064909845591
  endloop
 endfacet
 facet normal 0 0 -1
  outer loop
   vertex 0.021254310384392738 0.029017550870776176 0.0019991064909845591
   vertex 0.020254310220479965 0.02208934910595417 0.0019991064909845591
   vertex 0.020254310220479965 0.029017550870776176 0.0019991064909845591
  endloop
 endfacet
 facet normal 0 -0 -1
  outer loop
   vertex 0.020254310220479965 0.02208934910595417 0.0019991064909845591
   vertex 0.021254310384392738 0.029017550870776176 0.0019991064909845591
   vertex 0.021254310384392738 0.02208934910595417 0.0019991064909845591
  endloop
 endfacet
 facet normal 1 -0 0
  outer loop
   vertex 0.020254310220479965 0.029017550870776176 0.0019991064909845591
   vertex 0.020254310220479965 0.02208934910595417 0.0019991064909845591
   vertex 0.020254310220479965 0.025553449988365173 -0.0040008937940001488
  endloop
 endfacet
 facet normal 0 0 1
  outer loop
   vertex -0.023745689541101456 0.0085000013932585716 0.013999106362462044
   vertex -0.021745698526501656 0.010500001721084118 0.013999106362462044
   vertex -0.023745689541101456 0.045000001788139343 0.013999106362462044
  endloop
 endfacet
 facet normal 0 0 1
  outer loop
   vertex -0.021745698526501656 0.010500001721084118 0.013999106362462044
   vertex -0.023745689541101456 0.0085000013932585716 0.013999106362462044
   vertex 0.020754311233758926 0.0085000013932585716 0.013999106362462044
  endloop
 endfacet
 facet normal 0 0 1
  outer loop
   vertex -0.021745698526501656 0.010500001721084118 0.013999106362462044
   vertex 0.020754311233758926 0.0085000013932585716 0.013999106362462044
   vertex 0.018754320219159126 0.010500001721084118 0.013999106362462044
  endloop
 endfacet
 facet normal 0 0 1
  outer loop
   vertex 0.018754320219159126 0.010500001721084118 0.013999106362462044
   vertex 0.020754311233758926 0.045000001788139343 0.013999106362462044
   vertex 0.01875431090593338 0.045000001788139343 0.013999106362462044
  endloop
 endfacet
 facet normal -0 0 1
  outer loop
   vertex 0.020754311233758926 0.045000001788139343 0.013999106362462044
   vertex 0.018754320219159126 0.010500001721084118 0.013999106362462044
   vertex 0.020754311233758926 0.0085000013932585716 0.013999106362462044
  endloop
 endfacet
 facet normal -0 0 1
  outer loop
   vertex -0.021745689213275909 0.045000001788139343 0.013999106362462044
   vertex -0.023745689541101456 0.045000001788139343 0.013999106362462044
   vertex -0.021745698526501656 0.010500001721084118 0.013999106362462044
  endloop
 endfacet
 facet normal -0.70710085431178671 0 0.7071127080116304
  outer loop
   vertex 0.018754320219159126 0.010500001721084118 0.013999106362462044
   vertex 0.018254311755299568 0.044785931706428528 0.013499106280505657
   vertex 0.018254311755299568 0.011000001803040504 0.013499106280505657
  endloop
 endfacet
 facet normal -0.7071073988689861 -1.9088263245343491e-07 0.70710616350354361
  outer loop
   vertex 0.018254311755299568 0.044785931706428528 0.013499106280505657
   vertex 0.018754320219159126 0.010500001721084118 0.013999106362462044
   vertex 0.01875431090593338 0.045000001788139343 0.013999106362462044
  endloop
 endfacet
 facet normal 0 0.866025459863356 0.49999990286845336
  outer loop
   vertex 0.020254310220479965 0.02208934910595417 0.0019991064909845591
   vertex 0.021254310384392738 0.025553449988365173 -0.0040008937940001488
   vertex 0.020254310220479965 0.025553449988365173 -0.0040008937940001488
  endloop
 endfacet
 facet normal -0 0.866025459863356 0.49999990286845336
  outer loop
   vertex 0.021254310384392738 0.025553449988365173 -0.0040008937940001488
   vertex 0.020254310220479965 0.02208934910595417 0.0019991064909845591
   vertex 0.021254310384392738 0.02208934910595417 0.0019991064909845591
  endloop
 endfacet
 facet normal 1 0 0
  outer loop
   vertex 0.021254310384392738 0.0085000013932585716 -0.013500893488526344
   vertex 0.021254310384392738 0.025553449988365173 -0.0040008937940001488
   vertex 0.021254310384392738 0.02208934910595417 0.0019991064909845591
  endloop
 endfacet
 facet normal 1 0 0
  outer loop
   vertex 0.021254310384392738 0.025553449988365173 -0.0040008937940001488
   vertex 0.021254310384392738 0.0085000013932585716 -0.013500893488526344
   vertex 0.021254310384392738 0.042533140629529953 -0.013500893488526344
  endloop
 endfacet
 facet normal 1 0 0
  outer loop
   vertex 0.021254310384392738 0.025553449988365173 -0.0040008937940001488
   vertex 0.021254310384392738 0.042533140629529953 -0.013500893488526344
   vertex 0.021254310384392738 0.029017550870776176 0.0019991064909845591
  endloop
 endfacet
 facet normal 1 0 -0
  outer loop
   vertex 0.021254310384392738 0.0085000013932585716 0.013499106280505657
   vertex 0.021254310384392738 0.02208934910595417 0.0019991064909845591
   vertex 0.021254310384392738 0.044785931706428528 0.013499106280505657
  endloop
 endfacet
 facet normal 1 0 0
  outer loop
   vertex 0.021254310384392738 0.02208934910595417 0.0019991064909845591
   vertex 0.021254310384392738 0.0085000013932585716 0.013499106280505657
   vertex 0.021254310384392738 0.0085000013932585716 -0.013500893488526344
  endloop
 endfacet
 facet normal 1 0 0
  outer loop
   vertex 0.021254310384392738 0.044785931706428528 0.013499106280505657
   vertex 0.021254310384392738 0.02208934910595417 0.0019991064909845591
   vertex 0.021254310384392738 0.029017550870776176 0.0019991064909845591
  endloop
 endfacet
 facet normal 1 -0 0
  outer loop
   vertex 0.021254310384392738 0.044785931706428528 0.013499106280505657
   vertex 0.021254310384392738 0.029017550870776176 0.0019991064909845591
   vertex 0.021254310384392738 0.042533140629529953 -0.013500893488526344
  endloop
 endfacet
 facet normal 1 0 0
  outer loop
   vertex 0.021254310384392738 0.044785931706428528 0.013499106280505657
   vertex 0.021254310384392738 0.042533140629529953 -0.013500893488526344
   vertex 0.021254310384392738 0.045500002801418304 5.318861803971231e-05
  endloop
 endfacet
 facet normal 1 0 -0
  outer loop
   vertex 0.021254310384392738 0.044785931706428528 0.013499106280505657
   vertex 0.021254310384392738 0.045500002801418304 5.318861803971231e-05
   vertex 0.021254310384392738 0.045500002801418304 0.012750436551868916
  endloop
 endfacet
 facet normal -0.70710940411548906 0.69074987434590673 -0.1511982199053685
  outer loop
   vertex 0.018254321068525314 0.045500002801418304 5.318861803971231e-05
   vertex 0.01875431090593338 0.043042451143264771 -0.013512453995645046
   vertex 0.018254311755299568 0.042533140629529953 -0.013500893488526344
  endloop
 endfacet
 facet normal -0.70710606488326633 0.69075318818000975 -0.15119869716520076
  outer loop
   vertex 0.01875431090593338 0.043042451143264771 -0.013512453995645046
   vertex 0.018254321068525314 0.045500002801418304 5.318861803971231e-05
   vertex 0.018754320219159126 0.046000000089406967 -8.9723880591918714e-07
  endloop
 endfacet
 facet normal -0.54889588621773289 0.5240797829177487 -0.65119404729322805
  outer loop
   vertex 0.01875431090593338 0.042435541749000549 -0.014000893570482731
   vertex 0.018254311755299568 0.042533140629529953 -0.013500893488526344
   vertex 0.01875431090593338 0.043042451143264771 -0.013512453995645046
  endloop
 endfacet
 facet normal 0.70709964033946138 -2.0620846147425896e-07 -0.70711392196149125
  outer loop
   vertex -0.021745689213275909 0.042435541749000549 -0.014000893570482731
   vertex -0.021245688199996948 0.011000001803040504 -0.013500893488526344
   vertex -0.021745698526501656 0.010500001721084118 -0.014000893570482731
  endloop
 endfacet
 facet normal 0.70710612264245409 0 -0.70710743973002754
  outer loop
   vertex -0.021245688199996948 0.011000001803040504 -0.013500893488526344
   vertex -0.021745689213275909 0.042435541749000549 -0.014000893570482731
   vertex -0.021245688199996948 0.042533140629529953 -0.013500893488526344
  endloop
 endfacet
 facet normal 0 -0.866025459863356 0.49999990286845336
  outer loop
   vertex -0.023245688527822495 0.029017550870776176 0.0019991064909845591
   vertex -0.024245688691735268 0.025553449988365173 -0.0040008937940001488
   vertex -0.023245688527822495 0.025553449988365173 -0.0040008937940001488
  endloop
 endfacet
 facet normal 0 -0.866025459863356 0.49999990286845336
  outer loop
   vertex -0.024245688691735268 0.025553449988365173 -0.0040008937940001488
   vertex -0.023245688527822495 0.029017550870776176 0.0019991064909845591
   vertex -0.024245688691735268 0.029017550870776176 0.0019991064909845591
  endloop
 endfacet
 facet normal 0 -0.70710678118654757 -0.70710678118654757
  outer loop
   vertex 0.020754311233758926 0.0085000013932585716 -0.014000893570482731
   vertex -0.023745689541101456 0.0080000013113021851 -0.013500893488526344
   vertex -0.023745689541101456 0.0085000013932585716 -0.014000893570482731
  endloop
 endfacet
 facet normal 0 -0.70710678118654757 -0.70710678118654757
  outer loop
   vertex -0.023745689541101456 0.0080000013113021851 -0.013500893488526344
   vertex 0.020754311233758926 0.0085000013932585716 -0.014000893570482731
   vertex 0.020754311233758926 0.0080000013113021851 -0.013500893488526344
  endloop
 endfacet
 facet normal -0.70710859112697733 0.51168221766436139 0.48803560165268917
  outer loop
   vertex -0.023745689541101456 0.045000001788139343 0.013999106362462044
   vertex -0.024245688691735268 0.045500002801418304 0.012750436551868916
   vertex -0.024245688691735268 0.044785931706428528 0.013499106280505657
  endloop
 endfacet
 facet normal -0.70710488693644002 0.51168694557258809 0.48803601158234172
  outer loop
   vertex -0.024245688691735268 0.045500002801418304 0.012750436551868916
   vertex -0.023745689541101456 0.045000001788139343 0.013999106362462044
   vertex -0.023745689541101456 0.046000000089406967 0.012950646691024303
  endloop
 endfacet
 facet normal 0.7070996326755018 -1.9088053598059528e-07 0.70711392962530017
  outer loop
   vertex -0.021245688199996948 0.011000001803040504 0.013499106280505657
   vertex -0.021745689213275909 0.045000001788139343 0.013999106362462044
   vertex -0.021745698526501656 0.010500001721084118 0.013999106362462044
  endloop
 endfacet
 facet normal 0.70710612264245409 -0 0.70710743973002754
  outer loop
   vertex -0.021745689213275909 0.045000001788139343 0.013999106362462044
   vertex -0.021245688199996948 0.011000001803040504 0.013499106280505657
   vertex -0.021245688199996948 0.044785931706428528 0.013499106280505657
  endloop
 endfacet
 facet normal -0.57735098612262814 -0.57734991072279063 0.57734991072279063
  outer loop
   vertex -0.024245688691735268 0.0085000013932585716 0.013499106280505657
   vertex -0.023745689541101456 0.0080000013113021851 0.013499106280505657
   vertex -0.023745689541101456 0.0085000013932585716 0.013999106362462044
  endloop
 endfacet
 facet normal 0.70710809629593707 0.69075117222192373 -0.15119840682617605
  outer loop
   vertex -0.021745689213275909 0.043042451143264771 -0.013512453995645046
   vertex -0.021245699375867844 0.045500002801418304 5.318861803971231e-05
   vertex -0.021245688199996948 0.042533140629529953 -0.013500893488526344
  endloop
 endfacet
 facet normal 0.70710606488326644 0.69075318818000941 -0.15119869716520071
  outer loop
   vertex -0.021245699375867844 0.045500002801418304 5.318861803971231e-05
   vertex -0.021745689213275909 0.043042451143264771 -0.013512453995645046
   vertex -0.021745698526501656 0.046000000089406967 -8.9723880591918714e-07
  endloop
 endfacet
 facet normal 0 0.866025459863356 0.49999990286845336
  outer loop
   vertex -0.024245688691735268 0.02208934910595417 0.0019991064909845591
   vertex -0.023245688527822495 0.025553449988365173 -0.0040008937940001488
   vertex -0.024245688691735268 0.025553449988365173 -0.0040008937940001488
  endloop
 endfacet
 facet normal -0 0.866025459863356 0.49999990286845336
  outer loop
   vertex -0.023245688527822495 0.025553449988365173 -0.0040008937940001488
   vertex -0.024245688691735268 0.02208934910595417 0.0019991064909845591
   vertex -0.023245688527822495 0.02208934910595417 0.0019991064909845591
  endloop
 endfacet
 facet normal 0.57735098612262814 -0.57734991072279063 -0.57734991072279063
  outer loop
   vertex 0.021254310384392738 0.0085000013932585716 -0.013500893488526344
   vertex 0.020754311233758926 0.0080000013113021851 -0.013500893488526344
   vertex 0.020754311233758926 0.0085000013932585716 -0.014000893570482731
  endloop
 endfacet
 facet normal 0 0.7236326796023006 0.69018529759159175
  outer loop
   vertex -0.023745689541101456 0.045000001788139343 0.013999106362462044
   vertex -0.021745689213275909 0.046000000089406967 0.012950646691024303
   vertex -0.023745689541101456 0.046000000089406967 0.012950646691024303
  endloop
 endfacet
 facet normal -0 0.7236326796023006 0.69018529759159175
  outer loop
   vertex -0.021745689213275909 0.046000000089406967 0.012950646691024303
   vertex -0.023745689541101456 0.045000001788139343 0.013999106362462044
   vertex -0.021745689213275909 0.045000001788139343 0.013999106362462044
  endloop
 endfacet
 facet normal 0 0.70710678118654746 0.70710678118654746
  outer loop
   vertex -0.021745698526501656 0.010500001721084118 0.013999106362462044
   vertex 0.018254311755299568 0.011000001803040504 0.013499106280505657
   vertex -0.021245688199996948 0.011000001803040504 0.013499106280505657
  endloop
 endfacet
 facet normal -0 0.70710678118654757 0.70710678118654757
  outer loop
   vertex 0.018254311755299568 0.011000001803040504 0.013499106280505657
   vertex -0.021745698526501656 0.010500001721084118 0.013999106362462044
   vertex 0.018754320219159126 0.010500001721084118 0.013999106362462044
  endloop
 endfacet
 facet normal -0.70710743973125412 0 0.70710612264122741
  outer loop
   vertex -0.023745689541101456 0.045000001788139343 0.013999106362462044
   vertex -0.024245688691735268 0.0085000013932585716 0.013499106280505657
   vertex -0.023745689541101456 0.0085000013932585716 0.013999106362462044
  endloop
 endfacet
 facet normal -0.70710743973125423 0 0.70710612264122752
  outer loop
   vertex -0.024245688691735268 0.0085000013932585716 0.013499106280505657
   vertex -0.023745689541101456 0.045000001788139343 0.013999106362462044
   vertex -0.024245688691735268 0.044785931706428528 0.013499106280505657
  endloop
 endfacet
 facet normal -0.57735098612262814 -0.57734991072279063 -0.57734991072279063
  outer loop
   vertex -0.023745689541101456 0.0085000013932585716 -0.014000893570482731
   vertex -0.023745689541101456 0.0080000013113021851 -0.013500893488526344
   vertex -0.024245688691735268 0.0085000013932585716 -0.013500893488526344
  endloop
 endfacet
 facet normal -1 0 0
  outer loop
   vertex -0.023245688527822495 0.029017550870776176 0.0019991064909845591
   vertex -0.023245688527822495 0.025553449988365173 -0.0040008937940001488
   vertex -0.023245688527822495 0.02208934910595417 0.0019991064909845591
  endloop
 endfacet
 facet normal 0 1 0
  outer loop
   vertex 0.01875431090593338 0.046000000089406967 0.012950646691024303
   vertex 0.020754311233758926 0.046000000089406967 -8.9723880591918714e-07
   vertex 0.018754320219159126 0.046000000089406967 -8.9723880591918714e-07
  endloop
 endfacet
 facet normal -0 1 0
  outer loop
   vertex 0.020754311233758926 0.046000000089406967 -8.9723880591918714e-07
   vertex 0.01875431090593338 0.046000000089406967 0.012950646691024303
   vertex 0.020754311233758926 0.046000000089406967 0.012950646691024303
  endloop
 endfacet
 facet normal 0.70710859112697733 0.51168221766436139 0.48803560165268917
  outer loop
   vertex 0.021254310384392738 0.045500002801418304 0.012750436551868916
   vertex 0.020754311233758926 0.045000001788139343 0.013999106362462044
   vertex 0.021254310384392738 0.044785931706428528 0.013499106280505657
  endloop
 endfacet
 facet normal 0.70710488693644002 0.51168694557258809 0.48803601158234172
  outer loop
   vertex 0.020754311233758926 0.045000001788139343 0.013999106362462044
   vertex 0.021254310384392738 0.045500002801418304 0.012750436551868916
   vertex 0.020754311233758926 0.046000000089406967 0.012950646691024303
  endloop
 endfacet
 facet normal -1 -0 0
  outer loop
   vertex -0.024245688691735268 0.0085000013932585716 0.013499106280505657
   vertex -0.024245688691735268 0.02208934910595417 0.0019991064909845591
   vertex -0.024245688691735268 0.0085000013932585716 -0.013500893488526344
  endloop
 endfacet
 facet normal -1 0 0
  outer loop
   vertex -0.024245688691735268 0.02208934910595417 0.0019991064909845591
   vertex -0.024245688691735268 0.0085000013932585716 0.013499106280505657
   vertex -0.024245688691735268 0.044785931706428528 0.013499106280505657
  endloop
 endfacet
 facet normal -1 0 0
  outer loop
   vertex -0.024245688691735268 0.02208934910595417 0.0019991064909845591
   vertex -0.024245688691735268 0.044785931706428528 0.013499106280505657
   vertex -0.024245688691735268 0.029017550870776176 0.0019991064909845591
  endloop
 endfacet
 facet normal -1 0 0
  outer loop
   vertex -0.024245688691735268 0.029017550870776176 0.0019991064909845591
   vertex -0.024245688691735268 0.044785931706428528 0.013499106280505657
   vertex -0.024245688691735268 0.042533140629529953 -0.013500893488526344
  endloop
 endfacet
 facet normal -1 0 -0
  outer loop
   vertex -0.024245688691735268 0.042533140629529953 -0.013500893488526344
   vertex -0.024245688691735268 0.044785931706428528 0.013499106280505657
   vertex -0.024245688691735268 0.045500002801418304 5.318861803971231e-05
  endloop
 endfacet
 facet normal -1 0 0
  outer loop
   vertex -0.024245688691735268 0.045500002801418304 5.318861803971231e-05
   vertex -0.024245688691735268 0.044785931706428528 0.013499106280505657
   vertex -0.024245688691735268 0.045500002801418304 0.012750436551868916
  endloop
 endfacet
 facet normal -1 0 -0
  outer loop
   vertex -0.024245688691735268 0.0085000013932585716 -0.013500893488526344
   vertex -0.024245688691735268 0.025553449988365173 -0.0040008937940001488
   vertex -0.024245688691735268 0.042533140629529953 -0.013500893488526344
  endloop
 endfacet
 facet normal -1 0 0
  outer loop
   vertex -0.024245688691735268 0.025553449988365173 -0.0040008937940001488
   vertex -0.024245688691735268 0.0085000013932585716 -0.013500893488526344
   vertex -0.024245688691735268 0.02208934910595417 0.0019991064909845591
  endloop
 endfacet
 facet normal -1 0 0
  outer loop
   vertex -0.024245688691735268 0.042533140629529953 -0.013500893488526344
   vertex -0.024245688691735268 0.025553449988365173 -0.0040008937940001488
   vertex -0.024245688691735268 0.029017550870776176 0.0019991064909845591
  endloop
 endfacet
 facet normal 0.70710546409161434 0.70710809827902754 0
  outer loop
   vertex 0.020754311233758926 0.046000000089406967 -8.9723880591918714e-07
   vertex 0.021254310384392738 0.045500002801418304 0.012750436551868916
   vertex 0.021254310384392738 0.045500002801418304 5.318861803971231e-05
  endloop
 endfacet
 facet normal 0.70710546409161423 0.70710809827902743 -0
  outer loop
   vertex 0.021254310384392738 0.045500002801418304 0.012750436551868916
   vertex 0.020754311233758926 0.046000000089406967 -8.9723880591918714e-07
   vertex 0.020754311233758926 0.046000000089406967 0.012950646691024303
  endloop
 endfacet
 facet normal 0 0.7236326796023006 0.69018529759159175
  outer loop
   vertex 0.01875431090593338 0.045000001788139343 0.013999106362462044
   vertex 0.020754311233758926 0.046000000089406967 0.012950646691024303
   vertex 0.01875431090593338 0.046000000089406967 0.012950646691024303
  endloop
 endfacet
 facet normal -0 0.7236326796023006 0.69018529759159175
  outer loop
   vertex 0.020754311233758926 0.046000000089406967 0.012950646691024303
   vertex 0.01875431090593338 0.045000001788139343 0.013999106362462044
   vertex 0.020754311233758926 0.045000001788139343 0.013999106362462044
  endloop
 endfacet
 facet normal 0 0 -1
  outer loop
   vertex -0.023245688527822495 0.029017550870776176 0.0019991064909845591
   vertex -0.024245688691735268 0.02208934910595417 0.0019991064909845591
   vertex -0.024245688691735268 0.029017550870776176 0.0019991064909845591
  endloop
 endfacet
 facet normal 0 -0 -1
  outer loop
   vertex -0.024245688691735268 0.02208934910595417 0.0019991064909845591
   vertex -0.023245688527822495 0.029017550870776176 0.0019991064909845591
   vertex -0.023245688527822495 0.02208934910595417 0.0019991064909845591
  endloop
 endfacet
 facet normal -0.70710546409161434 0.70710809827902754 0
  outer loop
   vertex -0.023745689541101456 0.046000000089406967 0.012950646691024303
   vertex -0.024245688691735268 0.045500002801418304 5.318861803971231e-05
   vertex -0.024245688691735268 0.045500002801418304 0.012750436551868916
  endloop
 endfacet
 facet normal -0.70710546409161423 0.70710809827902743 0
  outer loop
   vertex -0.024245688691735268 0.045500002801418304 5.318861803971231e-05
   vertex -0.023745689541101456 0.046000000089406967 0.012950646691024303
   vertex -0.023745689541101456 0.046000000089406967 -8.9723880591918714e-07
  endloop
 endfacet
 facet normal -0.70710743973125423 -0.70710612264122752 0
  outer loop
   vertex -0.024245688691735268 0.0085000013932585716 0.013499106280505657
   vertex -0.023745689541101456 0.0080000013113021851 -0.013500893488526344
   vertex -0.023745689541101456 0.0080000013113021851 0.013499106280505657
  endloop
 endfacet
 facet normal -0.70710743973125423 -0.70710612264122752 -0
  outer loop
   vertex -0.023745689541101456 0.0080000013113021851 -0.013500893488526344
   vertex -0.024245688691735268 0.0085000013932585716 0.013499106280505657
   vertex -0.024245688691735268 0.0085000013932585716 -0.013500893488526344
  endloop
 endfacet
 facet normal 0.70710743973125423 -0.70710612264122752 0
  outer loop
   vertex 0.020754311233758926 0.0080000013113021851 -0.013500893488526344
   vertex 0.021254310384392738 0.0085000013932585716 0.013499106280505657
   vertex 0.020754311233758926 0.0080000013113021851 0.013499106280505657
  endloop
 endfacet
 facet normal 0.70710743973125423 -0.70710612264122752 0
  outer loop
   vertex 0.021254310384392738 0.0085000013932585716 0.013499106280505657
   vertex 0.020754311233758926 0.0080000013113021851 -0.013500893488526344
   vertex 0.021254310384392738 0.0085000013932585716 -0.013500893488526344
  endloop
 endfacet
 facet normal 0 0.97687139342361251 -0.21382768929820539
  outer loop
   vertex -0.023745689541101456 0.046000000089406967 -8.9723880591918714e-07
   vertex -0.021745689213275909 0.043042451143264771 -0.013512453995645046
   vertex -0.023745689541101456 0.043042451143264771 -0.013512453995645046
  endloop
 endfacet
 facet normal 0 0.9768713934236124 -0.21382768929820536
  outer loop
   vertex -0.021745689213275909 0.043042451143264771 -0.013512453995645046
   vertex -0.023745689541101456 0.046000000089406967 -8.9723880591918714e-07
   vertex -0.021745698526501656 0.046000000089406967 -8.9723880591918714e-07
  endloop
 endfacet
 facet normal 0.54889588621773289 0.5240797829177487 -0.65119404729322805
  outer loop
   vertex 0.021254310384392738 0.042533140629529953 -0.013500893488526344
   vertex 0.020754311233758926 0.042435541749000549 -0.014000893570482731
   vertex 0.020754311233758926 0.043042451143264771 -0.013512453995645046
  endloop
 endfacet
 facet normal 0 0.62697164415313034 -0.77904207680196613
  outer loop
   vertex 0.020754311233758926 0.043042451143264771 -0.013512453995645046
   vertex 0.01875431090593338 0.042435541749000549 -0.014000893570482731
   vertex 0.01875431090593338 0.043042451143264771 -0.013512453995645046
  endloop
 endfacet
 facet normal 0 0.62697164415313034 -0.77904207680196613
  outer loop
   vertex 0.01875431090593338 0.042435541749000549 -0.014000893570482731
   vertex 0.020754311233758926 0.043042451143264771 -0.013512453995645046
   vertex 0.020754311233758926 0.042435541749000549 -0.014000893570482731
  endloop
 endfacet
 facet normal -0.70710743973125423 0 -0.70710612264122752
  outer loop
   vertex -0.024245688691735268 0.042533140629529953 -0.013500893488526344
   vertex -0.023745689541101456 0.0085000013932585716 -0.014000893570482731
   vertex -0.024245688691735268 0.0085000013932585716 -0.013500893488526344
  endloop
 endfacet
 facet normal -0.70710743973125423 0 -0.70710612264122752
  outer loop
   vertex -0.023745689541101456 0.0085000013932585716 -0.014000893570482731
   vertex -0.024245688691735268 0.042533140629529953 -0.013500893488526344
   vertex -0.023745689541101456 0.042435541749000549 -0.014000893570482731
  endloop
 endfacet
 facet normal -0.70710935778650019 0.69074981811494052 -0.15119869346307094
  outer loop
   vertex -0.024245688691735268 0.045500002801418304 5.318861803971231e-05
   vertex -0.023745689541101456 0.043042451143264771 -0.013512453995645046
   vertex -0.024245688691735268 0.042533140629529953 -0.013500893488526344
  endloop
 endfacet
 facet normal -0.70710603913545467 0.69075311152471242 -0.15119916777911516
  outer loop
   vertex -0.023745689541101456 0.043042451143264771 -0.013512453995645046
   vertex -0.024245688691735268 0.045500002801418304 5.318861803971231e-05
   vertex -0.023745689541101456 0.046000000089406967 -8.9723880591918714e-07
  endloop
 endfacet
 facet normal -1 -0 0
  outer loop
   vertex 0.018254311755299568 0.011000001803040504 0.013499106280505657
   vertex 0.018254311755299568 0.022371469065546989 0.0031810861546546221
   vertex 0.018254311755299568 0.011000001803040504 -0.013500893488526344
  endloop
 endfacet
 facet normal -1 0 0
  outer loop
   vertex 0.018254311755299568 0.022371469065546989 0.0031810861546546221
   vertex 0.018254311755299568 0.011000001803040504 0.013499106280505657
   vertex 0.018254311755299568 0.044785931706428528 0.013499106280505657
  endloop
 endfacet
 facet normal -1 0 0
  outer loop
   vertex 0.018254311755299568 0.011000001803040504 -0.013500893488526344
   vertex 0.018254311755299568 0.022371469065546989 0.0031810861546546221
   vertex 0.018254311755299568 0.02105344831943512 -8.9441971340420423e-07
  endloop
 endfacet
 facet normal -1 0 0
  outer loop
   vertex 0.018254311755299568 0.022371469065546989 0.0031810861546546221
   vertex 0.018254311755299568 0.044785931706428528 0.013499106280505657
   vertex 0.018254311755299568 0.025553448125720024 0.0044991057366132736
  endloop
 endfacet
 facet normal -1 0 0
  outer loop
   vertex 0.018254311755299568 0.025553448125720024 0.0044991057366132736
   vertex 0.018254311755299568 0.044785931706428528 0.013499106280505657
   vertex 0.018254311755299568 0.028735429048538208 0.0031810861546546221
  endloop
 endfacet
 facet normal -1 0 0
  outer loop
   vertex 0.018254311755299568 0.028735429048538208 0.0031810861546546221
   vertex 0.018254311755299568 0.044785931706428528 0.013499106280505657
   vertex 0.018254311755299568 0.030053449794650078 -8.9441971340420423e-07
  endloop
 endfacet
 facet normal -1 0 0
  outer loop
   vertex 0.018254311755299568 0.030053449794650078 -8.9441971340420423e-07
   vertex 0.018254311755299568 0.044785931706428528 0.013499106280505657
   vertex 0.018254311755299568 0.042533140629529953 -0.013500893488526344
  endloop
 endfacet
 facet normal -0.99999999998704436 5.0726896085680611e-06 -4.2324851791907834e-07
  outer loop
   vertex 0.018254311755299568 0.042533140629529953 -0.013500893488526344
   vertex 0.018254311755299568 0.044785931706428528 0.013499106280505657
   vertex 0.018254321068525314 0.045500002801418304 5.318861803971231e-05
  endloop
 endfacet
 facet normal -0.99999999999943534 -7.690230373410091e-07 -7.3348380646615195e-07
  outer loop
   vertex 0.018254321068525314 0.045500002801418304 5.318861803971231e-05
   vertex 0.018254311755299568 0.044785931706428528 0.013499106280505657
   vertex 0.018254311755299568 0.045500002801418304 0.012750436551868916
  endloop
 endfacet
 facet normal -1 0 -0
  outer loop
   vertex 0.018254311755299568 0.011000001803040504 -0.013500893488526344
   vertex 0.018254311755299568 0.022371469065546989 -0.0031828749924898148
   vertex 0.018254311755299568 0.042533140629529953 -0.013500893488526344
  endloop
 endfacet
 facet normal -1 0 0
  outer loop
   vertex 0.018254311755299568 0.022371469065546989 -0.0031828749924898148
   vertex 0.018254311755299568 0.011000001803040504 -0.013500893488526344
   vertex 0.018254311755299568 0.02105344831943512 -8.9441971340420423e-07
  endloop
 endfacet
 facet normal -1 0 0
  outer loop
   vertex 0.018254311755299568 0.042533140629529953 -0.013500893488526344
   vertex 0.018254311755299568 0.022371469065546989 -0.0031828749924898148
   vertex 0.018254311755299568 0.025553448125720024 -0.0045008943416178226
  endloop
 endfacet
 facet normal -1 0 0
  outer loop
   vertex 0.018254311755299568 0.042533140629529953 -0.013500893488526344
   vertex 0.018254311755299568 0.025553448125720024 -0.0045008943416178226
   vertex 0.018254311755299568 0.028735429048538208 -0.0031828749924898148
  endloop
 endfacet
 facet normal -1 0 0
  outer loop
   vertex 0.018254311755299568 0.042533140629529953 -0.013500893488526344
   vertex 0.018254311755299568 0.028735429048538208 -0.0031828749924898148
   vertex 0.018254311755299568 0.030053449794650078 -8.9441971340420423e-07
  endloop
 endfacet
 facet normal 0 0 -1
  outer loop
   vertex -0.021745689213275909 0.042435541749000549 -0.014000893570482731
   vertex -0.023745689541101456 0.0085000013932585716 -0.014000893570482731
   vertex -0.023745689541101456 0.042435541749000549 -0.014000893570482731
  endloop
 endfacet
 facet normal 0 0 -1
  outer loop
   vertex -0.023745689541101456 0.0085000013932585716 -0.014000893570482731
   vertex -0.021745689213275909 0.042435541749000549 -0.014000893570482731
   vertex -0.021745698526501656 0.010500001721084118 -0.014000893570482731
  endloop
 endfacet
 facet normal 0 0 -1
  outer loop
   vertex 0.020754311233758926 0.042435541749000549 -0.014000893570482731
   vertex 0.01875431090593338 0.010500001721084118 -0.014000893570482731
   vertex 0.01875431090593338 0.042435541749000549 -0.014000893570482731
  endloop
 endfacet
 facet normal 0 0 -1
  outer loop
   vertex -0.021745698526501656 0.010500001721084118 -0.014000893570482731
   vertex 0.020754311233758926 0.0085000013932585716 -0.014000893570482731
   vertex -0.023745689541101456 0.0085000013932585716 -0.014000893570482731
  endloop
 endfacet
 facet normal 0 0 -1
  outer loop
   vertex 0.020754311233758926 0.0085000013932585716 -0.014000893570482731
   vertex -0.021745698526501656 0.010500001721084118 -0.014000893570482731
   vertex 0.01875431090593338 0.010500001721084118 -0.014000893570482731
  endloop
 endfacet
 facet normal 0 0 -1
  outer loop
   vertex 0.020754311233758926 0.0085000013932585716 -0.014000893570482731
   vertex 0.01875431090593338 0.010500001721084118 -0.014000893570482731
   vertex 0.020754311233758926 0.042435541749000549 -0.014000893570482731
  endloop
 endfacet
 facet normal -0.70710859112697733 0.51168221766436139 0.48803560165268917
  outer loop
   vertex 0.01875431090593338 0.045000001788139343 0.013999106362462044
   vertex 0.018254311755299568 0.045500002801418304 0.012750436551868916
   vertex 0.018254311755299568 0.044785931706428528 0.013499106280505657
  endloop
 endfacet
 facet normal -0.70710488693644002 0.51168694557258809 0.48803601158234172
  outer loop
   vertex 0.018254311755299568 0.045500002801418304 0.012750436551868916
   vertex 0.01875431090593338 0.045000001788139343 0.013999106362462044
   vertex 0.01875431090593338 0.046000000089406967 0.012950646691024303
  endloop
 endfacet
 facet normal -0.70710549159254643 0.70710807077801385 -5.0846702950830862e-07
  outer loop
   vertex 0.018254321068525314 0.045500002801418304 5.318861803971231e-05
   vertex 0.01875431090593338 0.046000000089406967 0.012950646691024303
   vertex 0.018754320219159126 0.046000000089406967 -8.9723880591918714e-07
  endloop
 endfacet
 facet normal -0.7071053602518933 0.70710820211815606 -5.186503312104711e-07
  outer loop
   vertex 0.01875431090593338 0.046000000089406967 0.012950646691024303
   vertex 0.018254321068525314 0.045500002801418304 5.318861803971231e-05
   vertex 0.018254311755299568 0.045500002801418304 0.012750436551868916
  endloop
 endfacet
 facet normal -0.79335328457923615 0 -0.60876150161400433
  outer loop
   vertex -0.0077942288480699062 0.0080000013113021851 -0.0044999998062849045
   vertex -0.0063639609143137932 0 -0.0063639609143137932
   vertex -0.0077942288480699062 0 -0.0044999998062849045
  endloop
 endfacet
 facet normal -0.79335328457923615 0 -0.60876150161400433
  outer loop
   vertex -0.0063639609143137932 0 -0.0063639609143137932
   vertex -0.0077942288480699062 0.0080000013113021851 -0.0044999998062849045
   vertex -0.0063639609143137932 0.0080000013113021851 -0.0063639609143137932
  endloop
 endfacet
 facet normal -0.38268350962687903 0 -0.92387950050840195
  outer loop
   vertex -0.0023293714039027691 0.0080000013113021851 -0.0086933327838778496
   vertex -0.0044999998062849045 0 -0.0077942288480699062
   vertex -0.0044999998062849045 0.0080000013113021851 -0.0077942288480699062
  endloop
 endfacet
 facet normal -0.38268350962687903 -0 -0.92387950050840195
  outer loop
   vertex -0.0044999998062849045 0 -0.0077942288480699062
   vertex -0.0023293714039027691 0.0080000013113021851 -0.0086933327838778496
   vertex -0.0023293714039027691 0 -0.0086933327838778496
  endloop
 endfacet
 facet normal -0.60876150161400433 0 -0.79335328457923615
  outer loop
   vertex -0.0044999998062849045 0.0080000013113021851 -0.0077942288480699062
   vertex -0.0063639609143137932 0 -0.0063639609143137932
   vertex -0.0063639609143137932 0.0080000013113021851 -0.0063639609143137932
  endloop
 endfacet
 facet normal -0.60876150161400433 -0 -0.79335328457923615
  outer loop
   vertex -0.0063639609143137932 0 -0.0063639609143137932
   vertex -0.0044999998062849045 0.0080000013113021851 -0.0077942288480699062
   vertex -0.0044999998062849045 0 -0.0077942288480699062
  endloop
 endfacet
 facet normal -0.92387950050840195 0 -0.38268350962687903
  outer loop
   vertex -0.0086933327838778496 0.0080000013113021851 -0.0023293714039027691
   vertex -0.0077942288480699062 0 -0.0044999998062849045
   vertex -0.0086933327838778496 0 -0.0023293714039027691
  endloop
 endfacet
 facet normal -0.92387950050840195 0 -0.38268350962687903
  outer loop
   vertex -0.0077942288480699062 0 -0.0044999998062849045
   vertex -0.0086933327838778496 0.0080000013113021851 -0.0023293714039027691
   vertex -0.0077942288480699062 0.0080000013113021851 -0.0044999998062849045
  endloop
 endfacet
 facet normal -0.99144490182694567 1.1674596840630231e-18 -0.13052588494761619
  outer loop
   vertex -0.008999999612569809 0.0080000013113021851 2.8199664484680564e-18
   vertex -0.0086933327838778496 0 -0.0023293714039027691
   vertex -0.008999999612569809 0 2.8199664484680564e-18
  endloop
 endfacet
 facet normal -0.99144490182694567 1.1674596840630231e-18 -0.13052588494761619
  outer loop
   vertex -0.0086933327838778496 0 -0.0023293714039027691
   vertex -0.008999999612569809 0.0080000013113021851 2.8199664484680564e-18
   vertex -0.0086933327838778496 0.0080000013113021851 -0.0023293714039027691
  endloop
 endfacet
 facet normal -0.99144490182694545 1.1674596840630258e-18 0.13052588494761649
  outer loop
   vertex -0.0086933327838778496 0.0080000013113021851 0.0023293714039027691
   vertex -0.008999999612569809 0 2.8199664484680564e-18
   vertex -0.0086933327838778496 0 0.0023293714039027691
  endloop
 endfacet
 facet normal -0.99144490182694545 1.1674596840630258e-18 0.13052588494761649
  outer loop
   vertex -0.008999999612569809 0 2.8199664484680564e-18
   vertex -0.0086933327838778496 0.0080000013113021851 0.0023293714039027691
   vertex -0.008999999612569809 0.0080000013113021851 2.8199664484680564e-18
  endloop
 endfacet
 facet normal -0.92387950050840195 0 0.38268350962687908
  outer loop
   vertex -0.0077942288480699062 0.0080000013113021851 0.0044999998062849045
   vertex -0.0086933327838778496 0 0.0023293714039027691
   vertex -0.0077942288480699062 -2.2559731587744451e-17 0.0044999998062849045
  endloop
 endfacet
 facet normal -0.92387950050840195 0 0.38268350962687903
  outer loop
   vertex -0.0086933327838778496 0 0.0023293714039027691
   vertex -0.0077942288480699062 0.0080000013113021851 0.0044999998062849045
   vertex -0.0086933327838778496 0.0080000013113021851 0.0023293714039027691
  endloop
 endfacet
 facet normal 0 -1 0
  outer loop
   vertex 0.0023293714039027691 0 -0.0086933327838778496
   vertex -0.0023293714039027691 0 -0.0086933327838778496
   vertex -1.4099832862725741e-17 0 -0.008999999612569809
  endloop
 endfacet
 facet normal 0 -1 0
  outer loop
   vertex -0.0023293714039027691 0 -0.0086933327838778496
   vertex 0.0023293714039027691 0 -0.0086933327838778496
   vertex 0.0044999998062849045 0 -0.0077942288480699062
  endloop
 endfacet
 facet normal -0 -1 0
  outer loop
   vertex -0.0023293714039027691 0 -0.0086933327838778496
   vertex 0.0044999998062849045 0 -0.0077942288480699062
   vertex -0.0044999998062849045 0 -0.0077942288480699062
  endloop
 endfacet
 facet normal 0 -1 0
  outer loop
   vertex -0.0044999998062849045 0 -0.0077942288480699062
   vertex 0.0044999998062849045 0 -0.0077942288480699062
   vertex 0.0063639609143137932 0 -0.0063639609143137932
  endloop
 endfacet
 facet normal -0 -1 0
  outer loop
   vertex -0.0044999998062849045 0 -0.0077942288480699062
   vertex 0.0063639609143137932 0 -0.0063639609143137932
   vertex -0.0063639609143137932 0 -0.0063639609143137932
  endloop
 endfacet
 facet normal 0 -1 0
  outer loop
   vertex -0.0063639609143137932 0 -0.0063639609143137932
   vertex 0.0063639609143137932 0 -0.0063639609143137932
   vertex 0.0077942288480699062 0 -0.0044999998062849045
  endloop
 endfacet
 facet normal -0 -1 0
  outer loop
   vertex -0.0063639609143137932 0 -0.0063639609143137932
   vertex 0.0077942288480699062 0 -0.0044999998062849045
   vertex -0.0077942288480699062 0 -0.0044999998062849045
  endloop
 endfacet
 facet normal 0 -1 0
  outer loop
   vertex -0.0077942288480699062 0 -0.0044999998062849045
   vertex 0.0077942288480699062 0 -0.0044999998062849045
   vertex -1.6919799104398645e-17 0 -0.0040000001899898052
  endloop
 endfacet
 facet normal 0 -1 0
  outer loop
   vertex -1.6919799104398645e-17 0 -0.0040000001899898052
   vertex 0.0077942288480699062 0 -0.0044999998062849045
   vertex 0.0086933327838778496 0 -0.0023293714039027691
  endloop
 endfacet
 facet normal -0 -1 0
  outer loop
   vertex -1.6919799104398645e-17 0 -0.0040000001899898052
   vertex 0.0086933327838778496 0 -0.0023293714039027691
   vertex 0.0034641015809029341 0 -0.0020000000949949026
  endloop
 endfacet
 facet normal 0 -1 0
  outer loop
   vertex 0.0034641015809029341 0 -0.0020000000949949026
   vertex 0.0086933327838778496 0 -0.0023293714039027691
   vertex 0.008999999612569809 0 2.8199664484680564e-18
  endloop
 endfacet
 facet normal -0 -1 0
  outer loop
   vertex 0.0034641015809029341 0 -0.0020000000949949026
   vertex 0.008999999612569809 0 2.8199664484680564e-18
   vertex 0.0034641015809029341 0 0.0020000000949949026
  endloop
 endfacet
 facet normal 0 -1 0
  outer loop
   vertex 0.0034641015809029341 0 0.0020000000949949026
   vertex 0.008999999612569809 0 2.8199664484680564e-18
   vertex 0.0086933327838778496 0 0.0023293714039027691
  endloop
 endfacet
 facet normal -0 -1 0
  outer loop
   vertex 0.0034641015809029341 0 0.0020000000949949026
   vertex 0.0086933327838778496 0 0.0023293714039027691
   vertex -1.6919799104398645e-17 0 0.0040000001899898052
  endloop
 endfacet
 facet normal -2.1700309353859728e-15 -1 -1.1292036405529299e-14
  outer loop
   vertex -1.6919799104398645e-17 0 0.0040000001899898052
   vertex 0.0086933327838778496 0 0.0023293714039027691
   vertex 0.0077942288480699062 -2.2559731587744451e-17 0.0044999998062849045
  endloop
 endfacet
 facet normal 0 -1 0
  outer loop
   vertex -1.6919799104398645e-17 0 -0.0040000001899898052
   vertex -0.0086933327838778496 0 -0.0023293714039027691
   vertex -0.0077942288480699062 0 -0.0044999998062849045
  endloop
 endfacet
 facet normal 0 -1 0
  outer loop
   vertex -0.0086933327838778496 0 -0.0023293714039027691
   vertex -1.6919799104398645e-17 0 -0.0040000001899898052
   vertex -0.0034641015809029341 0 -0.0020000000949949026
  endloop
 endfacet
 facet normal -0 -1 0
  outer loop
   vertex -0.0086933327838778496 0 -0.0023293714039027691
   vertex -0.0034641015809029341 0 -0.0020000000949949026
   vertex -0.008999999612569809 0 2.8199664484680564e-18
  endloop
 endfacet
 facet normal 0 -1 0
  outer loop
   vertex -0.008999999612569809 0 2.8199664484680564e-18
   vertex -0.0034641015809029341 0 -0.0020000000949949026
   vertex -0.0034641015809029341 0 0.0020000000949949026
  endloop
 endfacet
 facet normal -0 -1 0
  outer loop
   vertex -0.008999999612569809 0 2.8199664484680564e-18
   vertex -0.0034641015809029341 0 0.0020000000949949026
   vertex -0.0086933327838778496 0 0.0023293714039027691
  endloop
 endfacet
 facet normal 0 -1 0
  outer loop
   vertex -0.0086933327838778496 0 0.0023293714039027691
   vertex -0.0034641015809029341 0 0.0020000000949949026
   vertex -1.6919799104398645e-17 0 0.0040000001899898052
  endloop
 endfacet
 facet normal 2.1700309353859823e-15 -1 -1.1292036405529302e-14
  outer loop
   vertex -0.0086933327838778496 0 0.0023293714039027691
   vertex -1.6919799104398645e-17 0 0.0040000001899898052
   vertex -0.0077942288480699062 -2.2559731587744451e-17 0.0044999998062849045
  endloop
 endfacet
 facet normal 0 -1 -4.5119497800633755e-14
  outer loop
   vertex -0.0077942288480699062 -2.2559731587744451e-17 0.0044999998062849045
   vertex -1.6919799104398645e-17 0 0.0040000001899898052
   vertex 0.0077942288480699062 -2.2559731587744451e-17 0.0044999998062849045
  endloop
 endfacet
 facet normal 0 -1 0
  outer loop
   vertex -0.0077942288480699062 -2.2559731587744451e-17 0.0044999998062849045
   vertex 0.0077942288480699062 -2.2559731587744451e-17 0.0044999998062849045
   vertex 0.0063639609143137932 -2.2559731587744451e-17 0.0063639609143137932
  endloop
 endfacet
 facet normal -0 -1 0
  outer loop
   vertex -0.0077942288480699062 -2.2559731587744451e-17 0.0044999998062849045
   vertex 0.0063639609143137932 -2.2559731587744451e-17 0.0063639609143137932
   vertex -0.0063639609143137932 -2.2559731587744451e-17 0.0063639609143137932
  endloop
 endfacet
 facet normal 0 -1 0
  outer loop
   vertex -0.0063639609143137932 -2.2559731587744451e-17 0.0063639609143137932
   vertex 0.0063639609143137932 -2.2559731587744451e-17 0.0063639609143137932
   vertex 0.0044999998062849045 -2.2559731587744451e-17 0.0077942288480699062
  endloop
 endfacet
 facet normal -0 -1 0
  outer loop
   vertex -0.0063639609143137932 -2.2559731587744451e-17 0.0063639609143137932
   vertex 0.0044999998062849045 -2.2559731587744451e-17 0.0077942288480699062
   vertex -0.0044999998062849045 -2.2559731587744451e-17 0.0077942288480699062
  endloop
 endfacet
 facet normal 0 -1 0
  outer loop
   vertex -0.0044999998062849045 -2.2559731587744451e-17 0.0077942288480699062
   vertex 0.0044999998062849045 -2.2559731587744451e-17 0.0077942288480699062
   vertex 0.0023293714039027691 -2.2559731587744451e-17 0.0086933327838778496
  endloop
 endfacet
 facet normal -0 -1 0
  outer loop
   vertex -0.0044999998062849045 -2.2559731587744451e-17 0.0077942288480699062
   vertex 0.0023293714039027691 -2.2559731587744451e-17 0.0086933327838778496
   vertex -0.0023293714039027691 -2.2559731587744451e-17 0.0086933327838778496
  endloop
 endfacet
 facet normal 0 -1 0
  outer loop
   vertex -0.0023293714039027691 -2.2559731587744451e-17 0.0086933327838778496
   vertex 0.0023293714039027691 -2.2559731587744451e-17 0.0086933327838778496
   vertex -1.6919799104398645e-17 -2.2559731587744451e-17 0.008999999612569809
  endloop
 endfacet
 facet normal -0.13052588494761724 0 0.99144490182694545
  outer loop
   vertex -1.6919799104398645e-17 -2.2559731587744451e-17 0.008999999612569809
   vertex -0.0023293714039027691 0.0080000013113021851 0.0086933327838778496
   vertex -0.0023293714039027691 -2.2559731587744451e-17 0.0086933327838778496
  endloop
 endfacet
 facet normal -0.13052588494761724 0 0.99144490182694545
  outer loop
   vertex -0.0023293714039027691 0.0080000013113021851 0.0086933327838778496
   vertex -1.6919799104398645e-17 -2.2559731587744451e-17 0.008999999612569809
   vertex -1.6919799104398645e-17 0.0080000013113021851 0.008999999612569809
  endloop
 endfacet
 facet normal -0.38268350962687908 0 0.92387950050840195
  outer loop
   vertex -0.0023293714039027691 -2.2559731587744451e-17 0.0086933327838778496
   vertex -0.0044999998062849045 0.0080000013113021851 0.0077942288480699062
   vertex -0.0044999998062849045 -2.2559731587744451e-17 0.0077942288480699062
  endloop
 endfacet
 facet normal -0.38268350962687908 0 0.92387950050840195
  outer loop
   vertex -0.0044999998062849045 0.0080000013113021851 0.0077942288480699062
   vertex -0.0023293714039027691 -2.2559731587744451e-17 0.0086933327838778496
   vertex -0.0023293714039027691 0.0080000013113021851 0.0086933327838778496
  endloop
 endfacet
 facet normal -0.60876150161400444 0 0.79335328457923626
  outer loop
   vertex -0.0044999998062849045 -2.2559731587744451e-17 0.0077942288480699062
   vertex -0.0063639609143137932 0.0080000013113021851 0.0063639609143137932
   vertex -0.0063639609143137932 -2.2559731587744451e-17 0.0063639609143137932
  endloop
 endfacet
 facet normal -0.60876150161400444 0 0.79335328457923626
  outer loop
   vertex -0.0063639609143137932 0.0080000013113021851 0.0063639609143137932
   vertex -0.0044999998062849045 -2.2559731587744451e-17 0.0077942288480699062
   vertex -0.0044999998062849045 0.0080000013113021851 0.0077942288480699062
  endloop
 endfacet
 facet normal -0.79335328457923626 0 0.60876150161400444
  outer loop
   vertex -0.0063639609143137932 0.0080000013113021851 0.0063639609143137932
   vertex -0.0077942288480699062 -2.2559731587744451e-17 0.0044999998062849045
   vertex -0.0063639609143137932 -2.2559731587744451e-17 0.0063639609143137932
  endloop
 endfacet
 facet normal -0.79335328457923626 0 0.60876150161400444
  outer loop
   vertex -0.0077942288480699062 -2.2559731587744451e-17 0.0044999998062849045
   vertex -0.0063639609143137932 0.0080000013113021851 0.0063639609143137932
   vertex -0.0077942288480699062 0.0080000013113021851 0.0044999998062849045
  endloop
 endfacet
 facet normal -0.50000002151757017 0 0.86602539136126344
  outer loop
   vertex 0.0034641015809029341 0 -0.0020000000949949026
   vertex -1.6919799104398645e-17 0.0080000013113021851 -0.0040000001899898052
   vertex -1.6919799104398645e-17 0 -0.0040000001899898052
  endloop
 endfacet
 facet normal -0.50000002151757017 0 0.86602539136126344
  outer loop
   vertex -1.6919799104398645e-17 0.0080000013113021851 -0.0040000001899898052
   vertex 0.0034641015809029341 0 -0.0020000000949949026
   vertex 0.0034641015809029341 0.0080000013113021851 -0.0020000000949949026
  endloop
 endfacet
 facet normal -1 0 0
  outer loop
   vertex 0.0034641015809029341 0.0080000013113021851 0.0020000000949949026
   vertex 0.0034641015809029341 0 -0.0020000000949949026
   vertex 0.0034641015809029341 0 0.0020000000949949026
  endloop
 endfacet
 facet normal -1 0 -0
  outer loop
   vertex 0.0034641015809029341 0 -0.0020000000949949026
   vertex 0.0034641015809029341 0.0080000013113021851 0.0020000000949949026
   vertex 0.0034641015809029341 0.0080000013113021851 -0.0020000000949949026
  endloop
 endfacet
 facet normal 0.38268350962687908 0 0.92387950050840195
  outer loop
   vertex 0.0044999998062849045 -2.2559731587744451e-17 0.0077942288480699062
   vertex 0.0023293714039027691 0.0080000013113021851 0.0086933327838778496
   vertex 0.0023293714039027691 -2.2559731587744451e-17 0.0086933327838778496
  endloop
 endfacet
 facet normal 0.38268350962687908 -0 0.92387950050840195
  outer loop
   vertex 0.0023293714039027691 0.0080000013113021851 0.0086933327838778496
   vertex 0.0044999998062849045 -2.2559731587744451e-17 0.0077942288480699062
   vertex 0.0044999998062849045 0.0080000013113021851 0.0077942288480699062
  endloop
 endfacet
 facet normal 0.50000002151757383 0 0.86602539136126122
  outer loop
   vertex -1.6919799104398645e-17 0 -0.0040000001899898052
   vertex -0.0034641015809029341 0.0080000013113021851 -0.0020000000949949026
   vertex -0.0034641015809029341 0 -0.0020000000949949026
  endloop
 endfacet
 facet normal 0.50000002151757383 -0 0.86602539136126122
  outer loop
   vertex -0.0034641015809029341 0.0080000013113021851 -0.0020000000949949026
   vertex -1.6919799104398645e-17 0 -0.0040000001899898052
   vertex -1.6919799104398645e-17 0.0080000013113021851 -0.0040000001899898052
  endloop
 endfacet
 facet normal -1 0 0
  outer loop
   vertex 0.019754320383071899 0.022371469065546989 0.0031810861546546221
   vertex 0.019754320383071899 0.021553449332714081 -8.9435610561849899e-07
   vertex 0.019754320383071899 0.02105344831943512 -8.9435610561849899e-07
  endloop
 endfacet
 facet normal -1 0 -0
  outer loop
   vertex 0.019754320383071899 0.021553449332714081 -8.9435610561849899e-07
   vertex 0.019754320383071899 0.022371469065546989 0.0031810861546546221
   vertex 0.019754320383071899 0.022725021466612816 0.002827532822266221
  endloop
 endfacet
 facet normal -1 0 0
  outer loop
   vertex 0.019754320383071899 0.022725021466612816 0.002827532822266221
   vertex 0.019754320383071899 0.022371469065546989 0.0031810861546546221
   vertex 0.019754320383071899 0.025553448125720024 0.0044991057366132736
  endloop
 endfacet
 facet normal -1 0 -0
  outer loop
   vertex 0.019754320383071899 0.022725021466612816 0.002827532822266221
   vertex 0.019754320383071899 0.025553448125720024 0.0044991057366132736
   vertex 0.019754320383071899 0.025553448125720024 0.0039991056546568871
  endloop
 endfacet
 facet normal -1 0 0
  outer loop
   vertex 0.019754320383071899 0.025553448125720024 0.0039991056546568871
   vertex 0.019754320383071899 0.025553448125720024 0.0044991057366132736
   vertex 0.019754320383071899 0.028735429048538208 0.0031810861546546221
  endloop
 endfacet
 facet normal -1 -0 0
  outer loop
   vertex 0.019754320383071899 0.025553448125720024 0.0039991056546568871
   vertex 0.019754320383071899 0.028735429048538208 0.0031810861546546221
   vertex 0.019754320383071899 0.028381876647472382 0.002827532822266221
  endloop
 endfacet
 facet normal -1 0 -0
  outer loop
   vertex 0.019754320383071899 0.028381876647472382 0.002827532822266221
   vertex 0.019754320383071899 0.028735429048538208 0.0031810861546546221
   vertex 0.019754320383071899 0.029553448781371117 -8.9435610561849899e-07
  endloop
 endfacet
 facet normal -1 0 0
  outer loop
   vertex 0.019754320383071899 0.029553448781371117 -8.9435610561849899e-07
   vertex 0.019754320383071899 0.028735429048538208 0.0031810861546546221
   vertex 0.019754320383071899 0.030053449794650078 -8.9435610561849899e-07
  endloop
 endfacet
 facet normal -1 0 0
  outer loop
   vertex 0.019754320383071899 0.021553449332714081 -8.9435610561849899e-07
   vertex 0.019754320383071899 0.022371469065546989 -0.0031828747596591711
   vertex 0.019754320383071899 0.02105344831943512 -8.9435610561849899e-07
  endloop
 endfacet
 facet normal -1 0 0
  outer loop
   vertex 0.019754320383071899 0.022371469065546989 -0.0031828747596591711
   vertex 0.019754320383071899 0.021553449332714081 -8.9435610561849899e-07
   vertex 0.019754320383071899 0.022725021466612816 -0.0028293214272707701
  endloop
 endfacet
 facet normal -1 0 -0
  outer loop
   vertex 0.019754320383071899 0.022371469065546989 -0.0031828747596591711
   vertex 0.019754320383071899 0.022725021466612816 -0.0028293214272707701
   vertex 0.019754320383071899 0.025553448125720024 -0.0045008943416178226
  endloop
 endfacet
 facet normal -1 0 0
  outer loop
   vertex 0.019754320383071899 0.025553448125720024 -0.0045008943416178226
   vertex 0.019754320383071899 0.022725021466612816 -0.0028293214272707701
   vertex 0.019754320383071899 0.025553448125720024 -0.0040008942596614361
  endloop
 endfacet
 facet normal -1 0 0
  outer loop
   vertex 0.019754320383071899 0.025553448125720024 -0.0045008943416178226
   vertex 0.019754320383071899 0.025553448125720024 -0.0040008942596614361
   vertex 0.019754320383071899 0.028381876647472382 -0.0028293214272707701
  endloop
 endfacet
 facet normal -1 0 -0
  outer loop
   vertex 0.019754320383071899 0.025553448125720024 -0.0045008943416178226
   vertex 0.019754320383071899 0.028381876647472382 -0.0028293214272707701
   vertex 0.019754320383071899 0.028735429048538208 -0.0031828747596591711
  endloop
 endfacet
 facet normal -1 0 0
  outer loop
   vertex 0.019754320383071899 0.028735429048538208 -0.0031828747596591711
   vertex 0.019754320383071899 0.028381876647472382 -0.0028293214272707701
   vertex 0.019754320383071899 0.029553448781371117 -8.9435610561849899e-07
  endloop
 endfacet
 facet normal -1 0 -0
  outer loop
   vertex 0.019754320383071899 0.028735429048538208 -0.0031828747596591711
   vertex 0.019754320383071899 0.029553448781371117 -8.9435610561849899e-07
   vertex 0.019754320383071899 0.030053449794650078 -8.9435610561849899e-07
  endloop
 endfacet
 facet normal -0 -0.38268341464915873 -0.92387953984946547
  outer loop
   vertex 0.018254311755299568 0.028735429048538208 0.0031810861546546221
   vertex 0.019754320383071899 0.025553448125720024 0.0044991057366132736
   vertex 0.018254311755299568 0.025553448125720024 0.0044991057366132736
  endloop
 endfacet
 facet normal 0 -0.38268341464915873 -0.92387953984946547
  outer loop
   vertex 0.019754320383071899 0.025553448125720024 0.0044991057366132736
   vertex 0.018254311755299568 0.028735429048538208 0.0031810861546546221
   vertex 0.019754320383071899 0.028735429048538208 0.0031810861546546221
  endloop
 endfacet
 facet normal 1.6227683458879695e-08 -0.9238794055290539 -0.38268373892717444
  outer loop
   vertex 0.019754320383071899 0.030053449794650078 -8.9435610561849899e-07
   vertex 0.018254311755299568 0.028735429048538208 0.0031810861546546221
   vertex 0.018254311755299568 0.030053449794650078 -8.9441971340420423e-07
  endloop
 endfacet
 facet normal -2.0494358511323593e-17 -0.92387940282442271 -0.38268374545672584
  outer loop
   vertex 0.018254311755299568 0.028735429048538208 0.0031810861546546221
   vertex 0.019754320383071899 0.030053449794650078 -8.9435610561849899e-07
   vertex 0.019754320383071899 0.028735429048538208 0.0031810861546546221
  endloop
 endfacet
 facet normal -5.9399992573463507e-08 -0.92387940546137615 0.38268373909055842
  outer loop
   vertex 0.019754320383071899 0.028735429048538208 -0.0031828747596591711
   vertex 0.018254311755299568 0.030053449794650078 -8.9441971340420423e-07
   vertex 0.018254311755299568 0.028735429048538208 -0.0031828749924898148
  endloop
 endfacet
 facet normal -1.6227684263919763e-08 -0.92387939826594634 0.38268375646185032
  outer loop
   vertex 0.018254311755299568 0.030053449794650078 -8.9441971340420423e-07
   vertex 0.019754320383071899 0.028735429048538208 -0.0031828747596591711
   vertex 0.019754320383071899 0.030053449794650078 -8.9435610561849899e-07
  endloop
 endfacet
 facet normal 0 -0.38268335694745553 0.92387956375029001
  outer loop
   vertex 0.019754320383071899 0.025553448125720024 -0.0045008943416178226
   vertex 0.018254311755299568 0.028735429048538208 -0.0031828749924898148
   vertex 0.018254311755299568 0.025553448125720024 -0.0045008943416178226
  endloop
 endfacet
 facet normal -1.4340415377559972e-07 -0.38268341464915479 0.92387953984945592
  outer loop
   vertex 0.018254311755299568 0.028735429048538208 -0.0031828749924898148
   vertex 0.019754320383071899 0.025553448125720024 -0.0045008943416178226
   vertex 0.019754320383071899 0.028735429048538208 -0.0031828747596591711
  endloop
 endfacet
 facet normal -1.4340414519202486e-07 0.38268354815412642 0.92387948454987778
  outer loop
   vertex 0.019754320383071899 0.022371469065546989 -0.0031828747596591711
   vertex 0.018254311755299568 0.025553448125720024 -0.0045008943416178226
   vertex 0.018254311755299568 0.022371469065546989 -0.0031828749924898148
  endloop
 endfacet
 facet normal 0 0.38268360585585243 0.92387946064904092
  outer loop
   vertex 0.018254311755299568 0.025553448125720024 -0.0045008943416178226
   vertex 0.019754320383071899 0.022371469065546989 -0.0031828747596591711
   vertex 0.019754320383071899 0.025553448125720024 -0.0045008943416178226
  endloop
 endfacet
 facet normal -5.9399992532474788e-08 0.92387940546137615 0.38268373909055842
  outer loop
   vertex 0.018254311755299568 0.02105344831943512 -8.9441971340420423e-07
   vertex 0.019754320383071899 0.022371469065546989 -0.0031828747596591711
   vertex 0.018254311755299568 0.022371469065546989 -0.0031828749924898148
  endloop
 endfacet
 facet normal -1.6227684243425404e-08 0.92387939826594634 0.38268375646185032
  outer loop
   vertex 0.019754320383071899 0.022371469065546989 -0.0031828747596591711
   vertex 0.018254311755299568 0.02105344831943512 -8.9441971340420423e-07
   vertex 0.019754320383071899 0.02105344831943512 -8.9435610561849899e-07
  endloop
 endfacet
 facet normal 1.6227683499868414e-08 0.9238794055290539 -0.38268373892717444
  outer loop
   vertex 0.018254311755299568 0.022371469065546989 0.0031810861546546221
   vertex 0.019754320383071899 0.02105344831943512 -8.9435610561849899e-07
   vertex 0.018254311755299568 0.02105344831943512 -8.9441971340420423e-07
  endloop
 endfacet
 facet normal 0 0.92387940282442271 -0.38268374545672584
  outer loop
   vertex 0.019754320383071899 0.02105344831943512 -8.9435610561849899e-07
   vertex 0.018254311755299568 0.022371469065546989 0.0031810861546546221
   vertex 0.019754320383071899 0.022371469065546989 0.0031810861546546221
  endloop
 endfacet
 facet normal 0 0.38268360585585243 -0.92387946064904092
  outer loop
   vertex 0.018254311755299568 0.025553448125720024 0.0044991057366132736
   vertex 0.019754320383071899 0.022371469065546989 0.0031810861546546221
   vertex 0.018254311755299568 0.022371469065546989 0.0031810861546546221
  endloop
 endfacet
 facet normal 0 0.38268360585585243 -0.92387946064904092
  outer loop
   vertex 0.019754320383071899 0.022371469065546989 0.0031810861546546221
   vertex 0.018254311755299568 0.025553448125720024 0.0044991057366132736
   vertex 0.019754320383071899 0.025553448125720024 0.0044991057366132736
  endloop
 endfacet
 facet normal 0.99144490182694545 -1.1674596840630258e-18 0.13052588494761649
  outer loop
   vertex 0.008999999612569809 0.0080000013113021851 2.8199664484680564e-18
   vertex 0.0086933327838778496 0 0.0023293714039027691
   vertex 0.008999999612569809 0 2.8199664484680564e-18
  endloop
 endfacet
 facet normal 0.99144490182694545 -1.1674596840630258e-18 0.13052588494761649
  outer loop
   vertex 0.0086933327838778496 0 0.0023293714039027691
   vertex 0.008999999612569809 0.0080000013113021851 2.8199664484680564e-18
   vertex 0.0086933327838778496 0.0080000013113021851 0.0023293714039027691
  endloop
 endfacet
 facet normal 0.79335328457923626 0 0.60876150161400444
  outer loop
   vertex 0.0077942288480699062 0.0080000013113021851 0.0044999998062849045
   vertex 0.0063639609143137932 -2.2559731587744451e-17 0.0063639609143137932
   vertex 0.0077942288480699062 -2.2559731587744451e-17 0.0044999998062849045
  endloop
 endfacet
 facet normal 0.79335328457923626 0 0.60876150161400444
  outer loop
   vertex 0.0063639609143137932 -2.2559731587744451e-17 0.0063639609143137932
   vertex 0.0077942288480699062 0.0080000013113021851 0.0044999998062849045
   vertex 0.0063639609143137932 0.0080000013113021851 0.0063639609143137932
  endloop
 endfacet
 facet normal 0.92387950050840195 0 0.38268350962687908
  outer loop
   vertex 0.0086933327838778496 0 0.0023293714039027691
   vertex 0.0077942288480699062 0.0080000013113021851 0.0044999998062849045
   vertex 0.0077942288480699062 -2.2559731587744451e-17 0.0044999998062849045
  endloop
 endfacet
 facet normal 0.92387950050840195 -0 0.38268350962687903
  outer loop
   vertex 0.0077942288480699062 0.0080000013113021851 0.0044999998062849045
   vertex 0.0086933327838778496 0 0.0023293714039027691
   vertex 0.0086933327838778496 0.0080000013113021851 0.0023293714039027691
  endloop
 endfacet
 facet normal 0.60876150161400444 0 0.79335328457923626
  outer loop
   vertex 0.0063639609143137932 -2.2559731587744451e-17 0.0063639609143137932
   vertex 0.0044999998062849045 0.0080000013113021851 0.0077942288480699062
   vertex 0.0044999998062849045 -2.2559731587744451e-17 0.0077942288480699062
  endloop
 endfacet
 facet normal 0.60876150161400444 -0 0.79335328457923626
  outer loop
   vertex 0.0044999998062849045 0.0080000013113021851 0.0077942288480699062
   vertex 0.0063639609143137932 -2.2559731587744451e-17 0.0063639609143137932
   vertex 0.0063639609143137932 0.0080000013113021851 0.0063639609143137932
  endloop
 endfacet
 facet normal 0.99144490182694567 -1.1674596840630231e-18 -0.13052588494761619
  outer loop
   vertex 0.0086933327838778496 0.0080000013113021851 -0.0023293714039027691
   vertex 0.008999999612569809 0 2.8199664484680564e-18
   vertex 0.0086933327838778496 0 -0.0023293714039027691
  endloop
 endfacet
 facet normal 0.99144490182694567 -1.1674596840630231e-18 -0.13052588494761619
  outer loop
   vertex 0.008999999612569809 0 2.8199664484680564e-18
   vertex 0.0086933327838778496 0.0080000013113021851 -0.0023293714039027691
   vertex 0.008999999612569809 0.0080000013113021851 2.8199664484680564e-18
  endloop
 endfacet
 facet normal -0.50000002151757017 0 -0.86602539136126344
  outer loop
   vertex 0.0034641015809029341 0.0080000013113021851 0.0020000000949949026
   vertex -1.6919799104398645e-17 0 0.0040000001899898052
   vertex -1.6919799104398645e-17 0.0080000013113021851 0.0040000001899898052
  endloop
 endfacet
 facet normal -0.50000002151757017 -0 -0.86602539136126344
  outer loop
   vertex -1.6919799104398645e-17 0 0.0040000001899898052
   vertex 0.0034641015809029341 0.0080000013113021851 0.0020000000949949026
   vertex 0.0034641015809029341 0 0.0020000000949949026
  endloop
 endfacet
 facet normal 0.50000002151757383 0 -0.86602539136126122
  outer loop
   vertex -1.6919799104398645e-17 0.0080000013113021851 0.0040000001899898052
   vertex -0.0034641015809029341 0 0.0020000000949949026
   vertex -0.0034641015809029341 0.0080000013113021851 0.0020000000949949026
  endloop
 endfacet
 facet normal 0.50000002151757383 0 -0.86602539136126122
  outer loop
   vertex -0.0034641015809029341 0 0.0020000000949949026
   vertex -1.6919799104398645e-17 0.0080000013113021851 0.0040000001899898052
   vertex -1.6919799104398645e-17 0 0.0040000001899898052
  endloop
 endfacet
 facet normal 1 0 0
  outer loop
   vertex -0.0034641015809029341 0.0080000013113021851 -0.0020000000949949026
   vertex -0.0034641015809029341 0 0.0020000000949949026
   vertex -0.0034641015809029341 0 -0.0020000000949949026
  endloop
 endfacet
 facet normal 1 0 -0
  outer loop
   vertex -0.0034641015809029341 0 0.0020000000949949026
   vertex -0.0034641015809029341 0.0080000013113021851 -0.0020000000949949026
   vertex -0.0034641015809029341 0.0080000013113021851 0.0020000000949949026
  endloop
 endfacet
 facet normal 0.13052588494761541 0 0.99144490182694567
  outer loop
   vertex 0.0023293714039027691 -2.2559731587744451e-17 0.0086933327838778496
   vertex -1.6919799104398645e-17 0.0080000013113021851 0.008999999612569809
   vertex -1.6919799104398645e-17 -2.2559731587744451e-17 0.008999999612569809
  endloop
 endfacet
 facet normal 0.13052588494761541 -0 0.99144490182694567
  outer loop
   vertex -1.6919799104398645e-17 0.0080000013113021851 0.008999999612569809
   vertex 0.0023293714039027691 -2.2559731587744451e-17 0.0086933327838778496
   vertex 0.0023293714039027691 0.0080000013113021851 0.0086933327838778496
  endloop
 endfacet
 facet normal 0.92387950050840195 0 -0.38268350962687903
  outer loop
   vertex 0.0077942288480699062 0.0080000013113021851 -0.0044999998062849045
   vertex 0.0086933327838778496 0 -0.0023293714039027691
   vertex 0.0077942288480699062 0 -0.0044999998062849045
  endloop
 endfacet
 facet normal 0.92387950050840195 0 -0.38268350962687903
  outer loop
   vertex 0.0086933327838778496 0 -0.0023293714039027691
   vertex 0.0077942288480699062 0.0080000013113021851 -0.0044999998062849045
   vertex 0.0086933327838778496 0.0080000013113021851 -0.0023293714039027691
  endloop
 endfacet
 facet normal 0.79335328457923615 0 -0.60876150161400433
  outer loop
   vertex 0.0063639609143137932 0.0080000013113021851 -0.0063639609143137932
   vertex 0.0077942288480699062 0 -0.0044999998062849045
   vertex 0.0063639609143137932 0 -0.0063639609143137932
  endloop
 endfacet
 facet normal 0.79335328457923615 0 -0.60876150161400433
  outer loop
   vertex 0.0077942288480699062 0 -0.0044999998062849045
   vertex 0.0063639609143137932 0.0080000013113021851 -0.0063639609143137932
   vertex 0.0077942288480699062 0.0080000013113021851 -0.0044999998062849045
  endloop
 endfacet
 facet normal 0.60876150161400433 0 -0.79335328457923615
  outer loop
   vertex 0.0063639609143137932 0.0080000013113021851 -0.0063639609143137932
   vertex 0.0044999998062849045 0 -0.0077942288480699062
   vertex 0.0044999998062849045 0.0080000013113021851 -0.0077942288480699062
  endloop
 endfacet
 facet normal 0.60876150161400433 0 -0.79335328457923615
  outer loop
   vertex 0.0044999998062849045 0 -0.0077942288480699062
   vertex 0.0063639609143137932 0.0080000013113021851 -0.0063639609143137932
   vertex 0.0063639609143137932 0 -0.0063639609143137932
  endloop
 endfacet
 facet normal 0.38268350962687903 0 -0.92387950050840195
  outer loop
   vertex 0.0044999998062849045 0.0080000013113021851 -0.0077942288480699062
   vertex 0.0023293714039027691 0 -0.0086933327838778496
   vertex 0.0023293714039027691 0.0080000013113021851 -0.0086933327838778496
  endloop
 endfacet
 facet normal 0.38268350962687903 0 -0.92387950050840195
  outer loop
   vertex 0.0023293714039027691 0 -0.0086933327838778496
   vertex 0.0044999998062849045 0.0080000013113021851 -0.0077942288480699062
   vertex 0.0044999998062849045 0 -0.0077942288480699062
  endloop
 endfacet
 facet normal 0.13052588494761555 0 -0.99144490182694567
  outer loop
   vertex 0.0023293714039027691 0.0080000013113021851 -0.0086933327838778496
   vertex -1.4099832862725741e-17 0 -0.008999999612569809
   vertex -1.4099832862725741e-17 0.0080000013113021851 -0.008999999612569809
  endloop
 endfacet
 facet normal 0.13052588494761555 0 -0.99144490182694567
  outer loop
   vertex -1.4099832862725741e-17 0 -0.008999999612569809
   vertex 0.0023293714039027691 0.0080000013113021851 -0.0086933327838778496
   vertex 0.0023293714039027691 0 -0.0086933327838778496
  endloop
 endfacet
 facet normal -0.13052588494761713 0 -0.99144490182694534
  outer loop
   vertex -1.4099832862725741e-17 0.0080000013113021851 -0.008999999612569809
   vertex -0.0023293714039027691 0 -0.0086933327838778496
   vertex -0.0023293714039027691 0.0080000013113021851 -0.0086933327838778496
  endloop
 endfacet
 facet normal -0.13052588494761713 -0 -0.99144490182694534
  outer loop
   vertex -0.0023293714039027691 0 -0.0086933327838778496
   vertex -1.4099832862725741e-17 0.0080000013113021851 -0.008999999612569809
   vertex -1.4099832862725741e-17 0 -0.008999999612569809
  endloop
 endfacet
endsolid
