solid Visualization Toolkit generated SLA File
 facet normal 1 -0 0
  outer loop
   vertex -0.020159676671028137 0.0063506797887384892 -0.020064106211066246
   vertex -0.020159676671028137 0.00095067999791353941 -0.023181796073913574
   vertex -0.020159676671028137 0.0063506797887384892 -0.026299487799406052
  endloop
 endfacet
 facet normal -1 0 -0
  outer loop
   vertex -0.020359676331281662 0.00095067999791353941 -0.023181796073913574
   vertex -0.020359676331281662 0.0063506797887384892 -0.020064106211066246
   vertex -0.020359676331281662 0.0063506797887384892 -0.026299487799406052
  endloop
 endfacet
 facet normal 0 1 0
  outer loop
   vertex -0.020359676331281662 0.0063506797887384892 -0.026299487799406052
   vertex -0.020359676331281662 0.0063506797887384892 -0.020064106211066246
   vertex -0.020159676671028137 0.0063506797887384892 -0.026299487799406052
  endloop
 endfacet
 facet normal 0 1 -0
  outer loop
   vertex -0.020159676671028137 0.0063506797887384892 -0.020064106211066246
   vertex -0.020159676671028137 0.0063506797887384892 -0.026299487799406052
   vertex -0.020359676331281662 0.0063506797887384892 -0.020064106211066246
  endloop
 endfacet
 facet normal 0 -0.49999982318531377 0.8660255058684212
  outer loop
   vertex -0.020159676671028137 0.0063506797887384892 -0.020064106211066246
   vertex -0.020359676331281662 0.0063506797887384892 -0.020064106211066246
   vertex -0.020159676671028137 0.00095067999791353941 -0.023181796073913574
  endloop
 endfacet
 facet normal 0 -0.49999982318531377 0.8660255058684212
  outer loop
   vertex -0.020359676331281662 0.00095067999791353941 -0.023181796073913574
   vertex -0.020159676671028137 0.00095067999791353941 -0.023181796073913574
   vertex -0.020359676331281662 0.0063506797887384892 -0.020064106211066246
  endloop
 endfacet
 facet normal -0 -0.50000004722674285 -0.86602537651806422
  outer loop
   vertex -0.020359676331281662 0.0063506797887384892 -0.026299487799406052
   vertex -0.020159676671028137 0.0063506797887384892 -0.026299487799406052
   vertex -0.020359676331281662 0.00095067999791353941 -0.023181796073913574
  endloop
 endfacet
 facet normal 0 -0.50000004722674285 -0.86602537651806422
  outer loop
   vertex -0.020159676671028137 0.00095067999791353941 -0.023181796073913574
   vertex -0.020359676331281662 0.00095067999791353941 -0.023181796073913574
   vertex -0.020159676671028137 0.0063506797887384892 -0.026299487799406052
  endloop
 endfacet
 facet normal 1 -0 0
  outer loop
   vertex 0.026540324091911316 0.0063506797887384892 -0.020064106211066246
   vertex 0.026540324091911316 0.00095067999791353941 -0.023181796073913574
   vertex 0.026540324091911316 0.0063506797887384892 -0.026299487799406052
  endloop
 endfacet
 facet normal -1 0 -0
  outer loop
   vertex 0.026340324431657791 0.00095067999791353941 -0.023181796073913574
   vertex 0.026340324431657791 0.0063506797887384892 -0.020064106211066246
   vertex 0.026340324431657791 0.0063506797887384892 -0.026299487799406052
  endloop
 endfacet
 facet normal 0 1 0
  outer loop
   vertex 0.026340324431657791 0.0063506797887384892 -0.026299487799406052
   vertex 0.026340324431657791 0.0063506797887384892 -0.020064106211066246
   vertex 0.026540324091911316 0.0063506797887384892 -0.026299487799406052
  endloop
 endfacet
 facet normal 0 1 -0
  outer loop
   vertex 0.026540324091911316 0.0063506797887384892 -0.020064106211066246
   vertex 0.026540324091911316 0.0063506797887384892 -0.026299487799406052
   vertex 0.026340324431657791 0.0063506797887384892 -0.020064106211066246
  endloop
 endfacet
 facet normal 0 -0.49999982318531377 0.8660255058684212
  outer loop
   vertex 0.026540324091911316 0.0063506797887384892 -0.020064106211066246
   vertex 0.026340324431657791 0.0063506797887384892 -0.020064106211066246
   vertex 0.026540324091911316 0.00095067999791353941 -0.023181796073913574
  endloop
 endfacet
 facet normal 0 -0.49999982318531377 0.8660255058684212
  outer loop
   vertex 0.026340324431657791 0.00095067999791353941 -0.023181796073913574
   vertex 0.026540324091911316 0.00095067999791353941 -0.023181796073913574
   vertex 0.026340324431657791 0.0063506797887384892 -0.020064106211066246
  endloop
 endfacet
 facet normal -0 -0.50000004722674285 -0.86602537651806422
  outer loop
   vertex 0.026340324431657791 0.0063506797887384892 -0.026299487799406052
   vertex 0.026540324091911316 0.0063506797887384892 -0.026299487799406052
   vertex 0.026340324431657791 0.00095067999791353941 -0.023181796073913574
  endloop
 endfacet
 facet normal 0 -0.50000004722674285 -0.86602537651806422
  outer loop
   vertex 0.026540324091911316 0.00095067999791353941 -0.023181796073913574
   vertex 0.026340324431657791 0.00095067999791353941 -0.023181796073913574
   vertex 0.026540324091911316 0.0063506797887384892 -0.026299487799406052
  endloop
 endfacet
endsolid
