solid Visualization Toolkit generated SLA File
 facet normal -1.5329335442631878e-06 -0.99999999999882505 -0
  outer loop
   vertex 0.027533678337931633 -0.036500014364719391 -0.023434653878211975
   vertex 0.027533678337931633 -0.036500014364719391 -0.0073702968657016754
   vertex 0.025103507563471794 -0.036500010639429092 -0.042510911822319031
  endloop
 endfacet
 facet normal -6.304838607082386e-07 -0.99999999999979927 -6.2409461220496127e-08
  outer loop
   vertex 0.01976964995265007 -0.036500010639429092 0.011373724788427353
   vertex 0.025103507563471794 -0.036500010639429092 -0.042510911822319031
   vertex 0.027533678337931633 -0.036500014364719391 -0.0073702968657016754
  endloop
 endfacet
 facet normal -0 -1 0
  outer loop
   vertex 0.021818764507770538 -0.036500010639429092 -0.048199735581874847
   vertex 0.025103507563471794 -0.036500010639429092 -0.042510911822319031
   vertex 0.01976964995265007 -0.036500010639429092 0.011373724788427353
  endloop
 endfacet
 facet normal -0 -1 0
  outer loop
   vertex 0.018594985827803612 -0.036500010639429092 -0.049337055534124374
   vertex 0.021818764507770538 -0.036500010639429092 -0.048199735581874847
   vertex 0.01976964995265007 -0.036500010639429092 0.011373724788427353
  endloop
 endfacet
 facet normal 0 -1 0
  outer loop
   vertex 0.016154661774635315 -0.036500010639429092 0.016084868460893631
   vertex 0.018594985827803612 -0.036500010639429092 -0.049337055534124374
   vertex 0.01976964995265007 -0.036500010639429092 0.011373724788427353
  endloop
 endfacet
 facet normal 2.9185603073969986e-07 -0.99999999999995737 1.0886614889689769e-08
  outer loop
   vertex 0.0056441230699419975 -0.036500014364719391 -0.044331174343824387
   vertex 0.018594985827803612 -0.036500010639429092 -0.049337055534124374
   vertex 0.016154661774635315 -0.036500010639429092 0.016084868460893631
  endloop
 endfacet
 facet normal 4.1741715879643831e-08 -0.99999999999999756 5.4398835566435714e-08
  outer loop
   vertex 0.014619399793446064 -0.036500010639429092 0.017262917011976242
   vertex 0.0056441230699419975 -0.036500014364719391 -0.044331174343824387
   vertex 0.016154661774635315 -0.036500010639429092 0.016084868460893631
  endloop
 endfacet
 facet normal 8.1050357366955702e-09 -0.99999999999999833 5.9300255584129121e-08
  outer loop
   vertex 0.011289060115814209 -0.036500010639429092 0.017718100920319557
   vertex 0.0056441230699419975 -0.036500014364719391 -0.044331174343824387
   vertex 0.014619399793446064 -0.036500010639429092 0.017262917011976242
  endloop
 endfacet
 facet normal 3.2123704880907973e-06 -0.99999999999481337 -2.3220801231781364e-07
  outer loop
   vertex 0.0074984342791140079 -0.036500014364719391 -0.018678594380617142
   vertex 0.0056441230699419975 -0.036500014364719391 -0.044331174343824387
   vertex 0.011289060115814209 -0.036500010639429092 0.017718100920319557
  endloop
 endfacet
 facet normal 2.5073933627541716e-07 -0.99999999999996825 -1.8124834324762605e-08
  outer loop
   vertex -0.0073587889783084393 -0.036500018090009689 -0.018678594380617142
   vertex 0.0056441230699419975 -0.036500014364719391 -0.044331174343824387
   vertex 0.0074984342791140079 -0.036500014364719391 -0.018678594380617142
  endloop
 endfacet
 facet normal 9.8989842852030212e-07 -0.99999999999944644 3.5654393894918923e-07
  outer loop
   vertex 0.0020979610271751881 -0.036500018090009689 -0.044934045523405075
   vertex 0.0056441230699419975 -0.036500014364719391 -0.044331174343824387
   vertex -0.0073587889783084393 -0.036500018090009689 -0.018678594380617142
  endloop
 endfacet
 facet normal -0 -1 0
  outer loop
   vertex -0.0022425584029406309 -0.036500018090009689 -0.052451364696025848
   vertex 0.0020979610271751881 -0.036500018090009689 -0.044934045523405075
   vertex -0.0073587889783084393 -0.036500018090009689 -0.018678594380617142
  endloop
 endfacet
 facet normal -4.6779492941846908e-07 -0.99999999999988809 -7.0866165213602317e-08
  outer loop
   vertex -0.0076231113635003567 -0.036500014364719391 -0.069501742720603943
   vertex -0.0022425584029406309 -0.036500018090009689 -0.052451364696025848
   vertex -0.0073587889783084393 -0.036500018090009689 -0.018678594380617142
  endloop
 endfacet
 facet normal -1.4093737446365341e-05 -0.99999999990068322 0
  outer loop
   vertex -0.0073587889783084393 -0.036500018090009689 -0.010321370325982571
   vertex -0.0076231113635003567 -0.036500014364719391 -0.069501742720603943
   vertex -0.0073587889783084393 -0.036500018090009689 -0.018678594380617142
  endloop
 endfacet
 facet normal 3.0737917279413982e-07 -0.9999999999999486 9.1304534308661519e-08
  outer loop
   vertex -0.010360357351601124 -0.036500018090009689 0.0090000173076987267
   vertex 0.0074984342791140079 -0.036500014364719391 -0.010321370325982571
   vertex 0.011289060115814209 -0.036500010639429092 0.017718100920319557
  endloop
 endfacet
 facet normal 9.8276391787141883e-07 -0.99999999999951705 0
  outer loop
   vertex 0.0074984342791140079 -0.036500014364719391 -0.018678594380617142
   vertex 0.011289060115814209 -0.036500010639429092 0.017718100920319557
   vertex 0.0074984342791140079 -0.036500014364719391 -0.010321370325982571
  endloop
 endfacet
 facet normal 2.5073933627541706e-07 -0.99999999999996791 3.8952236556381135e-08
  outer loop
   vertex -0.0073587889783084393 -0.036500018090009689 -0.010321370325982571
   vertex 0.0074984342791140079 -0.036500014364719391 -0.010321370325982571
   vertex -0.010360357351601124 -0.036500018090009689 0.0090000173076987267
  endloop
 endfacet
 facet normal -3.9387862721730119e-07 -0.99999999999992051 -6.118885728012984e-08
  outer loop
   vertex -0.0076231113635003567 -0.036500014364719391 -0.069501742720603943
   vertex -0.0073587889783084393 -0.036500018090009689 -0.010321370325982571
   vertex -0.010360357351601124 -0.036500018090009689 0.0090000173076987267
  endloop
 endfacet
 facet normal 2.4561576841718407e-06 -0.99999999999698297 3.8187901361838859e-08
  outer loop
   vertex -0.0091307144612073898 -0.036500018090009689 -0.070087775588035583
   vertex -0.0076231113635003567 -0.036500014364719391 -0.069501742720603943
   vertex -0.010360357351601124 -0.036500018090009689 0.0090000173076987267
  endloop
 endfacet
 facet normal 0 -1 0
  outer loop
   vertex -0.013523545116186142 -0.036500018090009689 -0.067551344633102417
   vertex -0.0091307144612073898 -0.036500018090009689 -0.070087775588035583
   vertex -0.010360357351601124 -0.036500018090009689 0.0090000173076987267
  endloop
 endfacet
 facet normal 0 -1 0
  outer loop
   vertex -0.015556666068732738 -0.036500018090009689 0.0092147346585988998
   vertex -0.013523545116186142 -0.036500018090009689 -0.067551344633102417
   vertex -0.010360357351601124 -0.036500018090009689 0.0090000173076987267
  endloop
 endfacet
 facet normal 0 -1 0
  outer loop
   vertex -0.022441927343606949 -0.036500018090009689 -0.031444381922483444
   vertex -0.013523545116186142 -0.036500018090009689 -0.067551344633102417
   vertex -0.015556666068732738 -0.036500018090009689 0.0092147346585988998
  endloop
 endfacet
 facet normal 0 -1 0
  outer loop
   vertex -0.020967692136764526 -0.036500018090009689 0.004233142826706171
   vertex -0.022441927343606949 -0.036500018090009689 -0.031444381922483444
   vertex -0.015556666068732738 -0.036500018090009689 0.0092147346585988998
  endloop
 endfacet
 facet normal -0.97082413848432669 0 -0.23979260233828131
  outer loop
   vertex -0.013523545116186142 -0.035000018775463104 -0.067551344633102417
   vertex -0.013523545116186142 -0.036500018090009689 -0.067551344633102417
   vertex -0.022441929206252098 -0.035000018775463104 -0.031444381922483444
  endloop
 endfacet
 facet normal -0.97082415014247991 -1.2055344802379219e-06 -0.23979255513605557
  outer loop
   vertex -0.022441927343606949 -0.036500018090009689 -0.031444381922483444
   vertex -0.022441929206252098 -0.035000018775463104 -0.031444381922483444
   vertex -0.013523545116186142 -0.036500018090009689 -0.067551344633102417
  endloop
 endfacet
 facet normal -0.99914737215171245 -1.2407052377005914e-06 0.04128593853587352
  outer loop
   vertex -0.022441929206252098 -0.035000018775463104 -0.031444381922483444
   vertex -0.022441927343606949 -0.036500018090009689 -0.031444381922483444
   vertex -0.020967692136764526 -0.035000018775463104 0.004233142826706171
  endloop
 endfacet
 facet normal -0.99914737430425427 0 0.041285886461530745
  outer loop
   vertex -0.020967692136764526 -0.036500018090009689 0.004233142826706171
   vertex -0.020967692136764526 -0.035000018775463104 0.004233142826706171
   vertex -0.022441927343606949 -0.036500018090009689 -0.031444381922483444
  endloop
 endfacet
 facet normal -0.67731037847143205 0 0.73569739106162757
  outer loop
   vertex -0.015556666068732738 -0.035000018775463104 0.0092147346585988998
   vertex -0.020967692136764526 -0.035000018775463104 0.004233142826706171
   vertex -0.015556666068732738 -0.036500018090009689 0.0092147346585988998
  endloop
 endfacet
 facet normal -0.67731037847143205 0 0.73569739106162757
  outer loop
   vertex -0.020967692136764526 -0.036500018090009689 0.004233142826706171
   vertex -0.015556666068732738 -0.036500018090009689 0.0092147346585988998
   vertex -0.020967692136764526 -0.035000018775463104 0.004233142826706171
  endloop
 endfacet
 facet normal 0.041285899074908441 0 0.9991473737830554
  outer loop
   vertex -0.010360357351601124 -0.035000018775463104 0.0090000173076987267
   vertex -0.015556666068732738 -0.035000018775463104 0.0092147346585988998
   vertex -0.010360357351601124 -0.036500018090009689 0.0090000173076987267
  endloop
 endfacet
 facet normal 0.041285899074908441 0 0.9991473737830554
  outer loop
   vertex -0.015556666068732738 -0.036500018090009689 0.0092147346585988998
   vertex -0.010360357351601124 -0.036500018090009689 0.0090000173076987267
   vertex -0.015556666068732738 -0.035000018775463104 0.0092147346585988998
  endloop
 endfacet
 facet normal -0.37354372207170089 0 0.92761257413902043
  outer loop
   vertex 0.011289060115814209 -0.035000011324882507 0.017718100920319557
   vertex -0.010360357351601124 -0.035000018775463104 0.0090000173076987267
   vertex 0.011289060115814209 -0.036500010639429092 0.017718100920319557
  endloop
 endfacet
 facet normal -0.37354372207170089 0 0.92761257413902043
  outer loop
   vertex -0.010360357351601124 -0.036500018090009689 0.0090000173076987267
   vertex 0.011289060115814209 -0.036500010639429092 0.017718100920319557
   vertex -0.010360357351601124 -0.035000018775463104 0.0090000173076987267
  endloop
 endfacet
 facet normal 0.13541894191796297 8.4079183514069785e-08 0.99078842856071569
  outer loop
   vertex 0.014619398862123489 -0.035000011324882507 0.017262917011976242
   vertex 0.011289060115814209 -0.035000011324882507 0.017718100920319557
   vertex 0.014619399793446064 -0.036500010639429092 0.017262917011976242
  endloop
 endfacet
 facet normal 0.13541890474280147 0 0.99078843364174385
  outer loop
   vertex 0.011289060115814209 -0.036500010639429092 0.017718100920319557
   vertex 0.014619399793446064 -0.036500010639429092 0.017262917011976242
   vertex 0.011289060115814209 -0.035000011324882507 0.017718100920319557
  endloop
 endfacet
 facet normal 0.60876139149731034 3.779689903572744e-07 0.79335336907466103
  outer loop
   vertex 0.014619398862123489 -0.035000011324882507 0.017262917011976242
   vertex 0.014619399793446064 -0.036500010639429092 0.017262917011976242
   vertex 0.016154661774635315 -0.035000011324882507 0.016084868460893631
  endloop
 endfacet
 facet normal 0.60876162393043021 0 0.79335319072250887
  outer loop
   vertex 0.016154661774635315 -0.036500010639429092 0.016084868460893631
   vertex 0.016154661774635315 -0.035000011324882507 0.016084868460893631
   vertex 0.014619399793446064 -0.036500010639429092 0.017262917011976242
  endloop
 endfacet
 facet normal 0.92387952549321806 0 0.38268344930820625
  outer loop
   vertex 0.027533678337931633 -0.035000015050172806 -0.0073702968657016754
   vertex 0.01976964995265007 -0.035000011324882507 0.011373724788427353
   vertex 0.027533678337931633 -0.036500014364719391 -0.0073702968657016754
  endloop
 endfacet
 facet normal 0.92387952549321806 0 0.38268344930820625
  outer loop
   vertex 0.01976964995265007 -0.036500010639429092 0.011373724788427353
   vertex 0.027533678337931633 -0.036500014364719391 -0.0073702968657016754
   vertex 0.01976964995265007 -0.035000011324882507 0.011373724788427353
  endloop
 endfacet
 facet normal -0.50003385761862562 0 -0.86600585519673934
  outer loop
   vertex -0.0091307144612073898 -0.035000015050172806 -0.070087775588035583
   vertex -0.0091307144612073898 -0.036500018090009689 -0.070087775588035583
   vertex -0.013523545116186142 -0.035000018775463104 -0.067551344633102417
  endloop
 endfacet
 facet normal -0.50003385761862562 -0 -0.86600585519673945
  outer loop
   vertex -0.013523545116186142 -0.036500018090009689 -0.067551344633102417
   vertex -0.013523545116186142 -0.035000018775463104 -0.067551344633102417
   vertex -0.0091307144612073898 -0.036500018090009689 -0.070087775588035583
  endloop
 endfacet
 facet normal 0.79335330012325611 0 0.60876148135664643
  outer loop
   vertex 0.01976964995265007 -0.035000011324882507 0.011373724788427353
   vertex 0.016154661774635315 -0.035000011324882507 0.016084868460893631
   vertex 0.01976964995265007 -0.036500010639429092 0.011373724788427353
  endloop
 endfacet
 facet normal 0.79335330012325611 0 0.60876148135664643
  outer loop
   vertex 0.016154661774635315 -0.036500010639429092 0.016084868460893631
   vertex 0.01976964995265007 -0.036500010639429092 0.011373724788427353
   vertex 0.016154661774635315 -0.035000011324882507 0.016084868460893631
  endloop
 endfacet
 facet normal -0 1 0
  outer loop
   vertex 0.0074984342791140079 -0.035000011324882507 -0.018678594380617142
   vertex 0.0074984342791140079 -0.035000011324882507 -0.010321370325982571
   vertex 0.011289060115814209 -0.035000011324882507 0.017718100920319557
  endloop
 endfacet
 facet normal -3.639608605542373e-07 0.99999999999993261 4.920347568060789e-08
  outer loop
   vertex -0.010360357351601124 -0.035000018775463104 0.0090000173076987267
   vertex 0.011289060115814209 -0.035000011324882507 0.017718100920319557
   vertex 0.0074984342791140079 -0.035000011324882507 -0.010321370325982571
  endloop
 endfacet
 facet normal -2.507393284166377e-07 0.9999999999999567 1.53854331452018e-07
  outer loop
   vertex -0.0073587894439697266 -0.035000015050172806 -0.010321370325982571
   vertex -0.010360357351601124 -0.035000018775463104 0.0090000173076987267
   vertex 0.0074984342791140079 -0.035000011324882507 -0.010321370325982571
  endloop
 endfacet
 facet normal -1.2064293176969952e-06 0.99999999999927214 5.3883694902311933e-09
  outer loop
   vertex -0.0076231113635003567 -0.035000015050172806 -0.069501742720603943
   vertex -0.010360357351601124 -0.035000018775463104 0.0090000173076987267
   vertex -0.0073587894439697266 -0.035000015050172806 -0.010321370325982571
  endloop
 endfacet
 facet normal -1.8199889993408296e-08 0.99999999999999878 4.6820258823094401e-08
  outer loop
   vertex -0.0091307144612073898 -0.035000015050172806 -0.070087775588035583
   vertex -0.010360357351601124 -0.035000018775463104 0.0090000173076987267
   vertex -0.0076231113635003567 -0.035000015050172806 -0.069501742720603943
  endloop
 endfacet
 facet normal -8.2827689194576067e-07 0.9999999999996565 3.4225326158369825e-08
  outer loop
   vertex -0.013523545116186142 -0.035000018775463104 -0.067551344633102417
   vertex -0.010360357351601124 -0.035000018775463104 0.0090000173076987267
   vertex -0.0091307144612073898 -0.035000015050172806 -0.070087775588035583
  endloop
 endfacet
 facet normal 0 1 0
  outer loop
   vertex -0.015556666068732738 -0.035000018775463104 0.0092147346585988998
   vertex -0.010360357351601124 -0.035000018775463104 0.0090000173076987267
   vertex -0.013523545116186142 -0.035000018775463104 -0.067551344633102417
  endloop
 endfacet
 facet normal 0 1 0
  outer loop
   vertex -0.022441929206252098 -0.035000018775463104 -0.031444381922483444
   vertex -0.015556666068732738 -0.035000018775463104 0.0092147346585988998
   vertex -0.013523545116186142 -0.035000018775463104 -0.067551344633102417
  endloop
 endfacet
 facet normal 0 1 0
  outer loop
   vertex -0.020967692136764526 -0.035000018775463104 0.004233142826706171
   vertex -0.015556666068732738 -0.035000018775463104 0.0092147346585988998
   vertex -0.022441929206252098 -0.035000018775463104 -0.031444381922483444
  endloop
 endfacet
 facet normal -1.8203427425542717e-06 0.99999999999831635 2.3189787773980184e-07
  outer loop
   vertex 0.027533678337931633 -0.035000011324882507 -0.023434653878211975
   vertex 0.025103507563471794 -0.035000011324882507 -0.042510911822319031
   vertex 0.027533678337931633 -0.035000015050172806 -0.0073702968657016754
  endloop
 endfacet
 facet normal 6.304838607082386e-07 0.99999999999979927 6.2409461220496127e-08
  outer loop
   vertex 0.01976964995265007 -0.035000011324882507 0.011373724788427353
   vertex 0.027533678337931633 -0.035000015050172806 -0.0073702968657016754
   vertex 0.025103507563471794 -0.035000011324882507 -0.042510911822319031
  endloop
 endfacet
 facet normal 0 1 0
  outer loop
   vertex 0.021818764507770538 -0.035000011324882507 -0.048199735581874847
   vertex 0.01976964995265007 -0.035000011324882507 0.011373724788427353
   vertex 0.025103507563471794 -0.035000011324882507 -0.042510911822319031
  endloop
 endfacet
 facet normal 0 1 0
  outer loop
   vertex 0.018594985827803612 -0.035000011324882507 -0.049337055534124374
   vertex 0.01976964995265007 -0.035000011324882507 0.011373724788427353
   vertex 0.021818764507770538 -0.035000011324882507 -0.048199735581874847
  endloop
 endfacet
 facet normal 0 1 0
  outer loop
   vertex 0.016154661774635315 -0.035000011324882507 0.016084868460893631
   vertex 0.01976964995265007 -0.035000011324882507 0.011373724788427353
   vertex 0.018594985827803612 -0.035000011324882507 -0.049337055534124374
  endloop
 endfacet
 facet normal -2.9185603073969986e-07 0.99999999999995737 -1.0886614889689769e-08
  outer loop
   vertex 0.0056441230699419975 -0.035000015050172806 -0.044331174343824387
   vertex 0.016154661774635315 -0.035000011324882507 0.016084868460893631
   vertex 0.018594985827803612 -0.035000011324882507 -0.049337055534124374
  endloop
 endfacet
 facet normal -4.1741693540349093e-08 0.99999999999999767 -5.4398839452787935e-08
  outer loop
   vertex 0.014619398862123489 -0.035000011324882507 0.017262917011976242
   vertex 0.016154661774635315 -0.035000011324882507 0.016084868460893631
   vertex 0.0056441230699419975 -0.035000015050172806 -0.044331174343824387
  endloop
 endfacet
 facet normal -8.1050379754157283e-09 0.99999999999999833 -5.9300255380461399e-08
  outer loop
   vertex 0.011289060115814209 -0.035000011324882507 0.017718100920319557
   vertex 0.014619398862123489 -0.035000011324882507 0.017262917011976242
   vertex 0.0056441230699419975 -0.035000015050172806 -0.044331174343824387
  endloop
 endfacet
 facet normal 4.5578132887933833e-06 0.99999999998950051 -4.7468498632926923e-07
  outer loop
   vertex 0.0074984342791140079 -0.035000011324882507 -0.018678594380617142
   vertex 0.011289060115814209 -0.035000011324882507 0.017718100920319557
   vertex 0.0056441230699419975 -0.035000015050172806 -0.044331174343824387
  endloop
 endfacet
 facet normal -5.0147865683323103e-07 0.99999999999986833 -1.0897121490097255e-07
  outer loop
   vertex -0.0073587894439697266 -0.035000018775463104 -0.018678594380617142
   vertex 0.0074984342791140079 -0.035000011324882507 -0.018678594380617142
   vertex 0.0056441230699419975 -0.035000015050172806 -0.044331174343824387
  endloop
 endfacet
 facet normal -2.2729801603942927e-08 0.99999999999999079 1.3369948292399485e-07
  outer loop
   vertex 0.0020979607943445444 -0.035000015050172806 -0.044934045523405075
   vertex -0.0073587894439697266 -0.035000018775463104 -0.018678594380617142
   vertex 0.0056441230699419975 -0.035000015050172806 -0.044331174343824387
  endloop
 endfacet
 facet normal -6.7988226926188374e-07 0.99999999999976363 -1.0299524082448461e-07
  outer loop
   vertex -0.0022425586357712746 -0.035000018775463104 -0.052451364696025848
   vertex -0.0073587894439697266 -0.035000018775463104 -0.018678594380617142
   vertex 0.0020979607943445444 -0.035000015050172806 -0.044934045523405075
  endloop
 endfacet
 facet normal 4.6779493619055975e-07 0.99999999999988809 7.0866169464499473e-08
  outer loop
   vertex -0.0076231113635003567 -0.035000015050172806 -0.069501742720603943
   vertex -0.0073587894439697266 -0.035000018775463104 -0.018678594380617142
   vertex -0.0022425586357712746 -0.035000018775463104 -0.052451364696025848
  endloop
 endfacet
 facet normal 9.9802768286063665e-05 0.99999999501960435 -4.4575689912759997e-07
  outer loop
   vertex -0.0073587894439697266 -0.035000015050172806 -0.010321370325982571
   vertex -0.0073587894439697266 -0.035000018775463104 -0.018678594380617142
   vertex -0.0076231113635003567 -0.035000015050172806 -0.069501742720603943
  endloop
 endfacet
 facet normal -0 0 1
  outer loop
   vertex 0.0074984342791140079 -0.035000011324882507 -0.018678594380617142
   vertex -0.0073587894439697266 -0.035000018775463104 -0.018678594380617142
   vertex 0.0074984342791140079 -0.036500014364719391 -0.018678594380617142
  endloop
 endfacet
 facet normal 0 0 1
  outer loop
   vertex -0.0073587889783084393 -0.036500018090009689 -0.018678594380617142
   vertex 0.0074984342791140079 -0.036500014364719391 -0.018678594380617142
   vertex -0.0073587894439697266 -0.035000018775463104 -0.018678594380617142
  endloop
 endfacet
 facet normal 0.99999999999995193 3.1044100006704032e-07 -1.3838121824114817e-13
  outer loop
   vertex -0.0073587894439697266 -0.035000018775463104 -0.018678594380617142
   vertex -0.0073587894439697266 -0.035000015050172806 -0.010321370325982571
   vertex -0.0073587889783084393 -0.036500018090009689 -0.018678594380617142
  endloop
 endfacet
 facet normal 0.99999999999995171 3.1044022908003885e-07 -0
  outer loop
   vertex -0.0073587889783084393 -0.036500018090009689 -0.010321370325982571
   vertex -0.0073587889783084393 -0.036500018090009689 -0.018678594380617142
   vertex -0.0073587894439697266 -0.035000015050172806 -0.010321370325982571
  endloop
 endfacet
 facet normal 0 0 -1
  outer loop
   vertex 0.0074984342791140079 -0.035000011324882507 -0.010321370325982571
   vertex 0.0074984342791140079 -0.036500014364719391 -0.010321370325982571
   vertex -0.0073587894439697266 -0.035000015050172806 -0.010321370325982571
  endloop
 endfacet
 facet normal 0 0 -1
  outer loop
   vertex -0.0073587889783084393 -0.036500018090009689 -0.010321370325982571
   vertex -0.0073587894439697266 -0.035000015050172806 -0.010321370325982571
   vertex 0.0074984342791140079 -0.036500014364719391 -0.010321370325982571
  endloop
 endfacet
 facet normal -1 0 0
  outer loop
   vertex 0.0074984342791140079 -0.035000011324882507 -0.018678594380617142
   vertex 0.0074984342791140079 -0.036500014364719391 -0.018678594380617142
   vertex 0.0074984342791140079 -0.035000011324882507 -0.010321370325982571
  endloop
 endfacet
 facet normal -1 -0 0
  outer loop
   vertex 0.0074984342791140079 -0.036500014364719391 -0.010321370325982571
   vertex 0.0074984342791140079 -0.035000011324882507 -0.010321370325982571
   vertex 0.0074984342791140079 -0.036500014364719391 -0.018678594380617142
  endloop
 endfacet
 facet normal 0.36230812102575843 0 -0.93205838091762494
  outer loop
   vertex -0.0076231113635003567 -0.035000015050172806 -0.069501742720603943
   vertex -0.0076231113635003567 -0.036500014364719391 -0.069501742720603943
   vertex -0.0091307144612073898 -0.035000015050172806 -0.070087775588035583
  endloop
 endfacet
 facet normal 0.36230812102575843 0 -0.93205838091762494
  outer loop
   vertex -0.0091307144612073898 -0.036500018090009689 -0.070087775588035583
   vertex -0.0091307144612073898 -0.035000015050172806 -0.070087775588035583
   vertex -0.0076231113635003567 -0.036500014364719391 -0.069501742720603943
  endloop
 endfacet
 facet normal 0.95364331011033976 0 -0.30093925812660965
  outer loop
   vertex -0.0076231113635003567 -0.035000015050172806 -0.069501742720603943
   vertex -0.0022425586357712746 -0.035000018775463104 -0.052451364696025848
   vertex -0.0076231113635003567 -0.036500014364719391 -0.069501742720603943
  endloop
 endfacet
 facet normal 0.95364330637304773 1.4802499086885105e-07 -0.30093926996963949
  outer loop
   vertex -0.0022425584029406309 -0.036500018090009689 -0.052451364696025848
   vertex -0.0076231113635003567 -0.036500014364719391 -0.069501742720603943
   vertex -0.0022425586357712746 -0.035000018775463104 -0.052451364696025848
  endloop
 endfacet
 facet normal 0.86600578974406606 1.3442185171600391e-07 -0.50003397097571134
  outer loop
   vertex -0.0022425586357712746 -0.035000018775463104 -0.052451364696025848
   vertex 0.0020979607943445444 -0.035000015050172806 -0.044934045523405075
   vertex -0.0022425584029406309 -0.036500018090009689 -0.052451364696025848
  endloop
 endfacet
 facet normal 0.86600578974409481 1.3442151787640485e-07 -0.50003397097566127
  outer loop
   vertex 0.0020979610271751881 -0.036500018090009689 -0.044934045523405075
   vertex -0.0022425584029406309 -0.036500018090009689 -0.052451364696025848
   vertex 0.0020979607943445444 -0.035000015050172806 -0.044934045523405075
  endloop
 endfacet
 facet normal 0.16760186862444257 0 -0.98585476295121433
  outer loop
   vertex 0.0056441230699419975 -0.035000015050172806 -0.044331174343824387
   vertex 0.0056441230699419975 -0.036500014364719391 -0.044331174343824387
   vertex 0.0020979607943445444 -0.035000015050172806 -0.044934045523405075
  endloop
 endfacet
 facet normal 0.16760187931955153 2.601518290510456e-08 -0.98585476113297432
  outer loop
   vertex 0.0020979610271751881 -0.036500018090009689 -0.044934045523405075
   vertex 0.0020979607943445444 -0.035000015050172806 -0.044934045523405075
   vertex 0.0056441230699419975 -0.036500014364719391 -0.044331174343824387
  endloop
 endfacet
 facet normal -0.36053330562209546 0 -0.93274634040408033
  outer loop
   vertex 0.018594985827803612 -0.035000011324882507 -0.049337055534124374
   vertex 0.018594985827803612 -0.036500010639429092 -0.049337055534124374
   vertex 0.0056441230699419975 -0.035000015050172806 -0.044331174343824387
  endloop
 endfacet
 facet normal -0.36053330562209546 -0 -0.93274634040408033
  outer loop
   vertex 0.0056441230699419975 -0.036500014364719391 -0.044331174343824387
   vertex 0.0056441230699419975 -0.035000015050172806 -0.044331174343824387
   vertex 0.018594985827803612 -0.036500010639429092 -0.049337055534124374
  endloop
 endfacet
 facet normal 0.33269414090157301 0 -0.94303478653216399
  outer loop
   vertex 0.021818764507770538 -0.035000011324882507 -0.048199735581874847
   vertex 0.021818764507770538 -0.036500010639429092 -0.048199735581874847
   vertex 0.018594985827803612 -0.035000011324882507 -0.049337055534124374
  endloop
 endfacet
 facet normal 0.33269414090157301 0 -0.94303478653216399
  outer loop
   vertex 0.018594985827803612 -0.036500010639429092 -0.049337055534124374
   vertex 0.018594985827803612 -0.035000011324882507 -0.049337055534124374
   vertex 0.021818764507770538 -0.036500010639429092 -0.048199735581874847
  endloop
 endfacet
 facet normal 0.86600568550654022 0 -0.50003415150402208
  outer loop
   vertex 0.021818764507770538 -0.035000011324882507 -0.048199735581874847
   vertex 0.025103507563471794 -0.035000011324882507 -0.042510911822319031
   vertex 0.021818764507770538 -0.036500010639429092 -0.048199735581874847
  endloop
 endfacet
 facet normal 0.86600568550654022 0 -0.50003415150402208
  outer loop
   vertex 0.025103507563471794 -0.036500010639429092 -0.042510911822319031
   vertex 0.021818764507770538 -0.036500010639429092 -0.048199735581874847
   vertex 0.025103507563471794 -0.035000011324882507 -0.042510911822319031
  endloop
 endfacet
 facet normal 0.9919830335098575 0 -0.12637112497948627
  outer loop
   vertex 0.025103507563471794 -0.035000011324882507 -0.042510911822319031
   vertex 0.027533678337931633 -0.035000011324882507 -0.023434653878211975
   vertex 0.025103507563471794 -0.036500010639429092 -0.042510911822319031
  endloop
 endfacet
 facet normal 0.9919830335098575 0 -0.12637112497948627
  outer loop
   vertex 0.027533678337931633 -0.036500014364719391 -0.023434653878211975
   vertex 0.025103507563471794 -0.036500010639429092 -0.042510911822319031
   vertex 0.027533678337931633 -0.035000011324882507 -0.023434653878211975
  endloop
 endfacet
 facet normal 1 0 0
  outer loop
   vertex 0.027533678337931633 -0.035000011324882507 -0.023434653878211975
   vertex 0.027533678337931633 -0.035000015050172806 -0.0073702968657016754
   vertex 0.027533678337931633 -0.036500014364719391 -0.023434653878211975
  endloop
 endfacet
 facet normal 1 0 0
  outer loop
   vertex 0.027533678337931633 -0.036500014364719391 -0.0073702968657016754
   vertex 0.027533678337931633 -0.036500014364719391 -0.023434653878211975
   vertex 0.027533678337931633 -0.035000015050172806 -0.0073702968657016754
  endloop
 endfacet
 facet normal -3.1138108649314475e-07 -0.99999999999994982 -5.7974469435045162e-08
  outer loop
   vertex 0.027533678337931633 -0.0045000114478170872 -0.023434653878211975
   vertex 0.027533678337931633 -0.0045000123791396618 -0.0073702968657016754
   vertex 0.025103507563471794 -0.0045000095851719379 -0.042510911822319031
  endloop
 endfacet
 facet normal -3.7007111674668215e-07 -0.99999999999993006 -5.3915724405954327e-08
  outer loop
   vertex 0.01976964995265007 -0.0045000105164945126 0.011373724788427353
   vertex 0.025103507563471794 -0.0045000095851719379 -0.042510911822319031
   vertex 0.027533678337931633 -0.0045000123791396618 -0.0073702968657016754
  endloop
 endfacet
 facet normal 2.555279075019884e-08 -0.99999999999999956 -1.4754254221624281e-08
  outer loop
   vertex 0.021818764507770538 -0.0045000095851719379 -0.048199735581874847
   vertex 0.025103507563471794 -0.0045000095851719379 -0.042510911822319031
   vertex 0.01976964995265007 -0.0045000105164945126 0.011373724788427353
  endloop
 endfacet
 facet normal 1.4816312067138406e-07 -0.99999999999998901 -1.0536896188568349e-08
  outer loop
   vertex 0.018594985827803612 -0.0045000100508332253 -0.049337055534124374
   vertex 0.021818764507770538 -0.0045000095851719379 -0.048199735581874847
   vertex 0.01976964995265007 -0.0045000105164945126 0.011373724788427353
  endloop
 endfacet
 facet normal -5.1233342801080653e-07 -0.99999999999986877 2.2427386011647803e-09
  outer loop
   vertex 0.016154661774635315 -0.0045000086538493633 0.016084868460893631
   vertex 0.018594985827803612 -0.0045000100508332253 -0.049337055534124374
   vertex 0.01976964995265007 -0.0045000105164945126 0.011373724788427353
  endloop
 endfacet
 facet normal 3.3671250138169731e-07 -0.99999999999994271 3.3913271615434497e-08
  outer loop
   vertex 0.0056441230699419975 -0.004500014241784811 -0.044331174343824387
   vertex 0.018594985827803612 -0.0045000100508332253 -0.049337055534124374
   vertex 0.016154661774635315 -0.0045000086538493633 0.016084868460893631
  endloop
 endfacet
 facet normal 6.2612573819465564e-08 -0.99999999999999467 8.159825334965334e-08
  outer loop
   vertex 0.014619399793446064 -0.0045000086538493633 0.017262917011976242
   vertex 0.0056441230699419975 -0.004500014241784811 -0.044331174343824387
   vertex 0.016154661774635315 -0.0045000086538493633 0.016084868460893631
  endloop
 endfacet
 facet normal 1.492511278882974e-07 -0.99999999999998657 6.8973584642386987e-08
  outer loop
   vertex 0.011289060115814209 -0.0045000091195106506 0.017718100920319557
   vertex 0.0056441230699419975 -0.004500014241784811 -0.044331174343824387
   vertex 0.014619399793446064 -0.0045000086538493633 0.017262917011976242
  endloop
 endfacet
 facet normal 2.7807272895515104e-07 -0.99999999999995959 5.7254030706013973e-08
  outer loop
   vertex -0.010360357351601124 -0.0045000156387686729 0.0090000173076987267
   vertex 0.0056441230699419975 -0.004500014241784811 -0.044331174343824387
   vertex 0.011289060115814209 -0.0045000091195106506 0.017718100920319557
  endloop
 endfacet
 facet normal 2.541169363145405e-07 -0.99999999999996647 5.006499175101703e-08
  outer loop
   vertex 0.0020979610271751881 -0.0045000151731073856 -0.044934045523405075
   vertex 0.0056441230699419975 -0.004500014241784811 -0.044331174343824387
   vertex -0.010360357351601124 -0.0045000156387686729 0.0090000173076987267
  endloop
 endfacet
 facet normal 1.0680308425780554e-08 -0.99999999999999989 -6.1668375623285276e-09
  outer loop
   vertex -0.0022425584029406309 -0.0045000151731073856 -0.052451364696025848
   vertex 0.0020979610271751881 -0.0045000151731073856 -0.044934045523405075
   vertex -0.010360357351601124 -0.0045000156387686729 0.0090000173076987267
  endloop
 endfacet
 facet normal -1.0508675531396436e-07 -0.99999999999999423 -2.1459801164986822e-08
  outer loop
   vertex -0.0076231113635003567 -0.004500014241784811 -0.069501742720603943
   vertex -0.0022425584029406309 -0.0045000151731073856 -0.052451364696025848
   vertex -0.010360357351601124 -0.0045000156387686729 0.0090000173076987267
  endloop
 endfacet
 facet normal 3.1156968302074335e-07 -0.99999999999995148 -6.9315770355290191e-09
  outer loop
   vertex -0.0091307144612073898 -0.0045000147074460983 -0.070087775588035583
   vertex -0.0076231113635003567 -0.004500014241784811 -0.069501742720603943
   vertex -0.010360357351601124 -0.0045000156387686729 0.0090000173076987267
  endloop
 endfacet
 facet normal 3.1403432071592788e-07 -0.99999999999995071 -6.893257288469239e-09
  outer loop
   vertex -0.013523545116186142 -0.0045000161044299603 -0.067551344633102417
   vertex -0.0091307144612073898 -0.0045000147074460983 -0.070087775588035583
   vertex -0.010360357351601124 -0.0045000156387686729 0.0090000173076987267
  endloop
 endfacet
 facet normal 1.791731516147398e-07 -0.9999999999999839 -1.3206431741910758e-09
  outer loop
   vertex -0.015556666068732738 -0.0045000165700912476 0.0092147346585988998
   vertex -0.013523545116186142 -0.0045000161044299603 -0.067551344633102417
   vertex -0.010360357351601124 -0.0045000156387686729 0.0090000173076987267
  endloop
 endfacet
 facet normal 1.4794582270591976e-07 -0.99999999999998901 -2.1476873228877753e-09
  outer loop
   vertex -0.022441927343606949 -0.0045000175014138222 -0.031444381922483444
   vertex -0.013523545116186142 -0.0045000161044299603 -0.067551344633102417
   vertex -0.015556666068732738 -0.0045000165700912476 0.0092147346585988998
  endloop
 endfacet
 facet normal 7.6969809056339499e-08 -0.99999999999999689 9.8714719535284765e-09
  outer loop
   vertex -0.020967692136764526 -0.0045000170357525349 0.004233142826706171
   vertex -0.022441927343606949 -0.0045000175014138222 -0.031444381922483444
   vertex -0.015556666068732738 -0.0045000165700912476 0.0092147346585988998
  endloop
 endfacet
 facet normal -0.97082413848432658 0 -0.23979260233828129
  outer loop
   vertex -0.013523545116186142 -0.0030000160913914442 -0.067551344633102417
   vertex -0.013523545116186142 -0.0045000161044299603 -0.067551344633102417
   vertex -0.022441929206252098 -0.0030000172555446625 -0.031444381922483444
  endloop
 endfacet
 facet normal -0.97082415014246914 -1.205533731743714e-06 -0.23979255513609954
  outer loop
   vertex -0.022441927343606949 -0.0045000175014138222 -0.031444381922483444
   vertex -0.022441929206252098 -0.0030000172555446625 -0.031444381922483444
   vertex -0.013523545116186142 -0.0045000161044299603 -0.067551344633102417
  endloop
 endfacet
 facet normal -0.99914737215171257 -1.2407044673695203e-06 0.041285938535873527
  outer loop
   vertex -0.022441929206252098 -0.0030000172555446625 -0.031444381922483444
   vertex -0.022441927343606949 -0.0045000175014138222 -0.031444381922483444
   vertex -0.020967692136764526 -0.0030000172555446625 0.004233142826706171
  endloop
 endfacet
 facet normal -0.99914737430425427 0 0.041285886461530745
  outer loop
   vertex -0.020967692136764526 -0.0045000170357525349 0.004233142826706171
   vertex -0.020967692136764526 -0.0030000172555446625 0.004233142826706171
   vertex -0.022441927343606949 -0.0045000175014138222 -0.031444381922483444
  endloop
 endfacet
 facet normal -0.67731037847143205 0 0.73569739106162768
  outer loop
   vertex -0.015556666068732738 -0.0030000165570527315 0.0092147346585988998
   vertex -0.020967692136764526 -0.0030000172555446625 0.004233142826706171
   vertex -0.015556666068732738 -0.0045000165700912476 0.0092147346585988998
  endloop
 endfacet
 facet normal -0.67731037847143205 0 0.73569739106162757
  outer loop
   vertex -0.020967692136764526 -0.0045000170357525349 0.004233142826706171
   vertex -0.015556666068732738 -0.0045000165700912476 0.0092147346585988998
   vertex -0.020967692136764526 -0.0030000172555446625 0.004233142826706171
  endloop
 endfacet
 facet normal 0.041285899074908441 0 0.9991473737830554
  outer loop
   vertex -0.010360357351601124 -0.0030000158585608006 0.0090000173076987267
   vertex -0.015556666068732738 -0.0030000165570527315 0.0092147346585988998
   vertex -0.010360357351601124 -0.0045000156387686729 0.0090000173076987267
  endloop
 endfacet
 facet normal 0.041285899074908435 0 0.99914737378305529
  outer loop
   vertex -0.015556666068732738 -0.0045000165700912476 0.0092147346585988998
   vertex -0.010360357351601124 -0.0045000156387686729 0.0090000173076987267
   vertex -0.015556666068732738 -0.0030000165570527315 0.0092147346585988998
  endloop
 endfacet
 facet normal -0.37354372207170089 0 0.92761257413902054
  outer loop
   vertex 0.011289060115814209 -0.0030000091064721346 0.017718100920319557
   vertex -0.010360357351601124 -0.0030000158585608006 0.0090000173076987267
   vertex 0.011289060115814209 -0.0045000091195106506 0.017718100920319557
  endloop
 endfacet
 facet normal -0.37354372207170095 0 0.92761257413902065
  outer loop
   vertex -0.010360357351601124 -0.0045000156387686729 0.0090000173076987267
   vertex 0.011289060115814209 -0.0045000091195106506 0.017718100920319557
   vertex -0.010360357351601124 -0.0030000158585608006 0.0090000173076987267
  endloop
 endfacet
 facet normal 0.13541894191795142 8.4079144361642121e-08 0.99078842856071725
  outer loop
   vertex 0.014619398862123489 -0.0030000086408108473 0.017262917011976242
   vertex 0.011289060115814209 -0.0030000091064721346 0.017718100920319557
   vertex 0.014619399793446064 -0.0045000086538493633 0.017262917011976242
  endloop
 endfacet
 facet normal 0.13541890474280144 0 0.99078843364174374
  outer loop
   vertex 0.011289060115814209 -0.0045000091195106506 0.017718100920319557
   vertex 0.014619399793446064 -0.0045000086538493633 0.017262917011976242
   vertex 0.011289060115814209 -0.0030000091064721346 0.017718100920319557
  endloop
 endfacet
 facet normal 0.60876139149734654 3.779688143517717e-07 0.79335336907463339
  outer loop
   vertex 0.014619398862123489 -0.0030000086408108473 0.017262917011976242
   vertex 0.014619399793446064 -0.0045000086538493633 0.017262917011976242
   vertex 0.016154661774635315 -0.0030000088736414909 0.016084868460893631
  endloop
 endfacet
 facet normal 0.6087616239304301 0 0.79335319072250876
  outer loop
   vertex 0.016154661774635315 -0.0045000086538493633 0.016084868460893631
   vertex 0.016154661774635315 -0.0030000088736414909 0.016084868460893631
   vertex 0.014619399793446064 -0.0045000086538493633 0.017262917011976242
  endloop
 endfacet
 facet normal 0.92387952549321795 0 0.38268344930820619
  outer loop
   vertex 0.027533678337931633 -0.0030000125989317894 -0.0073702968657016754
   vertex 0.01976964995265007 -0.0030000105034559965 0.011373724788427353
   vertex 0.027533678337931633 -0.0045000123791396618 -0.0073702968657016754
  endloop
 endfacet
 facet normal 0.92387952549321795 0 0.38268344930820625
  outer loop
   vertex 0.01976964995265007 -0.0045000105164945126 0.011373724788427353
   vertex 0.027533678337931633 -0.0045000123791396618 -0.0073702968657016754
   vertex 0.01976964995265007 -0.0030000105034559965 0.011373724788427353
  endloop
 endfacet
 facet normal -0.50003385761862562 0 -0.86600585519673934
  outer loop
   vertex -0.0091307144612073898 -0.0030000146944075823 -0.070087775588035583
   vertex -0.0091307144612073898 -0.0045000147074460983 -0.070087775588035583
   vertex -0.013523545116186142 -0.0030000160913914442 -0.067551344633102417
  endloop
 endfacet
 facet normal -0.50003385761862562 -0 -0.86600585519673934
  outer loop
   vertex -0.013523545116186142 -0.0045000161044299603 -0.067551344633102417
   vertex -0.013523545116186142 -0.0030000160913914442 -0.067551344633102417
   vertex -0.0091307144612073898 -0.0045000147074460983 -0.070087775588035583
  endloop
 endfacet
 facet normal 0.79335330012325611 0 0.60876148135664643
  outer loop
   vertex 0.01976964995265007 -0.0030000105034559965 0.011373724788427353
   vertex 0.016154661774635315 -0.0030000088736414909 0.016084868460893631
   vertex 0.01976964995265007 -0.0045000105164945126 0.011373724788427353
  endloop
 endfacet
 facet normal 0.79335330012325622 0 0.60876148135664654
  outer loop
   vertex 0.016154661774635315 -0.0045000086538493633 0.016084868460893631
   vertex 0.01976964995265007 -0.0045000105164945126 0.011373724788427353
   vertex 0.016154661774635315 -0.0030000088736414909 0.016084868460893631
  endloop
 endfacet
 facet normal 8.3838243673492672e-08 0.99999999999999267 8.6961704152571472e-08
  outer loop
   vertex 0.027533678337931633 -0.0030000112019479275 -0.023434653878211975
   vertex 0.025103507563471794 -0.0030000093393027782 -0.042510911822319031
   vertex 0.027533678337931633 -0.0030000125989317894 -0.0073702968657016754
  endloop
 endfacet
 facet normal 4.2318365463907352e-07 0.99999999999990841 6.3494064181160012e-08
  outer loop
   vertex 0.01976964995265007 -0.0030000105034559965 0.011373724788427353
   vertex 0.027533678337931633 -0.0030000125989317894 -0.0073702968657016754
   vertex 0.025103507563471794 -0.0030000093393027782 -0.042510911822319031
  endloop
 endfacet
 facet normal -9.2450106937510543e-08 0.99999999999999567 1.2453225148512798e-08
  outer loop
   vertex 0.021818764507770538 -0.0030000095721334219 -0.048199735581874847
   vertex 0.01976964995265007 -0.0030000105034559965 0.011373724788427353
   vertex 0.025103507563471794 -0.0030000093393027782 -0.042510911822319031
  endloop
 endfacet
 facet normal -2.1952012079296144e-07 0.99999999999997602 8.0824698945443022e-09
  outer loop
   vertex 0.018594985827803612 -0.0030000102706253529 -0.049337055534124374
   vertex 0.01976964995265007 -0.0030000105034559965 0.011373724788427353
   vertex 0.021818764507770538 -0.0030000095721334219 -0.048199735581874847
  endloop
 endfacet
 facet normal 4.4463546572266586e-07 0.99999999999990119 -4.7679618846447331e-09
  outer loop
   vertex 0.016154661774635315 -0.0030000088736414909 0.016084868460893631
   vertex 0.01976964995265007 -0.0030000105034559965 0.011373724788427353
   vertex 0.018594985827803612 -0.0030000102706253529 -0.049337055534124374
  endloop
 endfacet
 facet normal -3.1847149946046829e-07 0.99999999999994882 -3.3232858184829099e-08
  outer loop
   vertex 0.0056441230699419975 -0.003000014228746295 -0.044331174343824387
   vertex 0.016154661774635315 -0.0030000088736414909 0.016084868460893631
   vertex 0.018594985827803612 -0.0030000102706253529 -0.049337055534124374
  endloop
 endfacet
 facet normal 7.3791095330561254e-08 0.99999999999999212 -1.0147452039168939e-07
  outer loop
   vertex 0.014619398862123489 -0.0030000086408108473 0.017262917011976242
   vertex 0.016154661774635315 -0.0030000088736414909 0.016084868460893631
   vertex 0.0056441230699419975 -0.003000014228746295 -0.044331174343824387
  endloop
 endfacet
 facet normal -1.4925116911347141e-07 0.99999999999998657 -6.8973580891923977e-08
  outer loop
   vertex 0.011289060115814209 -0.0030000091064721346 0.017718100920319557
   vertex 0.014619398862123489 -0.0030000086408108473 0.017262917011976242
   vertex 0.0056441230699419975 -0.003000014228746295 -0.044331174343824387
  endloop
 endfacet
 facet normal -2.8923629890931134e-07 0.99999999999995659 -5.6238424168626154e-08
  outer loop
   vertex -0.010360357351601124 -0.0030000158585608006 0.0090000173076987267
   vertex 0.011289060115814209 -0.0030000091064721346 0.017718100920319557
   vertex 0.0056441230699419975 -0.003000014228746295 -0.044331174343824387
  endloop
 endfacet
 facet normal -2.5482309892092229e-07 0.99999999999996647 -4.5911158484115478e-08
  outer loop
   vertex 0.0020979607943445444 -0.0030000151600688696 -0.044934045523405075
   vertex -0.010360357351601124 -0.0030000158585608006 0.0090000173076987267
   vertex 0.0056441230699419975 -0.003000014228746295 -0.044331174343824387
  endloop
 endfacet
 facet normal -1.6020462724222572e-08 0.99999999999999989 9.2502563928905869e-09
  outer loop
   vertex -0.0022425586357712746 -0.0030000151600688696 -0.052451364696025848
   vertex -0.010360357351601124 -0.0030000158585608006 0.0090000173076987267
   vertex 0.0020979607943445444 -0.0030000151600688696 -0.044934045523405075
  endloop
 endfacet
 facet normal 9.6623232787998535e-08 0.999999999999995 2.4130618997591823e-08
  outer loop
   vertex -0.0076231113635003567 -0.003000014228746295 -0.069501742720603943
   vertex -0.010360357351601124 -0.0030000158585608006 0.0090000173076987267
   vertex -0.0022425586357712746 -0.0030000151600688696 -0.052451364696025848
  endloop
 endfacet
 facet normal -3.1270717614533119e-07 0.99999999999995104 9.8578432119722757e-09
  outer loop
   vertex -0.0091307144612073898 -0.0030000146944075823 -0.070087775588035583
   vertex -0.010360357351601124 -0.0030000158585608006 0.0090000173076987267
   vertex -0.0076231113635003567 -0.003000014228746295 -0.069501742720603943
  endloop
 endfacet
 facet normal -3.123190775978399e-07 0.99999999999995115 9.8638772989308546e-09
  outer loop
   vertex -0.013523545116186142 -0.0030000160913914442 -0.067551344633102417
   vertex -0.010360357351601124 -0.0030000158585608006 0.0090000173076987267
   vertex -0.0091307144612073898 -0.0030000146944075823 -0.070087775588035583
  endloop
 endfacet
 facet normal -1.3431713179980376e-07 0.99999999999999101 2.5086381138187126e-09
  outer loop
   vertex -0.015556666068732738 -0.0030000165570527315 0.0092147346585988998
   vertex -0.010360357351601124 -0.0030000158585608006 0.0090000173076987267
   vertex -0.013523545116186142 -0.0030000160913914442 -0.067551344633102417
  endloop
 endfacet
 facet normal -1.1870343905035165e-07 0.99999999999999312 2.9221609375506862e-09
  outer loop
   vertex -0.022441929206252098 -0.0030000172555446625 -0.031444381922483444
   vertex -0.015556666068732738 -0.0030000165570527315 0.0092147346585988998
   vertex -0.013523545116186142 -0.0030000160913914442 -0.067551344633102417
  endloop
 endfacet
 facet normal -1.3419167347783796e-07 0.9999999999999909 5.5449569679604665e-09
  outer loop
   vertex -0.020967692136764526 -0.0030000172555446625 0.004233142826706171
   vertex -0.015556666068732738 -0.0030000165570527315 0.0092147346585988998
   vertex -0.022441929206252098 -0.0030000172555446625 -0.031444381922483444
  endloop
 endfacet
 facet normal 0.36230812102575843 0 -0.93205838091762494
  outer loop
   vertex -0.0076231113635003567 -0.003000014228746295 -0.069501742720603943
   vertex -0.0076231113635003567 -0.004500014241784811 -0.069501742720603943
   vertex -0.0091307144612073898 -0.0030000146944075823 -0.070087775588035583
  endloop
 endfacet
 facet normal 0.36230812102575843 0 -0.93205838091762494
  outer loop
   vertex -0.0091307144612073898 -0.0045000147074460983 -0.070087775588035583
   vertex -0.0091307144612073898 -0.0030000146944075823 -0.070087775588035583
   vertex -0.0076231113635003567 -0.004500014241784811 -0.069501742720603943
  endloop
 endfacet
 facet normal 0.95364331011033987 0 -0.30093925812660965
  outer loop
   vertex -0.0076231113635003567 -0.003000014228746295 -0.069501742720603943
   vertex -0.0022425586357712746 -0.0030000151600688696 -0.052451364696025848
   vertex -0.0076231113635003567 -0.004500014241784811 -0.069501742720603943
  endloop
 endfacet
 facet normal 0.95364330637304073 1.4802492193934276e-07 -0.30093926996966158
  outer loop
   vertex -0.0022425584029406309 -0.0045000151731073856 -0.052451364696025848
   vertex -0.0076231113635003567 -0.004500014241784811 -0.069501742720603943
   vertex -0.0022425586357712746 -0.0030000151600688696 -0.052451364696025848
  endloop
 endfacet
 facet normal 0.86600578974409492 1.3442178912095642e-07 -0.50003397097566138
  outer loop
   vertex -0.0022425586357712746 -0.0030000151600688696 -0.052451364696025848
   vertex 0.0020979607943445444 -0.0030000151600688696 -0.044934045523405075
   vertex -0.0022425584029406309 -0.0045000151731073856 -0.052451364696025848
  endloop
 endfacet
 facet normal 0.86600578974409492 1.3442178912095642e-07 -0.50003397097566138
  outer loop
   vertex 0.0020979610271751881 -0.0045000151731073856 -0.044934045523405075
   vertex -0.0022425584029406309 -0.0045000151731073856 -0.052451364696025848
   vertex 0.0020979607943445444 -0.0030000151600688696 -0.044934045523405075
  endloop
 endfacet
 facet normal 0.16760186862444257 0 -0.98585476295121444
  outer loop
   vertex 0.0056441230699419975 -0.003000014228746295 -0.044331174343824387
   vertex 0.0056441230699419975 -0.004500014241784811 -0.044331174343824387
   vertex 0.0020979607943445444 -0.0030000151600688696 -0.044934045523405075
  endloop
 endfacet
 facet normal 0.16760187931957146 2.6015235400249293e-08 -0.98585476113297088
  outer loop
   vertex 0.0020979610271751881 -0.0045000151731073856 -0.044934045523405075
   vertex 0.0020979607943445444 -0.0030000151600688696 -0.044934045523405075
   vertex 0.0056441230699419975 -0.004500014241784811 -0.044331174343824387
  endloop
 endfacet
 facet normal -0.36053330562209546 0 -0.93274634040408044
  outer loop
   vertex 0.018594985827803612 -0.0030000102706253529 -0.049337055534124374
   vertex 0.018594985827803612 -0.0045000100508332253 -0.049337055534124374
   vertex 0.0056441230699419975 -0.003000014228746295 -0.044331174343824387
  endloop
 endfacet
 facet normal -0.36053330562209551 -0 -0.93274634040408044
  outer loop
   vertex 0.0056441230699419975 -0.004500014241784811 -0.044331174343824387
   vertex 0.0056441230699419975 -0.003000014228746295 -0.044331174343824387
   vertex 0.018594985827803612 -0.0045000100508332253 -0.049337055534124374
  endloop
 endfacet
 facet normal 0.33269414090157301 0 -0.9430347865321641
  outer loop
   vertex 0.021818764507770538 -0.0030000095721334219 -0.048199735581874847
   vertex 0.021818764507770538 -0.0045000095851719379 -0.048199735581874847
   vertex 0.018594985827803612 -0.0030000102706253529 -0.049337055534124374
  endloop
 endfacet
 facet normal 0.33269414090157301 0 -0.9430347865321641
  outer loop
   vertex 0.018594985827803612 -0.0045000100508332253 -0.049337055534124374
   vertex 0.018594985827803612 -0.0030000102706253529 -0.049337055534124374
   vertex 0.021818764507770538 -0.0045000095851719379 -0.048199735581874847
  endloop
 endfacet
 facet normal 0.86600568550654022 0 -0.50003415150402208
  outer loop
   vertex 0.021818764507770538 -0.0030000095721334219 -0.048199735581874847
   vertex 0.025103507563471794 -0.0030000093393027782 -0.042510911822319031
   vertex 0.021818764507770538 -0.0045000095851719379 -0.048199735581874847
  endloop
 endfacet
 facet normal 0.86600568550654022 0 -0.50003415150402208
  outer loop
   vertex 0.025103507563471794 -0.0045000095851719379 -0.042510911822319031
   vertex 0.021818764507770538 -0.0045000095851719379 -0.048199735581874847
   vertex 0.025103507563471794 -0.0030000093393027782 -0.042510911822319031
  endloop
 endfacet
 facet normal 0.9919830335098575 0 -0.12637112497948627
  outer loop
   vertex 0.025103507563471794 -0.0030000093393027782 -0.042510911822319031
   vertex 0.027533678337931633 -0.0030000112019479275 -0.023434653878211975
   vertex 0.025103507563471794 -0.0045000095851719379 -0.042510911822319031
  endloop
 endfacet
 facet normal 0.9919830335098575 0 -0.12637112497948627
  outer loop
   vertex 0.027533678337931633 -0.0045000114478170872 -0.023434653878211975
   vertex 0.025103507563471794 -0.0045000095851719379 -0.042510911822319031
   vertex 0.027533678337931633 -0.0030000112019479275 -0.023434653878211975
  endloop
 endfacet
 facet normal 1 0 0
  outer loop
   vertex 0.027533678337931633 -0.0030000112019479275 -0.023434653878211975
   vertex 0.027533678337931633 -0.0030000125989317894 -0.0073702968657016754
   vertex 0.027533678337931633 -0.0045000114478170872 -0.023434653878211975
  endloop
 endfacet
 facet normal 1 0 -0
  outer loop
   vertex 0.027533678337931633 -0.0045000123791396618 -0.0073702968657016754
   vertex 0.027533678337931633 -0.0045000114478170872 -0.023434653878211975
   vertex 0.027533678337931633 -0.0030000125989317894 -0.0073702968657016754
  endloop
 endfacet
endsolid
