solid Visualization Toolkit generated SLA File
 facet normal -0 0 1
  outer loop
   vertex 0.020954320207238197 -0.022435756400227547 0.0017991065979003906
   vertex 0.020754311233758926 -0.022435756400227547 0.0017991065979003906
   vertex 0.020954310894012451 -0.028671139851212502 0.0017991065979003906
  endloop
 endfacet
 facet normal 0 0 1
  outer loop
   vertex 0.020754311233758926 -0.028671139851212502 0.0017991065979003906
   vertex 0.020954310894012451 -0.028671139851212502 0.0017991065979003906
   vertex 0.020754311233758926 -0.022435756400227547 0.0017991065979003906
  endloop
 endfacet
 facet normal 0 -0.86602539052065297 -0.50000002297355006
  outer loop
   vertex 0.020754311233758926 -0.028671139851212502 0.0017991065979003906
   vertex 0.020754311233758926 -0.025553448125720024 -0.0036008935421705246
   vertex 0.020954310894012451 -0.028671139851212502 0.0017991065979003906
  endloop
 endfacet
 facet normal 0 -0.86602539052065297 -0.50000002297355006
  outer loop
   vertex 0.020954310894012451 -0.025553448125720024 -0.0036008935421705246
   vertex 0.020954310894012451 -0.028671139851212502 0.0017991065979003906
   vertex 0.020754311233758926 -0.025553448125720024 -0.0036008935421705246
  endloop
 endfacet
 facet normal 0 0.86602539052065297 -0.50000002297355006
  outer loop
   vertex 0.020754311233758926 -0.025553448125720024 -0.0036008935421705246
   vertex 0.020754311233758926 -0.022435756400227547 0.0017991065979003906
   vertex 0.020954310894012451 -0.025553448125720024 -0.0036008935421705246
  endloop
 endfacet
 facet normal 0 0.86602539052065297 -0.50000002297355006
  outer loop
   vertex 0.020954320207238197 -0.022435756400227547 0.0017991065979003906
   vertex 0.020954310894012451 -0.025553448125720024 -0.0036008935421705246
   vertex 0.020754311233758926 -0.022435756400227547 0.0017991065979003906
  endloop
 endfacet
 facet normal -1 -0 0
  outer loop
   vertex 0.020754311233758926 -0.028671139851212502 0.0017991065979003906
   vertex 0.020754311233758926 -0.022435756400227547 0.0017991065979003906
   vertex 0.020754311233758926 -0.025553448125720024 -0.0036008935421705246
  endloop
 endfacet
 facet normal 0.99999999999851275 -1.4936091451873415e-06 -8.6233569486709574e-07
  outer loop
   vertex 0.020954320207238197 -0.022435756400227547 0.0017991065979003906
   vertex 0.020954310894012451 -0.028671139851212502 0.0017991065979003906
   vertex 0.020954310894012451 -0.025553448125720024 -0.0036008935421705246
  endloop
 endfacet
 facet normal -0 0 1
  outer loop
   vertex -0.023745689541101456 -0.022435756400227547 0.0017991065979003906
   vertex -0.02394568920135498 -0.022435756400227547 0.0017991065979003906
   vertex -0.023745689541101456 -0.028671139851212502 0.0017991065979003906
  endloop
 endfacet
 facet normal 0 0 1
  outer loop
   vertex -0.02394568920135498 -0.028671139851212502 0.0017991065979003906
   vertex -0.023745689541101456 -0.028671139851212502 0.0017991065979003906
   vertex -0.02394568920135498 -0.022435756400227547 0.0017991065979003906
  endloop
 endfacet
 facet normal 0 -0.86602539052065297 -0.50000002297355006
  outer loop
   vertex -0.02394568920135498 -0.028671139851212502 0.0017991065979003906
   vertex -0.02394568920135498 -0.025553448125720024 -0.0036008935421705246
   vertex -0.023745689541101456 -0.028671139851212502 0.0017991065979003906
  endloop
 endfacet
 facet normal 0 -0.86602539052065297 -0.50000002297355006
  outer loop
   vertex -0.023745689541101456 -0.025553448125720024 -0.0036008935421705246
   vertex -0.023745689541101456 -0.028671139851212502 0.0017991065979003906
   vertex -0.02394568920135498 -0.025553448125720024 -0.0036008935421705246
  endloop
 endfacet
 facet normal 0 0.86602539052065297 -0.50000002297355006
  outer loop
   vertex -0.02394568920135498 -0.025553448125720024 -0.0036008935421705246
   vertex -0.02394568920135498 -0.022435756400227547 0.0017991065979003906
   vertex -0.023745689541101456 -0.025553448125720024 -0.0036008935421705246
  endloop
 endfacet
 facet normal 0 0.86602539052065297 -0.50000002297355006
  outer loop
   vertex -0.023745689541101456 -0.022435756400227547 0.0017991065979003906
   vertex -0.023745689541101456 -0.025553448125720024 -0.0036008935421705246
   vertex -0.02394568920135498 -0.022435756400227547 0.0017991065979003906
  endloop
 endfacet
 facet normal -1 -0 0
  outer loop
   vertex -0.02394568920135498 -0.028671139851212502 0.0017991065979003906
   vertex -0.02394568920135498 -0.022435756400227547 0.0017991065979003906
   vertex -0.02394568920135498 -0.025553448125720024 -0.0036008935421705246
  endloop
 endfacet
 facet normal 1 -0 0
  outer loop
   vertex -0.023745689541101456 -0.022435756400227547 0.0017991065979003906
   vertex -0.023745689541101456 -0.028671139851212502 0.0017991065979003906
   vertex -0.023745689541101456 -0.025553448125720024 -0.0036008935421705246
  endloop
 endfacet
endsolid
